<svg xmlns="http://www.w3.org/2000/svg" xmlns:xlink="http://www.w3.org/1999/xlink" width="1030" height="202.876" viewBox="0 0 1030 202.876">
  <defs>
    <clipPath id="clip-path">
      <path id="Rect치ngulo_401268" data-name="Rect치ngulo 401268" d="M30,0H1030a0,0,0,0,1,0,0V172.876a30,30,0,0,1-30,30H0a0,0,0,0,1,0,0V30A30,30,0,0,1,30,0Z" fill="#567d56" stroke="#707070" stroke-width="1"/>
    </clipPath>
    <linearGradient id="linear-gradient" x1="0.787" y1="0.406" x2="0.352" y2="0.464" gradientUnits="objectBoundingBox">
      <stop offset="0" stop-color="#fdc6b8"/>
      <stop offset="1" stop-color="#fc7350"/>
    </linearGradient>
    <clipPath id="clip-path-2">
      <rect id="Rect치ngulo_401684" data-name="Rect치ngulo 401684" width="515" height="732" transform="translate(0 -0.445)" fill="#fc7350"/>
    </clipPath>
  </defs>
  <g id="fnd-3" transform="translate(11094.525 3653.754)">
    <g id="Enmascarar_grupo_1098728" data-name="Enmascarar grupo 1098728" transform="translate(-11094.525 -3653.754)" clip-path="url(#clip-path)">
      <path id="Recurso_1" data-name="Recurso 1" d="M0,0H1046.12V280.709H0Z" transform="translate(1046.12 216.912) rotate(180)" fill="url(#linear-gradient)"/>
      <g id="Grupo_1101892" data-name="Grupo 1101892" transform="translate(298.047 81.654)" opacity="0.37" style="mix-blend-mode: multiply;isolation: isolate">
        <g id="Grupo_1100390" data-name="Grupo 1100390" transform="translate(-171.996 -244)" clip-path="url(#clip-path-2)">
          <path id="Trazado_875812" data-name="Trazado 875812" d="M274.047,105.629a33.045,33.045,0,0,0-.616-8.681,9.118,9.118,0,0,0-3.91-5.513c-4.5-3.11-10.633-4.351-16.007-4.7a17.173,17.173,0,0,0-8.659,1.922c-2.962,1.446-5.732,3.263-8.947,4.124A11.681,11.681,0,0,1,226.8,91.8c-2.661-1.472-5.138-3.228-8.073-4.137-3.028-.939-6.26-.9-9.393-1.14-3.01-.232-6.369-.642-8.667-2.809-1.931-1.822-3.141-4.6-4.308-6.946-1.21-2.438-2.315-4.928-3.495-7.383-2.154-4.478-4.565-8.986-8.48-12.184-4.439-3.622-10.231-4.36-15.775-3.665-3.665.454-7.235,1.533-10.935,1.761a88.607,88.607,0,0,1-13.132-.647c-2.141-.2-4.277-.419-6.413-.655a40.831,40.831,0,0,0-5.553-.446c-3.368.1-6.566,1.249-9.7,2.381-3.172,1.145-6.715,2.543-10.153,2.28-3.22-.245-10.585-4.814-10.891-3.464-2.7-.415-5.146,1.118-7.23,2.73-.3.232-.59.472-.882.712-3.6,1.822-7.095,3.831-10.559,5.9-.1.057-.192.118-.293.175a48.516,48.516,0,0,0-7.794,2.979A51.061,51.061,0,0,0,66.2,73.629c-.384.328-.743.677-1.123,1.009-.882.472-1.756.957-2.656,1.4-.044.022-.052.127.013.1.743-.349,1.468-.734,2.206-1.1-2.608,2.328-5.138,4.74-7.689,7.125a1.3,1.3,0,0,0-.463,1.346c1.057,3,4.517,3.443,6.107,5.976a11.051,11.051,0,0,1,1.284,5.36,23.957,23.957,0,0,1-.585,6.553c-.882,3.941-2.372,7.746-2.883,11.769-.5,3.962.7,7.785.559,11.743a40.781,40.781,0,0,0,0,5.845,25.855,25.855,0,0,0,1.118,4.967,35.308,35.308,0,0,0,4.718,9.642,21.659,21.659,0,0,0,7.387,6.47,55.251,55.251,0,0,1,8.432,5.338c4.548,3.77,6.658,10.153,8.3,15.649,1.376,4.626,2.743,9.4,5.946,13.15,3.84,4.5,9.384,5.915,15.028,6.623,3.2.4,6.6.389,9.567,1.8,3.294,1.564,5.758,4.64,8.091,7.348a50.549,50.549,0,0,1,6.785,9.69,24.806,24.806,0,0,1,2.682,11.109c.17,7.178-3.342,13.9-5.461,20.589a35.35,35.35,0,0,0-1.372,11.359c.031,2.206.118,4.412-.009,6.614a38.866,38.866,0,0,1-1.149,6.369,36.792,36.792,0,0,0-1.136,11.28c.135,1.647.738,3.167.944,4.806a19.394,19.394,0,0,1,.07,4.211c-.564,5.828-2.787,11.516-2.534,17.422.2,4.417,2.626,9.27,6.959,10.965,3.01,1.175,5.671-.686,7.427-3.054,2.359-3.185,3.613-6.977,4.766-10.725A81.482,81.482,0,0,1,151.07,292.1a45.274,45.274,0,0,1,5.177-7.737c2.508-3.342,5.146-6.588,7.811-9.808,4.526-5.483,12.145-5.736,18.051-9.065,5.321-3,8.89-7.593,11.839-12.844,3.386-6.033,5.627-12.953,9.943-18.418,4.491-5.688,11.83-7.112,17.833-10.59a15.358,15.358,0,0,0,6.4-7.082c1.293-2.827,1.935-5.9,3.22-8.729a15.4,15.4,0,0,1,2.8-4.286,45.215,45.215,0,0,1,3.783-3.167c2.809-2.363,4.12-5.5,5.3-8.895,1.328-3.805,2.778-7.567,4.08-11.38a51.78,51.78,0,0,1,4.618-10.917c2.066-3.316,4.351-6.439,6.155-9.912,1.83-3.517,2.94-7.265,4.5-10.891,1.612-3.753,3.74-7.261,5.539-10.922a52.591,52.591,0,0,0,4.093-11.455c1.529-6.636,1.66-13.591,1.831-20.38m-4.233,22.953c-2.311,7.715-7.165,14.185-9.974,21.677a73.019,73.019,0,0,1-4.64,10.664c-1.918,3.386-4.377,6.479-6.059,9.991a103.763,103.763,0,0,0-4.028,10.664c-1.306,3.735-2.647,7.492-4.045,11.2a14.566,14.566,0,0,1-2.647,4.906,37.734,37.734,0,0,1-3.7,3.111,18.927,18.927,0,0,0-5.369,7.711c-1.149,2.87-1.778,5.976-3.307,8.689-1.761,3.137-4.688,4.832-7.85,6.317a98.537,98.537,0,0,0-9.476,4.587,22.4,22.4,0,0,0-6.837,6.431c-3.906,5.583-6.221,12.132-9.624,18.016a34.956,34.956,0,0,1-5.129,7.077,24.8,24.8,0,0,1-7.872,5.273c-3,1.324-6.225,2.023-9.248,3.285a19,19,0,0,0-7.676,6.086c-2.573,3.22-5.142,6.453-7.558,9.8a46.036,46.036,0,0,0-4.8,7.422c-1.459,3.176-2.219,6.627-3.421,9.9-1.3,3.565-2.687,7.422-4.893,10.533-1.761,2.486-4.133,3.5-6.854,1.739a11.943,11.943,0,0,1-4.613-5.566,18.107,18.107,0,0,1-.673-8.261c.577-5.662,2.6-11.245,2.494-16.968-.031-1.712-.354-3.4-.52-5.094a28.075,28.075,0,0,1,.087-5.841c.437-3.98,1.35-7.894,1.533-11.909.183-3.967-.17-7.955.341-11.909.5-3.888,2.088-7.584,3.456-11.232,2.3-6.147,4.871-12.866,3.434-19.5a27.647,27.647,0,0,0-4.5-9.751,91.346,91.346,0,0,0-7.064-9.012c-2.276-2.569-4.574-4.932-7.789-6.291a32.458,32.458,0,0,0-9-1.922c-5.631-.642-11.009-2.184-14.591-6.863-2.879-3.766-4.591-8.733-6.12-13.18-1.817-5.286-3.844-10.908-8.344-14.508-2.564-2.053-5.57-3.416-8.231-5.321a28.857,28.857,0,0,1-7.112-7.61,34.111,34.111,0,0,1-4.408-9.681,21.122,21.122,0,0,1-.791-5.745c.009-1.966.214-3.936.026-5.9-.183-1.909-.655-3.779-.773-5.692a22.345,22.345,0,0,1,.673-6.273c.874-3.871,2.2-7.636,2.6-11.6.319-3.115.459-6.868-1.131-9.685-1.311-2.324-4.242-3.11-5.487-5.391a134.277,134.277,0,0,1,12.5-11.136q3.8-2.09,7.553-4.255c1.761-.677,3.56-1.245,5.36-1.892A30.4,30.4,0,0,0,92.8,60.715c1.04-.848,2.162-1.857,3.373-2.713a15.607,15.607,0,0,1,3.63-1.346,8.852,8.852,0,0,1,4.915.66c2.857,1.1,5.535,2.7,8.689,2.7,3.276,0,6.431-1.158,9.48-2.245,3.167-1.136,6.426-2.324,9.838-2.28,1.992.022,3.993.389,5.968.607q3.093.341,6.195.6a86.208,86.208,0,0,0,12.56.485c3.639-.236,7.151-1.258,10.738-1.852,5.775-.952,11.455-.039,15.78,4.146,3.652,3.534,5.924,8.3,8.056,12.844,1.11,2.368,2.184,4.753,3.39,7.073s2.446,4.906,4.513,6.553c4.884,3.893,11.961,2.1,17.619,3.635,2.936.8,5.391,2.639,8.06,4.01a12.612,12.612,0,0,0,8.121,1.346,28.373,28.373,0,0,0,9.1-3.726c2.792-1.581,5.6-3.062,8.9-2.918a42.794,42.794,0,0,1,7.995,1.367,27.694,27.694,0,0,1,8.152,3.137A8.342,8.342,0,0,1,272,98.674a39.447,39.447,0,0,1,.328,8.82c-.31,7.112-.459,14.216-2.516,21.087" transform="translate(190.416 179.779)" fill="#fc7350"/>
          <path id="Trazado_875813" data-name="Trazado 875813" d="M92.661,89.468a7.078,7.078,0,0,0,1.027-3.22,14.738,14.738,0,0,0-.507-4.618,11.886,11.886,0,0,0-2.119-4.7c-1.28-1.63-3.438-2.543-5.3-3.342-2.071-.891-4.1-1.643-5.719-3.29-3.215-3.277-3.766-8.021-5.863-11.94-2.464-4.618-7.431-7.85-12.743-6.658a40.53,40.53,0,0,0-8.1,3.276c-1.311.62-2.634,1.228-3.989,1.752a10.727,10.727,0,0,0-3.1,1.761,5.551,5.551,0,0,0-2.01,5.5c.572,2.621,2.835,4.626,4.9,6.142a31.517,31.517,0,0,1,3.18,2.564c1,.957,1.883,2.014,2.875,2.975,1.992,1.944,4.683,2.949,6.758,4.8s3.827,4.041,6.029,5.758a23.111,23.111,0,0,0,6.942,3.683,30.464,30.464,0,0,0,3.831.948c1.433.28,2.848.6,4.281.891a9.438,9.438,0,0,0,3.761.253,12.547,12.547,0,0,0,2.154-.664,4.165,4.165,0,0,0,2.936-.992c.262-.017.917-.839.778-.887M80.634,90.639A26.989,26.989,0,0,1,67.065,83.9c-1.787-1.752-3.346-3.783-5.352-5.3-.97-.738-2.027-1.341-3.041-2.014a11.852,11.852,0,0,1-3-2.848,29.208,29.208,0,0,0-2.215-3.089,25.568,25.568,0,0,0-2.647-2.254c-1.94-1.512-4.037-3.145-4.792-5.6-.664-2.154,1.214-3.578,2.844-4.6a41.965,41.965,0,0,1,7.553-3.622,15.443,15.443,0,0,1,7.711-1.131A13.95,13.95,0,0,1,70.8,56.677c3.276,2.774,4.268,6.885,6.055,10.6a14.177,14.177,0,0,0,3.4,4.757,22.162,22.162,0,0,0,5.072,3.08,15.712,15.712,0,0,1,5.456,3.6,8.534,8.534,0,0,1,1.852,4.814,10.311,10.311,0,0,1-.5,4.823,2.8,2.8,0,0,1-.765,1.027,10.285,10.285,0,0,0-2.241.633c-.24-.013-1.337.149-1.481.459a15.361,15.361,0,0,1-7.016.17" transform="translate(148.926 173.546)" fill="#fc7350"/>
          <path id="Trazado_875814" data-name="Trazado 875814" d="M97.732,50.731a3.852,3.852,0,0,0-1.774-2.442,7.069,7.069,0,0,0-3.32-.647,54.121,54.121,0,0,0-7.523,1.145A18.78,18.78,0,0,1,75.076,47.38c-1.625-.638-3.2-1.415-4.867-1.948a35.081,35.081,0,0,0-5.3-1.284,22.786,22.786,0,0,0-9.869.266,9.389,9.389,0,0,0-6.7,7.553,17.091,17.091,0,0,0,2.045,10.5A15.058,15.058,0,0,0,52.411,65.4c2.923,4.22,9.567,3.477,13.656,1.525,2.866-1.367,5.553-3.119,8.676-3.831a14.184,14.184,0,0,1,4.985-.293c1.42.179,2.8.542,4.229.673,2.936.271,6.033.376,8.759-.935a8.916,8.916,0,0,0,4.329-4.91,10.3,10.3,0,0,0,.686-6.894m-3.456,9.362c-1.56,1.918-4.3,2-6.592,1.992-2.735-.017-5.452-.376-8.2-.376a22.221,22.221,0,0,0-4.238.376c-1.367.275-2.634.778-3.958,1.18-3.875,1.158-7.973,3.927-12.127,3.823-.022-.28-.341-.524-.8-.371.319-.109-.035,0-.131,0s-.218.009-.328,0A3.276,3.276,0,0,1,57.3,66.6a4.088,4.088,0,0,1-1.337-.651,10.138,10.138,0,0,1-2.512-2.835,19.694,19.694,0,0,1-2.984-8.318,1.449,1.449,0,0,1,.376-.66c.131-.127-.083-.232-.2-.144a1.992,1.992,0,0,0-.258.284l-.009-.083c-.218-2.853.467-5.981,3.132-7.5,1.861-1.062,4.539-1,6.588-.979a45.712,45.712,0,0,1,9.947,1.608c3.159.73,6.234,1.861,9.432,2.416a26.636,26.636,0,0,0,7.5-.179,17.789,17.789,0,0,1,6.627.087c1.962.564,2.586,2.442,2.621,4.312a9.634,9.634,0,0,1-1.953,6.138" transform="translate(162.615 147.566)" fill="#fc7350"/>
          <path id="Trazado_875815" data-name="Trazado 875815" d="M225.1,40.051c-.358-2.612-2.167-5.255-3.792-7.248a18.475,18.475,0,0,0-7.549-5.745c-2.966-1.14-6.173-1.573-9.087-2.87-5.81-2.591-10.742-6.793-16.719-9.091a53.992,53.992,0,0,0-17.986-3.635,69.309,69.309,0,0,0-18.383,2.32c-12.874,3.207-25.1,8.257-37.19,13.652-6.138,2.739-12.193,5.671-18.209,8.681-5.456,2.735-10.961,5.312-15.718,9.2A120.367,120.367,0,0,0,68.576,57.167c-1.948,2.114-3.919,4.216-6,6.2-2.158,2.058-4.469,3.919-6.815,5.754-4.613,3.613-9.078,7.344-12.267,12.328a93.016,93.016,0,0,0-4.937,9.288c-1.525,3.093-3.29,6.068-4.814,9.165s-3,6.212-4.277,9.419a43.028,43.028,0,0,0-2.578,9.637c-.5,3.32-.8,6.68-1.52,9.961a47.826,47.826,0,0,1-1.809,5.946c-1.595,4.425-3.46,8.764-4.7,13.311-1.114,4.08-1.8,8.532-.577,12.669a13.636,13.636,0,0,0,3.207,5.5,53.787,53.787,0,0,0,6.824,5.815,56.079,56.079,0,0,0,7.51,4.941,49.817,49.817,0,0,1,6.02,3.189,8.443,8.443,0,0,1,3.5,6.151c.236,2.079.074,4.176.153,6.26a9.036,9.036,0,0,0,1.363,5.059c1.293,1.774,3.609,2.473,5.7,2.634,5.159.406,10.6-3.106,15.5-.467a71.127,71.127,0,0,1,6.632,4.6,18.056,18.056,0,0,0,7.453,3.211,31,31,0,0,0,9.1-.214,78.041,78.041,0,0,0,8.689-1.634c2.73-.712,5.474-1.455,8.318-1.062,2.093.288,4.159.913,6.225,1.35a33.676,33.676,0,0,0,7.077.948c1.787,0,3.744-.332,4.867-1.865,1.206-1.647,1.149-3.962,1.411-5.893a17.837,17.837,0,0,1,1.8-6.269,8.431,8.431,0,0,1,4.076-3.783c2.189-1.044,4.552-1.717,6.605-3.045a8.691,8.691,0,0,0,3.919-4.989,11.515,11.515,0,0,0-.778-6.828,12.37,12.37,0,0,0-3.29-5.155,5.655,5.655,0,0,0-2.757-1.289,9.3,9.3,0,0,0-7.925.725c-2.905,1.542-5.33,3.775-8.523,4.775a10.438,10.438,0,0,1-7.549-.756,19.666,19.666,0,0,1-7.658-5.557c-1.826-2.342-3.154-5.588-2.416-8.584.817-3.316,4.443-5.352,7.143-7a39.742,39.742,0,0,0,8.7-7.239c4.137-4.631,6.439-11.878,12.237-14.744a.713.713,0,0,0,.848.052c2.315-1.066,4.8.7,6.566,2.079,2.176,1.7,4.259,3.451,6.509,5.059a40.836,40.836,0,0,1,4.072,3.172c1.232,1.145,2.39,2.359,3.574,3.552,1.573,1.586,3.591,3.207,5.963,3.137,2.613-.079,4.84-2.342,6.129-4.408a11.824,11.824,0,0,0,1.319-8.034A16.389,16.389,0,0,0,164,127.1c-1.162-1.708-2.77-3.11-3.665-4.993-1.18-2.473-.485-5.041.192-7.562a21.524,21.524,0,0,1,3.814-7.881,60.254,60.254,0,0,1,5.7-5.727c1.625-1.581,3.377-3.648,3.556-6a42.551,42.551,0,0,0-.738-8.733c-.367-2.774-.852-5.963.393-8.593.935-1.97,2.778-3.049,4.674-3.941,2-.935,4.08-1.73,5.985-2.844a16.837,16.837,0,0,0,5.688-5.57c1.494-2.337,2.529-4.932,3.932-7.326,1.359-2.32,2.923-3.958,5.6-4.591,2.329-.55,4.762-.489,7.108-.935a31.333,31.333,0,0,0,8.086-2.927,61.284,61.284,0,0,0,7.488-4.238c1.769-1.206,3.609-2.84,3.285-5.19m-2.621,2.525a19.766,19.766,0,0,1-3.329,2.377c-1.18.813-2.333,1.651-3.547,2.416a26.682,26.682,0,0,1-7.912,3.342,63.022,63.022,0,0,1-7.082.852,10.731,10.731,0,0,0-6.1,2.538c-1.922,1.774-3.163,4.216-4.4,6.479a27.4,27.4,0,0,1-4.43,6.61,18.767,18.767,0,0,1-5.863,3.491c-3.84,1.686-7.938,3.906-8.729,8.44-.472,2.722.131,5.408.725,8.06a14.476,14.476,0,0,1,.424,4.683,18.545,18.545,0,0,1-1.079,4.316c-.721,2.114-2.376,3.6-3.954,5.094a27.25,27.25,0,0,0-5.221,6.212,28.894,28.894,0,0,0-2.831,7.628c-.529,2.228-1.088,4.552-.275,6.785a22.839,22.839,0,0,0,3.071,4.867,18.818,18.818,0,0,1,2.774,6.754c.62,2.774.834,6.134-.948,8.549-1.546,2.1-3.962,3.154-6.422,2.066a14.008,14.008,0,0,1-3.228-2.2c-1.175-.974-2.42-1.861-3.683-2.722a82.963,82.963,0,0,1-7.789-5.981c-2.91-2.534-6.522-6.854-10.834-4.871a.924.924,0,0,0-.28.188,8.659,8.659,0,0,0-2.5.8,12.379,12.379,0,0,0-3.491,2.783c-2.145,2.359-3.613,5.277-5.4,7.9a47.5,47.5,0,0,1-8.523,9.38c-2.687,2.276-6.221,3.744-8.314,6.667-1.822,2.543-1.73,5.889-.769,8.742a15.526,15.526,0,0,0,5.378,7.829c2.6,1.8,5.631,3.464,8.838,3.731,3.027.253,5.88-1.223,8.257-2.953a31.249,31.249,0,0,1,4.915-3.329,8.513,8.513,0,0,1,5.609-.472,6.069,6.069,0,0,1,3.687,2.394c.415.581.76,1.206,1.166,1.791a4.58,4.58,0,0,0,1.236,1.3c.3.9.533,1.791.725,2.595.542,2.294.349,4.622-1.424,6.326-1.73,1.664-4.037,2.346-6.225,3.163a13.839,13.839,0,0,0-5.05,2.875,11.012,11.012,0,0,0-3.211,5.539c-.345,2.084.144,4.2-.17,6.269a6.106,6.106,0,0,1-.913,2.783,2.762,2.762,0,0,1-2.158.861c-4.259.28-8.379-1.673-12.468-2.534-5.356-1.123-10.476,1.11-15.662,2.119-5.841,1.136-12.031,2.2-17.492-.813-4.29-2.363-8.126-6.754-13.3-7.012-4.845-.245-10.1,3.215-14.744.5-3.4-1.988-2.538-7-2.765-10.3a10.8,10.8,0,0,0-1.983-6.107,13.98,13.98,0,0,0-4.867-3.569,55.977,55.977,0,0,1-6.54-3.56,72.967,72.967,0,0,1-7.151-6.195c-1.861-1.647-3.827-3.224-5.1-5.4a13.345,13.345,0,0,1-1.7-5.832c-.288-4.369.992-8.72,2.4-12.809,1.442-4.185,3.228-8.252,4.522-12.49,1.7-5.579,1.713-11.476,3.1-17.125,1.616-6.584,5.273-12.381,7.938-18.541,2.63-6.068,5.107-12.368,9.393-17.5,3.753-4.5,8.632-7.733,13.084-11.468A128.374,128.374,0,0,0,71.346,55.354,82.022,82.022,0,0,1,83.368,44.078,64.635,64.635,0,0,1,91.2,39.5q4.279-2.254,8.571-4.452a253.149,253.149,0,0,1,35.871-15.509,151.949,151.949,0,0,1,18.492-4.98,66.064,66.064,0,0,1,17.92-1.442,49.434,49.434,0,0,1,17.92,4.792c5.439,2.709,10.249,6.763,16.068,8.672,2.931.965,6.033,1.512,8.716,3.11a19.673,19.673,0,0,1,6.5,6.828c.913,1.533,2.761,4.408,1.21,6.051" transform="translate(59.715 38.781)" fill="#fc7350"/>
          <path id="Trazado_875816" data-name="Trazado 875816" d="M64.245,51.306a2.471,2.471,0,0,0-1.485-1.359,11.891,11.891,0,0,0-5.74-.485A18.157,18.157,0,0,0,53.7,50.1a5.107,5.107,0,0,0-2.438,1.407c-.179.214-.363.677-.022.861,1,.524,1.844,1.3,2.783,1.913a2.09,2.09,0,0,0,1.437.507,7.512,7.512,0,0,0,1.407,1.04,4.729,4.729,0,0,0,3.5.59,5.9,5.9,0,0,0,3.521-2.91,2.754,2.754,0,0,0,.349-2.206m-1.481,1.616a5.154,5.154,0,0,1-2.429,1.839,3.738,3.738,0,0,1-2.551-.69c-1.49-.861-3.115-2.259-4.893-2.5.188-.1.524-.271.764-.376a10.523,10.523,0,0,1,2.473-.673,12.887,12.887,0,0,1,5.33.149,2.657,2.657,0,0,1,1.512.9,1.138,1.138,0,0,1-.205,1.354" transform="translate(172.306 166.401)" fill="#fc7350"/>
          <path id="Trazado_875817" data-name="Trazado 875817" d="M71.344,44.614a2.986,2.986,0,0,0-1.948-.926,7.9,7.9,0,0,0-.965,0,13.443,13.443,0,0,0-4.836-.127,3.741,3.741,0,0,0-2.709,1.774,3.368,3.368,0,0,0,.345,3.788,6.6,6.6,0,0,0,3.438,1.7A8.39,8.39,0,0,0,68.246,51a5.962,5.962,0,0,0,3.508-2.2,3.224,3.224,0,0,0-.411-4.19m-.459,2.744c.044-.223-.013.031-.026.07a.886.886,0,0,1-.048.114l-.052.1c-.074.114-.14.236-.223.345a4,4,0,0,1-.555.585,4.282,4.282,0,0,1-1.525.8,6.075,6.075,0,0,1-3.115-.052,6.2,6.2,0,0,1-3-1.411,2.9,2.9,0,0,1-.223-.24,1.064,1.064,0,0,1-.166-.218,1.741,1.741,0,0,1-.135-.271c.066.175-.048-.319-.022-.092-.009-.066-.009-.131-.013-.2v-.017l0-.031a2.195,2.195,0,0,1,.039-.245l.066-.2c.013-.013.1-.179.122-.218l0-.009.079-.087c.026-.022.162-.14.183-.166a2.968,2.968,0,0,1,.524-.3A5.626,5.626,0,0,1,64.17,45.3a13.939,13.939,0,0,1,3.512.14c.529.074,1.048.175,1.577.262.192.026.393.074.585.087l.026-.009a2.645,2.645,0,0,1,.847.76,2.385,2.385,0,0,1,.118.21l.035.074a1.227,1.227,0,0,1,.035.135l.013.035V47c0,.057,0,.114,0,.17l-.009.022a1.063,1.063,0,0,0-.031.162" transform="translate(204.009 146.396)" fill="#fc7350"/>
          <path id="Trazado_875818" data-name="Trazado 875818" d="M50.552,2.033c.157-.017.079-.031,0,0" transform="translate(170.621 7.009)" fill="#fc7350"/>
          <path id="Trazado_875819" data-name="Trazado 875819" d="M512.537,246.647A238.063,238.063,0,0,0,246.521,39.188c-6.859.861-13.674,2.049-20.428,3.508a.724.724,0,0,0,.454-.481,6.206,6.206,0,0,0-.266-2.608c-.218-1.153-.485-2.3-.778-3.438-.079-.3-.175-.594-.253-.9,1.726-1.363,4.456-1.49,6.536-1.887a57.9,57.9,0,0,1,8.453-1.009c.944-.035,1.883-.048,2.822-.118a13.167,13.167,0,0,0,2.717-.328c2.184-.638,2.093-3.049,1.822-4.893a15.17,15.17,0,0,1-.384-2.861c.057-1.057.4-2.215-.319-3.132-.69-.891-2-1.018-3.036-1.153a34.992,34.992,0,0,1-4.072-.821,16.219,16.219,0,0,1-7.352-3.617c-1.7-1.651-2.923-3.726-4.5-5.483C226.6,8.476,224.6,6.279,222.38,6.611a16.708,16.708,0,0,0-2.206.529c-.214.048-.428.109-.638.175-.048.013-.092.031-.14.039a13.659,13.659,0,0,1-1.56.358,3.907,3.907,0,0,1-.979.087,18,18,0,0,0-3.373-5.221,9.614,9.614,0,0,0-7.4-2.564,14.041,14.041,0,0,0-8.877,3.862,10.385,10.385,0,0,0-3.2,8.541A16.223,16.223,0,0,0,194.482,15a.327.327,0,0,0-.083.3l0,.022-.013-.026c-.433-.585-4.906,2.2-6.771,2.726a94.256,94.256,0,0,0-9.139,3.25c-2.979,1.188-6.072,2.189-8.96,3.578-.791.38-1.564.791-2.337,1.206-4.452,1.844-8.855,3.805-13.145,6-6.754,3.447-13.32,7.335-19.847,11.2s-12.931,7.89-19.157,12.206A157.994,157.994,0,0,0,97.926,68.869c-1.752,1.616-3.425,3.307-5.081,5.011-.677.585-1.367,1.153-2.036,1.752A160.6,160.6,0,0,0,79.193,87.78C74.776,92.337,70.482,97,66.437,101.909c-4.688,5.684-9.1,11.612-13.237,17.706-1.9,2.8-3.726,5.644-5.684,8.405-1.918,2.7-3.892,5.369-5.8,8.082-3.735,5.317-7.449,10.9-9.563,17.095-.2.581-.363,1.175-.524,1.765-.507,1.1-1.009,2.193-1.494,3.3-4.421,10.1-8.711,20.332-12.18,30.8-1.765,5.339-3.25,10.76-4.661,16.2-.7,2.682-1.315,5.369-1.913,8.078-.568,2.569-1.468,5.006-2.272,7.505-.926,2.866-2.8,15.015-3.359,18.112-.275,1.5-.568,3-.856,4.508a.148.148,0,0,0-.162.14c.026.153.031.31.048.463-.638,3.285-2.215,12.608-2.433,13.98-.922,5.806-1.35,11.612-1.73,17.47a197.821,197.821,0,0,0,5.5,65.124,197.249,197.249,0,0,0,10.2,30.589c2.368,5.478,5.151,10.764,7.816,16.1C30.649,406.028,42.108,422.393,54.143,438c6.819,8.846,14.124,17.37,22.857,24.386,4.425,3.552,8.79,7.16,13.176,10.764s9.283,6.61,13.927,9.9a337.666,337.666,0,0,0,61.109,34.77c10.926,4.723,21.874,9.611,33.158,13.425,1.188.4,2.39.756,3.587,1.118a4.2,4.2,0,0,0,.708,1.621,11.57,11.57,0,0,1,1.18,1.761,10.881,10.881,0,0,1,.682,2.272c.162.7.384,1.376.6,2.053a25.625,25.625,0,0,1-.035,3.617c-.275,3.565-1.14,7.06-1.608,10.6-.109.861-.266,1.708-.389,2.564-.262,1.3-.537,2.595-.821,3.884-1.276,5.753-3.067,11.42-4.3,17.191a12.013,12.013,0,0,1-2.171,1.612c-1.547.869-3.185,1.612-4.05,3.255-2.045,3.875-1.835,8.632-2.831,12.813-.594,2.477-1.411,4.9-2.136,7.339-.467,1.581-.987,3.215-1.315,4.867q-8.375-.374-16.763-.227c-.363,0-.721,0-1.083,0-.891.022-1.782.074-2.674.109-3.713.122-7.431.293-11.14.59a141.029,141.029,0,0,0-32.214,6.068,58.372,58.372,0,0,0-14.832,7.1,28.6,28.6,0,0,0-6.029,5.679,18.463,18.463,0,0,0-1.59,2.512A62.847,62.847,0,0,0,87.3,636.728a36.117,36.117,0,0,0-7.051,7.366,22.99,22.99,0,0,0-3.993,9.76c-.1.629-.127,1.262-.162,1.9a40.323,40.323,0,0,0,1.114,8.58,36.118,36.118,0,0,0,4.57,9.065,66.63,66.63,0,0,0,13.683,13.923,125.64,125.64,0,0,0,16,10.485c5.548,3.084,11.206,5.928,16.981,8.475,23.154,10.1,47.605,16.509,72.362,20.484,24.766,3.9,50.047,5.212,75.185,2.4,12.534-1.5,25.089-3.919,37.107-8.532a80.3,80.3,0,0,0,9.043-4.115,7.954,7.954,0,0,0,1.014-.564,58.068,58.068,0,0,0,7.064-4.609c.214-.175.419-.363.633-.542.411-.279.813-.576,1.236-.839a14.543,14.543,0,0,0,3.989-4.176,36.666,36.666,0,0,0,3.373-4.928,20.431,20.431,0,0,0,1.87-11.437c-.017-.149-.057-.293-.079-.441a23.749,23.749,0,0,0-1-4.753,32.1,32.1,0,0,0-2.6-5.911c-.166-.336-.332-.673-.511-1a37.1,37.1,0,0,0-3.9-5.872c-1.415-1.726-2.7-3.617-4.727-4.661-.148-.149-.293-.3-.441-.441a17.445,17.445,0,0,0-.983-4.272,28.156,28.156,0,0,0-4.006-7.13,59.2,59.2,0,0,0-11.948-11.153c-8.864-6.413-18.715-11.324-28.789-15.531a253.694,253.694,0,0,0-30.633-10.227c.38-3.316-.061-6.916.275-10.026.481-4.443,2.564-8.632,2.639-13.136a8.438,8.438,0,0,0-.376-3.045,7.547,7.547,0,0,0-2.123-2.765,17.952,17.952,0,0,1-3.228-3.7,25.236,25.236,0,0,1-1.643-3.211c.184-4.565.192-9.139.668-13.691.511-4.919,1.507-9.79,2.193-14.692.044-.315.074-.629.114-.948q.819-3.106,1.643-6.212a19.785,19.785,0,0,1,1.118-3.259c.127-.267.214-.537.328-.8.2-.135.393-.275.6-.4.585-.345,1.132-.642,1.734-.931,4.4.131,8.82.24,13.215.214,1.551-.009,3.093-.079,4.631-.179,2.569-.061,5.138-.192,7.706-.419,5.714-.507,11.468-.446,17.173-.979,5.544-.515,11-1.725,16.535-2.28a47.472,47.472,0,0,1,7.933-.572,9.191,9.191,0,0,0,3.036-.092,2.1,2.1,0,0,0,.266-.122,6.022,6.022,0,0,0,2.647,2.831,3.454,3.454,0,0,0,1.463.978,6.883,6.883,0,0,0,1.616.341,11.127,11.127,0,0,0,6.868-.568,9.408,9.408,0,0,0,4.98-4.019,11.078,11.078,0,0,0,.712-6.885,71.872,71.872,0,0,0-1.616-7.112c-.909-3.4-2.123-6.693-3.062-10.078-.389-1.4-.668-2.835-1.127-4.22-.118-.358-.253-.73-.406-1.1a239.612,239.612,0,0,0,174.314-260.3m-32.564-86.67a236.084,236.084,0,0,1,21.983,53.931c-.039-.009-.074-.026-.109-.031-.319-.057-.747.467-.354.647a4.194,4.194,0,0,1,.738.446l.118.467c-.957.485-2.219.048-3.189-.363a20.955,20.955,0,0,1-4.8-3.062c-1.4-1.118-2.678-2.385-4.142-3.434-1.289-.926-2.656-1.73-3.989-2.591a13.216,13.216,0,0,1-3.036-2.368c-1.193-1.415-1.035-3.119-1.009-4.854a15.908,15.908,0,0,0-.983-6.391c-1.485-3.661-4.565-6.457-7.527-8.951-3.185-2.678-7.182-5.321-8.816-9.331a9.28,9.28,0,0,1,.192-7.1c.791-1.913,2.005-3.783,2.416-5.832.415-2.071-.546-4.2-1.7-5.871-.821-1.2-1.848-2.2-2.7-3.373-.834-1.145-1.643-2.311-2.5-3.434a24.089,24.089,0,0,0-5.5-5.448c-1.734-1.2-3.9-2.32-4.941-4.238-1.215-2.232-1.215-5.129-1.42-7.606-.245-2.94-.3-5.9-.271-8.855.017-1.839.358-3.622.454-5.452v-.017a236.374,236.374,0,0,1,31.07,43.11M245.6,28.494c.009.131.022.293.035.45a1.313,1.313,0,0,0-.66.406,1.423,1.423,0,0,1-1.306.647c-.73.066-1.468.083-2.2.153-2.031.183-4.067.367-6.094.6-3.578.424-7.414.922-10.756,2.359-.183-.612-.371-1.219-.555-1.83,3.242-1.581,7.165-1.6,10.681-2.145,2.158-.336,4.351-.459,6.527-.633,1.018-.083,2.04-.153,3.058-.245.406-.039.826-.061,1.232-.127.013.122.031.24.039.363M218.046,9.9a5.8,5.8,0,0,0,1.686-.577c.258-.118.511-.245.769-.358.109-.048.227-.092.341-.14h0l-.017,0a2.964,2.964,0,0,0,.376-.1,5.88,5.88,0,0,1,1.4-.205c.223,0,.446.052.668.07a2.057,2.057,0,0,0,.494-.031c.127.109.245.227.367.341a.213.213,0,0,0,.218.017c.183.153.363.306.529.454a63.906,63.906,0,0,1,4.434,5.046,20.416,20.416,0,0,0,5.736,4.015,32.432,32.432,0,0,0,7.606,2.761c.935.2,2.573.188,2.8,1.367a22.764,22.764,0,0,1-.157,2.971c.031.559.1,1.11.162,1.664-.542.074-1.088.2-1.595.249-1.053.114-2.1.245-3.15.376-2.114.266-4.229.585-6.33.944-3.451.594-7.243.647-10.362,2.4-.14-.45-.271-.9-.411-1.35-1.193-3.753-2.315-7.492-3.263-11.315a72.776,72.776,0,0,0-2.525-8.379c-.026-.074-.061-.149-.087-.223a2.438,2.438,0,0,0,.31,0M197.037,6.834a11.065,11.065,0,0,1,6.907-4.714c2.586-.682,5.583-.979,7.767.826,2.075,1.713,3.351,4.325,4.369,6.758a59.828,59.828,0,0,1,2.634,8.191c.957,3.7,2.005,7.339,3.233,10.965.76,2.25,1.52,4.5,2.154,6.789.315,1.131.607,2.276.852,3.425a13.01,13.01,0,0,1,.542,3.255l-.009.035a.322.322,0,0,0,.214.354l0,0a.573.573,0,0,0,.21.013c-.625.135-1.245.293-1.87.432a23.29,23.29,0,0,0-1.245-4.207c-.6-1.664-1.263-3.3-1.8-4.993-1.127-3.578-2.049-7.226-3.014-10.847-1.4-5.229-2.512-10.568-5.207-15.325-1.18-2.075-3.3-3.884-5.788-3.858-.227,0-.52.441-.2.511,4.788,1,7.073,5.994,8.388,10.227.826,2.652,1.442,5.365,2.114,8.056.869,3.491,1.8,6.959,2.717,10.437.489,1.865.987,3.713,1.595,5.544.516,1.56.913,3.137,1.35,4.709-2.853.664-5.7,1.367-8.523,2.132a34.86,34.86,0,0,0-1.9-3.788c-.73-1.367-1.459-2.739-2.167-4.12q-2.11-4.135-4.172-8.3a106.97,106.97,0,0,1-6.418-14.993c-.9-2.813-.961-5.863,1.494-7.9.066-.057.052-.245-.048-.17-3.941,2.883-2.63,8.978-1.14,12.835a163.711,163.711,0,0,0,8.266,17.151c.882,1.673,1.747,3.355,2.608,5.041.769,1.5,1.407,3.084,2.171,4.583-.577.162-1.162.3-1.739.463a27.374,27.374,0,0,0-2.167-4.919c-.992-1.874-2.04-3.713-3.106-5.539l-.1-.166a.334.334,0,0,0-.118-.214c-1.852-3.18-3.609-6.383-5.221-9.694a55.7,55.7,0,0,1-3.967-9.8c-.813-3.019-1.359-6.356.319-9.192M118.6,463.07c-6.116-4.4-12.407-8.523-18.348-13.154-1.346-1.214-2.674-2.451-3.971-3.713-2.538-2.477-4.919-5.1-7.357-7.671-1.166-1.228-2.3-2.486-3.447-3.726-5.452-6.632-15.644-19.275-19.353-25.12q-3.014-4.751-5.828-9.624c-.529-1.083-1.066-2.167-1.621-3.242-1.673-3.228-3.394-6.435-4.976-9.712-1.656-3.438-3.023-6.964-4.334-10.546-2.722-7.453-5.705-14.866-8-22.468a155.607,155.607,0,0,1-4.5-21.952c-1.123-7.444-2.508-14.81-3.971-22.193-1-6.693-1.852-12.512-2.162-14.408a118.033,118.033,0,0,1-1.686-14.862c-.166-4.823.031-9.65.332-14.465a216.339,216.339,0,0,1,3.333-28.868c1.931-9.746,4.543-19.353,6.767-29.034C40.705,203,41.9,197.687,43.13,192.384a.416.416,0,0,0,.118-.31c0-.079.013-.166.013-.249.205-.882.419-1.765.633-2.647.066-.175.131-.35.192-.516.467-1.311,1-2.595,1.472-3.906.454-1.276.782-2.591,1.149-3.9.577-1.437,1.171-2.866,1.774-4.3,1.577-3.735,3.128-7.449,4.875-11.114a107.186,107.186,0,0,1,5.7-10.668c1.044-1.678,2.128-3.329,3.08-5.059.45-.826.878-1.66,1.306-2.494,1.21-1.686,2.446-3.359,3.661-5.041,2.315-3.207,4.294-6.605,6.518-9.869,4.609-6.754,10.332-12.682,15.906-18.637,2.8-2.993,5.64-5.963,8.558-8.842s5.985-5.6,8.973-8.41c2.831-2.656,5.636-5.33,8.563-7.877,2.944-2.564,6.064-4.854,9.244-7.117,6.439-4.583,12.818-9.257,19.4-13.635a142.489,142.489,0,0,1,20.624-11.822c7.291-3.255,15.024-5.352,22.363-8.484a87.26,87.26,0,0,1,10.576-4.19c2.4-.673,4.945-1.053,7.165-2.254.1-.057.2-.131.3-.192a5.078,5.078,0,0,0,1.678-.651l.057-.022c.1.166.2.336.293.511,1.092,1.953,2.045,4.006,3.2,5.928a238.9,238.9,0,0,0,93.611,467.066c4.722-.572,9.419-1.319,14.1-2.184.249.795.537,1.577.778,2.372l.035.144c-1.4.14-2.818.467-4.181.743-1.538.315-3.067.655-4.6.987-1.228.267-2.46.5-3.692.708-4.124.332-8.257.542-12.376.607-4.456.07-8.886.018-13.337.253a113.382,113.382,0,0,1-13.455.223c-4.653-.3-9.305-1.031-13.923-1.669-4.679-.647-9.349-1.35-14.01-2.079-9.279-1.45-18.611-2.761-27.846-4.452a142.145,142.145,0,0,1-25.325-7.466c-4.115-1.581-8.191-3.268-12.258-4.963-4.207-1.752-8.475-3.394-12.555-5.426-3.967-1.975-7.785-4.22-11.594-6.479-3.726-2.211-7.575-4.264-11.2-6.64-7.047-4.618-13.25-10.38-20.087-15.295m4.474,4.845c-.223-.166-.446-.332-.668-.494q-3.657-2.687-7.274-5.422c2.355,1.656,4.7,3.338,6.964,5.124.328.262.651.529.979.791M87.454,79.384q-2.87,2.91-5.749,5.815c-.564.572-1.114,1.149-1.673,1.721q3.578-3.906,7.422-7.536M98.38,649.567c-.162,2.018-.293,3.98-.642,5.976-.376,2.18-.743,4.377-.913,6.579-.048.629-.127,1.258-.166,1.874a7.437,7.437,0,0,1-.843-2.114,31.481,31.481,0,0,1-.4-8.475c.205-3.062.743-6.142,1.254-9.165.293-1.73.533-3.447.716-5.19,0-.057.009-.109.017-.166a17.451,17.451,0,0,0,.965,4.072,22.024,22.024,0,0,0,.944,2.154,14.336,14.336,0,0,0-.935,4.456m7.549,4.408a63.851,63.851,0,0,0,8.6,7.243q1.75,1.239,3.556,2.4a20.184,20.184,0,0,1-.638,5.111c-.4,1.76-.743,3.508-1.014,5.295q-.478,3.152-.979,6.3c-.153.957-.358,1.9-.5,2.866a9.709,9.709,0,0,0-.131,1.166q-1.638-1.081-3.242-2.228a61.574,61.574,0,0,1-8.825-7.641,106.981,106.981,0,0,1,1.415-11.594,46.378,46.378,0,0,1,1.249-5.155,10.445,10.445,0,0,0,.511-3.766m52.253,27.968c8.816,2.936,17.8,5.387,26.867,7.444a15.613,15.613,0,0,1-.616,3.578c-.284,1.892-.594,3.783-.979,5.653s-.8,3.753-1.158,5.64a42.543,42.543,0,0,1-1.079,5.435c-9.069-2.005-18.047-4.4-26.872-7.283.62-3.718,1.446-7.4,2.132-11.109.332-1.778.738-3.552,1.114-5.321a13.541,13.541,0,0,0,.59-4.037m27.073,7.488q10.583,2.4,21.293,4.1c2.294.363,4.6.686,6.894,1a89.586,89.586,0,0,0-1.315,10.223c-.236,3.4-.647,6.736-1.21,10.091-2.5-.314-4.993-.647-7.483-1.018q-10.963-1.671-21.817-4.05c.507-3.975,1.236-7.925,2.106-11.839.424-1.909.786-3.827,1.162-5.749a8.5,8.5,0,0,0,.371-2.761m82.707,16.356c-.533,3.753-.974,7.505-1.708,11.223q-12.411.721-24.844.284c.232-1.743.149-3.539.249-5.29.122-2.189.393-4.369.651-6.544.227-1.883.192-3.814.516-5.679A6.345,6.345,0,0,0,243,697.1a243.651,243.651,0,0,0,26.129-.494,20.217,20.217,0,0,1-.511,4.028c-.275,1.708-.411,3.438-.651,5.151m1.42-9.2c.834-.065,1.664-.1,2.495-.175,4.976-.463,9.947-1.088,14.875-1.944,0,.166.031.35.035.524.017,1.013.031,2.023-.009,3.032-.079,1.861-.253,3.718-.467,5.566-.432,3.77-.839,7.545-1.267,11.315-5.47.935-11,1.56-16.518,1.979-.511.035-1.018.052-1.525.083.192-1.887.253-3.783.454-5.666.205-1.922.511-3.831.782-5.745.258-1.822.406-3.67.743-5.474a15,15,0,0,0,.4-3.495m-27.3,9.742c-.393,3.648-.743,7.3-1.228,10.939-1.647-.061-3.3-.1-4.945-.2q-12.208-.662-24.364-2.141c.437-3.421.738-6.846,1-10.279.262-3.368,1.04-6.706,1.249-10.07,9.55,1.285,19.165,2.154,28.8,2.5a19.616,19.616,0,0,1-.2,3.277c-.087,2-.1,3.975-.315,5.972M157.2,686.57c-.293,1.761-.716,3.495-1.022,5.251-.616,3.508-1.621,6.946-2.2,10.463-4.583-1.507-9.13-3.124-13.621-4.9q-4.79-1.92-9.471-4.111a11.153,11.153,0,0,1,.463-4.15c.389-1.713.668-3.447.987-5.173q1.035-5.557,1.769-11.153c.013-.092-.162-.061-.175.017-.668,3.844-1.193,7.7-2.005,11.52-.384,1.809-.778,3.613-1.214,5.413a10.693,10.693,0,0,0-.428,3.237,126.96,126.96,0,0,1-14.862-8.239,18.391,18.391,0,0,1,.17-2.333c.162-.939.31-1.874.45-2.818.315-2.158.651-4.316.987-6.474.258-1.673.66-3.316.987-4.976a11.032,11.032,0,0,0,.236-4.421c3.338,2.149,6.793,4.111,10.319,5.928,4.858,2.49,9.812,4.792,14.862,6.867,4.81,1.953,9.685,3.731,14.6,5.374a28.1,28.1,0,0,1-.839,4.679m-52.4-28.064a39.369,39.369,0,0,0-1.079,4.971c-.336,2.027-.712,4.05-.97,6.09-.175,1.407-.446,2.892-.52,4.347-.45-.489-.917-.97-1.35-1.477a23.5,23.5,0,0,1-1.568-2.844c-.467-1.031-.765-2.114-1.236-3.137a36.452,36.452,0,0,0,.214-4.53,54.878,54.878,0,0,1,.009-6.4c.17-1.839.319-3.67.428-5.513a19.076,19.076,0,0,1,.734-4.639,31.813,31.813,0,0,0,3.006,4.753c.987,1.236,2.049,2.407,3.145,3.539a12.613,12.613,0,0,1-.813,4.84m230.044,18.047a47.108,47.108,0,0,1,4.823,11.459,20.557,20.557,0,0,1-.642,11.122,18.638,18.638,0,0,1-2.888,5.295c-1.158,1.625-2.25,3.491-3.923,4.635-1.734,1.193-3.338,2.551-5.076,3.731-1.542,1.049-3.124,2.058-4.648,3.137-3.08,1.664-36.491,14.085-81.209,12.643-12.5-.4-27.645-2.612-40.017-4.447-24.7-3.757-49.388-8.654-72.563-18.5-11.546-4.972-22.787-10.983-32.848-18.9-5.015-3.949-9.187-9.157-12.953-14.517a34.05,34.05,0,0,1-4.434-8.654,20.725,20.725,0,0,1-.537-9.746c.524-3.368,1.175-6.348,3.11-9.056a34.949,34.949,0,0,1,6.881-7.042,60.117,60.117,0,0,1,10.4-6.243,14.918,14.918,0,0,0-.913,3.272,10.966,10.966,0,0,0-.1,1.136,16.815,16.815,0,0,0-.5,1.979c-.341,1.686-.773,3.346-1.153,5.02-.738,3.268-1.4,6.6-1.844,9.917-.052.4-.083.8-.122,1.193a17.29,17.29,0,0,0-.3,2.722,16.523,16.523,0,0,0,.175,2.578c.044.83.114,1.656.218,2.473a9.2,9.2,0,0,0,1.328,3.906c.813,1.254,1.721,2.438,2.451,3.744a30.226,30.226,0,0,0,6.024,7.453c.14.131,5.085,3.919,7.658,5.736,1.193.848,2.407,1.66,3.635,2.451a2.014,2.014,0,0,0,.1.363c.07.175.288.066.38-.066,3.22,2.049,6.54,3.936,9.93,5.684,1.673.856,3.364,1.686,5.059,2.495a.182.182,0,0,0,.188.092c3.167,1.512,6.369,2.949,9.615,4.281,20.244,8.222,41.563,13.569,63.118,17.02,21.559,3.386,43.538,4.749,65.329,2.879a147.286,147.286,0,0,0,30.283-5.622,1.349,1.349,0,0,0,0,.135c0,.183.3.07.3-.079,0-.048,0-.1,0-.144a19,19,0,0,0,3.246-1.083c1.367-.5,2.77-.9,4.128-1.415a35.426,35.426,0,0,0,7.436-3.989,32.95,32.95,0,0,0,6.632-5.513,13.13,13.13,0,0,0,1.214-1.7c.083-.131.179-.249.258-.384a8.05,8.05,0,0,0,.655-1.42,18.011,18.011,0,0,0,.83-2.455,89.236,89.236,0,0,0,2.39-9.8l.013-.022c.013-.022,0-.035,0-.052.031-.192.057-.376.079-.537.446-3.434,1.07-6.859,1.381-10.3.048-.494.1-.983.157-1.477a13.759,13.759,0,0,0,.4-1.778,14.3,14.3,0,0,0,.144-2.591c2.062,3.115,4.884,5.732,6.706,9m-7.667-2.8c-.363,3.167-1,6.308-1.472,9.458-.083.564-.166,1.127-.253,1.691A7.1,7.1,0,0,0,325,686.5a33.411,33.411,0,0,1-1.158,4.085c-.821,2.543-1.236,5.312-2.77,7.562a19.47,19.47,0,0,1-3.159,3.525,43.251,43.251,0,0,0,.878-4.434c.393-1.813.874-3.6,1.223-5.426a44.517,44.517,0,0,0,.747-5.264c.118-1.739-.118-3.665.655-5.282.07-.144-.092-.227-.162-.083a9.552,9.552,0,0,0-.734,4.185,38.674,38.674,0,0,1-.581,5.212c-.328,1.944-.8,3.858-1.245,5.78-.432,1.857-.472,3.892-1.188,5.657-.874.76-1.787,1.49-2.73,2.193a40.115,40.115,0,0,1-5.12,3.259c.66-3.272.979-6.631,1.525-9.921a42.833,42.833,0,0,0,1.009-9.484c0-.07-.1-.022-.1.031.079,3.355-.673,6.654-1.206,9.947-.511,3.167-1.123,6.369-1.468,9.558q-.931.485-1.892.9c-1.494.651-3.049,1.118-4.583,1.651-1.263.437-2.5.913-3.77,1.324.1-2.543,1.044-5.015.9-7.584,0-.044-.07-.018-.07.018.1,2.617-1,5.072-1.123,7.662-.131.044-.258.1-.389.131a.293.293,0,0,0-.17.205,120.174,120.174,0,0,1-13.106,2.971c.673-3.609.852-7.331,1.284-10.974.205-1.747.45-3.491.559-5.247.052-.808.079-1.616.074-2.425a13.061,13.061,0,0,0-.052-1.372,3.554,3.554,0,0,1-.079-.428,124.07,124.07,0,0,0,14.609-3.469c.467,1.328-.236,2.844-.467,4.155-.315,1.791-.4,3.63-.638,5.435-.009.052.092.031.1-.017.17-1,.328-2.018.472-3.027.127-.9.166-1.813.349-2.7.245-1.219.764-2.647.28-3.871.76-.232,1.525-.454,2.276-.7a59.3,59.3,0,0,0,14.744-7.051,28.291,28.291,0,0,0,5.963-5.592,17.12,17.12,0,0,0,2.577-4.744c-.035.31-.079.612-.109.917m-75.94-53.285c5.251,1.743,10.769,2.647,16.09,4.137,2.717.765,5.43,1.5,8.156,2.241.743.2,1.49.4,2.228.62.965.358,1.931.708,2.892,1.079.065.026.131.052.2.074.406.157.813.3,1.214.454,10.083,4.059,19.965,8.785,28.894,15.024a56.48,56.48,0,0,1,11.979,10.983,27.9,27.9,0,0,1,4.023,7.042,17.127,17.127,0,0,1,.957,4.211l-.052.266c.035.035.07.074.109.109l.009.074c-.009-.1-.031-.017-.061.179l0,.044c-.135.992-.419,4.465-.5,5.172a16.768,16.768,0,0,1-2.809,5.282,27.993,27.993,0,0,1-5.946,5.518,56.441,56.441,0,0,1-14.727,6.885c-10.389,3.276-21.236,4.823-32.07,5.649a267.324,267.324,0,0,1-32.621.188c-10.86-.585-21.7-1.643-32.472-3.246-21.511-3.276-42.817-8.423-63.079-16.448a135.961,135.961,0,0,1-28.776-15.251A57.466,57.466,0,0,1,103,649.711a30.169,30.169,0,0,1-3.22-5.282l.009-.031c.017-.039-.009-.061-.048-.066-.245-.533-.476-1.07-.682-1.625a14.933,14.933,0,0,1,2.372-15.041,27.588,27.588,0,0,1,5.88-5.43,57.215,57.215,0,0,1,14.635-6.833,129.364,129.364,0,0,1,23.809-4.941c3.18-.1,6.361-.267,9.541-.437,3.569-.192,7.13-.428,10.708-.511s7.134.057,10.7.262a45.527,45.527,0,0,1,4.889.323,10.16,10.16,0,0,0,3.608.2,9.577,9.577,0,0,0,.2,2.036c-.026.227-.057.454-.1.682a23.488,23.488,0,0,0-1.359,4.631c-.367,1.166-.738,2.333-1.075,3.508-.424,1.494-.834,3-1.258,4.5-.83,2.189-1.7,4.355-2.5,6.557a45.036,45.036,0,0,0-1.957,6.02,16.457,16.457,0,0,0-.275,5.662,15,15,0,0,0,2.3,5.7,28.733,28.733,0,0,0,7.615,7.728,39.263,39.263,0,0,0,9.135,4.884,53.934,53.934,0,0,1-6.409-2.385,25.635,25.635,0,0,1-4.443-2.792c-1.332-.961-2.77-1.8-4-2.888-1.249-1.1-2.412-2.381-3.565-3.587a12.349,12.349,0,0,1-2.835-4.369c-.022-.07-.17-.009-.153.057.682,2.971,2.717,4.958,4.644,7.191a22.076,22.076,0,0,0,3.906,3.39c1.341.979,2.6,2.062,3.993,2.971a37.518,37.518,0,0,0,9.655,4.12c3.46,1.04,16.465,2.586,18.357,2.848a78.738,78.738,0,0,0,11.372.961,51.228,51.228,0,0,0,5.609-.445c1.712-.205,3.447-.363,5.146-.655a20.115,20.115,0,0,0,7.549-2.861,20.39,20.39,0,0,0,6.448-6.636c.035-.061-.026-.175-.087-.1a20.126,20.126,0,0,1-5.885,5.483,22.972,22.972,0,0,1-7.619,2.691c-.328.057-.655.087-.987.131q1.114-.223,2.219-.481a15.826,15.826,0,0,0,3.753-1.21,12.042,12.042,0,0,0,5.107-5.1,17.036,17.036,0,0,0,1.577-4.456,8.8,8.8,0,0,0,.166-2.246c-.013-.21-.035-.428-.061-.646,0-.061.013-.122.017-.179.1-3.027-.323-6.112-.481-9.135a66.252,66.252,0,0,1,.323-9.982c.3-2.971.716-5.915.891-8.886a9.9,9.9,0,0,0,1.1-2.538m-6.894-29.235c-.288,1.918-.437,4.107-2.1,5.352a20.7,20.7,0,0,1-2.11,1.542,4.316,4.316,0,0,1-1.175.446,3.386,3.386,0,0,0-.507.122c-.371.14-.293.192-.642-.009-.446-.254-1.232.419-.769.821.3.266.415.585.69.839a1.459,1.459,0,0,0,1.118.267,3.433,3.433,0,0,0,.481-.074,8.677,8.677,0,0,0,6.487-3.312,5.22,5.22,0,0,0,1.442-2.189,10.967,10.967,0,0,0,.4-3.989c-.1-2.246-.3-4.487-.376-6.737a12.811,12.811,0,0,0,2.311,3.936c.354.4.73.786,1.1,1.175.288.769.817,1.424,1.11,2.215.467,1.267-.205,2.529-.848,3.613a17.682,17.682,0,0,1-5.181,5.286,24.808,24.808,0,0,1-7.3,3.674c-1.38.4-2.813.625-4.211.944-1.354.306-2.757.467-4.093.839-.039.013-.052.1,0,.087,1.555-.349,3.176-.384,4.744-.695a35.1,35.1,0,0,0,4.779-1.11,30.209,30.209,0,0,0,7.711-4.229,17.641,17.641,0,0,0,5.229-5.884,4.726,4.726,0,0,0,.38-1.031c.022.118.057.232.074.354a22.655,22.655,0,0,1-.384,6.068c-.306,2.058-.747,4.08-1.136,6.125a55.967,55.967,0,0,0-.66,7.6c-.153,2.831-.284,5.81-1.538,8.414a10.829,10.829,0,0,1-4.854,4.465,46.857,46.857,0,0,1-6.3,2.752c-6.308,2.328-12.883,2.1-19.309.376-.2-.057-.542.271-.271.376a30.312,30.312,0,0,0,17.453.839,47.651,47.651,0,0,0,6.959-2.281,17.2,17.2,0,0,0,6.077-3.866c.114-.122.21-.253.315-.38-.371,2.141-.69,4.3-.944,6.461a18.388,18.388,0,0,1-1.529,1.105,17.786,17.786,0,0,1-2.027.826c-1.516.581-3.028,1.171-4.583,1.629a31.73,31.73,0,0,1-4.587,1.018,14.585,14.585,0,0,0-3.617.555c-.026.013-.022.074.013.061a16.671,16.671,0,0,1,4.2-.481,24.362,24.362,0,0,0,4.674-.944c1.35-.415,2.669-.922,3.993-1.415a13.643,13.643,0,0,0,3.355-1.5,66.529,66.529,0,0,0-.428,7.96c.061,5.26.983,10.725-.638,15.836a13.862,13.862,0,0,1-1.682,3.233,9.922,9.922,0,0,1-3.8,3.054,10.343,10.343,0,0,0,.677-1.393,31.567,31.567,0,0,0,1.52-6.077c.433-2.442.813-4.9,1.175-7.352a30.963,30.963,0,0,0,.258-9.523c-.039-.253-.328-.074-.306.122.529,5.347-.716,10.817-1.595,16.068a24.424,24.424,0,0,1-1.424,5.422,9.443,9.443,0,0,1-1.276,2.307,7.863,7.863,0,0,1-1.616,1.271.619.619,0,0,0-.162.2c-.3.087-.594.175-.9.253a81.432,81.432,0,0,1-10.415,1.638c-1.8.24-3.6.5-5.4.725-.655.083-1.315.135-1.975.192a82.718,82.718,0,0,1-8.283-.432c-7.9-.856-15.788-2.512-22.595-6.785-.974-.612-1.944-1.28-2.875-2-.585-.812-1.241-1.568-1.9-2.324a.26.26,0,0,0-.044-.2c-2.787-3.74-1.708-8.475-1.214-12.77a54.069,54.069,0,0,1,1.678-9.331c.76-2.542,1.962-5.186,1.813-7.894-.013-.2-.258-.017-.258.122.044,2.433-1.018,4.81-1.726,7.095a81.337,81.337,0,0,0-1.717,8.113c-.695,3.477-1.721,6.911-1.42,10.5-.074-.17-.157-.336-.232-.507a21.755,21.755,0,0,1-2-8.392c-.061-3.285,1.236-6.238,2.28-9.288,1.092-3.215,1.826-6.566,2.626-9.86.441-1.835.952-3.692,1.228-5.557.07-.481.157-.987.236-1.5a16.478,16.478,0,0,0,4.163,5.644,36.9,36.9,0,0,0,6.046,4.395,21.49,21.49,0,0,0,7.117,2.984c.135.026.17-.223.048-.262a32.222,32.222,0,0,1-6.413-2.931,31.42,31.42,0,0,1-5.247-4.242c-2.63-2.56-5.627-5.788-5.561-9.707,0-.144.026-.3.044-.446a1.3,1.3,0,0,0,.157-.385c.044.118.079.236.131.35a9.909,9.909,0,0,0,1.874,2.468c.891.979,1.839,1.909,2.735,2.888a13.446,13.446,0,0,0,2.7,2.495c.048.026.07-.066.035-.092a18.284,18.284,0,0,1-2.512-2.49c-.808-.9-1.686-1.73-2.486-2.634a11.472,11.472,0,0,1-1.691-2.595,5.485,5.485,0,0,1-.463-1.359,7.124,7.124,0,0,1-.1-1.18c.319-1.359.751-2.708,1.131-3.98.638-2.162,1.324-4.307,1.9-6.487,1.053-4.05.97-8.4,2.468-12.333A5.171,5.171,0,0,1,194,581.709c.813-.568,1.712-1,2.543-1.547a10.748,10.748,0,0,0,1.153-.909c-.214,1.1-.415,2.2-.581,3.307-.481,3.276-.97,6.9.214,10.1.035.1.092.179.131.275a5.064,5.064,0,0,0,.323.655,6.48,6.48,0,0,0,2.944,2.564c2.595,2.324,6.2,3.5,9.541,4.443a69.571,69.571,0,0,0,9.961,2.215,22.774,22.774,0,0,0,9.655-.432c.284-.087.293-.481-.052-.424-5.754.952-11.642,0-17.151-1.774a41.88,41.88,0,0,1-5.788-2.263c.341-2.04.843-4.032,1.166-6.081.384-2.433,1.136-4.788,1.651-7.2.446-2.075.7-4.172,1.075-6.26a14.249,14.249,0,0,0,.481-5.2c-.009-.052-.122-.022-.118.026.21,1.809-.433,3.6-.778,5.356-.45,2.3-.716,4.631-1.258,6.916-.529,2.241-1.1,4.465-1.542,6.728a18.168,18.168,0,0,1-.987,3.115,10.306,10.306,0,0,0-.664,2.08c-.083-.048-.162-.1-.245-.149a.307.307,0,0,0-.079-.179A8.4,8.4,0,0,0,203.4,595.5a17.151,17.151,0,0,0,.922-3.674c.315-1.752.511-3.521.743-5.286.511-3.923,1.276-7.811,1.935-11.712a98.23,98.23,0,0,0,1.411-12.066,103.265,103.265,0,0,1,1.394-11.922c.581-3.608,1.3-7.361.625-11.013-.013-.061-.083-.035-.07.022.585,3.355-.017,6.811-.564,10.135-.612,3.709-1.258,7.422-1.608,11.171-.363,3.932-.839,7.8-1.56,11.686-.734,3.949-1.581,7.872-2.224,11.835-.3,1.839-.507,3.692-.813,5.531-.262,1.6-.738,3.124-1.127,4.679a10.992,10.992,0,0,1-1.769-2.171c-1.306-2.193-1.249-4.644-.826-7.073q.911-5.223,2.141-10.38a185.246,185.246,0,0,0,4.032-19.93c.227-1.8.428-3.608.647-5.413a56.344,56.344,0,0,0,.992-6.238,23.9,23.9,0,0,0,.057-3.954,29.576,29.576,0,0,0,.3-4.81l-.017-.266c.044-.166.079-.332.131-.5,8.34,2.189,16.846,3.748,25.36,5.12,2.481.4,4.976.725,7.475,1.014a21.063,21.063,0,0,0-.166,2.765c-.07,1.656-.179,3.3-.28,4.958-.2,3.215-.349,6.435-.5,9.65-.153,3.29-.432,6.575-.564,9.864-.1,2.446.891,5.308-.293,7.6-.026.052.066.052.092.009,1.105-2.01.529-4.6.511-6.784-.031-3.228.432-6.509.607-9.738.2-3.552.367-7.1.716-10.646.153-1.529.319-3.049.437-4.583.052-.725.1-1.455.205-2.176.039-.275.1-.55.166-.826,1.236.135,2.473.284,3.709.384l.044.026,0,.109a1.768,1.768,0,0,0-.035.358c-.031.223-.074.446-.109.673-.114.791-.223,1.581-.336,2.372-.249,1.743-.293,3.508-.419,5.264-.253,3.574-.642,7.134-.961,10.7-.62,6.99-1.11,14.006-1.193,21.022-.039,3.2-1.145,6.348-.6,9.55.013.061.127.031.122-.031-.3-3.259.944-6.457.961-9.711.022-3.74.223-7.479.467-11.21.5-7.571,1.455-15.089,2.193-22.634.188-1.926.494-3.844.834-5.749a6.067,6.067,0,0,0,.114-.651c1.315.1,2.639.166,3.962.21a7.5,7.5,0,0,0-.931,2.088,32.961,32.961,0,0,0-1.258,5.3c-.306,2.39-.428,4.8-.7,7.186s-.651,4.779-1.014,7.16a137.587,137.587,0,0,0-1.389,14.242,140.039,140.039,0,0,1-1.044,14.189m79.924-57.286c-1.149.166-2.311.218-3.469.275-2.586.118-5.124.555-7.689.883-.677.083-1.35.157-2.027.236-.009-.127-.087-.218-.306-.157-.494.14-1,.253-1.5.367-4.417.489-8.851.913-13.233,1.616-.476.052-.952.1-1.424.157-5.723.7-11.4,1.747-17.13,2.355-1.337.144-2.669.231-4,.3-1.909.083-3.818.114-5.727.131q-2.562-.007-5.138-.083c-1.525-.092-3.049-.223-4.578-.328a25.182,25.182,0,0,0-5.413.061c-3.517-.1-7.029-.258-10.546-.651v-.009c-.017-.328-.411-.214-.625-.052-5.845-.695-11.642-1.743-17.427-2.835-5.2-.983-10.38-2-15.5-3.346a.387.387,0,0,0-.267-.07c-.511-.135-1.022-.258-1.529-.4-1.171-.328-2.333-.686-3.491-1.049-.052-.017-.1-.052-.153-.065a.425.425,0,0,0-.074,0c-10.162-3.18-19.921-7.422-29.729-11.56a314.294,314.294,0,0,1-31.721-15.015c-10.092-5.653-20.231-11.4-29.716-18.038-4.618-3.237-9.157-6.584-13.827-9.742-4.648-3.145-8.781-6.78-13.1-10.349-4.408-3.643-9.056-7.007-13.15-11.018A157.041,157.041,0,0,1,60.7,443.4c-6.872-8.327-13.25-17.108-19.309-26.042C37.106,411.039,28.4,393.6,26.184,388.9c-2.333-4.967-4.806-9.877-7.068-14.88A196.5,196.5,0,0,1,8.5,343.342a213.8,213.8,0,0,1-5.906-31.6c-.581-5.369-.992-10.773-1.1-16.177-.114-5.775.1-11.551.393-17.322.328-6.378,1.826-22.6,2.079-24.346.856-4.259,8.8-41.629,9.393-44.158,1.254-5.347,2.757-10.668,4.351-15.919,3.189-10.515,7.492-20.624,11.813-30.712a183.024,183.024,0,0,1,14.823-28.3c2.241-3.434,4.561-6.815,6.876-10.2.157-.223.319-.437.476-.66A259.946,259.946,0,0,1,79.582,89.781c5.417-5.5,10.887-10.965,16.343-16.43a114.5,114.5,0,0,1,10.791-9.414c3.495-2.516,13.084-9.1,20.34-14.058,7.724-4.836,15.644-9.366,23.6-13.8a172.886,172.886,0,0,1,19.869-9.283c3.346-1.337,6.706-2.595,10.157-3.639,3.355-1.014,6.741-1.922,10.026-3.137a50.186,50.186,0,0,0,4.688-1.979c.607,1.586,1.332,3.128,2.066,4.631,1.887,3.844,3.954,7.641,6.059,11.372.376.66.756,1.315,1.131,1.975-3.346,1.673-6.837,3.01-10.275,4.473-4.01,1.708-8.1,3.228-12.154,4.81-4.08,1.586-8.086,3.29-12.023,5.194-1.975.957-4.015,1.734-6.011,2.634-1.865.834-3.574,1.962-5.36,2.944-3.53,1.944-7.553,3.006-10.625,5.714-.035.031-.009.109.035.07,2.883-2.446,6.588-3.508,9.917-5.181,1.734-.874,3.355-1.957,5.089-2.835,1.874-.944,3.875-1.638,5.788-2.5,3.989-1.8,7.938-3.6,12.031-5.164,3.958-1.512,7.955-2.931,11.891-4.508,2.241-.9,4.513-1.713,6.732-2.656,1.123-.476,2.215-1,3.359-1.433a21.449,21.449,0,0,0,2.01-.848q.5.865,1,1.739c-2.481.363-4.771,1.761-7.086,2.626-1.682.629-3.408,1.14-5.085,1.782s-3.333,1.376-4.985,2.093-3.2,1.581-4.827,2.311c-1.612.721-3.263,1.341-4.862,2.088-1.219.564-2.42,1.136-3.657,1.647l-2.8,1.009a23.59,23.59,0,0,0-2.63.961c-.944.354-1.883.716-2.813,1.1-14.583,5.941-27.348,15.675-40.043,24.792-3.1,2.228-6.278,4.369-9.248,6.771-3.054,2.468-5.937,5.138-8.794,7.824-5.968,5.614-11.979,11.136-17.623,17.081-4.657,4.906-9.375,9.816-13.687,15.046a45.646,45.646,0,0,0-5.068,6c-2.473,3.1-5,6.164-7.431,9.3-2.394,3.08-3.858,6.723-5.933,10.009a115.332,115.332,0,0,0-6.134,10.354c-1.791,3.626-3.578,7.291-5.12,11.031-1.533,3.713-3.176,7.4-4.565,11.175-2.853,7.763-4.535,15.937-6.557,23.94-1.123,4.46-2.154,8.925-3.027,13.438-.432,2.224-.856,4.447-1.249,6.675-.2,1.145-.4,2.294-.607,3.438-.087.467-.127,1-.2,1.529l-.223.979c-.083.253-.428,1.105-.245,1.2q-1.4,6.782-2.224,13.67c-.581,4.875-.821,9.781-1.162,14.674-.336,4.814-.625,9.642-.616,14.469.009,1.7.079,3.381.179,5.068.026,1.4.039,2.8.153,4.194.162,1.957.345,3.914.564,5.863q.668,5.911,1.586,11.8c.393,2.543.8,5.081,1.21,7.619.3,3.041.607,5.85.874,7.309.153.83.293,1.656.437,2.486a13.967,13.967,0,0,0,.476,3.027c.013.039.044.052.07.074.188,1.079.389,2.158.581,3.237a213.933,213.933,0,0,0,3.674,21.673c1.839,7.632,4.736,14.976,7.435,22.333,1.354,3.691,2.617,7.431,4.111,11.066,1.407,3.425,3.045,6.75,4.744,10.044,1.682,3.25,3.416,6.479,5.015,9.773a94.958,94.958,0,0,0,4.9,9.013c7.3,11.7,16.924,21.852,26.719,31.472a180.6,180.6,0,0,0,16.854,14.631c5.976,4.574,23.731,16.286,23.482,15.823.511.4,1.014.821,1.525,1.219,6.946,5.4,14.692,9.7,22.311,14.054,7.767,4.443,16.037,7.737,24.307,11.127a190.415,190.415,0,0,0,25.308,8.764c9.034,2.285,18.388,3.364,27.584,4.84,9.493,1.52,18.991,3.01,28.527,4.194a92.145,92.145,0,0,0,13.39.861c2.294-.052,4.587-.183,6.876-.306,2.757.306,5.483.524,8.274.559a97.292,97.292,0,0,0,19.869-1.4c.839-.162,1.673-.332,2.512-.5,1.118-.1,2.232-.2,3.346-.315,1.752-.179,3.482-.432,5.216-.695.122.524.245,1.044.363,1.568.655,2.975,1.389,5.924,2.259,8.842.511,1.726,1.105,3.425,1.747,5.1-9.729,1.975-19.812,2.075-29.663,3.014-5.592.537-11.149,1.1-16.771,1.223-5.539.127-11.083-.017-16.614-.358-11.153-.686-22.28-2.11-33.311-3.9a248.03,248.03,0,0,1-32.568-7.746c-3-.917-5.994-1.857-8.96-2.888-2.621-.909-5.177-2.01-7.8-2.9-2.193-.743-4.417-1.381-6.579-2.206a16.167,16.167,0,0,1-6.142-3.552c-.035-.031-.122.013-.087.052,2.669,2.914,6.894,4.063,10.524,5.247,4.788,1.555,9.428,3.512,14.224,5.05a256.378,256.378,0,0,0,32.8,8.366c11.022,1.983,22.206,3.451,33.368,4.347a185.171,185.171,0,0,0,33.232-.044c11.476-1.145,23.053-1.56,34.434-3.477.223.572.428,1.149.664,1.717-.17.039-.345.092-.516.114m13.884-21.869c.878,2.8,2.049,5.5,2.905,8.3,1.3,4.233,2.538,8.868,1.979,13.329-.258,2.031-1.079,3.757-3.067,4.565a11.2,11.2,0,0,1-5.758.751,5.566,5.566,0,0,1-4.513-3.058,89.25,89.25,0,0,1-3.277-8.536c-1.118-3.355-2.014-6.758-3.263-10.065-.542-1.424-1.123-2.818-1.739-4.207a17.551,17.551,0,0,1-.839-2.084c.668-.131,1.328-.288,2-.424.179.463.371.917.555,1.354.682,1.638,1.4,3.246,1.992,4.919,1.057,3.014,1.6,6.147,2.827,9.109.022.044.135.017.122-.031-.944-3.019-1.258-6.208-2.232-9.227-.511-1.577-1.057-3.132-1.512-4.727-.153-.546-.3-1.11-.459-1.673,3.307-.7,6.6-1.455,9.869-2.289v0a15.9,15.9,0,0,1,.865,2.049c.38,1.044.76,2.071,1.215,3.08q1.278,2.87,2.385,5.81a37.182,37.182,0,0,1,2.014,7.068,13.25,13.25,0,0,1-.223,6.627c-.917,2.5-3.163,3.648-5.675,4.037-.052,0-.057.114,0,.109a6.448,6.448,0,0,0,5.365-2.87,10.133,10.133,0,0,0,1.07-5.928,39.985,39.985,0,0,0-1.6-7.623c-.633-2.328-1.49-4.583-2.337-6.837a36.855,36.855,0,0,1-1.206-3.652c-.183-.695-.345-1.468-.6-2.189.463-.118.931-.223,1.389-.345a25.27,25.27,0,0,1,1.752,4.648m163.1-173.606a235.4,235.4,0,1,1-53.835-223.234c0,.28-.009.555-.031.826-.148,1.787-.6,3.534-.764,5.317a60.611,60.611,0,0,0-.092,8.589,43.016,43.016,0,0,0,.38,4.439,13.643,13.643,0,0,0,.913,3.805,11.941,11.941,0,0,0,4.526,4.513,24.017,24.017,0,0,1,5.919,4.941,30.463,30.463,0,0,1,2.481,3.766c.328.564.638,1.136.957,1.708.363.651.59,1.35.926,2.005,1.066,2.071,2.577,3.77,2.5,6.238-.074,2.18-1.193,4.054-1.953,6.037a11.968,11.968,0,0,0-.782,7.252c1.14,4.434,5.413,7.16,8.9,9.694,3.329,2.411,6.885,4.779,8.353,8.825a17.156,17.156,0,0,1,.682,6.627c-.061,1.752-.013,3.473,1.149,4.893,1.778,2.18,4.583,3.421,6.846,5.015,1.581,1.11,3.006,2.429,4.583,3.552a28.306,28.306,0,0,0,5.015,2.944,5.978,5.978,0,0,0,4.6.459c.048-.022.087-.052.14-.074a233.695,233.695,0,0,1-1.415,121.864" transform="translate(0.33 0.221)" fill="#fc7350"/>
          <path id="Trazado_875820" data-name="Trazado 875820" d="M53.747,138.863c-.59,0-1.175-.079-1.761-.127a8.673,8.673,0,0,0-1.782.009c-.066.009-.114.153-.031.149.585-.009,1.175.061,1.761.109a9.351,9.351,0,0,0,1.782.013c.07-.009.114-.153.031-.153" transform="translate(169.195 467.436)" fill="#fc7350"/>
          <path id="Trazado_875821" data-name="Trazado 875821" d="M59.066,146.5a41.8,41.8,0,0,0-5.12-.5c-1.656-.14-3.464-.057-5.015-.734-.083-.035-.14.114-.07.153a12.271,12.271,0,0,0,4.81.917c1.787.157,3.582.1,5.369.288.057,0,.087-.109.026-.122" transform="translate(164.819 489.552)" fill="#fc7350"/>
          <path id="Trazado_875822" data-name="Trazado 875822" d="M82.426,15.117a107.847,107.847,0,0,0-14.111,9.432q-3.565,2.785-7.191,5.5c-2.1,1.573-4.491,2.739-6.474,4.478C46.131,42,37.206,49.337,30,58.131c-2.058,2.516-3.945,5.1-6.23,7.422a89.818,89.818,0,0,0-6.321,7.422c-.118.153.035.533.214.332,1.9-2.176,3.63-4.5,5.609-6.61.974-1.04,1.992-2.018,2.905-3.119.878-1.057,1.7-2.162,2.538-3.255A104.685,104.685,0,0,1,40.343,47.808c4.137-3.862,8.449-7.532,12.669-11.306a39.752,39.752,0,0,1,3.333-2.844c1.088-.778,2.241-1.464,3.359-2.2,2.3-1.52,4.447-3.3,6.627-4.985A152.265,152.265,0,0,1,82.448,15.209c.039-.022.026-.122-.022-.092" transform="translate(58.975 51.128)" fill="#fc7350"/>
          <path id="Trazado_875823" data-name="Trazado 875823" d="M73.908,216.907c-5.094-5.793-10.546-11.258-15.544-17.138-2.451-2.879-4.779-5.858-7.134-8.816a75.112,75.112,0,0,1-6.588-9.5c-1.236-2.171-2.438-4.369-3.757-6.492-1.153-2.46-2.315-4.919-3.683-7.252-2.062-3.512-4.487-6.8-6.553-10.31-2.176-3.7-4.185-7.492-6.064-11.35A257.553,257.553,0,0,1,6.517,96.866c-1.079-4.238-2.446-8.4-3.508-12.639s-1.922-8.694-1.389-13.08c.009-.061-.079-.031-.087.017C.462,78.889,3.367,86.63,5.411,93.952,6.556,98.063,7.556,102.2,8.762,106.3q1.946,6.605,4.281,13.089C18.932,135.65,25.874,151.6,35.49,166.034a48.425,48.425,0,0,1,3.163,5.662c-.092-.127-.179-.258-.275-.384-.026-.035-.109.017-.079.061.232.306.428.629.647.944,2.551,5.325,9.139,15.159,9.017,15.006a48.235,48.235,0,0,1-6.055-10.2c.721,1.306,1.429,2.617,2.149,3.919a71.05,71.05,0,0,0,5.968,8.969c4.7,6.086,9.572,11.961,14.823,17.575,2.953,3.158,5.92,6.3,8.868,9.467.074.083.28-.052.192-.149" transform="translate(4.716 239.778)" fill="#fc7350"/>
          <path id="Trazado_875824" data-name="Trazado 875824" d="M96.471,20.839C93.836,23.512,89.953,24.4,86.353,24.9a33.055,33.055,0,0,0-5.12.673,14.272,14.272,0,0,0-4.989,2.647c-3.215,2.661-4.744,6.5-7.082,9.838a14.532,14.532,0,0,1-4.535,4.093,53.609,53.609,0,0,1-5.347,2.433c-1.437.62-2.944,1-3.984,2.263a6.506,6.506,0,0,0-1.271,2.494,8.47,8.47,0,0,0,.061,2.835c.035.411.507.349.6,0a17.481,17.481,0,0,1,1.014-2.35,7.33,7.33,0,0,1,.83-1.533A8.752,8.752,0,0,1,59.953,45.5c1.769-.8,3.547-1.6,5.334-2.368a10.843,10.843,0,0,0,4.465-3.246c2.429-3.089,3.77-6.994,6.754-9.646a14.648,14.648,0,0,1,4.923-2.787c1.708-.612,3.359-1.35,5.116-1.826,3.639-.992,7.352-1.756,9.987-4.692.048-.052.009-.17-.061-.1" transform="translate(181.958 70.347)" fill="#fc7350"/>
          <path id="Trazado_875825" data-name="Trazado 875825" d="M53.259,62.521a18.023,18.023,0,0,1-.446-6.252,14.725,14.725,0,0,1,1.564-5.705c.926-1.647,2.224-3.08,3.307-4.622q1.658-2.346,3.176-4.784c2.2-3.521,4.015-7.5,3.207-11.739-.035-.188-.293-.009-.275.131.485,4.019-1.022,7.9-3.276,11.166-2.176,3.154-5.373,5.487-7.444,8.689a12.1,12.1,0,0,0-1.922,5.282,16.36,16.36,0,0,0,.716,5.273c.874,3.871,2.289,7.58,3.18,11.442a30.507,30.507,0,0,1,1.022,6.828,10.454,10.454,0,0,1-.529,3.259,13.568,13.568,0,0,1-1.97,3.342.158.158,0,0,0,.232.214c2.822-2.564,3.18-7.1,2.586-10.638-.682-4.032-2.184-7.912-3.128-11.887" transform="translate(172.509 99.053)" fill="#fc7350"/>
          <path id="Trazado_875826" data-name="Trazado 875826" d="M66.9,15.574A27.462,27.462,0,0,1,61.073,13.5c-.057-.031-.144.079-.079.118,2.979,1.844,6.466,2.853,9.72,4.093,3.412,1.3,7.13,2.547,9.768,5.19a8.967,8.967,0,0,1,2.569,5.006c.048.253.4.074.419-.114.917-8.558-10.559-10.572-16.57-12.223" transform="translate(205.718 45.691)" fill="#fc7350"/>
          <path id="Trazado_875827" data-name="Trazado 875827" d="M67.274,17.44c.031-.218-.223-.192-.249,0a28.237,28.237,0,0,1-1.258,5.858c-.092.24.157.332.271.114a8.961,8.961,0,0,0,.83-2.883c.131-1.027.258-2.058.406-3.084" transform="translate(221.806 58.451)" fill="#fc7350"/>
          <path id="Trazado_875828" data-name="Trazado 875828" d="M59.728,67.943a40.954,40.954,0,0,1-6.282,4.015c-2.272,1.1-5.033,1.983-7.562,1.332A8.9,8.9,0,0,1,41.545,70.8a4.363,4.363,0,0,1-.987-3.255c.183-2.975,1.918-5.71,3.884-7.846a20.006,20.006,0,0,1,3.1-2.726,32.336,32.336,0,0,0,5.828-5.422,43.115,43.115,0,0,0,4.465-6.553c1.354-2.315,2.879-4.032,5.579-4.7.162-.039.284-.315.039-.284a7.737,7.737,0,0,0-5.155,3.159c-1.5,1.9-2.687,3.975-4.294,5.793a62.572,62.572,0,0,1-6.78,6.575,32.778,32.778,0,0,0-3.412,3.333,40.273,40.273,0,0,0-3.167,4.12,12.664,12.664,0,0,0-2.062,4.556,5.353,5.353,0,0,0,.8,4.142,6.543,6.543,0,0,0,4.644,2.368,16.254,16.254,0,0,0,8.558-1.11A29.56,29.56,0,0,0,59.959,68.2c.205-.17-.031-.406-.232-.258" transform="translate(129.899 135.007)" fill="#fc7350"/>
          <path id="Trazado_875829" data-name="Trazado 875829" d="M44.737,46.2a.131.131,0,0,0-.114-.022c-.236.079-.476.153-.712.232a.261.261,0,0,0-.183.21.127.127,0,0,0,.039.109.131.131,0,0,0,.114.022c.236-.079.476-.153.712-.232a.247.247,0,0,0,.122-.079.23.23,0,0,0,.061-.131.127.127,0,0,0-.039-.109" transform="translate(147.633 155.776)" fill="#fc7350"/>
          <path id="Trazado_875830" data-name="Trazado 875830" d="M51.233,52.107a14.315,14.315,0,0,0-1.756-2.245,18.153,18.153,0,0,0-4.522-3.346c-.044-.022-.1.052-.057.079a17.39,17.39,0,0,1,4.111,3.726,19.14,19.14,0,0,1,1.612,2.263,20.509,20.509,0,0,0,1.324,2.394c.149.188.45-.118.437-.288a6.175,6.175,0,0,0-1.149-2.582" transform="translate(151.522 156.902)" fill="#fc7350"/>
          <path id="Trazado_875831" data-name="Trazado 875831" d="M52.848,71.3c-2.433-1.612-5.557-1.337-8.261-.7-2.8.655-5.679,1.56-8.593,1.481A9.363,9.363,0,0,1,28.379,68.2c-1.629-2.324-2.25-5.194-2.87-7.92-.651-2.879-1.263-5.871-2.953-8.353-.044-.061-.109.057-.083.1,2.944,4.906,2.342,11.105,5.1,16.116a10.065,10.065,0,0,0,6.361,5.133c3.076.647,5.85-.585,8.724-1.468a23.535,23.535,0,0,1,4.775-1.044,9.931,9.931,0,0,1,5.225,1.044c.271.127.4-.38.192-.52" transform="translate(76.011 175.096)" fill="#fc7350"/>
          <path id="Trazado_875832" data-name="Trazado 875832" d="M66.515,59.157c-4.159-2.9-9.2-2.647-13.884-1.284s-9.3,3.281-14.272,3.18a12.808,12.808,0,0,1-7.715-2.809c-.039-.031-.074.057-.044.092a11.478,11.478,0,0,0,6.208,3.193,18.438,18.438,0,0,0,6.789-.437c4.775-1.048,9.428-2.809,14.355-3.093A16.617,16.617,0,0,1,66.3,59.594c.227.118.4-.3.214-.437" transform="translate(103.37 191.873)" fill="#fc7350"/>
          <path id="Trazado_875833" data-name="Trazado 875833" d="M40.127,57.576c-.035,0-.07.061-.026.07s.07-.066.026-.07" transform="translate(135.345 194.175)" fill="#fc7350"/>
          <path id="Trazado_875834" data-name="Trazado 875834" d="M91.46,78.935c-3.338.629-6.972-.109-10.236-.839A52.76,52.76,0,0,1,71,74.916a38.5,38.5,0,0,1-4.679-2.77,48.936,48.936,0,0,1-4.5-3.237c-3.019-2.46-5.6-5.408-8.772-7.693-2.752-1.983-5.893-5.548-9.62-5.142-.052.009-.144.118-.057.144a12.925,12.925,0,0,1,4.775,2.32c1.372,1.075,2.665,2.237,4.1,3.224a39.493,39.493,0,0,1,4.6,3.761c1.442,1.346,2.687,2.848,4.05,4.264a21.012,21.012,0,0,0,4.294,3.434,32.973,32.973,0,0,0,5.068,2.241,70.8,70.8,0,0,0,10.3,3.159c3.491.791,7.309,1.529,10.856.69.223-.052.354-.432.044-.376" transform="translate(146.291 189.007)" fill="#fc7350"/>
          <path id="Trazado_875835" data-name="Trazado 875835" d="M55.188,60.845c-.17-.026-.411.245-.183.28.17.026.415-.245.183-.28" transform="translate(185.307 205.183)" fill="#fc7350"/>
          <path id="Trazado_875836" data-name="Trazado 875836" d="M64.637,50.329a9.351,9.351,0,0,1-1.791,3.3,9.072,9.072,0,0,1-3.106,2.162,7.643,7.643,0,0,1-7.138.048c-.336-.188-.751.516-.467.743,2.307,1.852,5.426,1.612,7.912.21A12.351,12.351,0,0,0,63.291,53.9a7.454,7.454,0,0,0,1.756-3.6c.048-.328-.341-.188-.411.026" transform="translate(175.631 169.02)" fill="#fc7350"/>
          <path id="Trazado_875837" data-name="Trazado 875837" d="M55.529,50.66c-.022-.2-.057-.4-.07-.6a2.407,2.407,0,0,1-.026-.306c0-.039.017-.079.022-.122a.71.71,0,0,0-.009-.192.18.18,0,0,0-.28-.153.366.366,0,0,0-.192.389.782.782,0,0,0,.057.17c.017.031.044.057.057.083a1.227,1.227,0,0,1,.07.284,4.219,4.219,0,0,1,.092.572c.057.4.1.808.131,1.21.013.205.275.057.266-.1-.031-.415-.07-.826-.118-1.236" transform="translate(185.491 166.151)" fill="#fc7350"/>
          <path id="Trazado_875838" data-name="Trazado 875838" d="M55.23,48.858c-.074-.013-.109.14-.035.153s.109-.14.035-.153" transform="translate(186.122 164.804)" fill="#fc7350"/>
          <path id="Trazado_875839" data-name="Trazado 875839" d="M76.061,45.242c-.489.467-.856,1.035-1.367,1.485a8.185,8.185,0,0,1-1.813,1.193,9.128,9.128,0,0,1-4.185.926,22.118,22.118,0,0,1-4.1-.625,11.289,11.289,0,0,1-3.783-1.306c-.131-.083-.384.122-.245.24a9.261,9.261,0,0,0,3.543,2.075,12.4,12.4,0,0,0,4.8.188,13.721,13.721,0,0,0,4.46-1.21c1.118-.555,2.687-1.573,3.058-2.848.074-.249-.232-.24-.363-.118" transform="translate(204.215 152.347)" fill="#fc7350"/>
          <path id="Trazado_875840" data-name="Trazado 875840" d="M64.94,45.257a1.434,1.434,0,0,0-.577-1.166c-.157-.087-.35.192-.245.319a1.935,1.935,0,0,1,.577.965,2.7,2.7,0,0,1-.231,1.293c-.022.048-.013.127.052.14s.118-.052.144-.1a2.908,2.908,0,0,0,.28-1.446" transform="translate(216.223 148.693)" fill="#fc7350"/>
          <path id="Trazado_875841" data-name="Trazado 875841" d="M25.647,85.931a36,36,0,0,1-5.321-7.7,27.454,27.454,0,0,1-2.46-8.825,30.646,30.646,0,0,1,.227-9.393,81.235,81.235,0,0,1,3.049-10.594,43.414,43.414,0,0,0,2.586-11.428c0-.039-.066-.013-.07.017-.524,7.706-4.622,14.408-6.4,21.8a27.642,27.642,0,0,0-.668,9.506A27.147,27.147,0,0,0,19.247,77.8a27.864,27.864,0,0,0,6.042,8.466c.17.162.515-.162.358-.341" transform="translate(55.702 128.141)" fill="#fc7350"/>
          <path id="Trazado_875842" data-name="Trazado 875842" d="M68.317,122.2c-2.088-2.962-4.635-5.793-5.959-9.214-.747-1.922-1.158-3.971-1.87-5.915a41.377,41.377,0,0,1-1.87-5.876c-.437-2.123-.8-4.325-1.07-6.47a36.288,36.288,0,0,1-.363-6.916c.28-4.334,1.927-8.51,2.045-12.848.109-4.172-1.485-8.611.14-12.647.026-.066-.074-.052-.1-.009-1.782,3.377-.751,7.5-.594,11.114.192,4.377-1.258,8.676-1.935,12.971a53.11,53.11,0,0,0,.035,13.905,24.336,24.336,0,0,0,1.45,5.828c.73,1.97,1.739,3.809,2.556,5.74a30.043,30.043,0,0,0,2.971,5.557c1.254,1.8,2.7,3.421,4.124,5.081.14.166.572-.109.437-.3" transform="translate(189.98 209.973)" fill="#fc7350"/>
          <path id="Trazado_875843" data-name="Trazado 875843" d="M79.667,110.875a19.245,19.245,0,0,1-4.705-7.309,37.812,37.812,0,0,1-1.713-8.646c-.284-2.831-.332-5.836-1.346-8.528a10.676,10.676,0,0,0-4.443-5.461c-2.516-1.538-5.225-2.7-7.746-4.22-.092-.057-.21.127-.118.188,1.158.813,2.324,1.608,3.456,2.46a35.472,35.472,0,0,1,2.918,2.184,16.188,16.188,0,0,1,4.024,5.9c2.079,5.264,2.311,11.053,4.194,16.378,1.018,2.866,2.543,5.775,5.172,7.449.184.118.454-.245.306-.393" transform="translate(200.98 258.603)" fill="#fc7350"/>
          <path id="Trazado_875844" data-name="Trazado 875844" d="M65.866,86.031c-.3-.271-.594-.542-.891-.817-.074-.066-.266.039-.17.127.3.271.594.542.891.817.074.066.267-.039.17-.127" transform="translate(218.543 287.209)" fill="#fc7350"/>
          <path id="Trazado_875845" data-name="Trazado 875845" d="M86.978,91.627c-4.657-6.164-13.18-5.168-20-5.076-.039,0-.079.079-.022.079,6.859.044,14.749-.332,19.838,5.124.066.065.245-.048.184-.127" transform="translate(225.787 291.398)" fill="#fc7350"/>
          <path id="Trazado_875846" data-name="Trazado 875846" d="M76.368,94.221a10.159,10.159,0,0,0-1.455-2.656c-.585-.878-1.258-1.708-1.909-2.543-.048-.057-.127.044-.1.1.555.917,1.07,1.857,1.625,2.774a22.075,22.075,0,0,0,1.555,2.56c.122.153.319-.1.28-.232" transform="translate(245.908 300.049)" fill="#fc7350"/>
          <path id="Trazado_875847" data-name="Trazado 875847" d="M80.092,92.882c.031-.061-.048-.066-.074-.017-1.027,2.062-1.166,4.382-1.581,6.61a44.234,44.234,0,0,1-2.508,7.392,68.021,68.021,0,0,0-3.678,15.723c-.039.319.341.192.384-.039.507-2.674,1.136-5.317,1.734-7.968a77.619,77.619,0,0,1,2.093-7.933A47.249,47.249,0,0,0,78.58,99.88c.419-2.346.472-4.81,1.512-7" transform="translate(243.705 312.939)" fill="#fc7350"/>
          <path id="Trazado_875848" data-name="Trazado 875848" d="M73.955,112.952a18.547,18.547,0,0,0,.179-2.914,13.964,13.964,0,0,0-.494-2.787,35.4,35.4,0,0,1-.485-6.531c-.009-.192-.371-.122-.363.048a31.516,31.516,0,0,1-.009,6.19,23.756,23.756,0,0,0-.45,3.141,21.54,21.54,0,0,0,.149,2.953,57.745,57.745,0,0,1-.489,12.368c-.026.266.45.157.494-.061.8-4.1.957-8.27,1.468-12.407" transform="translate(242.847 339.124)" fill="#fc7350"/>
          <path id="Trazado_875849" data-name="Trazado 875849" d="M72.514,107.574c.013-.083-.083-.1-.1-.022a15.769,15.769,0,0,0-.446,5.068c.017.114.144.022.127-.07a15.444,15.444,0,0,1,.415-4.976" transform="translate(242.467 362.352)" fill="#fc7350"/>
          <path id="Trazado_875850" data-name="Trazado 875850" d="M103.658,103.374c-9.013,2.368-17.964,7.488-23.687,14.941-.044.061.009.149.066.079a32.43,32.43,0,0,1,11-8.654c4.155-2.053,8.5-3.7,12.625-5.8.188-.1.341-.66,0-.568" transform="translate(269.67 348.418)" fill="#fc7350"/>
          <path id="Trazado_875851" data-name="Trazado 875851" d="M99.651,97.967a37.855,37.855,0,0,0-2.377,5.531c-.751,1.769-1.581,3.5-2.5,5.194a31.106,31.106,0,0,1-7.92,9.38c-.066.052,0,.122.065.07a35.006,35.006,0,0,0,8.143-9.091,43.245,43.245,0,0,0,2.713-5.2c.415-.922.808-1.857,1.179-2.8A14.033,14.033,0,0,0,100,98.024c.031-.223-.253-.2-.345-.057" transform="translate(292.808 329.871)" fill="#fc7350"/>
          <path id="Trazado_875852" data-name="Trazado 875852" d="M119.19,89.572a29.874,29.874,0,0,1-8.694,14.845c-4.124,3.665-9.419,5.705-13.8,9.013a14.065,14.065,0,0,0-3.115,3.281,20.151,20.151,0,0,1-3.089,3.98c-.07.061-.017.175.07.1,2.254-1.826,3.692-4.452,6.037-6.164a85.715,85.715,0,0,1,8.239-4.832c4.53-2.573,9.126-5.159,11.319-10.157,1.42-3.228,3.023-6.61,3.447-10.144.035-.3-.367-.109-.411.074" transform="translate(305.042 301.185)" fill="#fc7350"/>
          <path id="Trazado_875853" data-name="Trazado 875853" d="M99.829,87.469a9.62,9.62,0,0,0-2.18,3.08c-.026.057.07.044.087,0a9.564,9.564,0,0,1,2.154-3.041c.048-.048-.022-.083-.061-.044" transform="translate(329.261 294.818)" fill="#fc7350"/>
          <path id="Trazado_875854" data-name="Trazado 875854" d="M103.108,85.508a24.617,24.617,0,0,1-1.97,3.4c-.747,1.048-1.564,2.045-2.359,3.058-.031.039.009.092.048.048,1.656-1.983,3.526-3.98,4.439-6.439.048-.14-.092-.2-.157-.07" transform="translate(333.042 288.024)" fill="#fc7350"/>
          <path id="Trazado_875855" data-name="Trazado 875855" d="M128.038,92.156c-1.3-1.913-1.621-4.386-1.765-6.645-.07-1.14-.057-2.272-.044-3.416a17.021,17.021,0,0,0-.131-3.5c-.965-4.775-7.034-5.138-10.808-6.278-4.788-1.446-9.6-5.553-9.939-10.83-.306-4.727,1.542-9.55,3.054-13.949a12.139,12.139,0,0,0,.686-6.981,10.225,10.225,0,0,0-5.055-6.217c-.363-.21-.8.472-.542.756a14.888,14.888,0,0,1,3.936,6.483,16.473,16.473,0,0,1,.087,6.068,64.178,64.178,0,0,1-1.852,6.7,23.513,23.513,0,0,0-.952,6.811,11.676,11.676,0,0,0,2.211,6.706c1.477,1.957,3.814,3.128,5.972,4.194a30.217,30.217,0,0,0,6.763,1.927,8.78,8.78,0,0,1,3.141,1.293,6.708,6.708,0,0,1,2.171,3.032,10.192,10.192,0,0,1,.834,3.748c.009,1.4-.21,2.761-.332,4.155-.21,2.455-.057,4.972,2.232,6.4.236.144.454-.28.332-.459" transform="translate(348.701 115.773)" fill="#fc7350"/>
          <path id="Trazado_875856" data-name="Trazado 875856" d="M105.646,36.314a7.07,7.07,0,0,1-.952-.961c-.144-.179-.275-.367-.428-.537s-.3-.345-.437-.524c-.271-.341-.529-.695-.778-1.053-.122-.175-.227-.358-.363-.529a4.149,4.149,0,0,0-.376-.489c-.188-.179-.406.074-.389.28a4.173,4.173,0,0,0,1.442,2.438c.166.153.341.315.52.463a3.814,3.814,0,0,0,.555.367c.384.227.765.463,1.153.686.07.039.1-.1.052-.14" transform="translate(343.671 108.558)" fill="#fc7350"/>
        </g>
      </g>
    </g>
  </g>
</svg>
