<svg xmlns="http://www.w3.org/2000/svg" xmlns:xlink="http://www.w3.org/1999/xlink" width="1030" height="136.929" viewBox="0 0 1030 136.929">
  <defs>
    <clipPath id="clip-path">
      <path id="Rect치ngulo_401268" data-name="Rect치ngulo 401268" d="M30,0H1030a0,0,0,0,1,0,0V106.929a30,30,0,0,1-30,30H0a0,0,0,0,1,0,0V30A30,30,0,0,1,30,0Z" transform="translate(0 8)" fill="#567d56" stroke="#707070" stroke-width="1"/>
    </clipPath>
    <linearGradient id="linear-gradient" x1="0.787" y1="0.406" x2="0.352" y2="0.464" gradientUnits="objectBoundingBox">
      <stop offset="0" stop-color="#e5f9ff"/>
      <stop offset="1" stop-color="#00c2ff"/>
    </linearGradient>
    <clipPath id="clip-path-2">
      <rect id="Rect치ngulo_401684" data-name="Rect치ngulo 401684" width="515" height="656.42" transform="translate(0 0)" fill="#00c2ff"/>
    </clipPath>
  </defs>
  <g id="img-12" transform="translate(2076.794 3544.827)">
    <g id="Enmascarar_grupo_1098728" data-name="Enmascarar grupo 1098728" transform="translate(-2076.794 -3552.827)" clip-path="url(#clip-path)">
      <path id="Recurso_1" data-name="Recurso 1" d="M0,0H1046.12V251.725H0Z" transform="translate(1046.12 194.515) rotate(180)" fill="url(#linear-gradient)"/>
      <g id="Grupo_1101892" data-name="Grupo 1101892" transform="translate(126.05 -145.983)" opacity="0.24" style="mix-blend-mode: multiply;isolation: isolate">
        <g id="Grupo_1100390" data-name="Grupo 1100390" transform="translate(0 0)" clip-path="url(#clip-path-2)">
          <path id="Trazado_875812" data-name="Trazado 875812" d="M274.047,100.226a26.65,26.65,0,0,0-.616-7.784,8.262,8.262,0,0,0-3.91-4.944c-4.5-2.789-10.633-3.9-16.007-4.211a18.829,18.829,0,0,0-8.659,1.724c-2.962,1.3-5.732,2.926-8.947,3.7a12.882,12.882,0,0,1-9.109-.881c-2.661-1.32-5.138-2.9-8.073-3.71-3.028-.842-6.26-.807-9.393-1.022-3.01-.208-6.369-.576-8.667-2.519-1.931-1.634-3.141-4.125-4.308-6.229-1.21-2.186-2.315-4.419-3.495-6.621-2.154-4.016-4.565-8.058-8.48-10.926-4.439-3.248-10.231-3.91-15.775-3.287-3.665.407-7.235,1.375-10.935,1.579a98.712,98.712,0,0,1-13.132-.58c-2.141-.176-4.277-.376-6.413-.588a45.436,45.436,0,0,0-5.553-.4,34.512,34.512,0,0,0-9.7,2.135c-3.172,1.026-6.715,2.28-10.153,2.045-3.22-.219-10.585-4.317-10.891-3.107-2.7-.372-5.146,1-7.23,2.448-.3.208-.59.423-.882.639-3.6,1.634-7.095,3.436-10.559,5.293-.1.051-.192.106-.293.157a52.073,52.073,0,0,0-7.794,2.672A51.327,51.327,0,0,0,66.2,71.53c-.384.294-.743.607-1.123.9-.882.423-1.756.858-2.656,1.258-.044.02-.052.114.013.086.743-.313,1.468-.658,2.206-.987-2.608,2.088-5.138,4.251-7.689,6.39a1.1,1.1,0,0,0-.463,1.207c1.057,2.687,4.517,3.087,6.107,5.359a9.094,9.094,0,0,1,1.284,4.807,19.343,19.343,0,0,1-.585,5.876c-.882,3.534-2.372,6.946-2.883,10.554-.5,3.553.7,6.981.559,10.53a32.8,32.8,0,0,0,0,5.242,21.17,21.17,0,0,0,1.118,4.454,30.443,30.443,0,0,0,4.718,8.646,21.124,21.124,0,0,0,7.387,5.8,56.5,56.5,0,0,1,8.432,4.787c4.548,3.381,6.658,9.1,8.3,14.033,1.376,4.149,2.743,8.431,5.946,11.792,3.84,4.031,9.384,5.3,15.028,5.939,3.2.357,6.6.349,9.567,1.614,3.294,1.4,5.758,4.16,8.091,6.589a45.64,45.64,0,0,1,6.785,8.689,20.408,20.408,0,0,1,2.682,9.962c.17,6.437-3.342,12.466-5.461,18.464a28.621,28.621,0,0,0-1.372,10.186c.031,1.978.118,3.957-.009,5.931a31.628,31.628,0,0,1-1.149,5.712,29.737,29.737,0,0,0-1.136,10.115c.135,1.477.738,2.84.944,4.309a15.609,15.609,0,0,1,.07,3.777c-.564,5.226-2.787,10.327-2.534,15.623.2,3.961,2.626,8.313,6.959,9.833,3.01,1.054,5.671-.615,7.427-2.738,2.359-2.856,3.613-6.256,4.766-9.618a68.112,68.112,0,0,1,3.552-9.21,40.6,40.6,0,0,1,5.177-6.938c2.508-3,5.146-5.908,7.811-8.795,4.526-4.917,12.145-5.144,18.051-8.129,5.321-2.687,8.89-6.809,11.839-11.518,3.386-5.41,5.627-11.616,9.943-16.516,4.491-5.1,11.83-6.378,17.833-9.5a14.435,14.435,0,0,0,6.4-6.35c1.293-2.535,1.935-5.289,3.22-7.827a13.766,13.766,0,0,1,2.8-3.843,44.439,44.439,0,0,1,3.783-2.84c2.809-2.119,4.12-4.932,5.3-7.976,1.328-3.412,2.778-6.785,4.08-10.205a43.991,43.991,0,0,1,4.618-9.79c2.066-2.973,4.351-5.774,6.155-8.889,1.83-3.154,2.94-6.515,4.5-9.767,1.612-3.365,3.74-6.511,5.539-9.794a44.078,44.078,0,0,0,4.093-10.272c1.529-5.951,1.66-12.188,1.831-18.276m-4.233,20.583c-2.311,6.918-7.165,12.72-9.974,19.439a62.18,62.18,0,0,1-4.64,9.563c-1.918,3.036-4.377,5.81-6.059,8.96a87.289,87.289,0,0,0-4.028,9.563c-1.306,3.35-2.647,6.719-4.045,10.041a12.705,12.705,0,0,1-2.647,4.4,37.072,37.072,0,0,1-3.7,2.789,17.087,17.087,0,0,0-5.369,6.914c-1.149,2.574-1.778,5.359-3.307,7.792-1.761,2.813-4.688,4.333-7.85,5.665s-6.466,2.476-9.476,4.113a21.6,21.6,0,0,0-6.837,5.767c-3.906,5.007-6.221,10.879-9.624,16.156a31.725,31.725,0,0,1-5.129,6.347,25.16,25.16,0,0,1-7.872,4.729c-3,1.187-6.225,1.814-9.248,2.946a18.814,18.814,0,0,0-7.676,5.457c-2.573,2.887-5.142,5.786-7.558,8.787a41.087,41.087,0,0,0-4.8,6.656c-1.459,2.848-2.219,5.943-3.421,8.881-1.3,3.2-2.687,6.656-4.893,9.445-1.761,2.229-4.133,3.138-6.854,1.559a11.072,11.072,0,0,1-4.613-4.991,14.642,14.642,0,0,1-.673-7.408c.577-5.077,2.6-10.084,2.494-15.216-.031-1.536-.354-3.052-.52-4.568a22.593,22.593,0,0,1,.087-5.238c.437-3.569,1.35-7.079,1.533-10.679.183-3.557-.17-7.134.341-10.679.5-3.487,2.088-6.8,3.456-10.072,2.3-5.512,4.871-11.537,3.434-17.488a23.7,23.7,0,0,0-4.5-8.744,83.9,83.9,0,0,0-7.064-8.082c-2.276-2.3-4.574-4.423-7.789-5.641a35.7,35.7,0,0,0-9-1.724c-5.631-.576-11.009-1.959-14.591-6.155-2.879-3.377-4.591-7.831-6.12-11.819-1.817-4.74-3.844-9.782-8.344-13.01-2.564-1.841-5.57-3.064-8.231-4.772a27.266,27.266,0,0,1-7.112-6.824,29.194,29.194,0,0,1-4.408-8.681,17.12,17.12,0,0,1-.791-5.152,47.464,47.464,0,0,0,.026-5.289c-.183-1.712-.655-3.389-.773-5.1a18.065,18.065,0,0,1,.673-5.626c.874-3.471,2.2-6.848,2.6-10.405.319-2.793.459-6.158-1.131-8.685-1.311-2.084-4.242-2.789-5.487-4.834a130.7,130.7,0,0,1,12.5-9.986q3.8-1.875,7.553-3.816c1.761-.607,3.56-1.117,5.36-1.7A31.615,31.615,0,0,0,92.8,59.95c1.04-.76,2.162-1.665,3.373-2.433A16.781,16.781,0,0,1,99.8,56.31a9.783,9.783,0,0,1,4.915.592c2.857.983,5.535,2.421,8.689,2.417,3.276,0,6.431-1.038,9.48-2.014,3.167-1.019,6.426-2.084,9.838-2.045,1.992.02,3.993.349,5.968.545q3.093.306,6.195.537a96.067,96.067,0,0,0,12.56.435c3.639-.212,7.151-1.128,10.738-1.661,5.775-.854,11.455-.035,15.78,3.718,3.652,3.169,5.924,7.447,8.056,11.518,1.11,2.123,2.184,4.262,3.39,6.343s2.446,4.4,4.513,5.876c4.884,3.491,11.961,1.88,17.619,3.259,2.936.713,5.391,2.366,8.06,3.6a13.882,13.882,0,0,0,8.121,1.207,30.278,30.278,0,0,0,9.1-3.342c2.792-1.418,5.6-2.746,8.9-2.617a47.3,47.3,0,0,1,7.995,1.226,29.69,29.69,0,0,1,8.152,2.813A7.555,7.555,0,0,1,272,93.989a31.762,31.762,0,0,1,.328,7.91c-.31,6.378-.459,12.748-2.516,18.91" transform="translate(190.416 156.112)" fill="#00c2ff"/>
          <path id="Trazado_875813" data-name="Trazado 875813" d="M92.661,85.543a5.9,5.9,0,0,0,1.027-2.887,11.921,11.921,0,0,0-.507-4.141A10.171,10.171,0,0,0,91.062,74.3c-1.28-1.461-3.438-2.28-5.3-3-2.071-.8-4.1-1.473-5.719-2.95-3.215-2.938-3.766-7.193-5.863-10.707a12.246,12.246,0,0,0-12.743-5.97,43.325,43.325,0,0,0-8.1,2.938c-1.311.556-2.634,1.1-3.989,1.571a11.105,11.105,0,0,0-3.1,1.579,4.716,4.716,0,0,0-2.01,4.936c.572,2.351,2.835,4.149,4.9,5.508a31.155,31.155,0,0,1,3.18,2.3c1,.858,1.883,1.806,2.875,2.668,1.992,1.743,4.683,2.644,6.758,4.305s3.827,3.624,6.029,5.163a24.1,24.1,0,0,0,6.942,3.3,33.393,33.393,0,0,0,3.831.85c1.433.251,2.848.537,4.281.8a10.49,10.49,0,0,0,3.761.227,13.631,13.631,0,0,0,2.154-.6,4.479,4.479,0,0,0,2.936-.889c.262-.016.917-.752.778-.8m-12.027,1.05c-5.02-.948-9.873-2.789-13.569-6.045A56.369,56.369,0,0,0,61.713,75.8c-.97-.662-2.027-1.2-3.041-1.806a11.417,11.417,0,0,1-3-2.554,26.463,26.463,0,0,0-2.215-2.77,25.064,25.064,0,0,0-2.647-2.021c-1.94-1.355-4.037-2.821-4.792-5.022-.664-1.931,1.214-3.208,2.844-4.121a44.236,44.236,0,0,1,7.553-3.248,17.062,17.062,0,0,1,7.711-1.015,14.66,14.66,0,0,1,6.675,2.9c3.276,2.488,4.268,6.174,6.055,9.508a12.844,12.844,0,0,0,3.4,4.266,22.772,22.772,0,0,0,5.072,2.762A15.968,15.968,0,0,1,90.782,75.9a7.216,7.216,0,0,1,1.852,4.317,8.352,8.352,0,0,1-.5,4.325,2.556,2.556,0,0,1-.765.921,11.215,11.215,0,0,0-2.241.568c-.24-.012-1.337.133-1.481.411a17.082,17.082,0,0,1-7.016.153" transform="translate(148.927 150.714)" fill="#00c2ff"/>
          <path id="Trazado_875814" data-name="Trazado 875814" d="M97.732,50.009a3.5,3.5,0,0,0-1.774-2.19,7.777,7.777,0,0,0-3.32-.58,59.938,59.938,0,0,0-7.523,1.026A20.75,20.75,0,0,1,75.076,47c-1.625-.572-3.2-1.269-4.867-1.747a38.474,38.474,0,0,0-5.3-1.152,25.345,25.345,0,0,0-9.869.239,8.8,8.8,0,0,0-6.7,6.773,14,14,0,0,0,2.045,9.418,13.564,13.564,0,0,0,2.023,2.625c2.923,3.784,9.567,3.118,13.656,1.367,2.866-1.226,5.553-2.8,8.676-3.436a15.777,15.777,0,0,1,4.985-.262c1.42.161,2.8.486,4.229.6,2.936.243,6.033.337,8.759-.838a8.348,8.348,0,0,0,4.329-4.4,8.37,8.37,0,0,0,.686-6.182m-3.456,8.4c-1.56,1.72-4.3,1.794-6.592,1.786-2.735-.016-5.452-.337-8.2-.337a24.712,24.712,0,0,0-4.238.337c-1.367.247-2.634.7-3.958,1.058-3.875,1.038-7.973,3.522-12.127,3.428-.022-.251-.341-.47-.8-.333.319-.1-.035,0-.131,0s-.218.008-.328,0a3.614,3.614,0,0,1-.612-.1,4.3,4.3,0,0,1-1.337-.584,9.5,9.5,0,0,1-2.512-2.542,16.537,16.537,0,0,1-2.984-7.459,1.273,1.273,0,0,1,.376-.592c.131-.114-.083-.208-.2-.129a1.874,1.874,0,0,0-.258.255l-.009-.074c-.218-2.558.467-5.363,3.132-6.726,1.861-.952,4.539-.9,6.588-.878a50.566,50.566,0,0,1,9.947,1.442c3.159.654,6.234,1.669,9.432,2.166a29.669,29.669,0,0,0,7.5-.161,19.8,19.8,0,0,1,6.627.078c1.962.505,2.586,2.19,2.621,3.867a8.052,8.052,0,0,1-1.953,5.5" transform="translate(162.615 128.213)" fill="#00c2ff"/>
          <path id="Trazado_875815" data-name="Trazado 875815" d="M225.1,37.1c-.358-2.343-2.167-4.713-3.792-6.5a18.4,18.4,0,0,0-7.549-5.152c-2.966-1.022-6.173-1.41-9.087-2.574-5.81-2.323-10.742-6.092-16.719-8.153a59.436,59.436,0,0,0-17.986-3.259,76.868,76.868,0,0,0-18.383,2.08c-12.874,2.876-25.1,7.4-37.19,12.242-6.138,2.456-12.193,5.085-18.209,7.784-5.456,2.452-10.961,4.764-15.718,8.247A115.047,115.047,0,0,0,68.576,52.446c-1.948,1.9-3.919,3.78-6,5.563-2.158,1.845-4.469,3.514-6.815,5.159-4.613,3.24-9.078,6.585-12.267,11.055a80.906,80.906,0,0,0-4.937,8.329c-1.525,2.774-3.29,5.442-4.814,8.219s-3,5.571-4.277,8.446a35.473,35.473,0,0,0-2.578,8.642c-.5,2.977-.8,5.99-1.52,8.932a39.663,39.663,0,0,1-1.809,5.332c-1.595,3.968-3.46,7.859-4.7,11.937-1.114,3.659-1.8,7.651-.577,11.361a12.013,12.013,0,0,0,3.207,4.932,52.719,52.719,0,0,0,6.824,5.214A57.061,57.061,0,0,0,35.82,160a52.005,52.005,0,0,1,6.02,2.86,7.439,7.439,0,0,1,3.5,5.516c.236,1.865.074,3.745.153,5.614a7.479,7.479,0,0,0,1.363,4.537c1.293,1.591,3.609,2.217,5.7,2.362,5.159.364,10.6-2.785,15.5-.419a71.873,71.873,0,0,1,6.632,4.121,19.179,19.179,0,0,0,7.453,2.879,34.529,34.529,0,0,0,9.1-.192,86.14,86.14,0,0,0,8.689-1.465c2.73-.639,5.474-1.3,8.318-.952,2.093.259,4.159.819,6.225,1.211a37.338,37.338,0,0,0,7.077.85c1.787,0,3.744-.3,4.867-1.673,1.206-1.477,1.149-3.553,1.411-5.285a14.769,14.769,0,0,1,1.8-5.622,8.144,8.144,0,0,1,4.076-3.393c2.189-.936,4.552-1.54,6.605-2.73a7.993,7.993,0,0,0,3.919-4.474,9.353,9.353,0,0,0-.778-6.123,11.03,11.03,0,0,0-3.29-4.623,5.964,5.964,0,0,0-2.757-1.156,10.249,10.249,0,0,0-7.925.65c-2.905,1.383-5.33,3.385-8.523,4.282a11.53,11.53,0,0,1-7.549-.678,19.72,19.72,0,0,1-7.658-4.983c-1.826-2.1-3.154-5.011-2.416-7.7.817-2.973,4.443-4.8,7.143-6.28a39.087,39.087,0,0,0,8.7-6.491c4.137-4.153,6.439-10.652,12.237-13.222a.778.778,0,0,0,.848.047c2.315-.956,4.8.631,6.566,1.865,2.176,1.52,4.259,3.095,6.509,4.537a40.577,40.577,0,0,1,4.072,2.844c1.232,1.026,2.39,2.115,3.574,3.185,1.573,1.422,3.591,2.876,5.963,2.813,2.613-.071,4.84-2.1,6.129-3.953a9.667,9.667,0,0,0,1.319-7.2,13.7,13.7,0,0,0-2.381-6.4c-1.162-1.532-2.77-2.789-3.665-4.478-1.18-2.217-.485-4.521.192-6.781a18.547,18.547,0,0,1,3.814-7.067,57.516,57.516,0,0,1,5.7-5.136c1.625-1.418,3.377-3.271,3.556-5.379a34.328,34.328,0,0,0-.738-7.831c-.367-2.488-.852-5.347.393-7.706.935-1.767,2.778-2.734,4.674-3.534,2-.838,4.08-1.551,5.985-2.55A16.135,16.135,0,0,0,189.6,59.7c1.494-2.1,2.529-4.423,3.932-6.57a8.428,8.428,0,0,1,5.6-4.117c2.329-.494,4.762-.439,7.108-.838a33.733,33.733,0,0,0,8.086-2.625,63.519,63.519,0,0,0,7.488-3.8c1.769-1.081,3.609-2.546,3.285-4.654m-2.621,2.264a19.887,19.887,0,0,1-3.329,2.131c-1.18.729-2.333,1.481-3.547,2.166a28.412,28.412,0,0,1-7.912,3,69.974,69.974,0,0,1-7.082.764,11.408,11.408,0,0,0-6.1,2.276,22.07,22.07,0,0,0-4.4,5.81,24.585,24.585,0,0,1-4.43,5.927,19.321,19.321,0,0,1-5.863,3.13c-3.84,1.512-7.938,3.5-8.729,7.569-.472,2.441.131,4.85.725,7.228a11.694,11.694,0,0,1,.424,4.2,15.246,15.246,0,0,1-1.079,3.871c-.721,1.9-2.376,3.228-3.954,4.568a25.311,25.311,0,0,0-5.221,5.571,24.291,24.291,0,0,0-2.831,6.84c-.529,2-1.088,4.082-.275,6.084a20.316,20.316,0,0,0,3.071,4.364,15.961,15.961,0,0,1,2.774,6.057c.62,2.488.834,5.5-.948,7.667a5.525,5.525,0,0,1-6.422,1.853,14.185,14.185,0,0,1-3.228-1.971c-1.175-.874-2.42-1.669-3.683-2.441a82.616,82.616,0,0,1-7.789-5.363c-2.91-2.272-6.522-6.147-10.834-4.368a.937.937,0,0,0-.28.168,9.387,9.387,0,0,0-2.5.717,12.252,12.252,0,0,0-3.491,2.5c-2.145,2.116-3.613,4.732-5.4,7.087a44.676,44.676,0,0,1-8.523,8.411c-2.687,2.041-6.221,3.357-8.314,5.978-1.822,2.28-1.73,5.281-.769,7.839a14,14,0,0,0,5.378,7.02,20.065,20.065,0,0,0,8.838,3.346c3.027.227,5.88-1.1,8.257-2.648a31.67,31.67,0,0,1,4.915-2.985,9.422,9.422,0,0,1,5.609-.423,6.164,6.164,0,0,1,3.687,2.147c.415.521.76,1.081,1.166,1.606a4.344,4.344,0,0,0,1.236,1.164c.3.807.533,1.606.725,2.327.542,2.057.349,4.145-1.424,5.673-1.73,1.493-4.037,2.1-6.225,2.836a14.317,14.317,0,0,0-5.05,2.578,9.7,9.7,0,0,0-3.211,4.968c-.345,1.869.144,3.769-.17,5.622a5.1,5.1,0,0,1-.913,2.5,2.935,2.935,0,0,1-2.158.772c-4.259.251-8.379-1.5-12.468-2.272-5.356-1.007-10.476,1-15.662,1.9-5.841,1.019-12.031,1.971-17.492-.729-4.29-2.119-8.126-6.057-13.3-6.288-4.845-.219-10.1,2.883-14.744.451-3.4-1.782-2.538-6.276-2.765-9.234a9.024,9.024,0,0,0-1.983-5.477,14,14,0,0,0-4.867-3.2,58.268,58.268,0,0,1-6.54-3.193,71.335,71.335,0,0,1-7.151-5.555,22.114,22.114,0,0,1-5.1-4.842,11.069,11.069,0,0,1-1.7-5.23c-.288-3.918.992-7.819,2.4-11.486,1.442-3.753,3.228-7.4,4.522-11.2,1.7-5,1.713-10.291,3.1-15.357,1.616-5.9,5.273-11.1,7.938-16.626,2.63-5.442,5.107-11.091,9.393-15.694,3.753-4.035,8.632-6.934,13.084-10.284A122.558,122.558,0,0,0,71.346,50.82,79.178,79.178,0,0,1,83.368,40.709a66.751,66.751,0,0,1,7.833-4.1q4.279-2.021,8.571-3.992a269.278,269.278,0,0,1,35.871-13.907,166.06,166.06,0,0,1,18.492-4.466,73.466,73.466,0,0,1,17.92-1.293,53.963,53.963,0,0,1,17.92,4.3c5.439,2.429,10.249,6.064,16.068,7.776,2.931.866,6.033,1.355,8.716,2.789a18.645,18.645,0,0,1,6.5,6.123c.913,1.375,2.761,3.953,1.21,5.426" transform="translate(59.715 33.994)" fill="#00c2ff"/>
          <path id="Trazado_875816" data-name="Trazado 875816" d="M64.245,51.1a2.39,2.39,0,0,0-1.485-1.218,13.194,13.194,0,0,0-5.74-.435,20.025,20.025,0,0,0-3.316.576,5.269,5.269,0,0,0-2.438,1.261c-.179.192-.363.607-.022.772,1,.47,1.844,1.164,2.783,1.716a2.243,2.243,0,0,0,1.437.454,7.52,7.52,0,0,0,1.407.932,5.2,5.2,0,0,0,3.5.529A5.8,5.8,0,0,0,63.9,53.08a2.257,2.257,0,0,0,.349-1.978m-1.481,1.45A5.136,5.136,0,0,1,60.335,54.2a4.065,4.065,0,0,1-2.551-.619c-1.49-.772-3.115-2.025-4.893-2.241.188-.094.524-.243.764-.337a11.49,11.49,0,0,1,2.473-.6,14.337,14.337,0,0,1,5.33.133,2.73,2.73,0,0,1,1.512.8c.3.384.114.834-.205,1.214" transform="translate(172.306 144.526)" fill="#00c2ff"/>
          <path id="Trazado_875817" data-name="Trazado 875817" d="M71.344,44.488a3.136,3.136,0,0,0-1.948-.831,8.811,8.811,0,0,0-.965,0,14.963,14.963,0,0,0-4.836-.114,3.789,3.789,0,0,0-2.709,1.591,2.773,2.773,0,0,0,.345,3.4,6.918,6.918,0,0,0,3.438,1.528,9.329,9.329,0,0,0,3.578.157,6.085,6.085,0,0,0,3.508-1.971,2.676,2.676,0,0,0-.411-3.757m-.459,2.46c.044-.2-.013.027-.026.063a.753.753,0,0,1-.048.1l-.052.094c-.074.1-.14.212-.223.309a3.781,3.781,0,0,1-.555.525,4.472,4.472,0,0,1-1.525.713,6.752,6.752,0,0,1-3.115-.047,6.525,6.525,0,0,1-3-1.265,2.738,2.738,0,0,1-.223-.215.97.97,0,0,1-.166-.2,1.5,1.5,0,0,1-.135-.243c.066.157-.048-.286-.022-.082-.009-.059-.009-.118-.013-.176v-.016l0-.027a1.781,1.781,0,0,1,.039-.219l.066-.176c.013-.012.1-.161.122-.2l0-.008.079-.078c.026-.02.162-.125.183-.149a3.07,3.07,0,0,1,.524-.27,6.169,6.169,0,0,1,1.363-.29,15.525,15.525,0,0,1,3.512.125c.529.067,1.048.157,1.577.235.192.023.393.067.585.078l.026-.008a2.569,2.569,0,0,1,.847.682,2.089,2.089,0,0,1,.118.188l.035.067a1.01,1.01,0,0,1,.035.121l.013.031v.012c0,.051,0,.1,0,.153l-.009.02a.866.866,0,0,0-.031.145" transform="translate(204.01 127.199)" fill="#00c2ff"/>
          <path id="Trazado_875818" data-name="Trazado 875818" d="M50.552,2.031c.157-.016.079-.027,0,0" transform="translate(170.621 6.477)" fill="#00c2ff"/>
          <path id="Trazado_875819" data-name="Trazado 875819" d="M512.537,221.18a199.978,199.978,0,0,0-29.3-79.37,223.2,223.2,0,0,0-60.851-63.245,250.307,250.307,0,0,0-83.153-37.476,265.1,265.1,0,0,0-92.707-5.947c-6.859.772-13.674,1.837-20.428,3.146a.685.685,0,0,0,.454-.431,5.023,5.023,0,0,0-.266-2.339c-.218-1.034-.485-2.061-.778-3.083-.079-.266-.175-.533-.253-.8,1.726-1.222,4.456-1.336,6.536-1.692a64.288,64.288,0,0,1,8.453-.9c.944-.031,1.883-.043,2.822-.106a14.614,14.614,0,0,0,2.717-.294c2.184-.572,2.093-2.734,1.822-4.388a12.284,12.284,0,0,1-.384-2.566c.057-.948.4-1.986-.319-2.809-.69-.8-2-.913-3.036-1.034a38.568,38.568,0,0,1-4.072-.737,17.022,17.022,0,0,1-7.352-3.244c-1.7-1.481-2.923-3.342-4.5-4.917C226.6,7.6,224.6,5.631,222.38,5.928a18.332,18.332,0,0,0-2.206.474c-.214.043-.428.1-.638.157-.048.012-.092.027-.14.035a15.006,15.006,0,0,1-1.56.321,4.343,4.343,0,0,1-.979.078,16.072,16.072,0,0,0-3.373-4.682,10.31,10.31,0,0,0-7.4-2.3,14.864,14.864,0,0,0-8.877,3.463,8.8,8.8,0,0,0-3.2,7.659,13.2,13.2,0,0,0,.472,2.319.273.273,0,0,0-.083.266l0,.02-.013-.024c-.433-.525-4.906,1.971-6.771,2.445-3.115.791-6.134,1.841-9.139,2.915-2.979,1.066-6.072,1.963-8.96,3.209-.791.341-1.564.709-2.337,1.081-4.452,1.653-8.855,3.412-13.145,5.379-6.754,3.091-13.32,6.578-19.847,10.041s-12.931,7.075-19.157,10.946A156.843,156.843,0,0,0,97.926,61.758c-1.752,1.45-3.425,2.966-5.081,4.493-.677.525-1.367,1.034-2.036,1.571A152.415,152.415,0,0,0,79.193,78.717c-4.417,4.086-8.711,8.27-12.756,12.669-4.688,5.1-9.1,10.413-13.237,15.878-1.9,2.507-3.726,5.062-5.684,7.537-1.918,2.425-3.892,4.815-5.8,7.248-3.735,4.768-7.449,9.774-9.563,15.33-.2.521-.363,1.054-.524,1.583-.507.983-1.009,1.967-1.494,2.958-4.421,9.057-8.711,18.232-12.18,27.623-1.765,4.787-3.25,9.649-4.661,14.526-.7,2.405-1.315,4.815-1.913,7.244a69.1,69.1,0,0,1-2.272,6.73c-.926,2.57-2.8,13.465-3.359,16.242-.275,1.344-.568,2.691-.856,4.043-.061-.02-.17.055-.162.125.026.137.031.278.048.415-.638,2.946-2.215,11.306-2.433,12.536a152.438,152.438,0,0,0-1.73,15.666,169.454,169.454,0,0,0,.127,30.255,172.377,172.377,0,0,0,5.378,28.144,164.5,164.5,0,0,0,10.2,27.431c2.368,4.913,5.151,9.653,7.816,14.44,6.514,16.763,17.973,31.439,30.008,45.436,6.819,7.933,14.124,15.576,22.857,21.868,4.425,3.185,8.79,6.421,13.176,9.653s9.283,5.927,13.927,8.881a349.7,349.7,0,0,0,61.109,31.18c10.926,4.235,21.874,8.619,33.158,12.039,1.188.36,2.39.678,3.587,1a3.581,3.581,0,0,0,.708,1.453,10.378,10.378,0,0,1,1.18,1.579,9.02,9.02,0,0,1,.682,2.037c.162.631.384,1.234.6,1.841a20.614,20.614,0,0,1-.035,3.244c-.275,3.2-1.14,6.331-1.608,9.5-.109.772-.266,1.532-.389,2.3-.262,1.164-.537,2.327-.821,3.483-1.276,5.159-3.067,10.24-4.3,15.416a12.023,12.023,0,0,1-2.171,1.446c-1.547.78-3.185,1.446-4.05,2.919-2.045,3.475-1.835,7.741-2.831,11.49-.594,2.221-1.411,4.392-2.136,6.582-.467,1.418-.987,2.883-1.315,4.364q-8.375-.335-16.763-.2c-.363,0-.721,0-1.083,0-.891.02-1.782.067-2.674.1-3.713.11-7.431.262-11.14.529a155.588,155.588,0,0,0-32.214,5.441,61.518,61.518,0,0,0-14.832,6.37,27.581,27.581,0,0,0-6.029,5.093,16.427,16.427,0,0,0-1.59,2.253A64.719,64.719,0,0,0,87.3,570.985a34.266,34.266,0,0,0-7.051,6.605,19.507,19.507,0,0,0-3.993,8.752,15.884,15.884,0,0,0-.162,1.7,32.634,32.634,0,0,0,1.114,7.694,31.243,31.243,0,0,0,4.57,8.129A63.48,63.48,0,0,0,95.462,616.35a127.907,127.907,0,0,0,16,9.4c5.548,2.766,11.206,5.316,16.981,7.6,23.154,9.053,47.605,14.8,72.362,18.369,24.766,3.5,50.047,4.674,75.185,2.151,12.534-1.348,25.089-3.514,37.107-7.651a85.063,85.063,0,0,0,9.043-3.69,8.263,8.263,0,0,0,1.014-.505,59.158,59.158,0,0,0,7.064-4.133c.214-.157.419-.325.633-.486.411-.251.813-.517,1.236-.752a13.79,13.79,0,0,0,3.989-3.745,32.99,32.99,0,0,0,3.373-4.419,16.663,16.663,0,0,0,1.87-10.256c-.017-.133-.057-.263-.079-.4a19.4,19.4,0,0,0-1-4.262,27.365,27.365,0,0,0-2.6-5.3c-.166-.3-.332-.6-.511-.9a33.235,33.235,0,0,0-3.9-5.265c-1.415-1.547-2.7-3.244-4.727-4.18-.148-.133-.293-.266-.441-.4a14.3,14.3,0,0,0-.983-3.831,24.668,24.668,0,0,0-4.006-6.394,57.188,57.188,0,0,0-11.948-10c-8.864-5.751-18.715-10.154-28.789-13.927a274.562,274.562,0,0,0-30.633-9.171c.38-2.974-.061-6.2.275-8.991.481-3.984,2.564-7.741,2.639-11.78a6.836,6.836,0,0,0-.376-2.731,6.912,6.912,0,0,0-2.123-2.48,16.778,16.778,0,0,1-3.228-3.314,21.851,21.851,0,0,1-1.643-2.88c.184-4.094.192-8.2.668-12.278.511-4.411,1.507-8.779,2.193-13.175.044-.282.074-.564.114-.85q.819-2.786,1.643-5.571a16.531,16.531,0,0,1,1.118-2.923c.127-.239.214-.482.328-.717.2-.122.393-.247.6-.356.585-.309,1.132-.576,1.734-.834,4.4.118,8.82.216,13.215.192,1.551-.008,3.093-.07,4.631-.161,2.569-.055,5.138-.172,7.706-.376,5.714-.454,11.468-.4,17.173-.878,5.544-.462,11-1.547,16.535-2.045a52.841,52.841,0,0,1,7.933-.513,10.232,10.232,0,0,0,3.036-.082,2.221,2.221,0,0,0,.266-.11A5.7,5.7,0,0,0,328.8,483.9a3.5,3.5,0,0,0,1.463.877,7.575,7.575,0,0,0,1.616.306,12.324,12.324,0,0,0,6.868-.509,9.279,9.279,0,0,0,4.98-3.6,9,9,0,0,0,.712-6.174,58.843,58.843,0,0,0-1.616-6.378c-.909-3.048-2.123-6-3.062-9.038-.389-1.257-.668-2.543-1.127-3.784-.118-.321-.253-.654-.406-.987a257.217,257.217,0,0,0,54.787-20.277,234.835,234.835,0,0,0,70.772-54.819,207.315,207.315,0,0,0,41.9-74.873,193.354,193.354,0,0,0,6.859-83.456m-32.564-77.721a199.934,199.934,0,0,1,21.983,48.363c-.039-.008-.074-.024-.109-.027-.319-.051-.747.419-.354.58a4.314,4.314,0,0,1,.738.4l.118.419a4.442,4.442,0,0,1-3.189-.325,21.4,21.4,0,0,1-4.8-2.746c-1.4-1-2.678-2.139-4.142-3.079-1.289-.831-2.656-1.551-3.989-2.323A13.126,13.126,0,0,1,483.2,182.6c-1.193-1.269-1.035-2.8-1.009-4.352a12.932,12.932,0,0,0-.983-5.731c-1.485-3.283-4.565-5.79-7.527-8.027-3.185-2.4-7.182-4.772-8.816-8.368a7.533,7.533,0,0,1,.192-6.366c.791-1.716,2.005-3.393,2.416-5.23.415-1.857-.546-3.765-1.7-5.265-.821-1.077-1.848-1.975-2.7-3.024-.834-1.026-1.643-2.072-2.5-3.079a23.045,23.045,0,0,0-5.5-4.885c-1.734-1.073-3.9-2.08-4.941-3.8-1.215-2-1.215-4.6-1.42-6.821a77.661,77.661,0,0,1-.271-7.941c.017-1.649.358-3.248.454-4.889V104.8a214.34,214.34,0,0,1,31.07,38.659M245.6,25.551c.009.118.022.262.035.4a1.342,1.342,0,0,0-.66.364,1.481,1.481,0,0,1-1.306.58c-.73.059-1.468.074-2.2.137-2.031.165-4.067.329-6.094.541a42.906,42.906,0,0,0-10.756,2.115c-.183-.548-.371-1.093-.555-1.641,3.242-1.418,7.165-1.434,10.681-1.924,2.158-.3,4.351-.411,6.527-.568,1.018-.074,2.04-.137,3.058-.219.406-.035.826-.055,1.232-.114.013.11.031.215.039.325M218.046,8.874a6.261,6.261,0,0,0,1.686-.517c.258-.106.511-.219.769-.321.109-.043.227-.082.341-.125h0l-.017,0a3.245,3.245,0,0,0,.376-.086,6.512,6.512,0,0,1,1.4-.184c.223,0,.446.047.668.063a2.29,2.29,0,0,0,.494-.027c.127.1.245.2.367.306a.234.234,0,0,0,.218.016c.183.137.363.274.529.407a59.784,59.784,0,0,1,4.434,4.525,20.589,20.589,0,0,0,5.736,3.6,34.914,34.914,0,0,0,7.606,2.476c.935.18,2.573.168,2.8,1.226A18.329,18.329,0,0,1,245.3,22.9c.031.5.1,1,.162,1.493-.542.067-1.088.176-1.595.223-1.053.1-2.1.219-3.15.337-2.114.239-4.229.525-6.33.846-3.451.533-7.243.58-10.362,2.151-.14-.4-.271-.811-.411-1.211-1.193-3.365-2.315-6.719-3.263-10.147a60.323,60.323,0,0,0-2.525-7.514c-.026-.067-.061-.133-.087-.2a2.718,2.718,0,0,0,.31,0M197.037,6.128c1.485-2.249,4.159-3.581,6.907-4.227,2.586-.611,5.583-.878,7.767.74A15.288,15.288,0,0,1,216.08,8.7a49.78,49.78,0,0,1,2.634,7.345c.957,3.318,2.005,6.582,3.233,9.833.76,2.018,1.52,4.035,2.154,6.088.315,1.015.607,2.041.852,3.071a10.575,10.575,0,0,1,.542,2.919l-.009.031a.288.288,0,0,0,.214.317l0,0a.637.637,0,0,0,.21.012c-.625.121-1.245.262-1.87.388a19.291,19.291,0,0,0-1.245-3.773c-.6-1.493-1.263-2.962-1.8-4.478-1.127-3.208-2.049-6.48-3.014-9.727-1.4-4.689-2.512-9.477-5.207-13.743a7.053,7.053,0,0,0-5.788-3.459c-.227,0-.52.4-.2.458,4.788.893,7.073,5.375,8.388,9.171.826,2.378,1.442,4.811,2.114,7.224.869,3.13,1.8,6.241,2.717,9.359.489,1.673.987,3.33,1.595,4.971.516,1.4.913,2.813,1.35,4.223-2.853.6-5.7,1.226-8.523,1.912a30.121,30.121,0,0,0-1.9-3.4c-.73-1.226-1.459-2.456-2.167-3.694q-2.11-3.708-4.172-7.439a90.952,90.952,0,0,1-6.418-13.445c-.9-2.523-.961-5.257,1.494-7.083.066-.051.052-.219-.048-.153-3.941,2.586-2.63,8.051-1.14,11.51a140.831,140.831,0,0,0,8.266,15.38c.882,1.5,1.747,3.009,2.608,4.521.769,1.344,1.407,2.766,2.171,4.11-.577.145-1.162.27-1.739.415a23.34,23.34,0,0,0-2.167-4.411c-.992-1.681-2.04-3.33-3.106-4.967l-.1-.149a.294.294,0,0,0-.118-.192c-1.852-2.852-3.609-5.724-5.221-8.693a47.128,47.128,0,0,1-3.967-8.791c-.813-2.707-1.359-5.7.319-8.243M118.6,415.257c-6.116-3.945-12.407-7.643-18.348-11.8-1.346-1.089-2.674-2.2-3.971-3.33-2.538-2.221-4.919-4.576-7.357-6.879-1.166-1.1-2.3-2.229-3.447-3.342-5.452-5.947-15.644-17.284-19.353-22.526q-3.014-4.26-5.828-8.63c-.529-.971-1.066-1.943-1.621-2.907-1.673-2.9-3.394-5.771-4.976-8.709a98.2,98.2,0,0,1-4.334-9.457c-2.722-6.683-5.705-13.331-8-20.148a127.012,127.012,0,0,1-4.5-19.686c-1.123-6.676-2.508-13.281-3.971-19.9-1-6-1.852-11.22-2.162-12.92A95.382,95.382,0,0,1,29.054,251.7a120.131,120.131,0,0,1,.332-12.971,174.854,174.854,0,0,1,3.333-25.887c1.931-8.74,4.543-17.355,6.767-26.036,1.219-4.76,2.416-9.528,3.643-14.284a.352.352,0,0,0,.118-.278c0-.071.013-.149.013-.223.205-.791.419-1.583.633-2.374.066-.157.131-.313.192-.462.467-1.175,1-2.327,1.472-3.5.454-1.144.782-2.323,1.149-3.495.577-1.289,1.171-2.57,1.774-3.859,1.577-3.35,3.128-6.68,4.875-9.966a93.291,93.291,0,0,1,5.7-9.567c1.044-1.5,2.128-2.985,3.08-4.537.45-.74.878-1.489,1.306-2.237,1.21-1.512,2.446-3.013,3.661-4.521,2.315-2.875,4.294-5.923,6.518-8.85,4.609-6.057,10.332-11.373,15.906-16.712,2.8-2.684,5.64-5.347,8.558-7.929s5.985-5.026,8.973-7.541c2.831-2.382,5.636-4.779,8.563-7.063,2.944-2.3,6.064-4.352,9.244-6.382,6.439-4.11,12.818-8.3,19.4-12.227a147.462,147.462,0,0,1,20.624-10.6c7.291-2.919,15.024-4.8,22.363-7.608a93.441,93.441,0,0,1,10.576-3.757c2.4-.6,4.945-.944,7.165-2.021.1-.051.2-.118.3-.172a5.44,5.44,0,0,0,1.678-.584l.057-.02c.1.149.2.3.293.458,1.092,1.751,2.045,3.592,3.2,5.316A254.566,254.566,0,0,0,158.506,61.46,233.484,233.484,0,0,0,88.428,115.8a205.573,205.573,0,0,0-41.751,74.089,192.084,192.084,0,0,0-7.449,82.822,199.6,199.6,0,0,0,28.243,79.374,221.867,221.867,0,0,0,60.113,63.9,250.913,250.913,0,0,0,83.218,38.2,266.752,266.752,0,0,0,93.328,6.456c4.722-.513,9.419-1.183,14.1-1.959.249.713.537,1.414.778,2.127l.035.129c-1.4.125-2.818.419-4.181.666-1.538.282-3.067.588-4.6.885-1.228.239-2.46.447-3.692.635-4.124.3-8.257.486-12.376.545-4.456.063-8.886.016-13.337.227a126.4,126.4,0,0,1-13.455.2c-4.653-.27-9.305-.924-13.923-1.5-4.679-.58-9.349-1.211-14.01-1.865-9.279-1.3-18.611-2.476-27.846-3.992a154.748,154.748,0,0,1-25.325-6.7c-4.115-1.418-8.191-2.93-12.258-4.45-4.207-1.571-8.475-3.044-12.555-4.866-3.967-1.771-7.785-3.784-11.594-5.81-3.726-1.982-7.575-3.824-11.2-5.955-7.047-4.141-13.25-9.308-20.087-13.715m4.474,4.345c-.223-.149-.446-.3-.668-.443q-3.657-2.409-7.274-4.862c2.355,1.485,4.7,2.993,6.964,4.6.328.235.651.474.979.709M87.454,71.187Q84.584,73.8,81.705,76.4c-.564.513-1.114,1.03-1.673,1.544q3.578-3.5,7.422-6.758M98.38,582.5a51.466,51.466,0,0,1-.642,5.359,57.734,57.734,0,0,0-.913,5.9c-.048.564-.127,1.128-.166,1.681a6.29,6.29,0,0,1-.843-1.9,25.364,25.364,0,0,1-.4-7.6,74.963,74.963,0,0,1,1.254-8.219c.293-1.551.533-3.091.716-4.654,0-.051.009-.1.017-.149a14.317,14.317,0,0,0,.965,3.651,18.758,18.758,0,0,0,.944,1.931,11.722,11.722,0,0,0-.935,4m7.549,3.953a62.694,62.694,0,0,0,8.6,6.5q1.75,1.111,3.556,2.155a16.338,16.338,0,0,1-.638,4.584c-.4,1.579-.743,3.146-1.014,4.748q-.478,2.827-.979,5.649c-.153.858-.358,1.708-.5,2.57a7.844,7.844,0,0,0-.131,1.046c-1.092-.646-2.176-1.312-3.242-2a60.2,60.2,0,0,1-8.825-6.852,86.507,86.507,0,0,1,1.415-10.4,38.059,38.059,0,0,1,1.249-4.623,8.471,8.471,0,0,0,.511-3.377m52.253,25.08c8.816,2.633,17.8,4.83,26.867,6.675a12.7,12.7,0,0,1-.616,3.208c-.284,1.7-.594,3.393-.979,5.069s-.8,3.365-1.158,5.058a34.7,34.7,0,0,1-1.079,4.874c-9.069-1.8-18.047-3.945-26.872-6.531.62-3.334,1.446-6.64,2.132-9.962.332-1.594.738-3.185,1.114-4.772a10.987,10.987,0,0,0,.59-3.62m27.073,6.715q10.583,2.151,21.293,3.679c2.294.325,4.6.615,6.894.9a72.486,72.486,0,0,0-1.315,9.167,84.262,84.262,0,0,1-1.21,9.049c-2.5-.282-4.993-.58-7.483-.913q-10.963-1.5-21.817-3.632a106.663,106.663,0,0,1,2.106-10.617c.424-1.712.786-3.432,1.162-5.156a6.894,6.894,0,0,0,.371-2.476m82.707,14.668c-.533,3.365-.974,6.73-1.708,10.064q-12.411.646-24.844.255c.232-1.563.149-3.173.249-4.744.122-1.963.393-3.917.651-5.868.227-1.688.192-3.42.516-5.093a5.124,5.124,0,0,0,.17-2.4q13.067.4,26.129-.443a16.362,16.362,0,0,1-.511,3.612c-.275,1.532-.411,3.083-.651,4.619m1.42-8.247c.834-.059,1.664-.094,2.495-.157,4.976-.415,9.947-.975,14.875-1.743,0,.149.031.313.035.47.017.909.031,1.814-.009,2.719-.079,1.669-.253,3.334-.467,4.991-.432,3.381-.839,6.766-1.267,10.147-5.47.838-11,1.4-16.518,1.775-.511.031-1.018.047-1.525.074.192-1.692.253-3.393.454-5.081.205-1.724.511-3.436.782-5.152.258-1.634.406-3.291.743-4.909a12.132,12.132,0,0,0,.4-3.134m-27.3,8.736c-.393,3.271-.743,6.55-1.228,9.81-1.647-.055-3.3-.094-4.945-.176q-12.208-.593-24.364-1.92c.437-3.068.738-6.139,1-9.218.262-3.021,1.04-6.014,1.249-9.03,9.55,1.152,19.165,1.931,28.8,2.241a15.8,15.8,0,0,1-.2,2.938c-.087,1.794-.1,3.565-.315,5.355M157.2,615.68c-.293,1.579-.716,3.134-1.022,4.709-.616,3.146-1.621,6.229-2.2,9.383-4.583-1.352-9.13-2.8-13.621-4.4q-4.79-1.722-9.471-3.686a9.028,9.028,0,0,1,.463-3.722c.389-1.536.668-3.091.987-4.638q1.035-4.983,1.769-10c.013-.082-.162-.055-.175.016-.668,3.448-1.193,6.907-2.005,10.331-.384,1.622-.778,3.24-1.214,4.854a8.665,8.665,0,0,0-.428,2.9,131.9,131.9,0,0,1-14.862-7.388,14.822,14.822,0,0,1,.17-2.092c.162-.842.31-1.681.45-2.527.315-1.935.651-3.871.987-5.806.258-1.5.66-2.974.987-4.462a8.9,8.9,0,0,0,.236-3.965c3.338,1.927,6.793,3.687,10.319,5.316,4.858,2.233,9.812,4.3,14.862,6.158,4.81,1.751,9.685,3.346,14.6,4.819a22.867,22.867,0,0,1-.839,4.2m-52.4-25.167a32.191,32.191,0,0,0-1.079,4.458c-.336,1.818-.712,3.632-.97,5.461-.175,1.261-.446,2.593-.52,3.9-.45-.439-.917-.87-1.35-1.324a20.54,20.54,0,0,1-1.568-2.55c-.467-.925-.765-1.9-1.236-2.813a29.344,29.344,0,0,0,.214-4.062,44.14,44.14,0,0,1,.009-5.739c.17-1.649.319-3.291.428-4.944a15.491,15.491,0,0,1,.734-4.16A28.3,28.3,0,0,0,102.461,583c.987,1.109,2.049,2.159,3.145,3.173a10.266,10.266,0,0,1-.813,4.341M334.838,606.7a40.01,40.01,0,0,1,4.823,10.276,16.626,16.626,0,0,1-.642,9.974,16.272,16.272,0,0,1-2.888,4.748c-1.158,1.457-2.25,3.13-3.923,4.157-1.734,1.07-3.338,2.288-5.076,3.346-1.542.94-3.124,1.845-4.648,2.813-3.08,1.493-36.491,12.63-81.209,11.338-12.5-.36-27.645-2.343-40.017-3.988-24.7-3.369-49.388-7.761-72.563-16.591-11.546-4.458-22.787-9.849-32.848-16.952A63.549,63.549,0,0,1,82.893,602.8a29.506,29.506,0,0,1-4.434-7.761,16.742,16.742,0,0,1-.537-8.74c.524-3.021,1.175-5.692,3.11-8.121a33.264,33.264,0,0,1,6.881-6.315,61.878,61.878,0,0,1,10.4-5.6A12.323,12.323,0,0,0,97.4,569.2a8.844,8.844,0,0,0-.1,1.019,13.817,13.817,0,0,0-.5,1.775c-.341,1.512-.773,3-1.153,4.5-.738,2.93-1.4,5.919-1.844,8.893-.052.357-.083.713-.122,1.07a13.968,13.968,0,0,0-.3,2.441,13.314,13.314,0,0,0,.175,2.311c.044.744.114,1.485.218,2.217a7.7,7.7,0,0,0,1.328,3.5c.813,1.124,1.721,2.186,2.451,3.357a27.9,27.9,0,0,0,6.024,6.683c.14.118,5.085,3.514,7.658,5.144,1.193.76,2.407,1.489,3.635,2.2a1.66,1.66,0,0,0,.1.325c.07.157.288.059.38-.059,3.22,1.837,6.54,3.53,9.93,5.1,1.673.768,3.364,1.512,5.059,2.237a.189.189,0,0,0,.188.082c3.167,1.356,6.369,2.644,9.615,3.839,20.244,7.373,41.563,12.168,63.118,15.263,21.559,3.036,43.538,4.258,65.329,2.582a162.558,162.558,0,0,0,30.283-5.042,1.085,1.085,0,0,0,0,.121c0,.164.3.063.3-.071a1.267,1.267,0,0,1,0-.129,20.559,20.559,0,0,0,3.246-.972c1.367-.447,2.77-.8,4.128-1.269a36.924,36.924,0,0,0,7.436-3.577,32.411,32.411,0,0,0,6.632-4.944,11.882,11.882,0,0,0,1.214-1.528c.083-.117.179-.223.258-.345a6.906,6.906,0,0,0,.655-1.273,15.034,15.034,0,0,0,.83-2.2,73.233,73.233,0,0,0,2.39-8.791l.013-.02c.013-.02,0-.031,0-.047.031-.172.057-.337.079-.482.446-3.079,1.07-6.151,1.381-9.238.048-.443.1-.882.157-1.324a11.261,11.261,0,0,0,.4-1.594,11.517,11.517,0,0,0,.144-2.323c2.062,2.793,4.884,5.14,6.706,8.07m-7.667-2.507c-.363,2.84-1,5.657-1.472,8.482-.083.505-.166,1.011-.253,1.516a5.859,5.859,0,0,0-.441,1.426,27.608,27.608,0,0,1-1.158,3.663c-.821,2.28-1.236,4.764-2.77,6.781a18.273,18.273,0,0,1-3.159,3.161,35.268,35.268,0,0,0,.878-3.976c.393-1.626.874-3.232,1.223-4.866a36.065,36.065,0,0,0,.747-4.721c.118-1.559-.118-3.287.655-4.736.07-.129-.092-.2-.162-.074a7.787,7.787,0,0,0-.734,3.753,31.248,31.248,0,0,1-.581,4.674c-.328,1.743-.8,3.459-1.245,5.183-.432,1.665-.472,3.491-1.188,5.073-.874.682-1.787,1.336-2.73,1.967a40.993,40.993,0,0,1-5.12,2.922c.66-2.934.979-5.947,1.525-8.9a34.61,34.61,0,0,0,1.009-8.505c0-.063-.1-.019-.1.027.079,3.009-.673,5.966-1.206,8.92-.511,2.84-1.123,5.712-1.468,8.572q-.931.435-1.892.807c-1.494.584-3.049,1-4.583,1.481-1.263.392-2.5.819-3.77,1.187.1-2.28,1.044-4.5.9-6.8,0-.039-.07-.016-.07.016.1,2.346-1,4.548-1.123,6.871-.131.039-.258.086-.389.118a.272.272,0,0,0-.17.184,132.061,132.061,0,0,1-13.106,2.664c.673-3.236.852-6.574,1.284-9.841.205-1.567.45-3.13.559-4.705.052-.725.079-1.449.074-2.174a10.51,10.51,0,0,0-.052-1.23,2.894,2.894,0,0,1-.079-.384,136.17,136.17,0,0,0,14.609-3.111c.467,1.191-.236,2.55-.467,3.726-.315,1.606-.4,3.255-.638,4.873-.009.047.092.027.1-.016.17-.9.328-1.81.472-2.715.127-.807.166-1.626.349-2.425.245-1.093.764-2.374.28-3.471.76-.208,1.525-.407,2.276-.631a62.506,62.506,0,0,0,14.744-6.323,27.307,27.307,0,0,0,5.963-5.014,14.94,14.94,0,0,0,2.577-4.254c-.035.278-.079.548-.109.823m-75.94-47.783c5.251,1.563,10.769,2.374,16.09,3.71,2.717.686,5.43,1.348,8.156,2.01.743.18,1.49.36,2.228.556.965.321,1.931.635,2.892.968.065.023.131.047.2.067.406.141.813.266,1.214.407C292.091,567.764,301.973,572,310.9,577.6a54.714,54.714,0,0,1,11.979,9.849,24.5,24.5,0,0,1,4.023,6.315,14.032,14.032,0,0,1,.957,3.776l-.052.239c.035.031.07.067.109.1l.009.067c-.009-.09-.031-.016-.061.161l0,.039c-.135.889-.419,4-.5,4.638a14.6,14.6,0,0,1-2.809,4.736,27.064,27.064,0,0,1-5.946,4.948,59.608,59.608,0,0,1-14.727,6.174,157.271,157.271,0,0,1-32.07,5.065,298.05,298.05,0,0,1-32.621.168c-10.86-.525-21.7-1.473-32.472-2.911-21.511-2.938-42.817-7.553-63.079-14.75a141.885,141.885,0,0,1-28.776-13.676A55.525,55.525,0,0,1,103,582.628a26.706,26.706,0,0,1-3.22-4.736l.009-.027c.017-.035-.009-.055-.048-.059-.245-.478-.476-.96-.682-1.457a12.741,12.741,0,0,1-.874-7.044,13.422,13.422,0,0,1,3.246-6.445,26.692,26.692,0,0,1,5.88-4.869,60.435,60.435,0,0,1,14.635-6.127,142.46,142.46,0,0,1,23.809-4.431c3.18-.094,6.361-.239,9.541-.392,3.569-.172,7.13-.384,10.708-.458s7.134.051,10.7.235c1.63.082,3.281.051,4.889.29a11.3,11.3,0,0,0,3.608.18,7.733,7.733,0,0,0,.2,1.826c-.026.2-.057.407-.1.611a19.449,19.449,0,0,0-1.359,4.153c-.367,1.046-.738,2.092-1.075,3.146-.424,1.34-.834,2.688-1.258,4.031-.83,1.963-1.7,3.906-2.5,5.88a37.5,37.5,0,0,0-1.957,5.4,13.27,13.27,0,0,0-.275,5.077,12.7,12.7,0,0,0,2.3,5.112,27.38,27.38,0,0,0,7.615,6.93,40.933,40.933,0,0,0,9.135,4.38,58,58,0,0,1-6.409-2.139,26.233,26.233,0,0,1-4.443-2.5c-1.332-.862-2.77-1.614-4-2.589-1.249-.987-2.412-2.135-3.565-3.216a11.034,11.034,0,0,1-2.835-3.918c-.022-.063-.17-.008-.153.051.682,2.664,2.717,4.446,4.644,6.448a21.575,21.575,0,0,0,3.906,3.04c1.341.878,2.6,1.849,3.993,2.664a39.928,39.928,0,0,0,9.655,3.694c3.46.932,16.465,2.319,18.357,2.554a87.592,87.592,0,0,0,11.372.862c1.879-.016,3.748-.2,5.609-.4,1.712-.184,3.447-.325,5.146-.588a21.573,21.573,0,0,0,7.549-2.566,19.386,19.386,0,0,0,6.448-5.951c.035-.055-.026-.157-.087-.086a19.443,19.443,0,0,1-5.885,4.917,24.754,24.754,0,0,1-7.619,2.413c-.328.051-.655.078-.987.118q1.114-.2,2.219-.431a17.148,17.148,0,0,0,3.753-1.085,11.5,11.5,0,0,0,5.107-4.576,14.272,14.272,0,0,0,1.577-4,7.1,7.1,0,0,0,.166-2.014c-.013-.188-.035-.384-.061-.58,0-.055.013-.11.017-.161.1-2.715-.323-5.481-.481-8.192a53.316,53.316,0,0,1,.323-8.952c.3-2.664.716-5.3.891-7.968a8.426,8.426,0,0,0,1.1-2.276m-6.894-26.216c-.288,1.72-.437,3.683-2.1,4.8a20.772,20.772,0,0,1-2.11,1.383,4.634,4.634,0,0,1-1.175.4,3.715,3.715,0,0,0-.507.11c-.371.125-.293.172-.642-.008-.446-.227-1.232.376-.769.736.3.239.415.525.69.752a1.59,1.59,0,0,0,1.118.239,3.812,3.812,0,0,0,.481-.067,8.859,8.859,0,0,0,4.648-1.406,7.984,7.984,0,0,0,1.839-1.563,4.678,4.678,0,0,0,1.442-1.963,8.869,8.869,0,0,0,.4-3.577c-.1-2.014-.3-4.023-.376-6.041a11.292,11.292,0,0,0,2.311,3.53c.354.36.73.705,1.1,1.054.288.69.817,1.277,1.11,1.986.467,1.136-.205,2.268-.848,3.24a16.834,16.834,0,0,1-5.181,4.74,26.012,26.012,0,0,1-7.3,3.295c-1.38.36-2.813.56-4.211.846-1.354.274-2.757.419-4.093.752-.039.012-.052.086,0,.078,1.555-.313,3.176-.345,4.744-.623a38.545,38.545,0,0,0,4.779-.995,31.406,31.406,0,0,0,7.711-3.792,16.533,16.533,0,0,0,5.229-5.277,3.971,3.971,0,0,0,.38-.925c.022.106.057.208.074.317a18.265,18.265,0,0,1-.384,5.442c-.306,1.845-.747,3.659-1.136,5.492a45.142,45.142,0,0,0-.66,6.813c-.153,2.539-.284,5.21-1.538,7.545a10.476,10.476,0,0,1-4.854,4,49.8,49.8,0,0,1-6.3,2.468c-6.308,2.088-12.883,1.88-19.309.337-.2-.051-.542.243-.271.337a33.64,33.64,0,0,0,17.453.752,51.62,51.62,0,0,0,6.959-2.045,17.559,17.559,0,0,0,6.077-3.467c.114-.11.21-.227.315-.341-.371,1.92-.69,3.855-.944,5.794-.524.317-.961.717-1.529.991a19.019,19.019,0,0,1-2.027.74c-1.516.521-3.028,1.05-4.583,1.461a34.884,34.884,0,0,1-4.587.913,16.138,16.138,0,0,0-3.617.5c-.026.012-.022.067.013.055a18.507,18.507,0,0,1,4.2-.431,26.841,26.841,0,0,0,4.674-.846c1.35-.372,2.669-.827,3.993-1.269a14.466,14.466,0,0,0,3.355-1.348,53.568,53.568,0,0,0-.428,7.138c.061,4.717.983,9.618-.638,14.2a12.032,12.032,0,0,1-1.682,2.9,9.807,9.807,0,0,1-3.8,2.738,8.9,8.9,0,0,0,.677-1.25,25.947,25.947,0,0,0,1.52-5.449c.433-2.19.813-4.392,1.175-6.593a24.941,24.941,0,0,0,.258-8.54c-.039-.227-.328-.067-.306.11.529,4.8-.716,9.7-1.595,14.409a20.12,20.12,0,0,1-1.424,4.862,8.257,8.257,0,0,1-1.276,2.068,7.8,7.8,0,0,1-1.616,1.14.572.572,0,0,0-.162.18c-.3.078-.594.157-.9.227a90.142,90.142,0,0,1-10.415,1.469c-1.8.215-3.6.451-5.4.65-.655.074-1.315.121-1.975.172-2.778-.016-5.553-.125-8.283-.388-7.9-.768-15.788-2.253-22.595-6.084-.974-.548-1.944-1.148-2.875-1.79-.585-.729-1.241-1.406-1.9-2.084a.215.215,0,0,0-.044-.176c-2.787-3.353-1.708-7.6-1.214-11.451a44,44,0,0,1,1.678-8.368c.76-2.28,1.962-4.65,1.813-7.079-.013-.18-.258-.016-.258.11.044,2.182-1.018,4.313-1.726,6.362a66.442,66.442,0,0,0-1.717,7.275c-.695,3.118-1.721,6.2-1.42,9.414-.074-.153-.157-.3-.232-.454a17.877,17.877,0,0,1-2-7.526c-.061-2.946,1.236-5.594,2.28-8.329,1.092-2.883,1.826-5.888,2.626-8.842.441-1.645.952-3.31,1.228-4.983.07-.431.157-.885.236-1.348a15,15,0,0,0,4.163,5.061,37.04,37.04,0,0,0,6.046,3.941,22.892,22.892,0,0,0,7.117,2.676c.135.023.17-.2.048-.235a34.106,34.106,0,0,1-6.413-2.629,31.042,31.042,0,0,1-5.247-3.8c-2.63-2.3-5.627-5.191-5.561-8.7,0-.129.026-.266.044-.4a1.1,1.1,0,0,0,.157-.345c.044.106.079.212.131.313a9.059,9.059,0,0,0,1.874,2.213c.891.878,1.839,1.712,2.735,2.589a13.012,13.012,0,0,0,2.7,2.237c.048.023.07-.059.035-.082a17.489,17.489,0,0,1-2.512-2.233c-.808-.8-1.686-1.551-2.486-2.362a10.251,10.251,0,0,1-1.691-2.327,4.583,4.583,0,0,1-.463-1.218,5.744,5.744,0,0,1-.1-1.058c.319-1.218.751-2.429,1.131-3.569.638-1.939,1.324-3.863,1.9-5.818,1.053-3.632.97-7.534,2.468-11.059A4.708,4.708,0,0,1,194,521.647c.813-.509,1.712-.9,2.543-1.387a10.659,10.659,0,0,0,1.153-.815c-.214.987-.415,1.975-.581,2.966-.481,2.938-.97,6.19.214,9.053.035.094.092.161.131.247a4.369,4.369,0,0,0,.323.588,6.324,6.324,0,0,0,2.944,2.3c2.595,2.084,6.2,3.138,9.541,3.984a76.493,76.493,0,0,0,9.961,1.986,25.324,25.324,0,0,0,9.655-.388c.284-.078.293-.431-.052-.38a40.782,40.782,0,0,1-17.151-1.591,44.887,44.887,0,0,1-5.788-2.029c.341-1.829.843-3.616,1.166-5.453.384-2.182,1.136-4.294,1.651-6.452.446-1.861.7-3.741,1.075-5.614a11.517,11.517,0,0,0,.481-4.662c-.009-.047-.122-.02-.118.024.21,1.622-.433,3.232-.778,4.8-.45,2.065-.716,4.153-1.258,6.2-.529,2.01-1.1,4-1.542,6.033a15.106,15.106,0,0,1-.987,2.793,8.574,8.574,0,0,0-.664,1.865c-.083-.043-.162-.09-.245-.133a.262.262,0,0,0-.079-.161,8.441,8.441,0,0,0-2.193-1.41,14.1,14.1,0,0,0,.922-3.295c.315-1.571.511-3.157.743-4.74.511-3.518,1.276-7,1.935-10.5a79.4,79.4,0,0,0,1.411-10.82,83.467,83.467,0,0,1,1.394-10.691c.581-3.236,1.3-6.6.625-9.876a.037.037,0,1,0-.07.02c.585,3.009-.017,6.108-.564,9.089-.612,3.326-1.258,6.656-1.608,10.017a103.8,103.8,0,0,1-1.56,10.479c-.734,3.542-1.581,7.06-2.224,10.613-.3,1.649-.507,3.31-.813,4.96-.262,1.434-.738,2.8-1.127,4.2a10.161,10.161,0,0,1-1.769-1.947c-1.306-1.967-1.249-4.164-.826-6.343q.911-4.683,2.141-9.308a151.135,151.135,0,0,0,4.032-17.872c.227-1.614.428-3.236.647-4.854a45.727,45.727,0,0,0,.992-5.594,19.23,19.23,0,0,0,.057-3.545,23.826,23.826,0,0,0,.3-4.313l-.017-.239c.044-.149.079-.3.131-.447,8.34,1.963,16.846,3.361,25.36,4.591,2.481.357,4.976.65,7.475.909a16.964,16.964,0,0,0-.166,2.48c-.07,1.485-.179,2.962-.28,4.446-.2,2.883-.349,5.771-.5,8.654-.153,2.95-.432,5.9-.564,8.846-.1,2.194.891,4.76-.293,6.817-.026.047.066.047.092.008,1.105-1.8.529-4.125.511-6.084-.031-2.9.432-5.837.607-8.732.2-3.185.367-6.37.716-9.547.153-1.371.319-2.734.437-4.11.052-.65.1-1.3.205-1.951.039-.247.1-.494.166-.74,1.236.121,2.473.255,3.709.345l.044.024,0,.1a1.427,1.427,0,0,0-.035.321c-.031.2-.074.4-.109.6-.114.709-.223,1.418-.336,2.127-.249,1.563-.293,3.146-.419,4.721-.253,3.2-.642,6.4-.961,9.6-.62,6.268-1.11,12.56-1.193,18.851-.039,2.868-1.145,5.692-.6,8.564.013.055.127.027.122-.027-.3-2.923.944-5.79.961-8.709.022-3.354.223-6.707.467-10.052.5-6.789,1.455-13.531,2.193-20.3.188-1.728.494-3.447.834-5.156a4.934,4.934,0,0,0,.114-.584c1.315.086,2.639.149,3.962.188a6.4,6.4,0,0,0-.931,1.873,27.033,27.033,0,0,0-1.258,4.756c-.306,2.143-.428,4.3-.7,6.444s-.651,4.286-1.014,6.421a111.04,111.04,0,0,0-1.389,12.771,112.852,112.852,0,0,1-1.044,12.724m79.924-51.371c-1.149.149-2.311.2-3.469.247-2.586.106-5.124.5-7.689.791-.677.074-1.35.141-2.027.211-.009-.114-.087-.2-.306-.141-.494.125-1,.227-1.5.329-4.417.439-8.851.819-13.233,1.449-.476.047-.952.09-1.424.141-5.723.631-11.4,1.567-17.13,2.112-1.337.129-2.669.208-4,.27-1.909.074-3.818.1-5.727.118q-2.562-.006-5.138-.074c-1.525-.082-3.049-.2-4.578-.294a28.068,28.068,0,0,0-5.413.055c-3.517-.094-7.029-.231-10.546-.584v-.008c-.017-.294-.411-.192-.625-.047-5.845-.623-11.642-1.563-17.427-2.543-5.2-.882-10.38-1.79-15.5-3a.42.42,0,0,0-.267-.063c-.511-.121-1.022-.231-1.529-.36-1.171-.294-2.333-.615-3.491-.94-.052-.016-.1-.047-.153-.059a.471.471,0,0,0-.074,0c-10.162-2.852-19.921-6.656-29.729-10.366A331.769,331.769,0,0,1,141.573,452.6c-10.092-5.069-20.231-10.225-29.716-16.176-4.618-2.9-9.157-5.9-13.827-8.736-4.648-2.821-8.781-6.08-13.1-9.281-4.408-3.267-9.056-6.284-13.15-9.88A147.767,147.767,0,0,1,60.7,397.616c-6.872-7.467-13.25-15.341-19.309-23.353-4.286-5.665-12.992-21.3-15.207-25.519-2.333-4.454-4.806-8.858-7.068-13.343A164.282,164.282,0,0,1,8.5,307.892a174.1,174.1,0,0,1-5.906-28.336c-.581-4.815-.992-9.661-1.1-14.507-.114-5.179.1-10.358.393-15.533.328-5.72,1.826-20.266,2.079-21.833.856-3.82,8.8-37.331,9.393-39.6,1.254-4.8,2.757-9.567,4.351-14.276,3.189-9.43,7.492-18.495,11.813-27.541A158.941,158.941,0,0,1,44.349,120.89c2.241-3.079,4.561-6.111,6.876-9.144.157-.2.319-.392.476-.592A240.3,240.3,0,0,1,79.582,80.511C85,75.575,90.469,70.678,95.925,65.777a111.819,111.819,0,0,1,10.791-8.442c3.495-2.257,13.084-8.156,20.34-12.607,7.724-4.337,15.644-8.4,23.6-12.376a182.706,182.706,0,0,1,19.869-8.325c3.346-1.2,6.706-2.327,10.157-3.263,3.355-.909,6.741-1.724,10.026-2.813,1.595-.525,3.163-1.109,4.688-1.775.607,1.422,1.332,2.8,2.066,4.153,1.887,3.447,3.954,6.852,6.059,10.2.376.592.756,1.179,1.131,1.771-3.346,1.5-6.837,2.7-10.275,4.012-4.01,1.532-8.1,2.9-12.154,4.313-4.08,1.422-8.086,2.95-12.023,4.658-1.975.858-4.015,1.555-6.011,2.362-1.865.748-3.574,1.759-5.36,2.64-3.53,1.743-7.553,2.7-10.625,5.124-.035.027-.009.1.035.063,2.883-2.194,6.588-3.146,9.917-4.646,1.734-.784,3.355-1.755,5.089-2.543,1.874-.846,3.875-1.469,5.788-2.241,3.989-1.614,7.938-3.228,12.031-4.631,3.958-1.355,7.955-2.629,11.891-4.043,2.241-.8,4.513-1.536,6.732-2.382,1.123-.427,2.215-.9,3.359-1.285.686-.227,1.359-.474,2.01-.76q.5.776,1,1.559c-2.481.325-4.771,1.579-7.086,2.354-1.682.564-3.408,1.022-5.085,1.6s-3.333,1.234-4.985,1.877-3.2,1.418-4.827,2.072c-1.612.646-3.263,1.2-4.862,1.873-1.219.505-2.42,1.019-3.657,1.477l-2.8.9a25.4,25.4,0,0,0-2.63.862c-.944.317-1.883.642-2.813.983-14.583,5.328-27.348,14.056-40.043,22.232-3.1,2-6.278,3.918-9.248,6.072-3.054,2.213-5.937,4.607-8.794,7.016-5.968,5.034-11.979,9.986-17.623,15.318-4.657,4.4-9.375,8.8-13.687,13.492a42.428,42.428,0,0,0-5.068,5.383c-2.473,2.781-5,5.528-7.431,8.337-2.394,2.762-3.858,6.029-5.933,8.975a101.691,101.691,0,0,0-6.134,9.285c-1.791,3.252-3.578,6.538-5.12,9.892-1.533,3.33-3.176,6.64-4.565,10.021-2.853,6.962-4.535,14.291-6.557,21.468-1.123,4-2.154,8-3.027,12.05-.432,1.994-.856,3.988-1.249,5.986-.2,1.026-.4,2.057-.607,3.083-.087.419-.127.9-.2,1.371l-.223.878c-.083.227-.428.991-.245,1.073q-1.4,6.082-2.224,12.258c-.581,4.372-.821,8.771-1.162,13.159-.336,4.317-.625,8.646-.616,12.975.009,1.52.079,3.032.179,4.544.026,1.254.039,2.515.153,3.761.162,1.755.345,3.51.564,5.257q.668,5.3,1.586,10.577c.393,2.28.8,4.556,1.21,6.832.3,2.727.607,5.246.874,6.554.153.744.293,1.485.437,2.229a11.338,11.338,0,0,0,.476,2.715c.013.035.044.047.07.067.188.968.389,1.935.581,2.9A173.82,173.82,0,0,0,37.355,313.7c1.839,6.844,4.736,13.429,7.435,20.027,1.354,3.31,2.617,6.664,4.111,9.923,1.407,3.071,3.045,6.053,4.744,9.007,1.682,2.915,3.416,5.81,5.015,8.764a82.813,82.813,0,0,0,4.9,8.082c7.3,10.491,16.924,19.6,26.719,28.222a176.5,176.5,0,0,0,16.854,13.12c5.976,4.1,23.731,14.6,23.482,14.19.511.36,1.014.737,1.525,1.093,6.946,4.842,14.692,8.7,22.311,12.6,7.767,3.984,16.037,6.938,24.307,9.978a205.652,205.652,0,0,0,25.308,7.859c9.034,2.049,18.388,3.017,27.584,4.341,9.493,1.363,18.991,2.7,28.527,3.761a102.6,102.6,0,0,0,13.39.772c2.294-.047,4.587-.164,6.876-.274,2.757.274,5.483.47,8.274.5a108.282,108.282,0,0,0,19.869-1.254c.839-.145,1.673-.3,2.512-.451,1.118-.094,2.232-.18,3.346-.282,1.752-.161,3.482-.388,5.216-.623.122.47.245.936.363,1.406.655,2.668,1.389,5.312,2.259,7.929.511,1.547,1.105,3.071,1.747,4.576-9.729,1.771-19.812,1.861-29.663,2.7-5.592.482-11.149.983-16.771,1.1-5.539.114-11.083-.016-16.614-.321-11.153-.615-22.28-1.892-33.311-3.494a272.2,272.2,0,0,1-32.568-6.946c-3-.823-5.994-1.665-8.96-2.589-2.621-.815-5.177-1.8-7.8-2.6-2.193-.666-4.417-1.238-6.579-1.978a16.693,16.693,0,0,1-6.142-3.185c-.035-.027-.122.012-.087.047,2.669,2.613,6.894,3.643,10.524,4.705,4.788,1.395,9.428,3.15,14.224,4.529a280.729,280.729,0,0,0,32.8,7.5c11.022,1.779,22.206,3.095,33.368,3.9a206.407,206.407,0,0,0,33.232-.039c11.476-1.026,23.053-1.4,34.434-3.118.223.513.428,1.03.664,1.54-.17.035-.345.082-.516.1m13.884-19.611c.878,2.511,2.049,4.928,2.905,7.447,1.3,3.8,2.538,7.953,1.979,11.953a4.652,4.652,0,0,1-3.067,4.094,12.39,12.39,0,0,1-5.758.674,5.606,5.606,0,0,1-4.513-2.742,75.173,75.173,0,0,1-3.277-7.655c-1.118-3.009-2.014-6.06-3.263-9.026-.542-1.277-1.123-2.527-1.739-3.773a14.844,14.844,0,0,1-.839-1.869c.668-.117,1.328-.258,2-.38.179.415.371.823.555,1.215.682,1.469,1.4,2.911,1.992,4.411,1.057,2.7,1.6,5.512,2.827,8.168.022.039.135.016.122-.027-.944-2.707-1.258-5.567-2.232-8.274-.511-1.414-1.057-2.809-1.512-4.239-.153-.49-.3-.995-.459-1.5q4.961-.94,9.869-2.053v0a13.5,13.5,0,0,1,.865,1.837c.38.936.76,1.857,1.215,2.762.852,1.716,1.651,3.455,2.385,5.21a30.74,30.74,0,0,1,2.014,6.339,10.7,10.7,0,0,1-.223,5.943c-.917,2.241-3.163,3.271-5.675,3.62-.052,0-.057.1,0,.1a6.674,6.674,0,0,0,5.365-2.574,8.284,8.284,0,0,0,1.07-5.316,32.669,32.669,0,0,0-1.6-6.836,64.179,64.179,0,0,0-2.337-6.131,30.71,30.71,0,0,1-1.206-3.275c-.183-.623-.345-1.316-.6-1.963.463-.106.931-.2,1.389-.31a21.26,21.26,0,0,1,1.752,4.168m163.1-155.681a203.4,203.4,0,0,1-41.515,73.129,229.977,229.977,0,0,1-69.518,53.22,254.5,254.5,0,0,1-86.805,25.449,260.337,260.337,0,0,1-91.06-6.108,246.132,246.132,0,0,1-81.825-36.59,221.055,221.055,0,0,1-60.366-61.9A196.823,196.823,0,0,1,40.67,272.551a191.118,191.118,0,0,1,6.562-82.528,205.17,205.17,0,0,1,41.651-73.909A231.657,231.657,0,0,1,159.1,62.4a256.382,256.382,0,0,1,87.67-25.445,262.213,262.213,0,0,1,91.685,6.617A246.769,246.769,0,0,1,420.341,80.9a226.142,226.142,0,0,1,27.068,22.444c0,.251-.009.5-.031.74-.148,1.6-.6,3.169-.764,4.768a48.758,48.758,0,0,0-.092,7.7,34.689,34.689,0,0,0,.38,3.98,11.2,11.2,0,0,0,.913,3.412,11.408,11.408,0,0,0,4.526,4.047,23.609,23.609,0,0,1,5.919,4.431,27.258,27.258,0,0,1,2.481,3.377c.328.505.638,1.019.957,1.532.363.584.59,1.211.926,1.8,1.066,1.857,2.577,3.381,2.5,5.594-.074,1.955-1.193,3.635-1.953,5.414a9.719,9.719,0,0,0-.782,6.5c1.14,3.976,5.413,6.421,8.9,8.693,3.329,2.163,6.885,4.286,8.353,7.913a13.88,13.88,0,0,1,.682,5.943c-.061,1.571-.013,3.114,1.149,4.388,1.778,1.955,4.583,3.067,6.846,4.5,1.581,1,3.006,2.178,4.583,3.185a29.21,29.21,0,0,0,5.015,2.64,6.6,6.6,0,0,0,4.6.411c.048-.02.087-.047.14-.067a188.849,188.849,0,0,1-1.415,109.281" transform="translate(0.331 0.598)" fill="#00c2ff"/>
          <path id="Trazado_875820" data-name="Trazado 875820" d="M53.747,138.845c-.59,0-1.175-.07-1.761-.114a9.665,9.665,0,0,0-1.782.008c-.066.008-.114.137-.031.133.585-.008,1.175.055,1.761.1a10.422,10.422,0,0,0,1.782.012c.07-.008.114-.137.031-.137" transform="translate(169.196 405.251)" fill="#00c2ff"/>
          <path id="Trazado_875821" data-name="Trazado 875821" d="M59.066,146.373a46.468,46.468,0,0,0-5.12-.451,17.446,17.446,0,0,1-5.015-.658c-.083-.031-.14.1-.07.137a13.518,13.518,0,0,0,4.81.823c1.787.141,3.582.094,5.369.259.057,0,.087-.1.026-.11" transform="translate(164.82 424.406)" fill="#00c2ff"/>
          <path id="Trazado_875822" data-name="Trazado 875822" d="M82.426,15.117a109.5,109.5,0,0,0-14.111,8.458q-3.565,2.5-7.191,4.932c-2.1,1.41-4.491,2.456-6.474,4.016C46.131,39.226,37.206,45.8,30,53.689c-2.058,2.257-3.945,4.576-6.23,6.656A83.6,83.6,0,0,0,17.451,67c-.118.137.035.478.214.3,1.9-1.951,3.63-4.035,5.609-5.927.974-.932,1.992-1.81,2.905-2.8.878-.948,1.7-1.939,2.538-2.919A98.818,98.818,0,0,1,40.343,44.432c4.137-3.463,8.449-6.754,12.669-10.139a38.955,38.955,0,0,1,3.333-2.55c1.088-.7,2.241-1.312,3.359-1.974,2.3-1.363,4.447-2.962,6.627-4.47A153.681,153.681,0,0,1,82.448,15.2c.039-.02.026-.11-.022-.082" transform="translate(58.976 44.688)" fill="#00c2ff"/>
          <path id="Trazado_875823" data-name="Trazado 875823" d="M73.908,201.854c-5.094-5.195-10.546-10.1-15.544-15.369-2.451-2.582-4.779-5.253-7.134-7.906a67.716,67.716,0,0,1-6.588-8.517c-1.236-1.947-2.438-3.918-3.757-5.821-1.153-2.206-2.315-4.411-3.683-6.5-2.062-3.15-4.487-6.1-6.553-9.245-2.176-3.318-4.185-6.719-6.064-10.178A216.268,216.268,0,0,1,6.517,94.207c-1.079-3.8-2.446-7.53-3.508-11.334s-1.922-7.8-1.389-11.729c.009-.055-.079-.027-.087.016C.462,78.086,3.367,85.028,5.411,91.594c1.145,3.686,2.145,7.4,3.351,11.071q1.946,5.923,4.281,11.737c5.889,14.585,12.831,28.888,22.446,41.832a42.38,42.38,0,0,1,3.163,5.077c-.092-.114-.179-.231-.275-.345-.026-.031-.109.016-.079.055.232.274.428.564.647.846,2.551,4.776,9.139,13.594,9.017,13.457a42.555,42.555,0,0,1-6.055-9.144c.721,1.171,1.429,2.347,2.149,3.514a63.665,63.665,0,0,0,5.968,8.043c4.7,5.457,9.572,10.726,14.823,15.76,2.953,2.832,5.92,5.649,8.868,8.489.074.074.28-.047.192-.133" transform="translate(4.716 208.077)" fill="#00c2ff"/>
          <path id="Trazado_875824" data-name="Trazado 875824" d="M96.471,20.836c-2.634,2.4-6.518,3.2-10.118,3.643a36.666,36.666,0,0,0-5.12.6,14.88,14.88,0,0,0-4.989,2.374c-3.215,2.386-4.744,5.833-7.082,8.822a14.108,14.108,0,0,1-4.535,3.671,56.788,56.788,0,0,1-5.347,2.182c-1.437.556-2.944.9-3.984,2.029A5.638,5.638,0,0,0,54.025,46.4a6.824,6.824,0,0,0,.061,2.543c.035.368.507.313.6,0A14.873,14.873,0,0,1,55.7,46.833a6.391,6.391,0,0,1,.83-1.375,8.628,8.628,0,0,1,3.421-2.5c1.769-.721,3.547-1.438,5.334-2.123a10.869,10.869,0,0,0,4.465-2.911c2.429-2.77,3.77-6.272,6.754-8.65a15.167,15.167,0,0,1,4.923-2.5c1.708-.548,3.359-1.211,5.116-1.638,3.639-.889,7.352-1.575,9.987-4.207.048-.047.009-.153-.061-.09" transform="translate(181.958 61.334)" fill="#00c2ff"/>
          <path id="Trazado_875825" data-name="Trazado 875825" d="M53.259,59.095a14.547,14.547,0,0,1-.446-5.606,12.17,12.17,0,0,1,1.564-5.116,51.652,51.652,0,0,1,3.307-4.145q1.658-2.1,3.176-4.29c2.2-3.158,4.015-6.726,3.207-10.527-.035-.168-.293-.008-.275.118.485,3.6-1.022,7.083-3.276,10.013-2.176,2.828-5.373,4.92-7.444,7.792a10.168,10.168,0,0,0-1.922,4.736,13.264,13.264,0,0,0,.716,4.729c.874,3.471,2.289,6.8,3.18,10.26a24.747,24.747,0,0,1,1.022,6.123A8.5,8.5,0,0,1,55.54,76.1a11.961,11.961,0,0,1-1.97,3c-.118.153.074.313.232.192,2.822-2.3,3.18-6.37,2.586-9.539-.682-3.616-2.184-7.095-3.128-10.66" transform="translate(172.51 86.196)" fill="#00c2ff"/>
          <path id="Trazado_875826" data-name="Trazado 875826" d="M66.9,15.359A29.606,29.606,0,0,1,61.073,13.5c-.057-.027-.144.071-.079.106,2.979,1.653,6.466,2.558,9.72,3.671,3.412,1.167,7.13,2.284,9.768,4.654a7.79,7.79,0,0,1,2.569,4.49c.048.227.4.067.419-.1.917-7.675-10.559-9.481-16.57-10.961" transform="translate(205.718 39.979)" fill="#00c2ff"/>
          <path id="Trazado_875827" data-name="Trazado 875827" d="M67.274,17.424c.031-.2-.223-.172-.249,0a23.088,23.088,0,0,1-1.258,5.253c-.092.215.157.3.271.1a7.419,7.419,0,0,0,.83-2.586c.131-.921.258-1.845.406-2.766" transform="translate(221.806 51.031)" fill="#00c2ff"/>
          <path id="Trazado_875828" data-name="Trazado 875828" d="M59.728,65.059a41.826,41.826,0,0,1-6.282,3.6c-2.272.987-5.033,1.779-7.562,1.195a9.184,9.184,0,0,1-4.338-2.237,3.644,3.644,0,0,1-.987-2.919c.183-2.668,1.918-5.12,3.884-7.036a19.508,19.508,0,0,1,3.1-2.445,31.254,31.254,0,0,0,5.828-4.862,38.768,38.768,0,0,0,4.465-5.876,8.544,8.544,0,0,1,5.579-4.211c.162-.035.284-.282.039-.255a7.911,7.911,0,0,0-5.155,2.832c-1.5,1.7-2.687,3.565-4.294,5.195a60.079,60.079,0,0,1-6.78,5.9,31.435,31.435,0,0,0-3.412,2.989,36.88,36.88,0,0,0-3.167,3.694,10.838,10.838,0,0,0-2.062,4.086,4.4,4.4,0,0,0,.8,3.714,6.82,6.82,0,0,0,4.644,2.123,17.976,17.976,0,0,0,8.558-1,30.153,30.153,0,0,0,7.383-4.258c.205-.153-.031-.364-.232-.231" transform="translate(129.9 117.335)" fill="#00c2ff"/>
          <path id="Trazado_875829" data-name="Trazado 875829" d="M44.737,46.2a.143.143,0,0,0-.114-.02c-.236.071-.476.137-.712.208a.234.234,0,0,0-.122.071.2.2,0,0,0-.061.118.108.108,0,0,0,.039.1.143.143,0,0,0,.114.02c.236-.07.476-.137.712-.208a.252.252,0,0,0,.122-.071.2.2,0,0,0,.061-.118.108.108,0,0,0-.039-.1" transform="translate(147.633 135.323)" fill="#00c2ff"/>
          <path id="Trazado_875830" data-name="Trazado 875830" d="M51.233,51.529a13.145,13.145,0,0,0-1.756-2.014,18.167,18.167,0,0,0-4.522-3c-.044-.02-.1.047-.057.071a16.875,16.875,0,0,1,4.111,3.342,17.324,17.324,0,0,1,1.612,2.029A17.925,17.925,0,0,0,51.945,54.1c.149.168.45-.106.437-.259a5.278,5.278,0,0,0-1.149-2.315" transform="translate(151.522 136.298)" fill="#00c2ff"/>
          <path id="Trazado_875831" data-name="Trazado 875831" d="M52.848,69.294c-2.433-1.446-5.557-1.2-8.261-.631-2.8.588-5.679,1.4-8.593,1.328a9.745,9.745,0,0,1-7.615-3.471c-1.629-2.084-2.25-4.658-2.87-7.1-.651-2.582-1.263-5.265-2.953-7.49-.044-.055-.109.051-.083.094,2.944,4.4,2.342,9.958,5.1,14.452a9.922,9.922,0,0,0,6.361,4.6c3.076.58,5.85-.525,8.724-1.316a25.881,25.881,0,0,1,4.775-.936,10.913,10.913,0,0,1,5.225.936c.271.114.4-.341.192-.466" transform="translate(76.011 152.056)" fill="#00c2ff"/>
          <path id="Trazado_875832" data-name="Trazado 875832" d="M66.515,58.924c-4.159-2.6-9.2-2.374-13.884-1.152s-9.3,2.942-14.272,2.852A13.736,13.736,0,0,1,30.644,58.1c-.039-.027-.074.051-.044.082a11.984,11.984,0,0,0,6.208,2.864,20.5,20.5,0,0,0,6.789-.392c4.775-.94,9.428-2.519,14.355-2.774a18.282,18.282,0,0,1,8.349,1.43c.227.106.4-.27.214-.392" transform="translate(103.37 166.587)" fill="#00c2ff"/>
          <path id="Trazado_875833" data-name="Trazado 875833" d="M40.127,57.576c-.035,0-.07.055-.026.063s.07-.059.026-.063" transform="translate(135.346 168.581)" fill="#00c2ff"/>
          <path id="Trazado_875834" data-name="Trazado 875834" d="M91.46,76.571c-3.338.564-6.972-.1-10.236-.752A57.292,57.292,0,0,1,71,72.967a39.693,39.693,0,0,1-4.679-2.484,49.2,49.2,0,0,1-4.5-2.9c-3.019-2.206-5.6-4.85-8.772-6.9-2.752-1.779-5.893-4.975-9.62-4.611-.052.008-.144.106-.057.129a13.592,13.592,0,0,1,4.775,2.08c1.372.964,2.665,2.006,4.1,2.891a38.962,38.962,0,0,1,4.6,3.373c1.442,1.207,2.687,2.554,4.05,3.824a20.793,20.793,0,0,0,4.294,3.079,35.008,35.008,0,0,0,5.068,2.01,76.953,76.953,0,0,0,10.3,2.832c3.491.709,7.309,1.371,10.856.619.223-.047.354-.388.044-.337" transform="translate(146.292 164.105)" fill="#00c2ff"/>
          <path id="Trazado_875835" data-name="Trazado 875835" d="M55.188,60.845c-.17-.024-.411.219-.183.251.17.024.415-.219.183-.251" transform="translate(185.308 178.115)" fill="#00c2ff"/>
          <path id="Trazado_875836" data-name="Trazado 875836" d="M64.637,50.307a8.162,8.162,0,0,1-1.791,2.962,9.152,9.152,0,0,1-3.106,1.939,8.426,8.426,0,0,1-7.138.043c-.336-.168-.751.462-.467.666,2.307,1.661,5.426,1.446,7.912.188a12.018,12.018,0,0,0,3.246-2.593,6.434,6.434,0,0,0,1.756-3.228c.048-.294-.341-.168-.411.024" transform="translate(175.632 146.794)" fill="#00c2ff"/>
          <path id="Trazado_875837" data-name="Trazado 875837" d="M55.529,50.515c-.022-.18-.057-.36-.07-.541a1.942,1.942,0,0,1-.026-.274c0-.035.017-.071.022-.11a.572.572,0,0,0-.009-.172c-.017-.137-.135-.2-.28-.137a.32.32,0,0,0-.192.349.652.652,0,0,0,.057.153c.017.027.044.051.057.074a1.009,1.009,0,0,1,.07.255,3.425,3.425,0,0,1,.092.513c.057.36.1.725.131,1.085.013.184.275.051.266-.086-.031-.372-.07-.74-.118-1.109" transform="translate(185.491 144.309)" fill="#00c2ff"/>
          <path id="Trazado_875838" data-name="Trazado 875838" d="M55.23,48.858c-.074-.012-.109.125-.035.137s.109-.125.035-.137" transform="translate(186.122 143.142)" fill="#00c2ff"/>
          <path id="Trazado_875839" data-name="Trazado 875839" d="M76.061,45.234c-.489.419-.856.928-1.367,1.332a8.326,8.326,0,0,1-1.813,1.07,10.015,10.015,0,0,1-4.185.831,24.491,24.491,0,0,1-4.1-.56,12.18,12.18,0,0,1-3.783-1.171c-.131-.074-.384.11-.245.215a9.549,9.549,0,0,0,3.543,1.861,13.8,13.8,0,0,0,4.8.168,14.975,14.975,0,0,0,4.46-1.085c1.118-.5,2.687-1.41,3.058-2.554.074-.223-.232-.215-.363-.106" transform="translate(204.215 132.353)" fill="#00c2ff"/>
          <path id="Trazado_875840" data-name="Trazado 875840" d="M64.94,45.135a1.246,1.246,0,0,0-.577-1.046c-.157-.078-.35.172-.245.286a1.711,1.711,0,0,1,.577.866,2.205,2.205,0,0,1-.231,1.16.084.084,0,0,0,.052.125c.066.016.118-.047.144-.094a2.378,2.378,0,0,0,.28-1.3" transform="translate(216.223 129.189)" fill="#00c2ff"/>
          <path id="Trazado_875841" data-name="Trazado 875841" d="M25.647,80.979a32.443,32.443,0,0,1-5.321-6.9,22.693,22.693,0,0,1-2.46-7.913,24.685,24.685,0,0,1,.227-8.423,67.175,67.175,0,0,1,3.049-9.5,35.569,35.569,0,0,0,2.586-10.248c0-.035-.066-.012-.07.016-.524,6.911-4.622,12.92-6.4,19.553a22.308,22.308,0,0,0-.668,8.525,22.574,22.574,0,0,0,2.656,7.608,25.236,25.236,0,0,0,6.042,7.592c.17.145.515-.145.358-.306" transform="translate(55.703 111.389)" fill="#00c2ff"/>
          <path id="Trazado_875842" data-name="Trazado 875842" d="M68.317,116.009c-2.088-2.656-4.635-5.195-5.959-8.262-.747-1.724-1.158-3.561-1.87-5.3a34.406,34.406,0,0,1-1.87-5.269c-.437-1.9-.8-3.878-1.07-5.8a29.227,29.227,0,0,1-.363-6.2c.28-3.886,1.927-7.631,2.045-11.522.109-3.741-1.485-7.722.14-11.341.026-.059-.074-.047-.1-.008-1.782,3.028-.751,6.723-.594,9.966.192,3.925-1.258,7.78-1.935,11.631a42.754,42.754,0,0,0,.035,12.47,20,20,0,0,0,1.45,5.226c.73,1.767,1.739,3.416,2.556,5.148a26.155,26.155,0,0,0,2.971,4.983,60.618,60.618,0,0,0,4.124,4.556c.14.149.572-.1.437-.27" transform="translate(189.98 182.264)" fill="#00c2ff"/>
          <path id="Trazado_875843" data-name="Trazado 875843" d="M79.667,107.347a17.177,17.177,0,0,1-4.705-6.554A30.85,30.85,0,0,1,73.25,93.04c-.284-2.539-.332-5.234-1.346-7.647a9.871,9.871,0,0,0-4.443-4.9c-2.516-1.379-5.225-2.421-7.746-3.784-.092-.051-.21.114-.118.168,1.158.729,2.324,1.442,3.456,2.206.974.654,2.018,1.214,2.918,1.959a14.567,14.567,0,0,1,4.024,5.289c2.079,4.721,2.311,9.911,4.194,14.687a12.69,12.69,0,0,0,5.172,6.68c.184.106.454-.219.306-.353" transform="translate(200.981 224.382)" fill="#00c2ff"/>
          <path id="Trazado_875844" data-name="Trazado 875844" d="M65.866,85.944c-.3-.243-.594-.486-.891-.733-.074-.059-.266.035-.17.114.3.243.594.486.891.733.074.059.267-.035.17-.114" transform="translate(218.543 249.157)" fill="#00c2ff"/>
          <path id="Trazado_875845" data-name="Trazado 875845" d="M86.978,91.091c-4.657-5.528-13.18-4.634-20-4.552-.039,0-.079.071-.022.071,6.859.039,14.749-.3,19.838,4.6.066.059.245-.043.184-.114" transform="translate(225.788 252.786)" fill="#00c2ff"/>
          <path id="Trazado_875846" data-name="Trazado 875846" d="M76.368,93.682A8.872,8.872,0,0,0,74.913,91.3c-.585-.787-1.258-1.532-1.909-2.28-.048-.051-.127.039-.1.086.555.823,1.07,1.665,1.625,2.488a19.53,19.53,0,0,0,1.555,2.3c.122.137.319-.086.28-.208" transform="translate(245.909 260.278)" fill="#00c2ff"/>
          <path id="Trazado_875847" data-name="Trazado 875847" d="M80.092,92.876c.031-.055-.048-.059-.074-.016-1.027,1.849-1.166,3.929-1.581,5.927a36.933,36.933,0,0,1-2.508,6.629,55.781,55.781,0,0,0-3.678,14.1c-.039.286.341.172.384-.035.507-2.4,1.136-4.768,1.734-7.146a63.916,63.916,0,0,1,2.093-7.114,39.251,39.251,0,0,0,2.119-6.068c.419-2.1.472-4.313,1.512-6.276" transform="translate(243.705 271.442)" fill="#00c2ff"/>
          <path id="Trazado_875848" data-name="Trazado 875848" d="M73.955,111.677a14.941,14.941,0,0,0,.179-2.613,11.361,11.361,0,0,0-.494-2.5,28.541,28.541,0,0,1-.485-5.857c-.009-.172-.371-.11-.363.043a25.359,25.359,0,0,1-.009,5.551,19.249,19.249,0,0,0-.45,2.817,17.343,17.343,0,0,0,.149,2.648,46.5,46.5,0,0,1-.489,11.091c-.026.239.45.141.494-.055.8-3.679.957-7.416,1.468-11.126" transform="translate(242.848 294.121)" fill="#00c2ff"/>
          <path id="Trazado_875849" data-name="Trazado 875849" d="M72.514,107.567c.013-.074-.083-.094-.1-.02a12.736,12.736,0,0,0-.446,4.544c.017.1.144.02.127-.063a12.47,12.47,0,0,1,.415-4.462" transform="translate(242.467 314.239)" fill="#00c2ff"/>
          <path id="Trazado_875850" data-name="Trazado 875850" d="M103.658,103.373c-9.013,2.123-17.964,6.715-23.687,13.4-.044.055.009.133.066.071a32.151,32.151,0,0,1,11-7.761c4.155-1.841,8.5-3.318,12.625-5.2.188-.09.341-.592,0-.509" transform="translate(269.671 302.171)" fill="#00c2ff"/>
          <path id="Trazado_875851" data-name="Trazado 875851" d="M99.651,97.956a32.2,32.2,0,0,0-2.377,4.96,50.857,50.857,0,0,1-2.5,4.658,28.917,28.917,0,0,1-7.92,8.411c-.066.047,0,.11.065.063A32.85,32.85,0,0,0,95.06,107.9a37.531,37.531,0,0,0,2.713-4.666c.415-.827.808-1.665,1.179-2.507A11.733,11.733,0,0,0,100,98.007c.031-.2-.253-.18-.345-.051" transform="translate(292.808 286.107)" fill="#00c2ff"/>
          <path id="Trazado_875852" data-name="Trazado 875852" d="M119.19,89.548A26.351,26.351,0,0,1,110.5,102.86c-4.124,3.287-9.419,5.116-13.8,8.082a13.323,13.323,0,0,0-3.115,2.942,18.482,18.482,0,0,1-3.089,3.569c-.07.055-.017.157.07.094,2.254-1.638,3.692-3.992,6.037-5.528a88.481,88.481,0,0,1,8.239-4.333c4.53-2.307,9.126-4.627,11.319-9.108,1.42-2.9,3.023-5.927,3.447-9.1.035-.266-.367-.1-.411.067" transform="translate(305.042 261.262)" fill="#00c2ff"/>
          <path id="Trazado_875853" data-name="Trazado 875853" d="M99.829,87.467a8.7,8.7,0,0,0-2.18,2.762c-.026.051.07.039.087,0a8.653,8.653,0,0,1,2.154-2.727c.048-.043-.022-.074-.061-.039" transform="translate(329.261 255.747)" fill="#00c2ff"/>
          <path id="Trazado_875854" data-name="Trazado 875854" d="M103.108,85.5a21.643,21.643,0,0,1-1.97,3.052c-.747.94-1.564,1.833-2.359,2.742-.031.035.009.082.048.043,1.656-1.779,3.526-3.569,4.439-5.774.048-.125-.092-.18-.157-.063" transform="translate(333.042 249.863)" fill="#00c2ff"/>
          <path id="Trazado_875855" data-name="Trazado 875855" d="M128.038,86.183a10.971,10.971,0,0,1-1.765-5.959c-.07-1.022-.057-2.037-.044-3.064a13.7,13.7,0,0,0-.131-3.138c-.965-4.282-7.034-4.607-10.808-5.63-4.788-1.3-9.6-4.979-9.939-9.712-.306-4.239,1.542-8.564,3.054-12.509a9.845,9.845,0,0,0,.686-6.26,9.454,9.454,0,0,0-5.055-5.575c-.363-.188-.8.423-.542.678a13.187,13.187,0,0,1,3.936,5.814,13.276,13.276,0,0,1,.087,5.442,52.962,52.962,0,0,1-1.852,6.006,19.064,19.064,0,0,0-.952,6.108,9.769,9.769,0,0,0,2.211,6.013c1.477,1.755,3.814,2.805,5.972,3.761a32.936,32.936,0,0,0,6.763,1.728,9.364,9.364,0,0,1,3.141,1.16,6.082,6.082,0,0,1,2.171,2.719,8.353,8.353,0,0,1,.834,3.361,35.543,35.543,0,0,1-.332,3.726c-.21,2.2-.057,4.458,2.232,5.743.236.129.454-.251.332-.411" transform="translate(348.701 100.677)" fill="#00c2ff"/>
          <path id="Trazado_875856" data-name="Trazado 875856" d="M105.646,35.885a6.745,6.745,0,0,1-.952-.862c-.144-.161-.275-.329-.428-.482s-.3-.309-.437-.47c-.271-.306-.529-.623-.778-.944-.122-.157-.227-.321-.363-.474a3.8,3.8,0,0,0-.376-.439c-.188-.161-.406.067-.389.251a3.688,3.688,0,0,0,1.442,2.186c.166.137.341.282.52.415a3.878,3.878,0,0,0,.555.329c.384.2.765.415,1.153.615.07.035.1-.09.052-.125" transform="translate(343.671 94.428)" fill="#00c2ff"/>
        </g>
      </g>
    </g>
  </g>
</svg>
