<svg xmlns="http://www.w3.org/2000/svg" xmlns:xlink="http://www.w3.org/1999/xlink" width="163.363" height="280.086" viewBox="0 0 163.363 280.086">
  <defs>
    <clipPath id="clip-path">
      <rect id="Rectángulo_402812" data-name="Rectángulo 402812" width="163.363" height="280.086" fill="none"/>
    </clipPath>
  </defs>
  <g id="img-8" transform="translate(2190.156 5374.415)">
    <g id="Grupo_1103323" data-name="Grupo 1103323" transform="translate(-2190.156 -5374.415)">
      <g id="Grupo_1102036" data-name="Grupo 1102036" clip-path="url(#clip-path)">
        <path id="Trazado_883139" data-name="Trazado 883139" d="M130.941,384.3c0,3.4-24.552,6.157-54.84,6.157S21.262,387.7,21.262,384.3,45.814,378.14,76.1,378.14s54.84,2.756,54.84,6.156" transform="translate(-6.206 -110.368)" fill="#bbced5" opacity="0.53"/>
        <path id="Trazado_883140" data-name="Trazado 883140" d="M115.921,134.443a11.881,11.881,0,0,0-11.707-9.852H78.443a11.882,11.882,0,0,0-11.8,10.517l-3.918,33.884a11.882,11.882,0,0,0,11.8,13.247h35.567A11.882,11.882,0,0,0,121.8,168.327c-1.816-10.469-4.26-24.56-5.878-33.884" transform="translate(-18.284 -36.364)" fill="#edc360"/>
        <path id="Trazado_883141" data-name="Trazado 883141" d="M121.658,136.965a11.881,11.881,0,0,0-11.683-9.714H84a11.882,11.882,0,0,0-11.792,10.423l-3.726,30.117a11.882,11.882,0,0,0,11.792,13.341h35.29a11.882,11.882,0,0,0,11.682-14.051c-1.757-9.468-4.03-21.716-5.589-30.116" transform="translate(-19.962 -37.141)" fill="#e4a750"/>
        <path id="Trazado_883142" data-name="Trazado 883142" d="M65.957,171.5l-2.951-.185L62.127,185.3a2.413,2.413,0,0,0,2.257,2.559l.544.034Z" transform="translate(-18.132 -50.001)" fill="#e4a750"/>
        <path id="Trazado_883143" data-name="Trazado 883143" d="M24.751,247.43,5.327,272.986c5.862,1.078,12.384-1.023,19.882-7.811L27.9,254.266a28.952,28.952,0,0,0-3.144-6.836" transform="translate(-1.555 -72.217)" fill="#ff744d"/>
        <path id="Trazado_883144" data-name="Trazado 883144" d="M3.772,271.347,23.2,245.791a17.253,17.253,0,0,0-3.4-3.977L0,270.2a17.265,17.265,0,0,0,3.772,1.144" transform="translate(0 -70.578)" fill="#f3e3e3"/>
        <path id="Trazado_883145" data-name="Trazado 883145" d="M85.915,234.667S77.424,273.845,70.8,278.454c-7.083,4.928-40.817-19.509-40.817-19.509-1-2.893,2.02-11.259,4.172-12.1,0,0,22.487,8.764,22.812,7.02.615-3.3,1.993-27.429,1.993-27.429Z" transform="translate(-8.693 -66.089)" fill="#e79f91"/>
        <path id="Trazado_883146" data-name="Trazado 883146" d="M70.587,230.989l.28-4.555,26.957,8.233s-.61,2.814-1.636,7.019c-11.082-1.276-20.925-7.361-25.6-10.7" transform="translate(-20.602 -66.089)" fill="#d57c77"/>
        <path id="Trazado_883147" data-name="Trazado 883147" d="M110.433,374.992l32.065,1.5c-2.438-5.439-7.867-9.619-17.711-11.942l-10.508,3.977a28.948,28.948,0,0,0-3.846,6.467" transform="translate(-32.232 -106.401)" fill="#ff744d"/>
        <path id="Trazado_883148" data-name="Trazado 883148" d="M141.943,380.795l-32.065-1.5a17.231,17.231,0,0,0-1.347,5.055l34.61.2a17.228,17.228,0,0,0-1.2-3.755" transform="translate(-31.677 -110.705)" fill="#f3e3e3"/>
        <path id="Trazado_883149" data-name="Trazado 883149" d="M114.867,233.423a656.678,656.678,0,0,1,.576,95.3c3.4.411,9.347.042,13.67-2.867A844.939,844.939,0,0,0,140.5,226.434Z" transform="translate(-33.526 -66.089)" fill="#e79f91"/>
        <path id="Trazado_883150" data-name="Trazado 883150" d="M140.043,233.156l.46-6.722-25.636,6.989.583,8.442c9.228-.588,18.181-4.807,24.593-8.708" transform="translate(-33.526 -66.089)" fill="#d57c77"/>
        <path id="Trazado_883151" data-name="Trazado 883151" d="M80.775,187.24C74,194.1,70.839,203.562,69.528,216.993a57.065,57.065,0,0,0,28.535,9.379l1.9-6.479.65,6.3c9.277-.939,20.287-3.684,28.832-8.6a96.075,96.075,0,0,0-9.319-30.125Z" transform="translate(-20.293 -54.65)" fill="#00c3ff"/>
        <path id="Trazado_883152" data-name="Trazado 883152" d="M79.488,192.55a30.1,30.1,0,0,1,4.194-5.31l39.356.224,1.234,2.64a34.3,34.3,0,0,1-6.912,2.326c-9.266,1.909-24.357,3.31-37.871.12" transform="translate(-23.2 -54.65)" fill="#0088b5"/>
        <path id="Trazado_883153" data-name="Trazado 883153" d="M119.33,234.958c-2.105.387-4.176.672-6.166.874l-.65-6.3v-.26l2.07-6.649,14.879-2.347Z" transform="translate(-32.839 -64.293)" fill="#0088b5"/>
        <path id="Trazado_883154" data-name="Trazado 883154" d="M83.691,93.2s12.835,12.152,16.52,11.673S117.7,93.222,117.7,93.222s13.156,57.815,10.517,63.162c-2.455,4.974-9.236,6.627-10.517,6.9s-30.41,2.539-35.884-.637c-4.82-2.8-7.906-4.57-7.854-10S83.691,93.2,83.691,93.2" transform="translate(-21.586 -27.202)" fill="#33a952"/>
        <path id="Trazado_883155" data-name="Trazado 883155" d="M76.464,152.344c.523,6.383,3.333,14.1,8.745,18.405,8.521,6.771,29.463,8.088,43.334-.8a9.319,9.319,0,0,1-.33,3.7c-2.455,4.974-9.236,6.627-10.517,6.9s-30.41,2.539-35.884-.637c-4.82-2.8-7.906-4.57-7.854-10,.018-1.792,1.084-8.88,2.505-17.572" transform="translate(-21.586 -44.465)" fill="#247838"/>
        <path id="Trazado_883156" data-name="Trazado 883156" d="M100.644,96.426s1.044,7.192-2,8.867c0,0,2.389,9.609,9.256,9.417,5.661-.158,8.418-9.468,8.418-9.468s-3.215-.124-2.588-8.389Z" transform="translate(-28.791 -28.144)" fill="#e79f91"/>
        <path id="Trazado_883157" data-name="Trazado 883157" d="M101.226,102.429c3.985,2.486,11.674,4.142,15.752,3.1.061-.184.091-.287.091-.287s-3.215-.124-2.588-8.389L101.4,96.426a18.524,18.524,0,0,1-.172,6" transform="translate(-29.545 -28.144)" fill="#d57c77"/>
        <path id="Trazado_883158" data-name="Trazado 883158" d="M132.969,75.868c18.137-12.49,33.238-29.918,46.785-49.878l6.977,7.662a396.215,396.215,0,0,1-48.673,68.657Z" transform="translate(-38.81 -7.586)" fill="#e79f91"/>
        <path id="Trazado_883159" data-name="Trazado 883159" d="M198.291,20.811s-3.32-12.97-1.7-14.056,4.5,7.334,4.5,7.334S208.943,2.364,211,3.558s-2.747,9.478-2.747,9.478,8.3-5.834,9.863-4.7-6.54,8.611-6.54,8.611,8.176-2.276,8.562-.953-7.287,5.562-7.287,5.562,8.075.253,7.755,1.624-15.966,4.16-15.966,4.16l-5.63-5.769" transform="translate(-57.249 -1.014)" fill="#e79f91"/>
        <path id="Trazado_883160" data-name="Trazado 883160" d="M70.99,78.427C57.147,65.285,43.1,46.417,29.379,24.157l-7.7,6.933C32.8,56.953,47.3,80.169,63.488,103.3Z" transform="translate(-6.327 -7.051)" fill="#e79f91"/>
        <path id="Trazado_883161" data-name="Trazado 883161" d="M22.972,18.482S27.563,5.905,26.06,4.664s-5.208,6.853-5.208,6.853S14.2-.929,12.041.055s1.794,9.7,1.794,9.7S6.151,3.131,4.486,4.106s5.654,9.217,5.654,9.217-7.911-3.075-8.426-1.8,6.7,6.257,6.7,6.257-8.06-.549-7.878.847,15.474,5.722,15.474,5.722l6.174-5.183" transform="translate(-0.156 0)" fill="#e79f91"/>
        <path id="Trazado_883162" data-name="Trazado 883162" d="M90.363,100.705l-3.4-1.229c-5.509,20.811-11.351,40.458-18.575,60.026.2,2.044.764,3.665,2.27,4.181a466.345,466.345,0,0,0,19.7-62.978" transform="translate(-19.962 -29.034)" fill="#f5d887"/>
        <path id="Trazado_883163" data-name="Trazado 883163" d="M122.019,100.705l3.4-1.229c5.51,20.811,10.46,38.238,17.683,57.806-.411,1.891-1.44,3.1-2.3,3.388a422.617,422.617,0,0,1-18.775-59.964" transform="translate(-35.614 -29.034)" fill="#f5d887"/>
        <path id="Trazado_883164" data-name="Trazado 883164" d="M100.415,144.993c-.886-15.393-.4-28.084.049-42.484a.928.928,0,0,0-1.855-.058c-.455,14.454-.936,27.2-.047,42.649a.928.928,0,0,0,1.852-.107" transform="translate(-28.622 -29.64)" fill="#3b4075"/>
        <path id="Trazado_883165" data-name="Trazado 883165" d="M125.558,144.114c-.416-13.289-1.61-26.968-3.274-40.883a.928.928,0,1,0-1.843.22c1.658,13.86,2.849,27.485,3.262,40.721a.928.928,0,0,0,1.855-.058" transform="translate(-35.151 -29.891)" fill="#3b4075"/>
        <path id="Trazado_883166" data-name="Trazado 883166" d="M96.864,163.439a3.375,3.375,0,0,1,3.337-3.412l15.861-.176a3.374,3.374,0,0,1,3.412,3.337c.03,2.77.074,6.671.1,9.441a3.374,3.374,0,0,1-3.337,3.412l-15.861.176a3.374,3.374,0,0,1-3.412-3.337c-.03-2.769-.074-6.671-.1-9.441" transform="translate(-28.272 -46.656)" fill="#ae4b75"/>
        <path id="Trazado_883167" data-name="Trazado 883167" d="M99.1,163.39a3.374,3.374,0,0,1,3.337-3.412L118.3,159.8a3.375,3.375,0,0,1,3.412,3.337c.031,2.769.074,6.671.1,9.441a3.374,3.374,0,0,1-3.337,3.411l-15.861.176a3.375,3.375,0,0,1-3.412-3.337c-.031-2.769-.074-6.671-.1-9.44" transform="translate(-28.925 -46.641)" fill="#c16697"/>
        <path id="Trazado_883168" data-name="Trazado 883168" d="M118.666,172.114a5.612,5.612,0,0,0-.078-6.991l-.014-1.33-3.108.034v.025c-1.978.269-3.5,2.342-3.476,4.84s1.6,4.537,3.582,4.761v.025l3.108-.035Z" transform="translate(-32.687 -47.806)" fill="#ae4b75"/>
        <path id="Trazado_883169" data-name="Trazado 883169" d="M118.927,163.8a4.826,4.826,0,1,0,4.879,4.772,4.829,4.829,0,0,0-4.879-4.772" transform="translate(-33.318 -47.807)" fill="#df97c5"/>
        <path id="Trazado_883170" data-name="Trazado 883170" d="M119.354,165.221A3.817,3.817,0,1,0,123.213,169a3.819,3.819,0,0,0-3.859-3.775" transform="translate(-33.734 -48.223)" fill="#3b4075"/>
        <path id="Trazado_883171" data-name="Trazado 883171" d="M122.675,167.031a.917.917,0,1,0,.927.906.917.917,0,0,0-.927-.906" transform="translate(-35.54 -48.751)" fill="#fff"/>
        <path id="Trazado_883172" data-name="Trazado 883172" d="M102.467,162.771a.293.293,0,0,1,.29-.3l4.3-.047a.293.293,0,0,1,.3.29c0,.406.013,1.134.017,1.541a.294.294,0,0,1-.29.3l-4.3.047a.293.293,0,0,1-.3-.29c0-.406-.013-1.135-.017-1.541" transform="translate(-29.907 -47.408)" fill="#ae4b75"/>
        <path id="Trazado_883173" data-name="Trazado 883173" d="M103.04,163.237a.221.221,0,0,1,.219-.224l3.632-.04a.222.222,0,0,1,.224.219c0,.228.006.58.008.808a.221.221,0,0,1-.219.224l-3.631.04a.221.221,0,0,1-.224-.218c0-.228-.006-.581-.009-.808" transform="translate(-30.074 -47.567)" fill="#3b4075"/>
        <path id="Trazado_883174" data-name="Trazado 883174" d="M104.87,163.513a.195.195,0,0,1,.192-.2l2.03-.023a.2.2,0,0,1,.2.193v.013a.193.193,0,0,1-.193.2l-2.029.023a.193.193,0,0,1-.2-.193Z" transform="translate(-30.608 -47.66)" fill="#fff"/>
        <path id="Trazado_883175" data-name="Trazado 883175" d="M104.664,31.707c10.519,0,19.047,6.979,19.047,15.589s-8.527,15.589-19.047,15.589S85.617,55.905,85.617,47.3s8.527-15.589,19.047-15.589" transform="translate(-24.989 -9.254)" fill="#d8b28a"/>
        <path id="Trazado_883176" data-name="Trazado 883176" d="M94.136,35.918a21.424,21.424,0,0,1,13.014-4.211c8.444,0,15.611,4.507,18.105,10.74-10.745-10.692-24.346-8.436-31.119-6.528" transform="translate(-27.475 -9.254)" fill="#e8cca2"/>
        <path id="Trazado_883177" data-name="Trazado 883177" d="M100.362,43.12c17.269,0,31.269,7.8,31.269,17.413s-14,17.413-31.269,17.413-31.269-7.8-31.269-17.413,14-17.413,31.269-17.413" transform="translate(-20.166 -12.585)" fill="#b78e6b"/>
        <path id="Trazado_883178" data-name="Trazado 883178" d="M103.381,54.933c12.224,0,22.133,4.429,22.133,9.893s-9.91,9.893-22.133,9.893S81.248,70.29,81.248,64.826s9.91-9.893,22.133-9.893" transform="translate(-23.714 -16.033)" fill="#9c6551"/>
        <path id="Trazado_883179" data-name="Trazado 883179" d="M104.705,44.8c9.384,0,17,9.111,17,20.332s-6.954,20.476-17,20.332-17-9.11-17-20.332,7.619-20.332,17-20.332" transform="translate(-25.598 -13.076)" fill="#e79f91"/>
        <path id="Trazado_883180" data-name="Trazado 883180" d="M92.846,53.78c-3.424,3.25-5.111,17.154-3.073,24.927.9,3.415-2.71,3.01-2.867,5.946a21.012,21.012,0,0,0,1.346,9.221S77.1,89.77,76.9,83.725c-.12-3.761,2.509-5.433,3.373-8.533s-.867-5.874,0-9A24.955,24.955,0,0,1,85.547,57c1.214-1.466,7.3-3.223,7.3-3.223" transform="translate(-22.445 -15.697)" fill="#7d4b54"/>
        <path id="Trazado_883181" data-name="Trazado 883181" d="M127.859,54.932c.4.047,3.148,13.763,2.675,20.832-.216,3.222-4.6,5.965-3.036,8.8,1.78,3.223,1.626,6.62-.1,10.465a14.115,14.115,0,0,0,11.227-7.507c1.265-2.225-1.949-4.109-2.055-6.253-.1-2.008,2.415-2.379,1.953-7.629-.474-5.384-4.138-16.6-4.138-16.6Z" transform="translate(-37.115 -16.033)" fill="#7d4b54"/>
        <path id="Trazado_883182" data-name="Trazado 883182" d="M80.292,60.729c8.462-10.888,36.544-13.484,44.944.047,1.387-3.6-.314-7.5-4.728-11.675l-11.146-3.915c-5.223-2.563-13.69-1.205-21.207,2.034-4.992,5.027-7.872,9.587-7.862,13.508" transform="translate(-23.435 -12.798)" fill="#b78e6b"/>
        <path id="Trazado_883183" data-name="Trazado 883183" d="M102.3,70.183c.458,0,.83.576.83,1.286s-.372,1.286-.83,1.286-.83-.576-.83-1.286.372-1.286.83-1.286" transform="translate(-29.616 -20.484)" fill="#363b5a"/>
        <path id="Trazado_883184" data-name="Trazado 883184" d="M122.059,70.183c.458,0,.83.576.83,1.286s-.372,1.286-.83,1.286-.83-.576-.83-1.286.372-1.286.83-1.286" transform="translate(-35.383 -20.484)" fill="#363b5a"/>
        <path id="Trazado_883185" data-name="Trazado 883185" d="M119.032,60.031l.413-1.634a4.3,4.3,0,0,1,6.153,3.23,6.2,6.2,0,0,0-6.566-1.6" transform="translate(-34.742 -16.915)" fill="#7d4b54"/>
        <path id="Trazado_883186" data-name="Trazado 883186" d="M104.571,60.031l-.412-1.634a4.3,4.3,0,0,0-6.153,3.23,6.2,6.2,0,0,1,6.565-1.6" transform="translate(-28.605 -16.915)" fill="#7d4b54"/>
        <path id="Trazado_883187" data-name="Trazado 883187" d="M115.654,67.093c-1.161,4.432.161,6.307.333,7.446a2.47,2.47,0,0,1-1.121,2.075" transform="translate(-33.526 -19.582)" fill="none" stroke="#b54a4a" stroke-linecap="round" stroke-linejoin="round" stroke-width="1.27"/>
        <path id="Trazado_883188" data-name="Trazado 883188" d="M105.648,82.875a43.485,43.485,0,0,0,9.689.687s-.193,7.048-5.538,6.423c-4.7-.55-4.151-7.11-4.151-7.11" transform="translate(-30.83 -24.189)" fill="#fff"/>
      </g>
    </g>
  </g>
</svg>
