<svg xmlns="http://www.w3.org/2000/svg" xmlns:xlink="http://www.w3.org/1999/xlink" width="561" height="37" viewBox="0 0 561 37">
  <defs>
    <linearGradient id="linear-gradient" x1="0.03" y1="0.5" x2="0.952" y2="0.388" gradientUnits="objectBoundingBox">
      <stop offset="0" stop-color="#00c2ff"/>
      <stop offset="1" stop-color="#99e7ff"/>
    </linearGradient>
    <clipPath id="clip-path">
      <rect id="Rectángulo_402499" data-name="Rectángulo 402499" width="85" height="35" transform="translate(0)" fill="#fff" stroke="#707070" stroke-width="1"/>
    </clipPath>
    <clipPath id="clip-path-2">
      <rect id="Rectángulo_401684" data-name="Rectángulo 401684" width="79" height="111" fill="#00c2ff"/>
    </clipPath>
    <clipPath id="clip-path-3">
      <rect id="Rectángulo_401672" data-name="Rectángulo 401672" width="7.894" height="11.879" fill="none"/>
    </clipPath>
  </defs>
  <g id="Grupo_1102055" data-name="Grupo 1102055" transform="translate(9027.051 10290.916)">
    <g id="Grupo_1101216" data-name="Grupo 1101216" transform="translate(-9027.051 -10290.916)">
      <path id="Rectángulo_402496" data-name="Rectángulo 402496" d="M0,0H541a20,20,0,0,1,20,20V37a0,0,0,0,1,0,0H0a0,0,0,0,1,0,0V0A0,0,0,0,1,0,0Z" fill="url(#linear-gradient)"/>
      <g id="Enmascarar_grupo_1098791" data-name="Enmascarar grupo 1098791" transform="translate(440 1.001)" clip-path="url(#clip-path)">
        <g id="Grupo_1100391" data-name="Grupo 1100391" transform="translate(3 -26)" opacity="0.82" style="mix-blend-mode: multiply;isolation: isolate">
          <g id="Grupo_1100390" data-name="Grupo 1100390" clip-path="url(#clip-path-2)">
            <path id="Trazado_875812" data-name="Trazado 875812" d="M89.466,61.246a5.016,5.016,0,0,0-.094-1.318,1.384,1.384,0,0,0-.594-.837,4.941,4.941,0,0,0-2.43-.713,2.607,2.607,0,0,0-1.315.292,7.719,7.719,0,0,1-1.358.626,1.773,1.773,0,0,1-1.383-.149,6.659,6.659,0,0,0-1.226-.628,6.432,6.432,0,0,0-1.426-.173,2.1,2.1,0,0,1-1.316-.426,3.677,3.677,0,0,1-.654-1.055c-.184-.37-.352-.748-.531-1.121a5.186,5.186,0,0,0-1.287-1.85,3.107,3.107,0,0,0-2.395-.556c-.556.069-1.1.233-1.66.267a13.452,13.452,0,0,1-1.994-.1c-.325-.03-.649-.064-.974-.1a6.2,6.2,0,0,0-.843-.068,4.783,4.783,0,0,0-1.472.361,3.87,3.87,0,0,1-1.541.346c-.489-.037-1.607-.731-1.653-.526a1.491,1.491,0,0,0-1.1.415c-.046.035-.09.072-.134.108-.546.277-1.077.582-1.6.9l-.044.027a7.366,7.366,0,0,0-1.183.452,7.752,7.752,0,0,0-1.348.969c-.058.05-.113.1-.17.153-.134.072-.267.145-.4.213-.007,0-.008.019,0,.015.113-.053.223-.111.335-.167-.4.353-.78.72-1.167,1.082a.2.2,0,0,0-.07.2c.16.455.686.523.927.907a1.678,1.678,0,0,1,.195.814,3.637,3.637,0,0,1-.089.995c-.134.6-.36,1.176-.438,1.787s.106,1.182.085,1.783a6.191,6.191,0,0,0,0,.887,3.925,3.925,0,0,0,.17.754A5.36,5.36,0,0,0,58,67.278a3.288,3.288,0,0,0,1.122.982,8.387,8.387,0,0,1,1.28.81,4.794,4.794,0,0,1,1.259,2.376,5.26,5.26,0,0,0,.9,2,3.374,3.374,0,0,0,2.281,1.005,4.65,4.65,0,0,1,1.452.273,4.09,4.09,0,0,1,1.228,1.116,7.674,7.674,0,0,1,1.03,1.471,3.766,3.766,0,0,1,.407,1.687,9.887,9.887,0,0,1-.829,3.126,5.367,5.367,0,0,0-.208,1.724c0,.335.018.67,0,1a5.9,5.9,0,0,1-.174.967,5.585,5.585,0,0,0-.172,1.712c.021.25.112.481.143.73a2.944,2.944,0,0,1,.011.639,19.158,19.158,0,0,0-.385,2.645,1.865,1.865,0,0,0,1.057,1.665.976.976,0,0,0,1.127-.464,5.276,5.276,0,0,0,.724-1.628,12.372,12.372,0,0,1,.539-1.559,6.873,6.873,0,0,1,.786-1.175c.381-.507.781-1,1.186-1.489.687-.832,1.844-.871,2.74-1.376a4.812,4.812,0,0,0,1.8-1.95,20.4,20.4,0,0,1,1.51-2.8c.682-.864,1.8-1.08,2.707-1.608a2.332,2.332,0,0,0,.972-1.075c.2-.429.294-.9.489-1.325a2.338,2.338,0,0,1,.424-.651,6.862,6.862,0,0,1,.574-.481,2.876,2.876,0,0,0,.805-1.35c.2-.578.422-1.149.619-1.728a7.861,7.861,0,0,1,.7-1.657c.314-.5.661-.978.934-1.5s.446-1.1.683-1.653c.245-.57.568-1.1.841-1.658a7.984,7.984,0,0,0,.621-1.739,15.539,15.539,0,0,0,.278-3.094m-.643,3.485c-.351,1.171-1.088,2.153-1.514,3.291a11.084,11.084,0,0,1-.7,1.619c-.291.514-.665.984-.92,1.517a15.754,15.754,0,0,0-.611,1.619c-.2.567-.4,1.137-.614,1.7a2.211,2.211,0,0,1-.4.745,5.73,5.73,0,0,1-.562.472,2.873,2.873,0,0,0-.815,1.171,10.652,10.652,0,0,1-.5,1.319,2.434,2.434,0,0,1-1.192.959,14.957,14.957,0,0,0-1.439.7,3.4,3.4,0,0,0-1.038.976c-.593.848-.944,1.842-1.461,2.735a5.307,5.307,0,0,1-.779,1.074,3.766,3.766,0,0,1-1.2.8c-.456.2-.945.307-1.4.5a2.885,2.885,0,0,0-1.165.924c-.391.489-.781.98-1.147,1.488a6.988,6.988,0,0,0-.729,1.127c-.222.482-.337,1.006-.519,1.5a6.776,6.776,0,0,1-.743,1.6.705.705,0,0,1-1.041.264,1.813,1.813,0,0,1-.7-.845,2.749,2.749,0,0,1-.1-1.254,21.667,21.667,0,0,0,.379-2.576c0-.26-.054-.517-.079-.773a4.263,4.263,0,0,1,.013-.887c.066-.6.2-1.2.233-1.808s-.026-1.208.052-1.808a7.776,7.776,0,0,1,.525-1.705,5.379,5.379,0,0,0,.521-2.961,4.2,4.2,0,0,0-.683-1.48,13.868,13.868,0,0,0-1.072-1.368,3.356,3.356,0,0,0-1.183-.955,4.927,4.927,0,0,0-1.366-.292,3.037,3.037,0,0,1-2.215-1.042,7.114,7.114,0,0,1-.929-2,4.567,4.567,0,0,0-1.267-2.2c-.389-.312-.846-.519-1.25-.808a4.381,4.381,0,0,1-1.08-1.155,5.179,5.179,0,0,1-.669-1.47,3.207,3.207,0,0,1-.12-.872c0-.3.032-.6,0-.9s-.1-.574-.117-.864a3.392,3.392,0,0,1,.1-.952,15.012,15.012,0,0,0,.4-1.762,2.547,2.547,0,0,0-.172-1.47c-.2-.353-.644-.472-.833-.818a20.385,20.385,0,0,1,1.9-1.691q.577-.317,1.147-.646c.267-.1.541-.189.814-.287a4.616,4.616,0,0,0,1.378-.752c.158-.129.328-.282.512-.412a2.369,2.369,0,0,1,.551-.2,1.344,1.344,0,0,1,.746.1,3.708,3.708,0,0,0,1.319.409,4.372,4.372,0,0,0,1.439-.341,4.32,4.32,0,0,1,1.494-.346c.3,0,.606.059.906.092s.627.064.94.091a13.088,13.088,0,0,0,1.907.074c.552-.036,1.086-.191,1.63-.281a2.676,2.676,0,0,1,2.4.629,6.437,6.437,0,0,1,1.223,1.95c.168.359.332.722.515,1.074a2.97,2.97,0,0,0,.685.995c.741.591,1.816.318,2.675.552a6.477,6.477,0,0,1,1.224.609,1.915,1.915,0,0,0,1.233.2,4.307,4.307,0,0,0,1.381-.566,2.518,2.518,0,0,1,1.351-.443,6.5,6.5,0,0,1,1.214.208,4.2,4.2,0,0,1,1.238.476,1.266,1.266,0,0,1,.628.893,5.989,5.989,0,0,1,.05,1.339,12.992,12.992,0,0,1-.382,3.2" transform="translate(-18.5 -17.91)" fill="#00c2ff"/>
            <path id="Trazado_875813" data-name="Trazado 875813" d="M51.482,57.223a1.074,1.074,0,0,0,.156-.489,2.237,2.237,0,0,0-.077-.7,1.8,1.8,0,0,0-.322-.714,1.991,1.991,0,0,0-.8-.507,2.523,2.523,0,0,1-.868-.5,6.993,6.993,0,0,1-.89-1.813,1.8,1.8,0,0,0-1.935-1.011,6.153,6.153,0,0,0-1.23.5c-.2.094-.4.186-.606.266a1.629,1.629,0,0,0-.47.267.843.843,0,0,0-.305.836,1.737,1.737,0,0,0,.743.932,4.785,4.785,0,0,1,.483.389c.151.145.286.306.436.452.3.3.711.448,1.026.729s.581.613.915.874a3.509,3.509,0,0,0,1.054.559,4.625,4.625,0,0,0,.582.144c.218.042.432.091.65.135a1.433,1.433,0,0,0,.571.038,1.905,1.905,0,0,0,.327-.1.632.632,0,0,0,.446-.151c.04,0,.139-.127.118-.135m-1.826.178a4.1,4.1,0,0,1-2.06-1.023,8.943,8.943,0,0,0-.812-.8c-.147-.112-.308-.2-.462-.306a1.8,1.8,0,0,1-.456-.432,4.434,4.434,0,0,0-.336-.469,3.881,3.881,0,0,0-.4-.342,1.86,1.86,0,0,1-.728-.85c-.1-.327.184-.543.432-.7a6.371,6.371,0,0,1,1.147-.55,2.344,2.344,0,0,1,1.171-.172,2.118,2.118,0,0,1,1.013.491,4.333,4.333,0,0,1,.919,1.61,2.152,2.152,0,0,0,.516.722,3.365,3.365,0,0,0,.77.468,2.385,2.385,0,0,1,.828.546,1.3,1.3,0,0,1,.281.731,1.565,1.565,0,0,1-.076.732.425.425,0,0,1-.116.156,1.562,1.562,0,0,0-.34.1c-.036,0-.2.023-.225.07a2.332,2.332,0,0,1-1.065.026" transform="translate(-14.352 -17.287)" fill="#00c2ff"/>
            <path id="Trazado_875814" data-name="Trazado 875814" d="M55.7,44.8a.585.585,0,0,0-.269-.371,1.073,1.073,0,0,0-.5-.1,8.216,8.216,0,0,0-1.142.174,2.851,2.851,0,0,1-1.524-.214c-.247-.1-.486-.215-.739-.3a5.325,5.325,0,0,0-.8-.195,3.459,3.459,0,0,0-1.5.04A1.425,1.425,0,0,0,48.2,44.989a2.6,2.6,0,0,0,.31,1.594,2.286,2.286,0,0,0,.307.444c.444.641,1.452.528,2.073.231a6.49,6.49,0,0,1,1.317-.582,2.153,2.153,0,0,1,.757-.044c.216.027.425.082.642.1a2.508,2.508,0,0,0,1.33-.142,1.354,1.354,0,0,0,.657-.745,1.564,1.564,0,0,0,.1-1.047m-.525,1.421a1.226,1.226,0,0,1-1,.3c-.415,0-.828-.057-1.244-.057a3.374,3.374,0,0,0-.643.057c-.208.042-.4.118-.6.179a6.388,6.388,0,0,1-1.841.58c0-.042-.052-.08-.121-.056.048-.017-.005,0-.02,0s-.033,0-.05,0a.5.5,0,0,1-.093-.017.621.621,0,0,1-.2-.1,1.539,1.539,0,0,1-.381-.43,2.99,2.99,0,0,1-.453-1.263.22.22,0,0,1,.057-.1c.02-.019-.013-.035-.03-.022a.3.3,0,0,0-.039.043v-.013a1.144,1.144,0,0,1,.476-1.139,2.073,2.073,0,0,1,1-.149,6.94,6.94,0,0,1,1.51.244c.48.111.946.283,1.432.367a4.044,4.044,0,0,0,1.139-.027,2.7,2.7,0,0,1,1.006.013.62.62,0,0,1,.4.655,1.463,1.463,0,0,1-.3.932" transform="translate(-15.72 -14.69)" fill="#00c2ff"/>
            <path id="Trazado_875815" data-name="Trazado 875815" d="M49.126,15.789a2.441,2.441,0,0,0-.576-1.1,2.8,2.8,0,0,0-1.146-.872c-.45-.173-.937-.239-1.38-.436-.882-.393-1.631-1.031-2.538-1.38a8.2,8.2,0,0,0-2.73-.552,10.522,10.522,0,0,0-2.791.352,34.219,34.219,0,0,0-5.646,2.073c-.932.416-1.851.861-2.764,1.318a12.519,12.519,0,0,0-2.386,1.4,18.274,18.274,0,0,0-1.8,1.8c-.3.321-.595.64-.911.942s-.678.595-1.035.873a7.8,7.8,0,0,0-1.862,1.872,14.121,14.121,0,0,0-.749,1.41c-.231.47-.5.921-.731,1.391s-.456.943-.649,1.43a6.532,6.532,0,0,0-.391,1.463c-.076.5-.121,1.014-.231,1.512a7.261,7.261,0,0,1-.275.9c-.242.672-.525,1.33-.714,2.021a3.542,3.542,0,0,0-.088,1.923,2.07,2.07,0,0,0,.487.835,8.165,8.165,0,0,0,1.036.883,8.513,8.513,0,0,0,1.14.75,7.563,7.563,0,0,1,.914.484,1.282,1.282,0,0,1,.531.934c.036.316.011.634.023.95a1.372,1.372,0,0,0,.207.768,1.161,1.161,0,0,0,.866.4c.783.062,1.609-.472,2.352-.071a10.8,10.8,0,0,1,1.007.7,2.741,2.741,0,0,0,1.131.487,4.707,4.707,0,0,0,1.381-.033,11.847,11.847,0,0,0,1.319-.248,3.235,3.235,0,0,1,1.263-.161c.318.044.631.139.945.2a5.113,5.113,0,0,0,1.074.144.871.871,0,0,0,.739-.283,1.917,1.917,0,0,0,.214-.895,2.708,2.708,0,0,1,.273-.952,1.28,1.28,0,0,1,.619-.574,8.517,8.517,0,0,0,1-.462,1.319,1.319,0,0,0,.595-.757,1.748,1.748,0,0,0-.118-1.037,1.878,1.878,0,0,0-.5-.783.858.858,0,0,0-.418-.2,1.412,1.412,0,0,0-1.2.11,7.89,7.89,0,0,1-1.294.725,1.585,1.585,0,0,1-1.146-.115,2.986,2.986,0,0,1-1.163-.844,1.6,1.6,0,0,1-.367-1.3c.124-.5.674-.812,1.084-1.063a6.034,6.034,0,0,0,1.32-1.1c.628-.7.978-1.8,1.858-2.238a.108.108,0,0,0,.129.008c.352-.162.729.107,1,.316.33.257.647.524.988.768a6.2,6.2,0,0,1,.618.481c.187.174.363.358.543.539a1.3,1.3,0,0,0,.905.476,1.276,1.276,0,0,0,.931-.669,1.8,1.8,0,0,0,.2-1.22A2.488,2.488,0,0,0,39.851,29a6.11,6.11,0,0,1-.556-.758,1.614,1.614,0,0,1,.029-1.148,3.268,3.268,0,0,1,.579-1.2,9.147,9.147,0,0,1,.865-.869,1.55,1.55,0,0,0,.54-.911A6.46,6.46,0,0,0,41.2,22.8a2.362,2.362,0,0,1,.06-1.3,1.351,1.351,0,0,1,.71-.6c.3-.142.619-.263.909-.432a2.556,2.556,0,0,0,.864-.846c.227-.355.384-.749.6-1.112a1.3,1.3,0,0,1,.85-.7c.354-.084.723-.074,1.079-.142a4.757,4.757,0,0,0,1.228-.444,9.3,9.3,0,0,0,1.137-.643c.269-.183.548-.431.5-.788m-.4.383a3,3,0,0,1-.505.361c-.179.123-.354.251-.539.367a4.051,4.051,0,0,1-1.2.507,9.568,9.568,0,0,1-1.075.129,1.629,1.629,0,0,0-.926.385,3.726,3.726,0,0,0-.669.984,4.16,4.16,0,0,1-.673,1,2.849,2.849,0,0,1-.89.53c-.583.256-1.205.593-1.325,1.281a3.134,3.134,0,0,0,.11,1.224,2.2,2.2,0,0,1,.064.711,2.815,2.815,0,0,1-.164.655,2.021,2.021,0,0,1-.6.773,4.137,4.137,0,0,0-.793.943,4.387,4.387,0,0,0-.43,1.158,1.779,1.779,0,0,0-.042,1.03,3.467,3.467,0,0,0,.466.739,2.857,2.857,0,0,1,.421,1.025,1.611,1.611,0,0,1-.144,1.3.789.789,0,0,1-.975.314,2.127,2.127,0,0,1-.49-.334c-.178-.148-.367-.283-.559-.413a12.6,12.6,0,0,1-1.183-.908c-.442-.385-.99-1.041-1.645-.739a.14.14,0,0,0-.042.029,1.315,1.315,0,0,0-.38.121,1.879,1.879,0,0,0-.53.422,10.316,10.316,0,0,0-.819,1.2A7.211,7.211,0,0,1,31.9,32.392,6.584,6.584,0,0,0,30.636,33.4a1.472,1.472,0,0,0-.117,1.327,2.357,2.357,0,0,0,.816,1.188,2.865,2.865,0,0,0,1.342.566,1.924,1.924,0,0,0,1.253-.448,4.744,4.744,0,0,1,.746-.505,1.292,1.292,0,0,1,.852-.072.921.921,0,0,1,.56.363c.063.088.115.183.177.272a.7.7,0,0,0,.188.2c.045.137.081.272.11.394a.959.959,0,0,1-.216.96,2.589,2.589,0,0,1-.945.48,2.1,2.1,0,0,0-.767.436,1.672,1.672,0,0,0-.487.841c-.052.316.022.638-.026.952a.927.927,0,0,1-.139.422.419.419,0,0,1-.328.131,7.148,7.148,0,0,1-1.893-.385,5.98,5.98,0,0,0-2.378.322,3.849,3.849,0,0,1-2.656-.123c-.651-.359-1.234-1.025-2.02-1.064-.736-.037-1.533.488-2.238.076-.516-.3-.385-1.062-.42-1.563a1.639,1.639,0,0,0-.3-.927,2.122,2.122,0,0,0-.739-.542,8.5,8.5,0,0,1-.993-.541,11.077,11.077,0,0,1-1.086-.94,3.547,3.547,0,0,1-.774-.82,2.026,2.026,0,0,1-.259-.885,5.041,5.041,0,0,1,.365-1.945c.219-.635.49-1.253.686-1.9.259-.847.26-1.742.471-2.6a18.238,18.238,0,0,1,1.205-2.815A10.556,10.556,0,0,1,22.054,21.6a14.82,14.82,0,0,1,1.986-1.741,19.489,19.489,0,0,0,1.744-1.752A12.452,12.452,0,0,1,27.609,16.4a9.813,9.813,0,0,1,1.189-.694q.65-.342,1.3-.676a38.431,38.431,0,0,1,5.446-2.354,23.068,23.068,0,0,1,2.807-.756,10.03,10.03,0,0,1,2.721-.219,7.5,7.5,0,0,1,2.721.728,19.109,19.109,0,0,0,2.439,1.316,6.389,6.389,0,0,1,1.323.472,2.987,2.987,0,0,1,.988,1.037c.139.233.419.669.184.919" transform="translate(-5.433 -3.814)" fill="#00c2ff"/>
            <path id="Trazado_875816" data-name="Trazado 875816" d="M53.055,49.631a.375.375,0,0,0-.225-.206,1.805,1.805,0,0,0-.871-.074,2.757,2.757,0,0,0-.5.1.775.775,0,0,0-.37.214c-.027.032-.055.1,0,.131.152.08.28.2.422.29a.317.317,0,0,0,.218.077,1.14,1.14,0,0,0,.214.158.718.718,0,0,0,.532.09A.9.9,0,0,0,53,49.966a.418.418,0,0,0,.053-.335m-.225.245a.782.782,0,0,1-.369.279.567.567,0,0,1-.387-.1,2.254,2.254,0,0,0-.743-.379c.029-.016.08-.041.116-.057a1.6,1.6,0,0,1,.375-.1,1.956,1.956,0,0,1,.809.023.4.4,0,0,1,.229.136.173.173,0,0,1-.031.206" transform="translate(-16.689 -16.573)" fill="#00c2ff"/>
            <path id="Trazado_875817" data-name="Trazado 875817" d="M62.115,43.578a.453.453,0,0,0-.3-.141,1.2,1.2,0,0,0-.147,0,2.041,2.041,0,0,0-.734-.019.568.568,0,0,0-.411.269.511.511,0,0,0,.052.575,1,1,0,0,0,.522.259,1.274,1.274,0,0,0,.543.027.905.905,0,0,0,.533-.334.489.489,0,0,0-.062-.636m-.07.417c.007-.034,0,0,0,.011a.134.134,0,0,1-.007.017l-.008.016c-.011.017-.021.036-.034.052a.607.607,0,0,1-.084.089.65.65,0,0,1-.231.121.922.922,0,0,1-.473-.008.94.94,0,0,1-.455-.214.441.441,0,0,1-.034-.036.162.162,0,0,1-.025-.033.264.264,0,0,1-.021-.041c.01.027-.007-.048,0-.014,0-.01,0-.02,0-.03v-.007a.333.333,0,0,1,.006-.037l.01-.03s.015-.027.019-.033h0l.012-.013.028-.025a.451.451,0,0,1,.08-.046.854.854,0,0,1,.207-.049,2.116,2.116,0,0,1,.533.021c.08.011.159.027.239.04.029,0,.06.011.089.013h0a.4.4,0,0,1,.129.115.361.361,0,0,1,.018.032l.005.011a.188.188,0,0,1,.005.021l0,.005v0c0,.009,0,.017,0,.026v0a.162.162,0,0,0,0,.025" transform="translate(-19.859 -14.573)" fill="#00c2ff"/>
            <path id="Trazado_875818" data-name="Trazado 875818" d="M50.552,2.018c.024,0,.012,0,0,0" transform="translate(-16.521 -0.638)" fill="#00c2ff"/>
            <path id="Trazado_875819" data-name="Trazado 875819" d="M77.811,37.444a36.141,36.141,0,0,0-40.385-31.5c-1.041.131-2.076.311-3.1.533a.11.11,0,0,0,.069-.073.942.942,0,0,0-.04-.4c-.033-.175-.074-.349-.118-.522-.012-.045-.027-.09-.038-.136a2.312,2.312,0,0,1,.992-.287,8.791,8.791,0,0,1,1.283-.153c.143-.005.286-.007.428-.018a2,2,0,0,0,.413-.05c.332-.1.318-.463.277-.743a2.3,2.3,0,0,1-.058-.434c.009-.16.06-.336-.048-.476a.667.667,0,0,0-.461-.175,5.312,5.312,0,0,1-.618-.125,2.462,2.462,0,0,1-1.116-.549c-.259-.251-.444-.566-.683-.832-.2-.227-.506-.56-.844-.51a2.536,2.536,0,0,0-.335.08c-.033.007-.065.017-.1.027l-.021.006a2.074,2.074,0,0,1-.237.054.593.593,0,0,1-.149.013,2.733,2.733,0,0,0-.512-.793A1.46,1.46,0,0,0,31.288,0,2.132,2.132,0,0,0,29.94.588a1.577,1.577,0,0,0-.486,1.3,2.463,2.463,0,0,0,.072.393.05.05,0,0,0-.013.045v0l0,0c-.066-.089-.745.334-1.028.414a14.309,14.309,0,0,0-1.387.493c-.452.18-.922.332-1.36.543-.12.058-.237.12-.355.183-.676.28-1.344.578-2,.911-1.025.523-2.022,1.114-3.013,1.7s-1.963,1.2-2.908,1.853a23.986,23.986,0,0,0-2.6,2.036c-.266.245-.52.5-.771.761-.1.089-.208.175-.309.266a24.382,24.382,0,0,0-1.764,1.844c-.671.692-1.322,1.4-1.937,2.145-.712.863-1.381,1.763-2.01,2.688-.289.424-.566.857-.863,1.276s-.591.815-.881,1.227a10.586,10.586,0,0,0-1.452,2.6c-.03.088-.055.178-.08.268-.077.166-.153.333-.227.5C3.9,25.559,3.253,27.112,2.726,28.7c-.268.81-.493,1.634-.708,2.459-.106.407-.2.815-.29,1.226-.086.39-.223.76-.345,1.139-.141.435-.424,2.279-.51,2.75-.042.227-.086.456-.13.684a.022.022,0,0,0-.025.021c0,.023,0,.047.007.07-.1.5-.336,1.914-.369,2.122-.14.881-.2,1.763-.263,2.652a30.032,30.032,0,0,0,.836,9.887,29.945,29.945,0,0,0,1.549,4.644c.359.832.782,1.634,1.187,2.445A27.934,27.934,0,0,0,8.22,66.495a21.425,21.425,0,0,0,3.47,3.7c.672.539,1.334,1.087,2,1.634s1.409,1,2.114,1.5a51.263,51.263,0,0,0,9.277,5.279c1.659.717,3.321,1.459,5.034,2.038.18.061.363.115.545.17a.637.637,0,0,0,.107.246,1.756,1.756,0,0,1,.179.267,1.652,1.652,0,0,1,.1.345c.025.107.058.209.092.312a3.89,3.89,0,0,1-.005.549c-.042.541-.173,1.072-.244,1.609-.017.131-.04.259-.059.389-.04.2-.082.394-.125.59-.194.873-.466,1.734-.653,2.61a1.823,1.823,0,0,1-.33.245,1.356,1.356,0,0,0-.615.494,8.027,8.027,0,0,0-.43,1.945c-.09.376-.214.743-.324,1.114-.071.24-.15.488-.2.739q-1.271-.057-2.545-.034h-.164c-.135,0-.271.011-.406.017-.564.019-1.128.044-1.691.09a21.41,21.41,0,0,0-4.891.921,8.862,8.862,0,0,0-2.252,1.078,4.341,4.341,0,0,0-.915.862,2.8,2.8,0,0,0-.241.381,9.541,9.541,0,0,0-1.8,1.074,5.483,5.483,0,0,0-1.07,1.118,3.49,3.49,0,0,0-.606,1.482c-.015.1-.019.192-.025.288a6.121,6.121,0,0,0,.169,1.3,5.483,5.483,0,0,0,.694,1.376,10.115,10.115,0,0,0,2.077,2.114,19.074,19.074,0,0,0,2.429,1.592c.842.468,1.7.9,2.578,1.287a45.428,45.428,0,0,0,10.986,3.11A42.783,42.783,0,0,0,41.9,110.7a23.4,23.4,0,0,0,5.633-1.3,12.194,12.194,0,0,0,1.373-.625,1.207,1.207,0,0,0,.154-.086,8.815,8.815,0,0,0,1.072-.7c.032-.027.064-.055.1-.082.062-.042.123-.088.188-.127a2.208,2.208,0,0,0,.606-.634,5.566,5.566,0,0,0,.512-.748,3.1,3.1,0,0,0,.284-1.736c0-.023-.009-.044-.012-.067a3.6,3.6,0,0,0-.151-.722,4.872,4.872,0,0,0-.395-.9c-.025-.051-.05-.1-.078-.153a5.633,5.633,0,0,0-.592-.891,2.456,2.456,0,0,0-.718-.708l-.067-.067a2.648,2.648,0,0,0-.149-.649,4.274,4.274,0,0,0-.608-1.082,8.988,8.988,0,0,0-1.814-1.693,21.592,21.592,0,0,0-4.371-2.358,38.516,38.516,0,0,0-4.651-1.553c.058-.5-.009-1.05.042-1.522.073-.674.389-1.311.4-1.994a1.281,1.281,0,0,0-.057-.462,1.146,1.146,0,0,0-.322-.42,2.725,2.725,0,0,1-.49-.561,3.831,3.831,0,0,1-.249-.487c.028-.693.029-1.387.1-2.079.078-.747.229-1.486.333-2.23.007-.048.011-.1.017-.144q.124-.472.249-.943a3,3,0,0,1,.17-.495c.019-.04.033-.082.05-.121.031-.021.06-.042.091-.06.089-.052.172-.1.263-.141.669.02,1.339.036,2.006.033.235,0,.47-.012.7-.027.39-.009.78-.029,1.17-.064.868-.077,1.741-.068,2.607-.149.842-.078,1.669-.262,2.51-.346a7.205,7.205,0,0,1,1.2-.087,1.4,1.4,0,0,0,.461-.014.317.317,0,0,0,.04-.019.914.914,0,0,0,.4.43.524.524,0,0,0,.222.149,1.045,1.045,0,0,0,.245.052,1.689,1.689,0,0,0,1.043-.086,1.428,1.428,0,0,0,.756-.61,1.682,1.682,0,0,0,.108-1.045,10.912,10.912,0,0,0-.245-1.08c-.138-.516-.322-1.016-.465-1.53-.059-.213-.1-.43-.171-.641-.018-.054-.038-.111-.062-.167A36.377,36.377,0,0,0,77.811,37.444M72.867,24.286A35.841,35.841,0,0,1,76.2,32.474l-.017,0c-.048-.009-.113.071-.054.1a.637.637,0,0,1,.112.068l.018.071a.612.612,0,0,1-.484-.055,3.181,3.181,0,0,1-.728-.465c-.213-.17-.407-.362-.629-.521-.2-.141-.4-.263-.606-.393a2.006,2.006,0,0,1-.461-.359,1.024,1.024,0,0,1-.153-.737,2.415,2.415,0,0,0-.149-.97,3.734,3.734,0,0,0-1.143-1.359,4.141,4.141,0,0,1-1.338-1.417,1.409,1.409,0,0,1,.029-1.078,5.015,5.015,0,0,0,.367-.885,1.218,1.218,0,0,0-.257-.891c-.125-.182-.281-.334-.41-.512s-.249-.351-.379-.521a3.657,3.657,0,0,0-.834-.827,2.18,2.18,0,0,1-.75-.643,2.951,2.951,0,0,1-.216-1.155c-.037-.446-.045-.9-.041-1.344,0-.279.054-.55.069-.828v0a35.885,35.885,0,0,1,4.717,6.545M37.285,4.325c0,.02,0,.044.005.068a.2.2,0,0,0-.1.062.216.216,0,0,1-.2.1c-.111.01-.223.013-.334.023-.308.028-.617.056-.925.092a5.926,5.926,0,0,0-1.633.358l-.084-.278a5.647,5.647,0,0,1,1.622-.326c.328-.051.661-.07.991-.1.155-.013.31-.023.464-.037.062-.006.125-.009.187-.019,0,.019,0,.036.006.055M33.1,1.5a.88.88,0,0,0,.256-.088l.117-.054.052-.021h0a.45.45,0,0,0,.057-.015.893.893,0,0,1,.213-.031c.034,0,.068.008.1.011a.312.312,0,0,0,.075,0c.019.017.037.034.056.052a.032.032,0,0,0,.033,0l.08.069a9.7,9.7,0,0,1,.673.766,3.1,3.1,0,0,0,.871.61,4.924,4.924,0,0,0,1.155.419c.142.031.391.029.424.208a3.455,3.455,0,0,1-.024.451c0,.085.015.168.025.253-.082.011-.165.03-.242.038-.16.017-.319.037-.478.057-.321.04-.642.089-.961.143a4.794,4.794,0,0,0-1.573.364c-.021-.068-.041-.137-.062-.2-.181-.57-.352-1.137-.5-1.718a11.049,11.049,0,0,0-.383-1.272c0-.011-.009-.023-.013-.034a.37.37,0,0,0,.047,0m-3.189-.465A1.68,1.68,0,0,1,30.962.322a1.3,1.3,0,0,1,1.179.125A2.6,2.6,0,0,1,32.8,1.473a9.083,9.083,0,0,1,.4,1.244c.145.562.3,1.114.491,1.665.115.342.231.683.327,1.031.048.172.092.346.129.52a1.975,1.975,0,0,1,.082.494v.005a.049.049,0,0,0,.032.054h0a.087.087,0,0,0,.032,0c-.095.021-.189.044-.284.066a3.536,3.536,0,0,0-.189-.639c-.092-.253-.192-.5-.273-.758-.171-.543-.311-1.1-.458-1.647A9.644,9.644,0,0,0,32.3,1.183,1.06,1.06,0,0,0,31.425.6c-.034,0-.079.067-.03.078.727.151,1.074.91,1.273,1.553.125.4.219.814.321,1.223.132.53.273,1.057.413,1.584.074.283.15.564.242.842.078.237.139.476.2.715-.433.1-.865.208-1.294.324a5.292,5.292,0,0,0-.289-.575c-.111-.208-.222-.416-.329-.625q-.32-.628-.633-1.259a16.24,16.24,0,0,1-.974-2.276,1.048,1.048,0,0,1,.227-1.2c.01-.009.008-.037-.007-.026-.6.438-.4,1.363-.173,1.949a24.853,24.853,0,0,0,1.255,2.6c.134.254.265.509.4.765.117.227.214.468.33.7-.088.025-.176.046-.264.07a4.156,4.156,0,0,0-.329-.747c-.151-.285-.31-.564-.472-.841l-.015-.025a.051.051,0,0,0-.018-.032c-.281-.483-.548-.969-.793-1.472a8.456,8.456,0,0,1-.6-1.488,1.787,1.787,0,0,1,.048-1.4M18.006,70.3c-.929-.668-1.884-1.294-2.786-2-.2-.184-.406-.372-.6-.564-.385-.376-.747-.775-1.117-1.165-.177-.186-.349-.377-.523-.566C12.15,65,10.6,63.083,10.039,62.2q-.458-.721-.885-1.461c-.08-.164-.162-.329-.246-.492-.254-.49-.515-.977-.755-1.474-.251-.522-.459-1.057-.658-1.6-.413-1.131-.866-2.257-1.214-3.411A23.623,23.623,0,0,1,5.6,50.423c-.17-1.13-.381-2.248-.6-3.369-.151-1.016-.281-1.9-.328-2.187a17.919,17.919,0,0,1-.256-2.256c-.025-.732,0-1.465.05-2.2a32.843,32.843,0,0,1,.506-4.383c.293-1.48.69-2.938,1.027-4.408.185-.806.367-1.613.553-2.418a.063.063,0,0,0,.018-.047c0-.012,0-.025,0-.038.031-.134.064-.268.1-.4l.029-.078c.071-.2.153-.394.224-.593s.119-.393.174-.592c.088-.218.178-.435.269-.653.239-.567.475-1.131.74-1.687a16.272,16.272,0,0,1,.866-1.62c.159-.255.323-.505.468-.768.068-.125.133-.252.2-.379.184-.256.371-.51.556-.765.352-.487.652-1,.99-1.5a24.274,24.274,0,0,1,2.415-2.829c.426-.454.856-.905,1.3-1.342s.909-.851,1.362-1.277c.43-.4.856-.809,1.3-1.2s.921-.737,1.4-1.08c.978-.7,1.946-1.405,2.945-2.07A21.632,21.632,0,0,1,25.034,8.5c1.107-.494,2.281-.812,3.4-1.288a13.247,13.247,0,0,1,1.606-.636,5.12,5.12,0,0,0,1.088-.342c.016-.009.03-.02.045-.029a.771.771,0,0,0,.255-.1l.009,0c.015.025.03.051.044.078.166.3.31.608.485.9A36.268,36.268,0,0,0,46.172,77.984c.717-.087,1.43-.2,2.14-.332.038.121.082.239.118.36l.005.022c-.212.021-.428.071-.635.113-.233.048-.466.1-.7.15-.186.04-.373.076-.56.107-.626.05-1.253.082-1.879.092-.676.011-1.349,0-2.025.038a17.215,17.215,0,0,1-2.043.034c-.706-.046-1.413-.157-2.114-.253s-1.419-.2-2.127-.316c-1.409-.22-2.825-.419-4.227-.676a21.58,21.58,0,0,1-3.845-1.133c-.625-.24-1.244-.5-1.861-.753-.639-.266-1.287-.515-1.906-.824-.6-.3-1.182-.641-1.76-.984s-1.15-.647-1.7-1.008c-1.07-.7-2.012-1.576-3.05-2.322m.679.736-.1-.075q-.555-.408-1.1-.823c.357.251.713.507,1.057.778l.149.12M13.277,12.051l-.873.883c-.086.087-.169.174-.254.261q.543-.593,1.127-1.144m1.659,86.562c-.025.306-.044.6-.1.907-.057.331-.113.665-.139,1-.007.1-.019.191-.025.285a1.129,1.129,0,0,1-.128-.321,4.779,4.779,0,0,1-.06-1.287c.031-.465.113-.932.19-1.391.044-.263.081-.523.109-.788,0-.009,0-.017,0-.025a2.649,2.649,0,0,0,.147.618,3.343,3.343,0,0,0,.143.327,2.176,2.176,0,0,0-.142.676m1.146.669a9.693,9.693,0,0,0,1.305,1.1q.266.188.54.365a3.064,3.064,0,0,1-.1.776c-.06.267-.113.533-.154.8q-.073.479-.149.956c-.023.145-.054.289-.076.435a1.474,1.474,0,0,0-.02.177q-.249-.164-.492-.338a9.348,9.348,0,0,1-1.34-1.16,16.242,16.242,0,0,1,.215-1.76,7.041,7.041,0,0,1,.19-.783,1.586,1.586,0,0,0,.078-.572m7.933,4.246c1.338.446,2.7.818,4.079,1.13A2.37,2.37,0,0,1,28,105.2c-.043.287-.09.574-.149.858s-.121.57-.176.856a6.459,6.459,0,0,1-.164.825c-1.377-.3-2.74-.668-4.079-1.106.094-.564.22-1.124.324-1.687.05-.27.112-.539.169-.808a2.056,2.056,0,0,0,.09-.613m4.11,1.137q1.607.364,3.233.623c.348.055.7.1,1.047.152a13.6,13.6,0,0,0-.2,1.552c-.036.516-.1,1.023-.184,1.532-.379-.048-.758-.1-1.136-.155q-1.664-.254-3.312-.615c.077-.6.188-1.2.32-1.8.064-.29.119-.581.176-.873a1.291,1.291,0,0,0,.056-.419m12.556,2.483c-.081.57-.148,1.139-.259,1.7q-1.884.109-3.772.043c.035-.265.023-.537.038-.8.019-.332.06-.663.1-.993.034-.286.029-.579.078-.862a.963.963,0,0,0,.026-.407,36.99,36.99,0,0,0,3.967-.075,3.069,3.069,0,0,1-.078.612c-.042.259-.062.522-.1.782m.216-1.4c.127-.01.253-.016.379-.027.755-.07,1.51-.165,2.258-.3,0,.025,0,.053.005.08,0,.154,0,.307,0,.46-.012.283-.038.564-.071.845-.066.572-.127,1.145-.192,1.718-.83.142-1.669.237-2.508.3-.078.005-.155.008-.231.013.029-.287.038-.574.069-.86s.078-.582.119-.872.062-.557.113-.831a2.278,2.278,0,0,0,.061-.531m-4.145,1.479c-.06.554-.113,1.109-.186,1.661-.25-.009-.5-.016-.751-.03q-1.853-.1-3.7-.325c.066-.519.112-1.039.152-1.561s.158-1.018.19-1.529c1.45.2,2.91.327,4.372.379a2.978,2.978,0,0,1-.03.5c-.013.3-.015.6-.048.907m-12.886-3c-.044.267-.109.531-.155.8-.094.533-.246,1.055-.334,1.588-.7-.229-1.386-.474-2.068-.744q-.727-.292-1.438-.624a1.693,1.693,0,0,1,.07-.63c.059-.26.1-.523.15-.785q.157-.844.269-1.693c0-.014-.025-.009-.027,0-.1.584-.181,1.169-.3,1.749-.058.275-.118.548-.184.822a1.623,1.623,0,0,0-.065.491,19.273,19.273,0,0,1-2.256-1.251,2.792,2.792,0,0,1,.026-.354c.025-.143.047-.285.068-.428.048-.328.1-.655.15-.983.039-.254.1-.5.15-.755a1.675,1.675,0,0,0,.036-.671c.507.326,1.031.624,1.567.9.738.378,1.49.728,2.256,1.043.73.3,1.47.566,2.217.816a4.267,4.267,0,0,1-.127.71M15.91,99.97a5.977,5.977,0,0,0-.164.755c-.051.308-.108.615-.147.925-.027.214-.068.439-.079.66-.068-.074-.139-.147-.2-.224a3.568,3.568,0,0,1-.238-.432c-.071-.157-.116-.321-.188-.476a5.534,5.534,0,0,0,.032-.688,8.331,8.331,0,0,1,0-.972c.026-.279.048-.557.065-.837a2.9,2.9,0,0,1,.111-.7,4.829,4.829,0,0,0,.456.722c.15.188.311.365.478.537a1.915,1.915,0,0,1-.123.735m34.924,2.74a7.152,7.152,0,0,1,.732,1.74,3.121,3.121,0,0,1-.1,1.689,2.83,2.83,0,0,1-.438.8,2.671,2.671,0,0,1-.6.7c-.263.181-.507.387-.771.566-.234.159-.474.312-.706.476a31.466,31.466,0,0,1-12.329,1.919,57.067,57.067,0,0,1-6.075-.675,45.376,45.376,0,0,1-11.016-2.809,22.141,22.141,0,0,1-4.987-2.87,10.286,10.286,0,0,1-1.966-2.2,5.169,5.169,0,0,1-.673-1.314,3.146,3.146,0,0,1-.082-1.48,3.039,3.039,0,0,1,.472-1.375,5.306,5.306,0,0,1,1.045-1.069,9.127,9.127,0,0,1,1.579-.948,2.265,2.265,0,0,0-.139.5,1.665,1.665,0,0,0-.015.172,2.554,2.554,0,0,0-.076.3c-.052.256-.117.508-.175.762-.112.5-.212,1-.28,1.506-.008.06-.013.121-.019.181a2.625,2.625,0,0,0-.045.413,2.509,2.509,0,0,0,.027.391c.007.126.017.251.033.375a1.4,1.4,0,0,0,.2.593c.123.19.261.37.372.568a4.589,4.589,0,0,0,.915,1.131c.021.02.772.595,1.163.871.181.129.365.252.552.372a.306.306,0,0,0,.015.055c.011.027.044.01.058-.01.489.311.993.6,1.508.863.254.13.511.256.768.379a.028.028,0,0,0,.029.014c.481.229.967.448,1.46.65a43.854,43.854,0,0,0,9.582,2.584,41.284,41.284,0,0,0,9.918.437,22.36,22.36,0,0,0,4.6-.854.2.2,0,0,0,0,.021c0,.028.046.011.045-.012,0-.007,0-.015,0-.022a2.884,2.884,0,0,0,.493-.164c.208-.076.42-.136.627-.215a5.379,5.379,0,0,0,1.129-.606,5,5,0,0,0,1.007-.837,1.994,1.994,0,0,0,.184-.259c.013-.02.027-.038.039-.058a1.222,1.222,0,0,0,.1-.216,2.734,2.734,0,0,0,.126-.373,13.546,13.546,0,0,0,.363-1.488l0,0s0-.005,0-.008c0-.029.009-.057.012-.082.068-.521.162-1.041.21-1.564.007-.075.016-.149.024-.224a2.089,2.089,0,0,0,.06-.27,2.17,2.17,0,0,0,.022-.393c.313.473.741.87,1.018,1.366m-1.164-.424c-.055.481-.153.958-.224,1.436-.013.086-.025.171-.038.257a1.077,1.077,0,0,0-.067.241,5.072,5.072,0,0,1-.176.62,4.288,4.288,0,0,1-.42,1.148,2.956,2.956,0,0,1-.48.535,6.565,6.565,0,0,0,.133-.673c.06-.275.133-.547.186-.824a6.757,6.757,0,0,0,.113-.8,2.173,2.173,0,0,1,.1-.8c.011-.022-.014-.034-.025-.013a1.45,1.45,0,0,0-.111.635,5.872,5.872,0,0,1-.088.791c-.05.3-.121.586-.189.877a5.708,5.708,0,0,1-.18.859c-.133.115-.271.226-.415.333a6.09,6.09,0,0,1-.777.495c.1-.5.149-1.007.231-1.506a6.5,6.5,0,0,0,.153-1.44c0-.011-.015,0-.015,0a8.285,8.285,0,0,1-.183,1.51c-.078.481-.17.967-.223,1.451q-.141.074-.287.137c-.227.1-.463.17-.7.251-.192.066-.379.139-.572.2.015-.386.159-.761.137-1.151,0-.007-.011,0-.011,0,.015.4-.152.77-.17,1.163-.02.007-.039.015-.059.02a.044.044,0,0,0-.026.031,18.243,18.243,0,0,1-1.99.451c.1-.548.129-1.113.195-1.666.031-.265.068-.53.085-.8.008-.123.012-.245.011-.368a1.984,1.984,0,0,0-.008-.208.54.54,0,0,1-.012-.065,18.836,18.836,0,0,0,2.218-.527,1.29,1.29,0,0,1-.071.631c-.048.272-.06.551-.1.825,0,.008.014,0,.015,0,.026-.153.05-.306.072-.46.019-.137.025-.275.053-.411a1.068,1.068,0,0,0,.042-.588c.115-.035.231-.069.346-.107a9,9,0,0,0,2.238-1.07,4.3,4.3,0,0,0,.905-.849,2.6,2.6,0,0,0,.391-.72c-.005.047-.012.093-.017.139M38.141,94.2c.8.265,1.635.4,2.443.628.413.116.824.228,1.238.34.113.03.226.061.338.094.147.054.293.107.439.164l.03.011c.062.024.123.045.184.069A21.834,21.834,0,0,1,47.2,97.784a8.575,8.575,0,0,1,1.819,1.667,4.236,4.236,0,0,1,.611,1.069,2.6,2.6,0,0,1,.145.639l-.008.04.017.017v.011c0-.015,0,0-.009.027v.007c-.021.151-.064.678-.076.785a2.546,2.546,0,0,1-.426.8,4.249,4.249,0,0,1-.9.838,8.568,8.568,0,0,1-2.236,1.045,21.615,21.615,0,0,1-4.869.858,40.585,40.585,0,0,1-4.952.029c-1.649-.089-3.295-.249-4.93-.493a43.935,43.935,0,0,1-9.576-2.5,20.641,20.641,0,0,1-4.369-2.315,8.724,8.724,0,0,1-1.8-1.677,4.58,4.58,0,0,1-.489-.8v0c0-.006,0-.009-.007-.01-.037-.081-.072-.162-.1-.247a2.267,2.267,0,0,1,.36-2.283,4.188,4.188,0,0,1,.893-.824,8.686,8.686,0,0,1,2.222-1.037,19.639,19.639,0,0,1,3.615-.75c.483-.016.966-.04,1.448-.066.542-.029,1.082-.065,1.626-.078s1.083.009,1.625.04a6.91,6.91,0,0,1,.742.049,1.543,1.543,0,0,0,.548.031,1.454,1.454,0,0,0,.03.309c0,.035-.009.069-.015.1a3.566,3.566,0,0,0-.206.7c-.056.177-.112.354-.163.533-.064.227-.127.455-.191.682-.126.332-.259.661-.379,1a6.837,6.837,0,0,0-.3.914,2.5,2.5,0,0,0-.042.86,2.276,2.276,0,0,0,.35.866,4.362,4.362,0,0,0,1.156,1.173,5.961,5.961,0,0,0,1.387.741,8.189,8.189,0,0,1-.973-.362,3.891,3.891,0,0,1-.674-.424c-.2-.146-.42-.273-.608-.438s-.366-.361-.541-.545a1.875,1.875,0,0,1-.43-.663c0-.011-.026,0-.023.009A2.6,2.6,0,0,0,27.2,99.2a3.352,3.352,0,0,0,.593.515c.2.149.395.313.606.451a5.7,5.7,0,0,0,1.466.625c.525.158,2.5.393,2.787.432a11.955,11.955,0,0,0,1.726.146,7.777,7.777,0,0,0,.852-.068c.26-.031.523-.055.781-.1a3.054,3.054,0,0,0,1.146-.434,3.1,3.1,0,0,0,.979-1.007c.005-.009,0-.027-.013-.015a3.055,3.055,0,0,1-.893.832,3.488,3.488,0,0,1-1.157.409c-.05.009-.1.013-.15.02q.169-.034.337-.073a2.4,2.4,0,0,0,.57-.184,1.828,1.828,0,0,0,.775-.775,2.586,2.586,0,0,0,.239-.676,1.337,1.337,0,0,0,.025-.341c0-.032-.005-.065-.009-.1,0-.009,0-.019,0-.027.016-.46-.049-.928-.073-1.387a10.058,10.058,0,0,1,.049-1.515c.045-.451.109-.9.135-1.349a1.5,1.5,0,0,0,.166-.385m-1.047-4.438a1.139,1.139,0,0,1-.319.812,3.143,3.143,0,0,1-.32.234.655.655,0,0,1-.178.068.514.514,0,0,0-.077.019c-.056.021-.044.029-.1,0s-.187.064-.117.125c.045.04.063.089.1.127a.222.222,0,0,0,.17.04.521.521,0,0,0,.073-.011,1.317,1.317,0,0,0,.985-.5.792.792,0,0,0,.219-.332,1.665,1.665,0,0,0,.06-.606c-.015-.341-.045-.681-.057-1.023a1.945,1.945,0,0,0,.351.6c.054.061.111.119.166.178.044.117.124.216.168.336a.653.653,0,0,1-.129.548,2.684,2.684,0,0,1-.787.8,3.766,3.766,0,0,1-1.108.558c-.21.061-.427.095-.639.143s-.419.071-.621.127c-.006,0-.008.015,0,.013.236-.053.482-.058.72-.105a5.328,5.328,0,0,0,.726-.168,4.586,4.586,0,0,0,1.171-.642,2.678,2.678,0,0,0,.794-.893.717.717,0,0,0,.058-.157c0,.018.009.035.011.054a3.439,3.439,0,0,1-.058.921c-.046.312-.113.619-.172.93a8.5,8.5,0,0,0-.1,1.153,3.326,3.326,0,0,1-.233,1.277,1.644,1.644,0,0,1-.737.678,7.114,7.114,0,0,1-.956.418,4.774,4.774,0,0,1-2.931.057c-.031-.009-.082.041-.041.057a4.6,4.6,0,0,0,2.65.127,7.235,7.235,0,0,0,1.057-.346,2.611,2.611,0,0,0,.923-.587c.017-.019.032-.038.048-.058-.056.325-.1.653-.143.981a2.794,2.794,0,0,1-.232.168,2.7,2.7,0,0,1-.308.125c-.23.088-.46.178-.7.247a4.816,4.816,0,0,1-.7.155,2.214,2.214,0,0,0-.549.084s0,.011,0,.009a2.531,2.531,0,0,1,.637-.073,3.7,3.7,0,0,0,.71-.143c.2-.063.405-.14.606-.215a2.071,2.071,0,0,0,.509-.228,10.1,10.1,0,0,0-.065,1.208,7.585,7.585,0,0,1-.1,2.4,2.1,2.1,0,0,1-.255.491,1.506,1.506,0,0,1-.576.464,1.571,1.571,0,0,0,.1-.212,4.793,4.793,0,0,0,.231-.923c.066-.371.123-.743.178-1.116a4.7,4.7,0,0,0,.039-1.446c-.006-.038-.05-.011-.046.019a9.4,9.4,0,0,1-.242,2.439,3.708,3.708,0,0,1-.216.823,1.433,1.433,0,0,1-.194.35,1.194,1.194,0,0,1-.245.193.094.094,0,0,0-.025.03c-.045.013-.09.027-.136.038a12.361,12.361,0,0,1-1.581.249c-.273.036-.546.076-.82.11-.1.013-.2.021-.3.029a12.554,12.554,0,0,1-1.257-.066,7.953,7.953,0,0,1-3.43-1.03c-.148-.093-.3-.194-.436-.3-.089-.123-.188-.238-.288-.353a.04.04,0,0,0-.007-.03,2.6,2.6,0,0,1-.184-1.939,8.209,8.209,0,0,1,.255-1.417,3.624,3.624,0,0,0,.275-1.2c0-.031-.039,0-.039.019a3.548,3.548,0,0,1-.262,1.077,12.348,12.348,0,0,0-.261,1.232,5.7,5.7,0,0,0-.216,1.594c-.011-.026-.024-.051-.035-.077a3.3,3.3,0,0,1-.3-1.274,4.129,4.129,0,0,1,.346-1.41c.166-.488.277-1,.4-1.5.067-.279.145-.56.186-.844.011-.073.024-.15.036-.228a2.5,2.5,0,0,0,.632.857,5.6,5.6,0,0,0,.918.667,3.263,3.263,0,0,0,1.08.453c.021,0,.026-.034.007-.04a4.892,4.892,0,0,1-.974-.445,4.77,4.77,0,0,1-.8-.644,2.187,2.187,0,0,1-.844-1.474c0-.022,0-.045.007-.068a.2.2,0,0,0,.024-.058c.007.018.012.036.02.053a1.5,1.5,0,0,0,.285.375c.135.149.279.29.415.438a2.041,2.041,0,0,0,.411.379c.007,0,.011-.01.005-.014a2.775,2.775,0,0,1-.381-.378c-.123-.136-.256-.263-.377-.4a1.742,1.742,0,0,1-.257-.394.833.833,0,0,1-.07-.206,1.082,1.082,0,0,1-.015-.179c.048-.206.114-.411.172-.6.1-.328.2-.654.288-.985a17.411,17.411,0,0,1,.375-1.872.785.785,0,0,1,.291-.4c.123-.086.26-.152.386-.235a1.633,1.633,0,0,0,.175-.138c-.032.167-.063.334-.088.5a3.145,3.145,0,0,0,.033,1.533c.005.016.014.027.02.042a.768.768,0,0,0,.049.1.984.984,0,0,0,.447.389,3.626,3.626,0,0,0,1.448.674,10.564,10.564,0,0,0,1.512.336,3.458,3.458,0,0,0,1.466-.066c.043-.013.044-.073-.008-.064a5.584,5.584,0,0,1-2.6-.269,6.357,6.357,0,0,1-.879-.344c.052-.31.128-.612.177-.923.058-.369.172-.727.251-1.092.068-.315.107-.633.163-.95a2.163,2.163,0,0,0,.073-.789c0-.008-.019,0-.018,0a2.676,2.676,0,0,1-.118.813c-.068.35-.109.7-.191,1.05s-.166.678-.234,1.021a2.758,2.758,0,0,1-.15.473,1.564,1.564,0,0,0-.1.316l-.037-.023a.047.047,0,0,0-.012-.027,1.275,1.275,0,0,0-.333-.239,2.6,2.6,0,0,0,.14-.558c.048-.266.078-.535.113-.8.078-.6.194-1.186.294-1.778a14.913,14.913,0,0,0,.214-1.832,15.677,15.677,0,0,1,.212-1.81,4.928,4.928,0,0,0,.095-1.672c0-.009-.013-.005-.011,0a4.641,4.641,0,0,1-.086,1.539c-.093.563-.191,1.127-.244,1.7-.055.6-.127,1.185-.237,1.774s-.24,1.2-.338,1.8c-.045.279-.077.56-.123.84-.04.243-.112.474-.171.71a1.669,1.669,0,0,1-.269-.33,1.52,1.52,0,0,1-.125-1.074q.138-.793.325-1.576a28.123,28.123,0,0,0,.612-3.026c.034-.273.065-.548.1-.822a8.554,8.554,0,0,0,.151-.947,3.628,3.628,0,0,0,.009-.6,4.49,4.49,0,0,0,.045-.73l0-.04c.007-.025.012-.05.02-.076,1.266.332,2.557.569,3.85.777.377.06.755.11,1.135.154a3.2,3.2,0,0,0-.025.42c-.011.251-.027.5-.042.753-.031.488-.053.977-.076,1.465s-.066,1-.086,1.5c-.015.371.135.806-.044,1.154,0,.008.01.008.014,0a2.1,2.1,0,0,0,.078-1.03c0-.49.066-.988.092-1.478.03-.539.056-1.078.109-1.616.023-.232.048-.463.066-.7.008-.11.016-.221.031-.33.006-.042.016-.084.025-.125.188.021.375.043.563.058l.007,0v.017a.268.268,0,0,0-.005.054c0,.034-.011.068-.017.1-.017.12-.034.24-.051.36-.038.265-.044.533-.064.8-.038.543-.1,1.083-.146,1.625-.094,1.061-.168,2.126-.181,3.191a7.943,7.943,0,0,0-.091,1.45c0,.009.019,0,.019,0-.045-.495.143-.98.146-1.474,0-.568.034-1.135.071-1.7.076-1.149.221-2.291.333-3.436.029-.292.075-.584.127-.873a.921.921,0,0,0,.017-.1c.2.015.4.025.6.032a1.138,1.138,0,0,0-.141.317,5,5,0,0,0-.191.805c-.046.363-.065.728-.106,1.091s-.1.726-.154,1.087a20.887,20.887,0,0,0-.211,2.162,21.26,21.26,0,0,1-.159,2.154m12.134-8.7c-.174.025-.351.033-.527.042-.393.018-.778.084-1.167.134l-.308.036c0-.019-.013-.033-.046-.024-.075.021-.151.038-.227.056-.671.074-1.344.139-2.009.245l-.216.024c-.869.107-1.73.265-2.6.357-.2.022-.405.035-.608.046-.29.013-.58.017-.869.02q-.389,0-.78-.013c-.231-.014-.463-.034-.7-.05a3.824,3.824,0,0,0-.822.009c-.534-.016-1.067-.039-1.6-.1h0c0-.05-.062-.032-.095-.008-.887-.105-1.767-.265-2.646-.43-.79-.149-1.576-.3-2.352-.508a.059.059,0,0,0-.04-.011c-.078-.021-.155-.039-.232-.061-.178-.05-.354-.1-.53-.159-.008,0-.016-.008-.023-.01h-.011C29.28,80.174,27.8,79.53,26.309,78.9a47.715,47.715,0,0,1-4.816-2.279c-1.532-.858-3.071-1.731-4.511-2.738-.7-.491-1.39-1-2.1-1.479s-1.333-1.029-1.989-1.571-1.375-1.064-2-1.673a23.842,23.842,0,0,1-1.682-1.847C8.172,66.05,7.2,64.717,6.284,63.36c-.651-.959-1.972-3.607-2.309-4.32-.354-.754-.73-1.5-1.073-2.259a29.832,29.832,0,0,1-1.612-4.657,32.457,32.457,0,0,1-.9-4.8c-.088-.815-.151-1.636-.166-2.456-.017-.877.015-1.754.06-2.63.05-.968.277-3.431.316-3.7.13-.647,1.336-6.32,1.426-6.7.19-.812.418-1.62.661-2.417a45.326,45.326,0,0,1,1.793-4.662,27.786,27.786,0,0,1,2.25-4.3c.34-.521.692-1.035,1.044-1.548l.072-.1a39.464,39.464,0,0,1,4.233-5.188c.822-.836,1.653-1.665,2.481-2.494A17.383,17.383,0,0,1,16.2,9.706c.531-.382,1.986-1.381,3.088-2.134,1.173-.734,2.375-1.422,3.583-2.1a26.247,26.247,0,0,1,3.016-1.409c.508-.2,1.018-.394,1.542-.552s1.023-.292,1.522-.476a7.619,7.619,0,0,0,.712-.3c.092.241.2.475.314.7.287.584.6,1.16.92,1.726l.172.3c-.508.254-1.038.457-1.56.679-.609.259-1.229.49-1.845.73s-1.228.5-1.825.789c-.3.145-.61.263-.913.4-.283.127-.543.3-.814.447A8.3,8.3,0,0,0,22.5,9.38c-.005,0,0,.017.005.011A7.13,7.13,0,0,1,24.011,8.6c.263-.133.509-.3.773-.43.285-.143.588-.249.879-.379.606-.273,1.205-.546,1.827-.784.6-.229,1.208-.445,1.805-.684.34-.136.685-.26,1.022-.4.17-.072.336-.153.51-.218a3.256,3.256,0,0,0,.305-.129l.151.264a5.48,5.48,0,0,0-1.076.4c-.255.1-.517.173-.772.271s-.506.209-.757.318-.485.24-.733.351-.5.2-.738.317c-.185.086-.367.172-.555.25l-.425.153a3.581,3.581,0,0,0-.4.146c-.143.054-.286.109-.427.166a30.493,30.493,0,0,0-6.079,3.764c-.471.338-.953.663-1.4,1.028s-.9.78-1.335,1.188c-.906.852-1.819,1.691-2.675,2.593-.707.745-1.423,1.49-2.078,2.284a6.93,6.93,0,0,0-.769.911c-.375.471-.759.936-1.128,1.411s-.586,1.021-.9,1.519A17.509,17.509,0,0,0,8.1,24.481c-.272.55-.543,1.107-.777,1.675s-.482,1.124-.693,1.7a36.11,36.11,0,0,0-1,3.634c-.17.677-.327,1.355-.46,2.04-.066.338-.13.675-.19,1.013-.031.174-.061.348-.092.522-.013.071-.019.152-.031.232l-.034.149c-.013.038-.065.168-.037.182q-.213,1.03-.338,2.075c-.088.74-.125,1.485-.176,2.228s-.095,1.464-.094,2.2c0,.257.012.513.027.769,0,.212.006.426.023.637.025.3.052.594.086.89q.1.9.241,1.791c.06.386.122.771.184,1.157.046.462.092.888.133,1.11.023.126.044.251.066.377a2.12,2.12,0,0,0,.072.46c0,.006.007.008.011.011.029.164.059.328.088.491a32.478,32.478,0,0,0,.558,3.29A31.057,31.057,0,0,0,6.8,56.5c.206.56.4,1.128.624,1.68.214.52.462,1.025.72,1.525s.519.984.761,1.484a14.415,14.415,0,0,0,.743,1.368,26.624,26.624,0,0,0,4.056,4.778,27.418,27.418,0,0,0,2.559,2.221c.907.694,3.6,2.473,3.565,2.4.078.061.154.125.231.185a28.363,28.363,0,0,0,3.387,2.134,31.035,31.035,0,0,0,3.69,1.689,28.907,28.907,0,0,0,3.842,1.33c1.372.347,2.792.511,4.188.735,1.441.231,2.883.457,4.331.637a13.987,13.987,0,0,0,2.033.131c.348-.008.7-.028,1.044-.046.418.046.832.08,1.256.085a14.771,14.771,0,0,0,3.016-.212l.381-.076c.17-.016.339-.031.508-.048.266-.027.529-.066.792-.105.019.08.037.159.055.238.1.452.211.9.343,1.342.078.262.168.52.265.775a43.187,43.187,0,0,1-4.5.458c-.849.082-1.693.166-2.546.186s-1.683,0-2.522-.054c-1.693-.1-3.382-.32-5.057-.592a37.654,37.654,0,0,1-4.944-1.176c-.456-.139-.91-.282-1.36-.438-.4-.138-.786-.305-1.185-.44-.333-.113-.671-.21-1-.335a2.454,2.454,0,0,1-.932-.539c-.005,0-.019,0-.013.008a3.6,3.6,0,0,0,1.6.8c.727.236,1.431.533,2.159.767a38.923,38.923,0,0,0,4.98,1.27c1.673.3,3.371.524,5.066.66a28.111,28.111,0,0,0,5.045-.007c1.742-.174,3.5-.237,5.228-.528.034.087.065.174.1.261-.026.006-.052.014-.078.017m2.108-3.32c.133.425.311.834.441,1.261a4.967,4.967,0,0,1,.3,2.023.783.783,0,0,1-.466.693,1.7,1.7,0,0,1-.874.114.845.845,0,0,1-.685-.464,13.553,13.553,0,0,1-.5-1.3c-.17-.509-.306-1.026-.5-1.528-.082-.216-.17-.428-.264-.639a2.666,2.666,0,0,1-.127-.316c.1-.02.2-.044.3-.064.027.07.056.139.084.206.1.249.213.493.3.747.161.458.243.933.429,1.383,0,.007.021,0,.019,0-.143-.458-.191-.942-.339-1.4-.078-.239-.16-.476-.229-.718-.023-.083-.045-.168-.07-.254.5-.106,1-.221,1.5-.348h0a2.414,2.414,0,0,1,.131.311c.058.159.115.314.184.468q.194.436.362.882a5.645,5.645,0,0,1,.306,1.073,2.012,2.012,0,0,1-.034,1.006,1,1,0,0,1-.862.613c-.008,0-.009.017,0,.017a.979.979,0,0,0,.814-.436,1.538,1.538,0,0,0,.162-.9,6.071,6.071,0,0,0-.243-1.157c-.1-.354-.226-.7-.355-1.038a5.593,5.593,0,0,1-.183-.554c-.028-.105-.052-.223-.092-.332.07-.018.141-.034.211-.052a3.836,3.836,0,0,1,.266.706M76.1,51.385A35.737,35.737,0,1,1,67.924,17.5c0,.042,0,.084,0,.125-.023.271-.092.537-.116.807a9.2,9.2,0,0,0-.014,1.3,6.529,6.529,0,0,0,.058.674,2.071,2.071,0,0,0,.139.578,1.813,1.813,0,0,0,.687.685,3.646,3.646,0,0,1,.9.75,4.624,4.624,0,0,1,.377.572c.05.086.1.172.145.259s.09.2.141.3a1.923,1.923,0,0,1,.379.947,2.878,2.878,0,0,1-.3.917,1.817,1.817,0,0,0-.119,1.1c.173.673.822,1.087,1.351,1.472a3.089,3.089,0,0,1,1.268,1.34,2.6,2.6,0,0,1,.1,1.006,1.045,1.045,0,0,0,.174.743,4.824,4.824,0,0,0,1.039.761c.24.168.456.369.7.539a4.3,4.3,0,0,0,.761.447.907.907,0,0,0,.7.07l.021-.011a35.478,35.478,0,0,1-.215,18.5" transform="translate(0.504 0.041)" fill="#00c2ff"/>
            <path id="Trazado_875820" data-name="Trazado 875820" d="M50.678,138.72c-.09,0-.178-.012-.267-.019a1.317,1.317,0,0,0-.271,0c-.01,0-.017.023,0,.023.089,0,.178.009.267.017a1.421,1.421,0,0,0,.271,0c.011,0,.017-.023,0-.023" transform="translate(-16.378 -46.669)" fill="#00c2ff"/>
            <path id="Trazado_875821" data-name="Trazado 875821" d="M50.384,145.448a6.347,6.347,0,0,0-.777-.076,2.393,2.393,0,0,1-.761-.111c-.013-.005-.021.017-.011.023a1.863,1.863,0,0,0,.73.139c.271.024.544.016.815.044.009,0,.013-.017,0-.019" transform="translate(-15.941 -48.88)" fill="#00c2ff"/>
            <path id="Trazado_875822" data-name="Trazado 875822" d="M27.28,15.113a16.373,16.373,0,0,0-2.142,1.432q-.541.423-1.092.835c-.319.239-.682.416-.983.68a31.7,31.7,0,0,0-3.742,3.583c-.312.382-.6.775-.946,1.127a13.636,13.636,0,0,0-.96,1.127c-.018.023.005.081.032.05.289-.33.551-.683.852-1,.148-.158.3-.306.441-.474s.258-.328.385-.494a15.893,15.893,0,0,1,1.765-1.9c.628-.586,1.283-1.143,1.923-1.716a6.035,6.035,0,0,1,.506-.432c.165-.118.34-.222.51-.334.349-.231.675-.5,1.006-.757a23.116,23.116,0,0,1,2.447-1.71c.006,0,0-.019,0-.014" transform="translate(-5.359 -5.049)" fill="#00c2ff"/>
            <path id="Trazado_875823" data-name="Trazado 875823" d="M12.325,93.247c-.773-.879-1.6-1.709-2.36-2.6-.372-.437-.726-.889-1.083-1.338a11.4,11.4,0,0,1-1-1.442c-.188-.33-.37-.663-.57-.986-.175-.373-.352-.747-.559-1.1-.313-.533-.681-1.032-.995-1.565-.33-.562-.635-1.137-.921-1.723a39.1,39.1,0,0,1-2.743-7.467c-.164-.643-.371-1.275-.533-1.919a5.5,5.5,0,0,1-.211-1.986c0-.009-.012,0-.013,0a8.705,8.705,0,0,0,.589,3.459c.174.624.326,1.253.509,1.874q.3,1,.65,1.987a32.784,32.784,0,0,0,3.408,7.082,7.351,7.351,0,0,1,.48.86c-.014-.019-.027-.039-.042-.058s-.017,0-.012.009c.035.046.065.1.1.143.387.808,1.387,2.3,1.369,2.278a7.323,7.323,0,0,1-.919-1.548c.109.2.217.4.326.595A10.786,10.786,0,0,0,8.7,89.164c.713.924,1.453,1.816,2.25,2.668.448.479.9.956,1.346,1.437.011.013.042-.008.029-.023" transform="translate(0.065 -23.909)" fill="#00c2ff"/>
            <path id="Trazado_875824" data-name="Trazado 875824" d="M60.378,20.82a2.6,2.6,0,0,1-1.536.617,5.018,5.018,0,0,0-.777.1,2.167,2.167,0,0,0-.757.4,6.756,6.756,0,0,0-1.075,1.494,2.206,2.206,0,0,1-.688.621,8.138,8.138,0,0,1-.812.369,1.436,1.436,0,0,0-.6.344.988.988,0,0,0-.193.379,1.286,1.286,0,0,0,.009.43c.005.062.077.053.092,0a2.654,2.654,0,0,1,.154-.357,1.113,1.113,0,0,1,.126-.233,1.329,1.329,0,0,1,.519-.424c.269-.122.539-.243.81-.359a1.646,1.646,0,0,0,.678-.493,9.973,9.973,0,0,1,1.025-1.464,2.224,2.224,0,0,1,.747-.423c.259-.093.51-.2.777-.277a2.88,2.88,0,0,0,1.516-.712c.007-.008,0-.026-.009-.015" transform="translate(-17.654 -6.97)" fill="#00c2ff"/>
            <path id="Trazado_875825" data-name="Trazado 875825" d="M51.439,34.376a2.736,2.736,0,0,1-.068-.949,2.235,2.235,0,0,1,.237-.866c.141-.25.338-.468.5-.7s.328-.479.482-.726a2.511,2.511,0,0,0,.487-1.782c-.005-.029-.044,0-.042.02a2.494,2.494,0,0,1-.5,1.7c-.33.479-.816.833-1.13,1.319a1.836,1.836,0,0,0-.292.8,2.484,2.484,0,0,0,.109.8c.133.588.348,1.151.483,1.737a4.632,4.632,0,0,1,.155,1.037,1.587,1.587,0,0,1-.08.495,2.06,2.06,0,0,1-.3.507.024.024,0,0,0,.035.033,1.81,1.81,0,0,0,.393-1.615c-.1-.612-.332-1.2-.475-1.8" transform="translate(-16.71 -9.84)" fill="#00c2ff"/>
            <path id="Trazado_875826" data-name="Trazado 875826" d="M61.871,13.813a4.169,4.169,0,0,1-.885-.314c-.009,0-.022.012-.012.018a8.517,8.517,0,0,0,1.476.621,4.046,4.046,0,0,1,1.483.788,1.361,1.361,0,0,1,.39.76c.007.038.06.011.064-.017.139-1.3-1.6-1.605-2.516-1.856" transform="translate(-20.029 -4.505)" fill="#00c2ff"/>
            <path id="Trazado_875827" data-name="Trazado 875827" d="M65.978,17.309c0-.033-.034-.029-.038,0a4.287,4.287,0,0,1-.191.889c-.014.036.024.05.041.017a1.361,1.361,0,0,0,.126-.438c.02-.156.039-.312.062-.468" transform="translate(-21.638 -5.781)" fill="#00c2ff"/>
            <path id="Trazado_875828" data-name="Trazado 875828" d="M41.692,44.252a6.217,6.217,0,0,1-.954.61,1.736,1.736,0,0,1-1.148.2,1.351,1.351,0,0,1-.659-.379.662.662,0,0,1-.15-.494A2.025,2.025,0,0,1,39.371,43a3.037,3.037,0,0,1,.47-.414,4.909,4.909,0,0,0,.885-.823,6.546,6.546,0,0,0,.678-.995,1.324,1.324,0,0,1,.847-.713c.025-.006.043-.048.006-.043a1.175,1.175,0,0,0-.783.48c-.228.288-.408.6-.652.879a9.5,9.5,0,0,1-1.029,1,4.976,4.976,0,0,0-.518.506,6.114,6.114,0,0,0-.481.625,1.923,1.923,0,0,0-.313.692.813.813,0,0,0,.121.629.993.993,0,0,0,.705.359,2.468,2.468,0,0,0,1.3-.168,4.487,4.487,0,0,0,1.121-.721c.031-.026,0-.062-.035-.039" transform="translate(-12.45 -13.434)" fill="#00c2ff"/>
            <path id="Trazado_875829" data-name="Trazado 875829" d="M43.881,46.181a.02.02,0,0,0-.017,0l-.108.035a.04.04,0,0,0-.028.032.019.019,0,0,0,.006.017.02.02,0,0,0,.017,0l.108-.035a.038.038,0,0,0,.019-.012.035.035,0,0,0,.009-.02.019.019,0,0,0-.006-.017" transform="translate(-14.223 -15.511)" fill="#00c2ff"/>
            <path id="Trazado_875830" data-name="Trazado 875830" d="M45.846,47.361a2.173,2.173,0,0,0-.267-.341,2.756,2.756,0,0,0-.686-.508c-.007,0-.015.008-.009.012a2.64,2.64,0,0,1,.624.566,2.906,2.906,0,0,1,.245.344,3.113,3.113,0,0,0,.2.363c.023.029.068-.018.066-.044a.937.937,0,0,0-.174-.392" transform="translate(-14.611 -15.623)" fill="#00c2ff"/>
            <path id="Trazado_875831" data-name="Trazado 875831" d="M27.079,54.855a1.6,1.6,0,0,0-1.254-.107,5.2,5.2,0,0,1-1.3.225,1.421,1.421,0,0,1-1.156-.588,3.339,3.339,0,0,1-.436-1.2,3.6,3.6,0,0,0-.448-1.268c-.007-.009-.017.009-.013.016.447.745.355,1.686.774,2.447a1.528,1.528,0,0,0,.966.779,2.614,2.614,0,0,0,1.324-.223,3.573,3.573,0,0,1,.725-.159,1.508,1.508,0,0,1,.793.159c.041.019.061-.058.029-.079" transform="translate(-7.062 -17.442)" fill="#00c2ff"/>
            <path id="Trazado_875832" data-name="Trazado 875832" d="M36.042,57.236a2.413,2.413,0,0,0-2.108-.195,7.278,7.278,0,0,1-2.167.483A1.944,1.944,0,0,1,30.6,57.1c-.006,0-.011.009-.007.014a1.743,1.743,0,0,0,.942.485,2.8,2.8,0,0,0,1.031-.066,14.02,14.02,0,0,1,2.179-.47,2.523,2.523,0,0,1,1.267.242c.034.018.061-.046.032-.066" transform="translate(-9.797 -19.12)" fill="#00c2ff"/>
            <path id="Trazado_875833" data-name="Trazado 875833" d="M40.087,57.576c-.005,0-.011.009,0,.011s.011-.01,0-.011" transform="translate(-12.994 -19.35)" fill="#00c2ff"/>
            <path id="Trazado_875834" data-name="Trazado 875834" d="M50.637,59.517a3.963,3.963,0,0,1-1.554-.127,8.009,8.009,0,0,1-1.553-.483,5.845,5.845,0,0,1-.71-.42A7.43,7.43,0,0,1,46.136,58c-.458-.373-.851-.821-1.332-1.168-.418-.3-.895-.842-1.46-.781-.008,0-.022.018-.009.022a1.962,1.962,0,0,1,.725.352c.208.163.4.34.623.489a6,6,0,0,1,.7.571c.219.2.408.432.615.647a3.19,3.19,0,0,0,.652.521,5.006,5.006,0,0,0,.769.34,10.749,10.749,0,0,0,1.564.48,3.72,3.72,0,0,0,1.648.1c.034-.008.054-.066.007-.057" transform="translate(-14.088 -18.833)" fill="#00c2ff"/>
            <path id="Trazado_875835" data-name="Trazado 875835" d="M54.954,60.844c-.026,0-.062.037-.028.042s.063-.037.028-.042" transform="translate(-17.989 -20.45)" fill="#00c2ff"/>
            <path id="Trazado_875836" data-name="Trazado 875836" d="M53.952,50.142a1.42,1.42,0,0,1-.272.5,1.377,1.377,0,0,1-.472.328,1.16,1.16,0,0,1-1.084.007c-.051-.029-.114.078-.071.113a1.066,1.066,0,0,0,1.2.032,1.875,1.875,0,0,0,.493-.439,1.132,1.132,0,0,0,.267-.546c.007-.05-.052-.029-.062,0" transform="translate(-17.022 -16.835)" fill="#00c2ff"/>
            <path id="Trazado_875837" data-name="Trazado 875837" d="M55.052,49.47c0-.031-.009-.061-.011-.092a.364.364,0,0,1,0-.046c0-.006,0-.012,0-.019a.108.108,0,0,0,0-.029A.027.027,0,0,0,55,49.261a.056.056,0,0,0-.029.059.119.119,0,0,0,.009.026s.007.009.009.013A.186.186,0,0,1,55,49.4a.64.64,0,0,1,.014.087c.009.061.015.123.02.184,0,.031.042.009.04-.015,0-.063-.011-.125-.018-.188" transform="translate(-18.007 -16.548)" fill="#00c2ff"/>
            <path id="Trazado_875838" data-name="Trazado 875838" d="M55.165,48.857c-.011,0-.017.021-.005.023s.017-.021.005-.023" transform="translate(-18.07 -16.413)" fill="#00c2ff"/>
            <path id="Trazado_875839" data-name="Trazado 875839" d="M62.883,45.172c-.074.071-.13.157-.208.225a1.242,1.242,0,0,1-.275.181,1.386,1.386,0,0,1-.635.141,3.358,3.358,0,0,1-.623-.095,1.714,1.714,0,0,1-.574-.2c-.02-.013-.058.019-.037.036a1.406,1.406,0,0,0,.538.315,1.882,1.882,0,0,0,.728.029,2.083,2.083,0,0,0,.677-.184.882.882,0,0,0,.464-.432c.011-.038-.035-.036-.055-.018" transform="translate(-19.879 -15.168)" fill="#00c2ff"/>
            <path id="Trazado_875840" data-name="Trazado 875840" d="M64.218,44.254a.218.218,0,0,0-.088-.177c-.024-.013-.053.029-.037.048a.294.294,0,0,1,.088.147.41.41,0,0,1-.035.2c0,.007,0,.019.008.021s.018-.008.022-.016a.441.441,0,0,0,.042-.22" transform="translate(-21.08 -14.803)" fill="#00c2ff"/>
            <path id="Trazado_875841" data-name="Trazado 875841" d="M17.836,45.254a5.465,5.465,0,0,1-.808-1.169,4.168,4.168,0,0,1-.373-1.34,4.653,4.653,0,0,1,.034-1.426,12.333,12.333,0,0,1,.463-1.608,6.591,6.591,0,0,0,.393-1.735c0-.006-.01,0-.011,0a20.287,20.287,0,0,1-.972,3.31,4.2,4.2,0,0,0-.1,1.443,4.121,4.121,0,0,0,.4,1.288,4.23,4.23,0,0,0,.917,1.285c.026.025.078-.025.054-.052" transform="translate(-5.032 -12.748)" fill="#00c2ff"/>
            <path id="Trazado_875842" data-name="Trazado 875842" d="M58.124,71.364a6.863,6.863,0,0,1-.9-1.4c-.113-.292-.176-.6-.284-.9a6.282,6.282,0,0,1-.284-.892c-.066-.322-.121-.657-.162-.982a5.509,5.509,0,0,1-.055-1.05c.042-.658.292-1.292.31-1.951a5.378,5.378,0,0,1,.021-1.92c0-.01-.011-.008-.015,0a3.27,3.27,0,0,0-.09,1.687,10,10,0,0,1-.294,1.969,8.063,8.063,0,0,0,.005,2.111,3.7,3.7,0,0,0,.22.885c.111.3.264.578.388.871a4.561,4.561,0,0,0,.451.844c.19.273.41.519.626.771.021.025.087-.017.066-.046" transform="translate(-18.456 -20.929)" fill="#00c2ff"/>
            <path id="Trazado_875843" data-name="Trazado 875843" d="M62.616,81.89a2.922,2.922,0,0,1-.714-1.11,5.741,5.741,0,0,1-.26-1.313,5.1,5.1,0,0,0-.2-1.295,1.621,1.621,0,0,0-.674-.829c-.382-.233-.793-.41-1.176-.641-.014-.009-.032.019-.018.029.176.123.353.244.525.373a5.386,5.386,0,0,1,.443.332,2.458,2.458,0,0,1,.611.9c.316.8.351,1.678.637,2.486a2.133,2.133,0,0,0,.785,1.131c.028.018.069-.037.046-.06" transform="translate(-19.556 -25.791)" fill="#00c2ff"/>
            <path id="Trazado_875844" data-name="Trazado 875844" d="M64.943,85.32l-.135-.124c-.011-.01-.04.006-.026.019l.135.124c.011.01.04-.006.026-.019" transform="translate(-21.312 -28.651)" fill="#00c2ff"/>
            <path id="Trazado_875845" data-name="Trazado 875845" d="M69.972,87.225c-.707-.936-2-.785-3.036-.771-.006,0-.012.012,0,.012,1.041.007,2.239-.05,3.012.778.01.01.037-.007.028-.019" transform="translate(-22.036 -29.07)" fill="#00c2ff"/>
            <path id="Trazado_875846" data-name="Trazado 875846" d="M73.428,89.8a1.542,1.542,0,0,0-.221-.4c-.089-.133-.191-.259-.29-.386-.007-.009-.019.007-.015.015.084.139.162.282.247.421a3.35,3.35,0,0,0,.236.389c.019.023.048-.015.042-.035" transform="translate(-24.048 -29.934)" fill="#00c2ff"/>
            <path id="Trazado_875847" data-name="Trazado 875847" d="M73.438,92.839c0-.009-.007-.01-.011,0a3.708,3.708,0,0,0-.24,1,6.716,6.716,0,0,1-.381,1.122,10.326,10.326,0,0,0-.558,2.387c-.006.048.052.029.058-.006.077-.406.172-.807.263-1.21a11.784,11.784,0,0,1,.318-1.2,7.172,7.172,0,0,0,.322-1.027,4.075,4.075,0,0,1,.229-1.062" transform="translate(-23.827 -31.223)" fill="#00c2ff"/>
            <path id="Trazado_875848" data-name="Trazado 875848" d="M72.291,102.479a2.815,2.815,0,0,0,.027-.442,2.12,2.12,0,0,0-.075-.423,5.375,5.375,0,0,1-.074-.992c0-.029-.056-.019-.055.007a4.785,4.785,0,0,1,0,.94,3.605,3.605,0,0,0-.068.477,3.27,3.27,0,0,0,.023.448,8.767,8.767,0,0,1-.074,1.878c0,.04.068.024.075-.009.121-.623.145-1.255.223-1.884" transform="translate(-23.741 -33.841)" fill="#00c2ff"/>
            <path id="Trazado_875849" data-name="Trazado 875849" d="M71.976,107.511c0-.013-.013-.016-.015,0a2.394,2.394,0,0,0-.068.769c0,.017.022,0,.019-.011a2.345,2.345,0,0,1,.063-.755" transform="translate(-23.703 -36.163)" fill="#00c2ff"/>
            <path id="Trazado_875850" data-name="Trazado 875850" d="M83.554,103.365a6.726,6.726,0,0,0-3.6,2.268c-.007.009,0,.023.01.012a4.923,4.923,0,0,1,1.669-1.314c.631-.312,1.291-.562,1.917-.88.029-.015.052-.1,0-.086" transform="translate(-26.423 -34.77)" fill="#00c2ff"/>
            <path id="Trazado_875851" data-name="Trazado 875851" d="M88.771,97.875a5.748,5.748,0,0,0-.361.84c-.114.269-.24.532-.38.789a4.722,4.722,0,0,1-1.2,1.424c-.01.008,0,.019.01.011a5.315,5.315,0,0,0,1.236-1.38,6.565,6.565,0,0,0,.412-.79c.063-.14.123-.282.179-.424a2.13,2.13,0,0,0,.159-.46c0-.034-.038-.031-.052-.009" transform="translate(-28.736 -32.916)" fill="#00c2ff"/>
            <path id="Trazado_875852" data-name="Trazado 875852" d="M94.818,89.377a4.535,4.535,0,0,1-1.32,2.254c-.626.556-1.43.866-2.1,1.368a2.135,2.135,0,0,0-.473.5,3.059,3.059,0,0,1-.469.6c-.011.009,0,.027.011.016.342-.277.56-.676.917-.936a13.014,13.014,0,0,1,1.251-.734,3.573,3.573,0,0,0,1.718-1.542,5.607,5.607,0,0,0,.523-1.54c.005-.045-.056-.017-.062.011" transform="translate(-29.959 -30.048)" fill="#00c2ff"/>
            <path id="Trazado_875853" data-name="Trazado 875853" d="M97.977,87.455a1.461,1.461,0,0,0-.331.468c0,.009.011.007.013,0a1.452,1.452,0,0,1,.327-.462c.007-.007,0-.013-.009-.007" transform="translate(-32.38 -29.411)" fill="#00c2ff"/>
            <path id="Trazado_875854" data-name="Trazado 875854" d="M99.426,85.446a3.738,3.738,0,0,1-.3.517c-.113.159-.237.31-.358.464,0,.006,0,.014.007.007a3.535,3.535,0,0,0,.674-.978c.007-.021-.014-.031-.024-.011" transform="translate(-32.759 -28.732)" fill="#00c2ff"/>
            <path id="Trazado_875855" data-name="Trazado 875855" d="M107.154,43.085a2.015,2.015,0,0,1-.268-1.009c-.011-.173-.009-.345-.007-.519a2.585,2.585,0,0,0-.02-.531c-.147-.725-1.068-.78-1.641-.953a2.03,2.03,0,0,1-1.509-1.644,5.644,5.644,0,0,1,.464-2.118,1.843,1.843,0,0,0,.1-1.06,1.552,1.552,0,0,0-.767-.944c-.055-.032-.122.072-.082.115a2.26,2.26,0,0,1,.6.984,2.5,2.5,0,0,1,.013.921,9.742,9.742,0,0,1-.281,1.017,3.57,3.57,0,0,0-.145,1.034,1.773,1.773,0,0,0,.336,1.018,2.436,2.436,0,0,0,.907.637,4.587,4.587,0,0,0,1.027.292,1.333,1.333,0,0,1,.477.2,1.018,1.018,0,0,1,.33.46,1.547,1.547,0,0,1,.127.569c0,.213-.032.419-.05.631a.94.94,0,0,0,.339.972c.036.022.069-.042.05-.07" transform="translate(-34.324 -11.512)" fill="#00c2ff"/>
            <path id="Trazado_875856" data-name="Trazado 875856" d="M102.488,32.791a1.073,1.073,0,0,1-.145-.146c-.022-.027-.042-.056-.065-.082s-.045-.052-.066-.08c-.041-.052-.08-.105-.118-.16-.019-.027-.034-.054-.055-.08a.629.629,0,0,0-.057-.074c-.029-.027-.062.011-.059.042a.634.634,0,0,0,.219.37c.025.023.052.048.079.07a.579.579,0,0,0,.084.056c.058.034.116.07.175.1.011.006.015-.015.008-.021" transform="translate(-33.821 -10.79)" fill="#00c2ff"/>
          </g>
        </g>
      </g>
      <g id="Grupo_1101215" data-name="Grupo 1101215" transform="translate(508.449 18.622)">
        <g id="Grupo_1100379" data-name="Grupo 1100379" transform="translate(0 0)" clip-path="url(#clip-path-3)">
          <path id="Trazado_875741" data-name="Trazado 875741" d="M3.948,0A3.947,3.947,0,0,0,0,3.947c0,2.18,3.947,7.932,3.947,7.932S7.9,6.127,7.9,3.947A3.947,3.947,0,0,0,3.948,0m0,5.628A1.855,1.855,0,1,1,5.8,3.773,1.855,1.855,0,0,1,3.948,5.628" transform="translate(-0.001 0)" fill="#fff"/>
        </g>
      </g>
    </g>
  </g>
</svg>
