<svg xmlns="http://www.w3.org/2000/svg" width="73" height="73" viewBox="0 0 73 73">
  <g id="img-5" transform="translate(3540 12259)">
    <g id="Grupo_1103309" data-name="Grupo 1103309" transform="translate(-4035.051 -13498.346)">
      <circle id="Elipse_11590" data-name="Elipse 11590" cx="36.5" cy="36.5" r="36.5" transform="translate(495.051 1239.346)" fill="#fc7350"/>
      <g id="equipaje_1_" data-name="equipaje (1)" transform="translate(511.076 1234.479)" style="mix-blend-mode: multiply;isolation: isolate">
        <path id="Trazado_883121" data-name="Trazado 883121" d="M41.358,37.189a.616.616,0,0,0,.616-.616V30.652a4.114,4.114,0,0,0-4.109-4.11h-1.27v-.816a1.554,1.554,0,0,0-1.552-1.552h-1.1a1.554,1.554,0,0,0-1.552,1.552v.816H29.253v-.816a1.554,1.554,0,0,0-1.176-1.5V22.857a3.314,3.314,0,0,0-3.311-3.311H22.3a.616.616,0,1,0,0,1.233h2.466a2.08,2.08,0,0,1,2.078,2.078v1.317H25.611V22.857a.846.846,0,0,0-.845-.845H17.29a.846.846,0,0,0-.845.845v1.317H15.212V22.857a2.08,2.08,0,0,1,2.078-2.078h2.384a.616.616,0,0,0,0-1.233H17.29a3.314,3.314,0,0,0-3.311,3.311v1.366a1.554,1.554,0,0,0-1.176,1.5v.816H9.665v-.816a1.554,1.554,0,0,0-1.552-1.552h-1.1a1.554,1.554,0,0,0-1.552,1.552v.816H4.11A4.114,4.114,0,0,0,0,30.652V54.2A4.114,4.114,0,0,0,4.11,58.308H37.865A4.114,4.114,0,0,0,41.975,54.2v-15a.616.616,0,1,0-1.233,0v15a2.88,2.88,0,0,1-2.877,2.877h-4.3V43.636h.131a2.9,2.9,0,0,0,2.9-2.9V37.7a2.9,2.9,0,0,0-2.9-2.9h-.131V27.775h4.3a2.88,2.88,0,0,1,2.877,2.877v5.921a.616.616,0,0,0,.616.616ZM29.559,34.8a2.9,2.9,0,0,0-2.9,2.9v3.039a2.9,2.9,0,0,0,2.9,2.9h.131V57.075H12.366V52.649l3.62-1.288a1.235,1.235,0,0,0,.749-1.576l-1.244-3.5a1.235,1.235,0,0,0-1.576-.749l-1.549.551V43.636H12.5a2.9,2.9,0,0,0,2.9-2.9V37.7a2.9,2.9,0,0,0-2.9-2.9h-.131V27.775H29.691V34.8h-.131ZM8.494,52.718l-1.963.7-1.243-3.5,3.207-1.141ZM8.363,42.4A1.665,1.665,0,0,1,6.7,40.739V37.7a1.665,1.665,0,0,1,1.663-1.664H12.5A1.665,1.665,0,0,1,14.161,37.7v3.039A1.665,1.665,0,0,1,12.5,42.4Zm4,5,1.963-.7,1.243,3.5-3.207,1.141Zm12.07-20.858v-.816a.32.32,0,0,1,.32-.32H27.7a.32.32,0,0,1,.32.32v.816Zm-.057-3.3v.978a1.554,1.554,0,0,0-1.175,1.5v.816h-4.35v-.816a1.554,1.554,0,0,0-1.175-1.5v-.978ZM14.037,25.726a.32.32,0,0,1,.32-.32H17.3a.32.32,0,0,1,.32.32v.816H14.037Zm-7.342,0a.32.32,0,0,1,.32-.32h1.1a.32.32,0,0,1,.32.32v.816H6.695ZM1.233,54.2V30.652A2.88,2.88,0,0,1,4.11,27.775H8.494v2.188a.616.616,0,1,0,1.233,0V27.775h1.406V34.8H9.727V32.59a.616.616,0,1,0-1.233,0V34.8H8.363a2.9,2.9,0,0,0-2.9,2.9v3.039a2.9,2.9,0,0,0,2.9,2.9h.131v3.833l-3.62,1.288a1.234,1.234,0,0,0-.749,1.576l1.244,3.5a1.232,1.232,0,0,0,1.576.749l1.549-.551v3.048H4.11A2.88,2.88,0,0,1,1.233,54.2Zm8.494,2.877V43.636h1.406V57.075Zm22.6,0H30.923V43.636H32.33ZM35.357,37.7v3.039A1.665,1.665,0,0,1,33.694,42.4H29.559A1.665,1.665,0,0,1,27.9,40.739V37.7a1.665,1.665,0,0,1,1.663-1.664h4.135A1.665,1.665,0,0,1,35.357,37.7Zm-4.434-2.9V27.775H32.33V34.8Zm2.7-8.262v-.816a.32.32,0,0,1,.32-.32h1.1a.32.32,0,0,1,.32.32v.816Z" fill="#984530"/>
        <path id="Trazado_883122" data-name="Trazado 883122" d="M101.512,238.484v-2.668a.616.616,0,0,0-.616-.616H97.132a.616.616,0,0,0-.616.616v2.668a.616.616,0,0,0,.616.616H100.9A.616.616,0,0,0,101.512,238.484Zm-1.233-.616h-2.53v-1.435h2.53Z" transform="translate(-88.584 -197.93)" fill="#984530"/>
        <path id="Trazado_883123" data-name="Trazado 883123" d="M354.428,235.816v2.668a.616.616,0,0,0,.616.616h3.763a.616.616,0,0,0,.616-.616v-2.668a.616.616,0,0,0-.616-.616h-3.763a.616.616,0,0,0-.616.616Zm1.233.616h2.53v1.435h-2.53Z" transform="translate(-325.299 -197.93)" fill="#984530"/>
        <path id="Trazado_883124" data-name="Trazado 883124" d="M224.917,148.4a.872.872,0,0,0-.391-.839l-4.447-2.905a.877.877,0,0,0-1.3.415h0l-2.027,5.188a.879.879,0,0,0,.813,1.2.889.889,0,0,0,.3-.051l6.474-2.283A.873.873,0,0,0,224.917,148.4Zm-6.732,1.585,1.586-4.059,3.479,2.273Z" transform="translate(-198.884 -114.696)" fill="#984530"/>
        <path id="Trazado_883125" data-name="Trazado 883125" d="M251.45,358.384a3.655,3.655,0,1,0,3.655-3.655A3.66,3.66,0,0,0,251.45,358.384Zm6.078,0a2.423,2.423,0,1,1-2.423-2.423A2.425,2.425,0,0,1,257.528,358.384Z" transform="translate(-230.785 -307.636)" fill="#984530"/>
      </g>
    </g>
  </g>
</svg>
