<svg xmlns="http://www.w3.org/2000/svg" xmlns:xlink="http://www.w3.org/1999/xlink" width="241.039" height="132" viewBox="0 0 241.039 132">
  <defs>
    <clipPath id="clip-path">
      <rect id="Rect치ngulo_403183" data-name="Rect치ngulo 403183" width="241.04" height="132" transform="translate(-19 18)" fill="none"/>
    </clipPath>
    <clipPath id="clip-path-2">
      <rect id="Rect치ngulo_403182" data-name="Rect치ngulo 403182" width="229.207" height="120.167" fill="#49763f"/>
    </clipPath>
  </defs>
  <g id="banner-principal-decorativo-1" transform="translate(12445.834 12233)">
    <g id="Grupo_1103187" data-name="Grupo 1103187" transform="translate(-12426.834 -12251)" clip-path="url(#clip-path)">
      <path id="Trazado_886553" data-name="Trazado 886553" d="M236.6,82.372l-.052-.252c-.262-1.285-.807-3.957-3.449-5.261a6.746,6.746,0,0,0-1.041-.408,102.447,102.447,0,0,0-1.719-11.977c-.629-2.865-1.5-5.621-2.337-8.287-.817-2.595-1.589-5.046-2.142-7.548a32.537,32.537,0,0,0-2.679-7.96c-.352-.688-.721-1.31-1.078-1.912-.327-.553-.637-1.076-.888-1.575-.226-.449-.442-.9-.659-1.358-.341-.715-.694-1.454-1.09-2.2-.414-.781-.85-1.5-1.273-2.2-.289-.478-.562-.929-.824-1.395a19.847,19.847,0,0,0-2.551-3.77,11.2,11.2,0,0,0-1.762-1.581,8.1,8.1,0,0,0-2.739-5.01,21.222,21.222,0,0,0-5.979-3.622,26.347,26.347,0,0,0-7.015-1.914,27.434,27.434,0,0,0-3.07-.176l-.506-.01c-.246-.005-.492-.014-.738-.022l-.242-.008v.005c-.436-.037-.915-.047-1.453-.058-.893-.019-2.178-.04-3.764-.061a5.374,5.374,0,0,0,1.189-2.012c.381-1.18.852-4.17-3.011-6.432a19.491,19.491,0,0,0-7.956-2.415c-1.363-.137-2.764-.3-4.119-.466-1.718-.205-3.5-.417-5.276-.578-.618-.056-1.266-.105-2.042-.155a3.91,3.91,0,0,0-.548,0c-.592.008-2.886-.025-4.058-.061-.832-.025-1.707-.117-2.633-.214-.541-.057-1.082-.113-1.625-.158-1.419-.119-2.931-.219-4.624-.307-2.127-.111-4.3-.244-6.4-.373-3.8-.234-7.733-.476-11.635-.6-1.853-.057-3.654-.049-5.323-.031-.692.007-1.425.024-2.3.053-5.082-.128-10.178.043-15.109.208-2.565.086-5.217.175-7.813.22-1.478.025-2.957.042-4.435.058C97.4.579,94.865.608,92.361.676L90.952.716c-3.377.095-6.869.193-10.278.2q-1.8,0-3.591-.011Q75.75.894,74.414.889a4.057,4.057,0,0,0-.637,0c-1.423,0-3.092.007-4.813.052-2.191.058-4.146.172-5.98.348-1.147.11-2.259.269-3.334.422-.821.117-1.6.228-2.372.316-1.049.119-2.119.189-3.251.262-.786.051-1.6.1-2.419.175-1.406.123-2.742.339-4.035.548l-.884.142-.647.1c-2.489.381-5.586.857-8.244,2.637a9.205,9.205,0,0,0-2.193,2.04,4.438,4.438,0,0,0-.049,5.265,3.812,3.812,0,0,0,.241.3q-1.037,0-2.073,0a20.2,20.2,0,0,0-2.6-.1c-.442,0-.859.006-1.223-.013a16.017,16.017,0,0,0-5.89.851A20.653,20.653,0,0,0,19.785,16.2a17.183,17.183,0,0,0-4.523,2.821,25.1,25.1,0,0,0-5.844,8.318,29.793,29.793,0,0,0-1.875,4.983c-.252.923-.463,1.834-.667,2.715-.153.659-.3,1.281-.455,1.9-.178.694-.381,1.391-.6,2.129-.244.838-.5,1.7-.721,2.6s-.424,1.792-.6,2.7a22.98,22.98,0,0,0-.508,2.285c-.2,1.162-.315,2.289-.429,3.379-.056.542-.112,1.083-.18,1.624L3.333,52c-.023.162-.047.325-.069.489-.13.955-.261,1.986-.344,3.057-.07.7-.114,1.25-.146,1.779-.117,1.966-.145,3.952-.157,5.8-.009,1.339-.073,2.68-.14,4.1A66.658,66.658,0,0,0,2.4,74.646c.027.422.065.842.1,1.263.046.495.09.963.1,1.388.022.691.008,1.46-.043,2.422-.031.572-.07,1.143-.11,1.715-.092,1.324-.187,2.694-.182,4.115,0,1.263.109,2.459.21,3.615.078.888.151,1.727.174,2.537.015.535.019,1.071.024,1.606,0,.493.009.987.02,1.479l.008.324A6.806,6.806,0,0,0,.645,97.715a6.726,6.726,0,0,0-.575,3.327c0,.069-.013.23-.023.35-.021.263-.046.59-.047.962a8.6,8.6,0,0,0,1.681,5.235c2.113,2.762,5.776,3.174,8.5,2.639a14.517,14.517,0,0,1,2.854-.277c1.088,0,2.148.035,3.186.109l.315.024a9.865,9.865,0,0,0,5.655-.833c.228,0,.464.01.7.016A12.783,12.783,0,0,0,29.34,108.2q.388-.194.764-.419.031.241.069.479a32.577,32.577,0,0,0,1.13,5.114,23.965,23.965,0,0,0,2.193,4.575,16.715,16.715,0,0,0,3.464,4.089l.114.1a18.581,18.581,0,0,0,3.962,2.93,17.858,17.858,0,0,0,1.753.761c.167.065.334.13.5.2s.31.13.465.2a16.742,16.742,0,0,0,1.859.7,17.387,17.387,0,0,0,5.589.481l.157,0c.334-.011.7-.009,1.084-.007a16.632,16.632,0,0,0,4.279-.379,25.638,25.638,0,0,0,4.837-1.773,24.256,24.256,0,0,0,7.692-6.013,20.41,20.41,0,0,0,2.93-4.162,16.333,16.333,0,0,0,1.538-4.825c.078-.5.134-1,.17-1.53q.076-.278.133-.558a7.065,7.065,0,0,0,.963.589,12.355,12.355,0,0,0,5.962,1.06c.421-.014.841-.038,1.261-.062.321-.019.642-.038.966-.05.137-.005.281-.015.431-.027l.151.011a10.975,10.975,0,0,0,1.676.032c2.762.073,6,.144,9.3.144h.043l13.557,0q9.729,0,19.457-.012l19.19-.015c.189,0,.384,0,.576,0a23.773,23.773,0,0,0,2.461-.071,10.13,10.13,0,0,0,2.157,0,11.762,11.762,0,0,0,1.5-.262,20.059,20.059,0,0,0,2.867,6.925,24.222,24.222,0,0,0,7.486,7.639l.273.167a21.62,21.62,0,0,0,6.63,3.042c.339.075.685.137,1.066.191a8.672,8.672,0,0,0,1.269.3,21.1,21.1,0,0,0,3.4.246h.217a14.85,14.85,0,0,0,4.741-.708c.1-.035.2-.07.3-.107a13.528,13.528,0,0,0,1.694-.408,17.866,17.866,0,0,0,4.61-2.25,16.553,16.553,0,0,0,3.677-3.218c.038-.047.074-.094.111-.142a18.111,18.111,0,0,0,2.363-2.691,20.383,20.383,0,0,0,3.607-9.244,8.757,8.757,0,0,0,2.455.995,30.822,30.822,0,0,0,6.072.41c1.824-.008,3.6-.137,5.326-.262l.942-.069c.653-.05,1.27-.1,1.835-.1h.016c.261,0,.513,0,.769,0a9.673,9.673,0,0,0,3.749.916,21.793,21.793,0,0,0,2.326.017c.362-.011.7-.023,1.016-.019a20.605,20.605,0,0,0,4.07-.434c.173-.032.346-.065.518-.1a7.423,7.423,0,0,1,1.455-.2,7.119,7.119,0,0,0,4.454-1.177,6.832,6.832,0,0,0,2.838-4.648c.752-4.147-.527-6.6-1.732-7.926a7.326,7.326,0,0,0-.733-.7q-.014-.9-.036-1.8-.008-.316-.017-.639a6.223,6.223,0,0,0,1.766-1.362,8.751,8.751,0,0,0,1.96-5.718h0a17.2,17.2,0,0,0-.432-4.047" transform="translate(-17.084 19.916)" fill="#b1ec84"/>
      <g id="Grupo_1103186" data-name="Grupo 1103186" transform="translate(-13.168 23.833)" style="mix-blend-mode: multiply;isolation: isolate">
        <g id="Grupo_1103185" data-name="Grupo 1103185">
          <g id="Grupo_1103184" data-name="Grupo 1103184" clip-path="url(#clip-path-2)">
            <path id="Trazado_886554" data-name="Trazado 886554" d="M141,110.513a29.053,29.053,0,0,0-.522-5.833,4.911,4.911,0,0,0-1.705-2.8,6.872,6.872,0,0,0-3.511-1.022,29.969,29.969,0,0,0-3.913.087c-1.6.1-3.206.129-4.809.178-3.429.106-6.858.125-10.289.13-6.435.011-12.891-.33-19.321.015a16.778,16.778,0,0,0-3.762.546,3.919,3.919,0,0,0-3.439,2.074,8.443,8.443,0,0,0-1.912,3.668c-.381,1.556-1.235,5.367-1.313,5.645a27.525,27.525,0,0,0-.82,3.7,6.514,6.514,0,0,0,.21,3.551c1.007,2.288,3.6,2.745,5.82,2.967a65.092,65.092,0,0,0,9.579-.033c6.67-.322,13.346-.168,20.021-.183,1.677,0,3.362.052,5.036-.047,1.625-.1,3.249-.314,4.878-.328a41.619,41.619,0,0,0,4.7.036,5.742,5.742,0,0,0,3.317-1.251c1.423-1.339,1.789-3.329,1.911-5.193a46.57,46.57,0,0,0-.162-5.909m-1.628,8.243a4.606,4.606,0,0,1-.364,1.015c-.037.076-.078.15-.117.225-.012.023-.019.037-.023.046l-.02.028c-.052.078-.106.154-.164.228-.025.032-.092.108-.11.131-.049.049-.1.1-.151.143-.017.015-.089.071-.121.1l-.133.081a1.412,1.412,0,0,1-.159.083,7.759,7.759,0,0,1-2.084.472c-1.536.176-3.085.124-4.625.244-1.563.121-3.112.362-4.672.518-.333.033-.668.058-1,.082.236-.25.473-.5.724-.734.529-.493,1.029-1,1.512-1.543,1-1.108,1.964-2.238,3.029-3.281a50.451,50.451,0,0,0,5.713-5.835c.046-.063-.016-.145-.073-.073a78.864,78.864,0,0,1-5.888,5.92c-1.028,1.042-1.99,2.149-2.993,3.214-.49.52-1.006,1-1.534,1.483-.3.276-.646.561-.936.879-1.172.07-2.349.092-3.527.093,2.472-2.531,4.872-5.131,7.351-7.656.036-.037-.018-.061-.049-.031-2.595,2.519-5.057,5.169-7.653,7.686-1.429,0-2.857-.031-4.276-.033s-2.823-.005-4.234-.009c2.731-3.207,6.464-5.379,9.223-8.568.022-.026-.02-.037-.038-.018-2.841,3.187-6.636,5.354-9.431,8.586q-2.625-.007-5.251,0c-3.012.008-6.015.3-9.027.318a21.393,21.393,0,0,1-7.976-1.063,7.452,7.452,0,0,1-2.623-1.566,3.514,3.514,0,0,1-.785-2.724,30.161,30.161,0,0,1,1.274-5.793,38.131,38.131,0,0,1,1.372-4.8,13.848,13.848,0,0,1,.841-1.839,6.842,6.842,0,0,1,3.8-1.82,49.7,49.7,0,0,1,6.862-.56c.437-.017.873-.027,1.31-.036-.176.2-.368.385-.562.566-.359.335-.732.655-1.064,1.016-.841.915-1.669,1.84-2.539,2.727-.036.036.013.069.044.037.89-.881,1.746-1.794,2.619-2.691.374-.385.8-.719,1.195-1.079.181-.163.357-.332.522-.512l.067-.072c1.544-.028,3.087-.016,4.631,0-.277.317-.546.643-.834.938-.53.544-1.076,1.072-1.6,1.619-1.124,1.166-2.193,2.382-3.284,3.578-1.034,1.135-2.069,2.267-3.092,3.412a31.853,31.853,0,0,1-3.282,3.3c-.035.029.01.058.039.033a64.03,64.03,0,0,0,6.256-6.516c1.1-1.193,2.167-2.409,3.289-3.578.6-.623,1.22-1.222,1.824-1.839.309-.317.653-.625.978-.947,1.065.015,2.13.033,3.195.048q1.288.018,2.576.023a.181.181,0,0,0-.021.018c-1.888,2.189-4.135,4.045-6.165,6.1-1.033,1.045-2.052,2.109-3.13,3.109a10.137,10.137,0,0,0-2.386,2.773c-.028.057.032.1.064.039a11.656,11.656,0,0,1,2.557-2.744c1.1-1,2.119-2.075,3.165-3.125,1.994-2,4.2-3.808,6.052-5.952a.181.181,0,0,0,.023-.215c2.326.01,4.652,0,6.977-.02,3.261-.024,6.521-.011,9.782-.045,2.291-.024,4.921-.506,7.075.5,1.974.924,2.392,3.4,2.493,5.359.085,1.648.149,3.324.152,4.973a20.492,20.492,0,0,1-.584,5.577" transform="translate(-63.689 -74.367)" fill="#49763f"/>
            <path id="Trazado_886555" data-name="Trazado 886555" d="M349.663,117.349c-.059-.479-.127-.954-.148-1.437-.032-.7.046-1.419.064-2.124a27.486,27.486,0,0,0-.162-4.142c-.128-1.022-.229-2.067-.418-3.08a4.326,4.326,0,0,0-.982-2.2,4.815,4.815,0,0,0-2.779-1.231,19.587,19.587,0,0,0-4.08-.11c-1.447.056-2.908.04-4.35.155-3.021.24-6.071.324-9.1.406-3.069.083-6.142.04-9.212.036-3.106,0-6.212,0-9.318-.012-2.789-.009-5.573-.1-8.352-.348-.548-.05-3.792.474-4.3,1.164a3.743,3.743,0,0,0-.641.968,4.288,4.288,0,0,0-.341,1.235,18.129,18.129,0,0,0-.38,4.718c.035,1.543.2,3.077.267,4.618.1,2.146-.534,4.686.88,6.539a5.255,5.255,0,0,0,2.951,1.878,22.822,22.822,0,0,0,3.631.338q4.347.411,8.712.481c5.94.092,11.875-.277,17.81-.453,1.465-.043,2.93-.076,4.4-.086s2.94.077,4.41.039c1.369-.035,2.711-.185,4.07-.334,1-.109,2-.11,3-.252a6.723,6.723,0,0,0,3.061-1.048,3.8,3.8,0,0,0,1.433-2.592,11.978,11.978,0,0,0-.11-3.125m-1.2-3.471c-.024.692-.033,1.4-.106,2.087-.054.509-.132,1-.147,1.517-.028.986.062,1.978-.048,2.961a2.267,2.267,0,0,1-1,1.889,7.722,7.722,0,0,1-2.52.639c-.956.141-1.918.219-2.875.354a64.876,64.876,0,0,1-8.31.435c-8.638.1-17.309.909-25.922.312.971-.719,1.351-2.019,2.027-2.977.5-.706,1.122-1.339,1.675-2,.487-.584.968-1.175,1.434-1.776,1.021-1.32,2.057-2.629,3.074-3.952a12.834,12.834,0,0,0,2.348-3.388c.021-.061-.087-.048-.106,0a16.56,16.56,0,0,1-2.569,3.441c-.971,1.256-1.962,2.492-2.889,3.782s-2.014,2.419-3.007,3.645c-.811,1-1.239,2.23-2.18,3.137a.094.094,0,0,0-.036.074c-1.078-.078-2.156-.174-3.232-.3a3.56,3.56,0,0,0,.945-1.209c.3-.512.558-1.045.905-1.526.873-1.211,1.793-2.4,2.712-3.574a51.206,51.206,0,0,0,5.032-6.929c.017-.031-.022-.095-.049-.053-1.539,2.383-3.38,4.567-5.1,6.82-.894,1.173-1.792,2.346-2.668,3.533-.335.454-.594.957-.884,1.44a8.448,8.448,0,0,1-1.045,1.348.134.134,0,0,0-.016.129c-1.069-.129-2.136-.276-3.2-.461a5.177,5.177,0,0,1-2.977-1.385,4.255,4.255,0,0,1-.931-2.854c-.035-1.108.085-2.215.045-3.324-.023-.64-.077-1.28-.122-1.919a37.732,37.732,0,0,1-.131-4.8,11.074,11.074,0,0,1,.592-3.41c.027-.059.049-.12.08-.177a1.921,1.921,0,0,1,1.634-1.06,21.621,21.621,0,0,1,2.8-.022c1.358.022,2.714.076,4.072.094,5.82.075,11.642.018,17.462.011,2.893,0,5.78-.1,8.672-.168,1.423-.035,2.859-.117,4.282-.053.49.022.981.034,1.472.042-.244.335-.475.684-.723,1.009-.414.544-.84,1.079-1.267,1.612-.843,1.051-1.687,2.1-2.484,3.187-.029.039.044.046.066.018.818-1.06,1.683-2.082,2.531-3.118.41-.5.818-1,1.217-1.513.3-.384.646-.777.932-1.192.781.008,1.562,0,2.341-.033,1.008-.042,2.016-.1,3.023-.063a26.835,26.835,0,0,0-1.787,2.382c-.747,1.075-1.738,1.949-2.5,3.013-1.65,2.3-3.132,4.712-4.6,7.131-.02.033.016.087.044.045,1.547-2.376,3.043-4.8,4.712-7.088.7-.959,1.6-1.75,2.28-2.721a27.32,27.32,0,0,1,2.022-2.752c.25.011.5.021.75.044a4.684,4.684,0,0,1,2.764.887,3.347,3.347,0,0,1,.929,2.02c.169.976.291,1.972.418,2.954a23.4,23.4,0,0,1,.142,3.813" transform="translate(-210.143 -75.866)" fill="#49763f"/>
            <path id="Trazado_886556" data-name="Trazado 886556" d="M570.03,117.409a22.252,22.252,0,0,0-1.689-4.6c-1.4-3.149-2.107-6.736-4.414-9.4a7.323,7.323,0,0,0-4.906-2.177,39.372,39.372,0,0,0-7,.012c-2.491.143-4.982.124-7.476.193-2.857.079-5.717.2-8.576.117-2.807-.078-5.631-.047-8.434-.225-2.116-.134-4.452-.323-6.055,1.357-.079.083-.156.169-.232.257a3.867,3.867,0,0,0-1.067,2.6,30.267,30.267,0,0,0,.052,4.183c.08,1.411.129,2.815.156,4.228.027,1.444.079,2.888.053,4.332a14.908,14.908,0,0,0,.052,2.83,2.49,2.49,0,0,0,.838,1.549,4.6,4.6,0,0,0,2.008.765,37.1,37.1,0,0,0,8.093.527c2.87-.058,5.734-.12,8.6-.033,2.853.086,5.7.248,8.555.319,2.63.066,5.26.01,7.891.045a62.34,62.34,0,0,0,7.606-.194c1.833-.2,4.161-.445,5.343-2.055a5.861,5.861,0,0,0,.6-4.628m-1.2,3.765a2.963,2.963,0,0,1-1.809,1.279,24.821,24.821,0,0,1-6.864.871c-1.382.021-2.762-.017-4.142-.054a10.855,10.855,0,0,1,.866-1.8c.482-.8.987-1.575,1.443-2.388a56.853,56.853,0,0,1,3.162-5.07c.02-.029-.011-.081-.039-.045a46.486,46.486,0,0,0-3.291,5.187c-.475.827-1.023,1.606-1.519,2.42a8.807,8.807,0,0,0-.855,1.687c-.887-.024-1.773-.047-2.661-.052-.228,0-.455-.009-.683-.012.095-.2.178-.412.259-.592a18.687,18.687,0,0,1,.821-1.713c.717-1.235,1.558-2.392,2.361-3.57,1.543-2.262,3-4.587,4.661-6.764.031-.041-.023-.061-.051-.028a78.486,78.486,0,0,0-4.827,6.77c-.77,1.123-1.569,2.229-2.266,3.4-.317.532-.6,1.082-.872,1.636-.141.284-.284.568-.441.843l-.007.012c-2.354-.042-4.7-.171-7.048-.351q-.952-.073-1.908-.127a12.691,12.691,0,0,1,.71-1.152c.424-.593.827-1.2,1.24-1.8.917-1.332,1.881-2.629,2.864-3.912.9-1.174,1.813-2.338,2.658-3.553.908-1.306,1.795-2.632,2.782-3.879.021-.027,0-.1-.033-.059-1.016,1.153-1.912,2.391-2.809,3.636-.938,1.3-1.9,2.581-2.873,3.861-.933,1.233-1.867,2.467-2.757,3.732-.449.639-.893,1.281-1.351,1.914a11.614,11.614,0,0,0-.815,1.191c-.588-.032-1.178-.056-1.767-.076.245-.365.459-.758.674-1.108a24.925,24.925,0,0,1,1.519-2.211c1.113-1.442,2.139-2.95,3.316-4.341.028-.033-.011-.063-.039-.031-1.2,1.373-2.236,2.875-3.388,4.286a23.421,23.421,0,0,0-1.48,2.016c-.238.365-.473.731-.724,1.086-.07.1-.144.2-.219.293-1.244-.037-2.488-.049-3.729-.02-2.653.061-5.3.275-7.956.214a26.844,26.844,0,0,1-3.812-.34,10.32,10.32,0,0,1-2.73-.691,1.506,1.506,0,0,1-.858-.88,7.171,7.171,0,0,1-.065-2.246c.06-1.325.046-2.652.034-3.978-.012-1.361,0-2.721-.058-4.081-.058-1.289-.16-2.577-.16-3.869,0-.919-.125-2.011.584-2.713a7.478,7.478,0,0,1,1.923-1.128.457.457,0,0,0,.182-.2,7.055,7.055,0,0,1,1.126-.12c1.071-.034,2.145.1,3.215.143,1.307.051,2.614.062,3.922.081,1.055.016,2.109.039,3.163.059a5.09,5.09,0,0,0-.872,1.017,15.5,15.5,0,0,1-1.2,1.551,27.225,27.225,0,0,0-2.853,3.491c-.026.038.025.052.047.02a26.7,26.7,0,0,1,2.876-3.442,16.191,16.191,0,0,0,1.065-1.292c.209-.263.421-.525.654-.769.2-.205.427-.363.629-.558a.094.094,0,0,0,.01-.013c1.11.02,2.219.033,3.331.026l-.146.19c-.32.409-.647.813-.975,1.215q-.992,1.218-1.969,2.449c-.019.023.009.09.037.06.69-.76,1.4-1.5,2.077-2.274q.478-.543.944-1.1c.153-.181.3-.364.454-.547.289,0,.577,0,.866-.009.788-.019,1.577-.043,2.365-.068-.3.444-.567.911-.875,1.349-.38.543-.78,1.072-1.185,1.6-.834,1.079-1.725,2.11-2.578,3.174a66.177,66.177,0,0,1-5.15,6.175c-.074.072.033.124.1.066a62.815,62.815,0,0,0,5.386-6.31c.844-1.033,1.737-2.025,2.569-3.068q.629-.788,1.212-1.611a12.854,12.854,0,0,0,.9-1.383c1.784-.058,3.568-.116,5.353-.124,2.137-.009,4.264-.209,6.4-.288a21.113,21.113,0,0,1,6.347.455,5.715,5.715,0,0,1,3.478,3.049,28.066,28.066,0,0,1,2,4.9c.47,1.423.973,2.824,1.477,4.234a13.868,13.868,0,0,1,1.025,4.473,3.367,3.367,0,0,1-.379,1.7" transform="translate(-367.342 -74.54)" fill="#49763f"/>
            <path id="Trazado_886557" data-name="Trazado 886557" d="M532.694,217.993c-.747-.989-2.4-.938-3.5-.818a12.131,12.131,0,0,0-3.962,1.089,30.707,30.707,0,0,0-3.6,2.066c-.773.513-2.228,1.758-1.564,2.836.587.953,2.332-.09,3-.385a12.129,12.129,0,0,1,2.189-.771c.8-.181,1.6-.323,2.4-.472.865-.161,1.715-.342,2.592-.43s1.7-.025,2.315-.782a1.709,1.709,0,0,0,.369-1.088,1.5,1.5,0,0,0-.244-1.244m-3.923,2.788c-1.144.238-2.291.453-3.435.688-1.122.231-2.156.72-3.266.986-.323.078-.9.231-1.194-.034a.085.085,0,0,0-.04-.025.191.191,0,0,0,.017-.064,2.435,2.435,0,0,1,.432-.765,6.2,6.2,0,0,1,2.759-2.142,13.752,13.752,0,0,1,3.041-.694,12.149,12.149,0,0,1,3.517-.252c.336.045,1.136.184,1.284.574.07.184-.065.45-.2.674a6.233,6.233,0,0,1-1.214.654,10.749,10.749,0,0,1-1.705.4" transform="translate(-367.187 -155.619)" fill="#49763f"/>
            <path id="Trazado_886558" data-name="Trazado 886558" d="M576.746,339.1a3.023,3.023,0,0,0-2.894,1.227,4.236,4.236,0,0,0-.251.394,2.136,2.136,0,0,0-.6.934,3.209,3.209,0,0,0,.4,2.52,4.431,4.431,0,0,0,1.822,1.784,2.34,2.34,0,0,0,1.2.26,2.763,2.763,0,0,0,1.251-.365c2.727-1.408,2.172-6.2-.927-6.754m1.129,5.42a2.521,2.521,0,0,1-.42.109.98.98,0,0,1-.384-.009c-.154-.026-.308-.047-.461-.078l-.017,0c-.03-.01-.06-.019-.089-.03-.08-.03-.156-.062-.233-.1-.293-.142-.6-.236-.879-.407-.066-.04-.13-.083-.194-.126l-.009-.006-.006,0-.114-.084a4.374,4.374,0,0,1-.353-.294c-.13-.122-.245-.255-.362-.389h0c-.029-.041-.058-.081-.086-.122q-.067-.1-.127-.205c-.008-.015-.016-.03-.024-.046,0-.031,0-.058,0-.075.022-.095.054-.187.076-.282.084-.357.044-.216.026-.137.01-.045.021-.091.033-.136.024-.09.051-.18.081-.269a1.825,1.825,0,0,1,.218-.436l.036-.053c.028-.039.056-.078.085-.115.059-.075.121-.147.187-.216a2.233,2.233,0,0,1,.444-.352,2.924,2.924,0,0,1,1.1-.374,2.19,2.19,0,0,1,1.573.321,2.61,2.61,0,0,1,.919,1.323,2.538,2.538,0,0,1,0,1.6,1.657,1.657,0,0,1-1.021,1" transform="translate(-404.205 -240.829)" fill="#49763f"/>
            <path id="Trazado_886559" data-name="Trazado 886559" d="M569.154,322.955a10.551,10.551,0,0,0-2.353-3.572c-1.814-1.592-4.448-2.056-6.789-2.11a11.272,11.272,0,0,0-6.331,1.585,8.133,8.133,0,0,0-3.638,5.472,5.612,5.612,0,0,0-.093.887,12.763,12.763,0,0,0,.361,4.619c1.26,4.745,6.405,7.622,11.133,6.74,4.563-.851,8.758-4.455,8.719-9.37a10.6,10.6,0,0,0-1.007-4.252m-6.278,12.377a8.85,8.85,0,0,1-6.195-.207,9.6,9.6,0,0,1-4.607-4.239,11.852,11.852,0,0,1-1.078-6.1,8.722,8.722,0,0,1,.336-1.873c.055-.135.111-.267.169-.4a6.655,6.655,0,0,1,1.678-2.289,8.933,8.933,0,0,1,5.316-1.973,12.381,12.381,0,0,1,6.294,1.087,6.347,6.347,0,0,1,2.507,2.44,12.778,12.778,0,0,1,1.664,3.78,7.683,7.683,0,0,1-1.136,6.33,9.548,9.548,0,0,1-4.949,3.445" transform="translate(-388.132 -225.602)" fill="#49763f"/>
            <path id="Trazado_886560" data-name="Trazado 886560" d="M564.194,314.335a12.492,12.492,0,0,0-6.35-4.419,10.816,10.816,0,0,0-3.991-.32,22.782,22.782,0,0,0-4.634.809,7.918,7.918,0,0,0-3.574,2.074,12.079,12.079,0,0,0-2.166,3.478,9.007,9.007,0,0,0-.72,2.05c-.021.119.039.185.105.186a13.858,13.858,0,0,0,.121,7.594,10.516,10.516,0,0,0,2.273,3.813,17.779,17.779,0,0,0,3.236,2.973c2.522,1.694,5.87,1.654,8.739,1.048a12.163,12.163,0,0,0,6.656-4.2,10.87,10.87,0,0,0,2.159-3.579,11.955,11.955,0,0,0,.6-4,12.246,12.246,0,0,0-2.452-7.507m.148,12.6a12.09,12.09,0,0,1-5.49,4.78,13.333,13.333,0,0,1-3.777.809,12.572,12.572,0,0,1-4.145-.226,9.285,9.285,0,0,1-3.538-1.915,12.867,12.867,0,0,1-2.847-3.095,11.154,11.154,0,0,1-1.405-7.238,12.419,12.419,0,0,1,2.791-6.576c.181-.213.359-.421.542-.623a6.183,6.183,0,0,1,1.267-.865,12.683,12.683,0,0,1,4.082-1.085,15.11,15.11,0,0,1,3.987.035,11.458,11.458,0,0,1,9.627,9.175,10.056,10.056,0,0,1-1.094,6.825" transform="translate(-382.902 -220.203)" fill="#49763f"/>
            <path id="Trazado_886561" data-name="Trazado 886561" d="M445.729,220.278a3.022,3.022,0,0,0-2.162-.774,14.163,14.163,0,0,0-2.445.183,13.922,13.922,0,0,0-3.593.871,28.777,28.777,0,0,0-3.811,1.946c-.781.462-1.858,1.509-1.1,2.474.558.713,1.787.409,2.519.213,1.433-.383,2.852-.819,4.289-1.189a8.375,8.375,0,0,1,2.848-.283,7.409,7.409,0,0,0,2.415.034,1.76,1.76,0,0,0,1.351-1.634,2.387,2.387,0,0,0-.019-.6,1.388,1.388,0,0,0-.288-1.245m-.984,1.861a.347.347,0,0,1-.1.134c.007-.024-.23.1-.215.092-.087.037-.177.071-.265.106a7.851,7.851,0,0,1-1.074.354,38.379,38.379,0,0,1-3.965.561c-1.243.164-2.469.478-3.7.732a3.61,3.61,0,0,1-1.983.141c-.791-.358.611-1.251.924-1.468a10.11,10.11,0,0,1,3.359-1.46,13,13,0,0,1,4.819-.536,5.43,5.43,0,0,1,2.03.476l.01.006a.623.623,0,0,0,.147.385c-.155-.178-.049-.035-.026.115a1.194,1.194,0,0,1,.037.36" transform="translate(-306.018 -157.283)" fill="#49763f"/>
            <path id="Trazado_886562" data-name="Trazado 886562" d="M168.531,342.046a3,3,0,0,0-1.722-1.142,3.878,3.878,0,0,0-3.151.5,3.339,3.339,0,0,0-1.006,1.391,2.055,2.055,0,0,0-.165.688,3.734,3.734,0,0,0,.015,1.265,3.336,3.336,0,0,0,3.171,2.673,3.794,3.794,0,0,0,2.564-.9,2.849,2.849,0,0,0,.891-2.137,4.132,4.132,0,0,0-.6-2.332m-.8,3.886a1.87,1.87,0,0,1-1.58.471c-.072-.008-.145-.018-.216-.031l-.031-.006-.08-.019c-.145-.041-.288-.087-.43-.139a2.741,2.741,0,0,1-.672-.375,3.85,3.85,0,0,1-1.025-1.181,3.408,3.408,0,0,1-.308-.793c.028-.1.058-.2.079-.3a3.744,3.744,0,0,1,.179-.647,2.412,2.412,0,0,1,.657-.966,2.609,2.609,0,0,1,1.947-.3,2.05,2.05,0,0,1,1.5.644,3.2,3.2,0,0,1,.6,1.845,2.4,2.4,0,0,1-.615,1.8" transform="translate(-117.418 -242.032)" fill="#49763f"/>
            <path id="Trazado_886563" data-name="Trazado 886563" d="M158.969,322.738a9.569,9.569,0,0,0-4.264-5.886,11.416,11.416,0,0,0-7.592-1.927,7.721,7.721,0,0,0-3.616,1.256,13.425,13.425,0,0,0-2.811,2.713,5.343,5.343,0,0,0-.7,1.278,12.4,12.4,0,0,0-1.607,5.8,8.419,8.419,0,0,0,2.516,6.934,9.686,9.686,0,0,0,3.332,2.2,16.735,16.735,0,0,0,3.52.641,10.361,10.361,0,0,0,10.384-5.82,12,12,0,0,0,.84-7.179m-.995,5.852a9.234,9.234,0,0,1-8.77,6.585,12.475,12.475,0,0,1-6.18-1.952,10.019,10.019,0,0,1-2.566-2.61,7.582,7.582,0,0,1-1.054-3.344A12.007,12.007,0,0,1,140.98,320a11.322,11.322,0,0,1,2.93-2.854,7.127,7.127,0,0,1,1.922-1c.43-.147.875-.262,1.3-.427a9.256,9.256,0,0,1,2.326.076,10.5,10.5,0,0,1,3.43,1.253,11.519,11.519,0,0,1,4.829,4.821,9.615,9.615,0,0,1,.259,6.722" transform="translate(-100.591 -223.914)" fill="#49763f"/>
            <path id="Trazado_886564" data-name="Trazado 886564" d="M242.2,95.412a13.551,13.551,0,0,0-.347-3.138c-.212-1-.387-2.318-1.4-2.818a4.045,4.045,0,0,0-1.754-.342,5.364,5.364,0,0,0-1.137.078A125.479,125.479,0,0,0,235.6,74.4c-1.177-5.366-3.293-10.466-4.478-15.829a28.771,28.771,0,0,0-2.34-7.019c-.614-1.2-1.374-2.31-1.979-3.515-.581-1.156-1.1-2.34-1.71-3.484-.631-1.189-1.377-2.315-2.038-3.488a16.571,16.571,0,0,0-2.049-3.08,6.264,6.264,0,0,0-3.011-1.924,3.779,3.779,0,0,0-1.215-4.394,17.641,17.641,0,0,0-4.892-2.927,22.511,22.511,0,0,0-5.972-1.631,30.1,30.1,0,0,0-3.165-.155c-.342-.008-.684-.021-1.027-.032.015-.117-31.288-.4-46.837-.413.026-.828-.1-1.674-.108-2.5a15.393,15.393,0,0,1,.212-2.61,13.131,13.131,0,0,0,.187-1.57c6.5.338,13.02.344,19.527.421,1.607.019,3.214.068,4.818.164s3.211.285,4.823.293,3.222-.122,4.834-.094c.917.016,1.827.178,2.744.167.838-.01,1.878-.174,2.176-1.1.286-.884-.617-1.47-1.263-1.849a15.762,15.762,0,0,0-6.368-1.9c-3.124-.314-6.231-.756-9.357-1.041-.645-.058-1.291-.105-1.937-.146-.006.032-3.1-.009-4.476-.051-1.493-.045-2.977-.259-4.465-.384s-3-.221-4.5-.3c-5.983-.311-11.96-.781-17.95-.966-1.721-.053-3.439-.048-5.161-.03-.775.008-1.55.029-2.324.055-7.631-.2-15.242.3-22.87.426-3.959.067-7.916.073-11.875.182-3.929.108-7.859.233-11.791.236-2.178,0-4.355-.019-6.533-.022a.14.14,0,0,0-.11,0c-1.656,0-3.312.006-4.967.05-1.906.051-3.811.149-5.709.331s-3.754.517-5.637.731c-1.918.218-3.85.28-5.772.447-1.566.136-3.1.413-4.65.658-2.466.388-5.2.7-7.322,2.123A5.283,5.283,0,0,0,47.794,19.4a.53.53,0,0,0,.023.586,5.668,5.668,0,0,0,2.58,1.133,13.661,13.661,0,0,0,2.088-.105,32.416,32.416,0,0,1,4.6-.214c1.606.012,3.212.048,4.818-.016s3.19-.235,4.788-.308c3.245-.147,6.5-.1,9.744-.149,1.187-.016,2.384-.1,3.57-.061.817.028,1.634.08,2.451.12.981.048,1.965.1,2.948.082a2.646,2.646,0,0,0,1.533-.283c.037.269.078.528.107.761a16.238,16.238,0,0,1,.148,2.592c-.037,1.018-.15,2.026-.147,3.046,0,.016.008.024.009.037q-6.5.011-13,.017c-5.967,0-11.935.019-17.9-.014-4.538-.025-9.062-.16-13.592-.127-1.245-.186-2.535-.053-3.788-.121a12.285,12.285,0,0,0-4.466.664,17.243,17.243,0,0,0-3.644,1.727,13.576,13.576,0,0,0-3.738,2.276A21.3,21.3,0,0,0,22.039,38.1a26.042,26.042,0,0,0-1.634,4.333c-.411,1.507-.719,3.04-1.107,4.553-.4,1.578-.916,3.126-1.311,4.707q-.331,1.323-.593,2.662a18.7,18.7,0,0,0-.459,2.03c-.274,1.609-.385,3.24-.587,4.859-.039.283-.082.567-.121.85-.129.955-.25,1.913-.323,2.875-.055.554-.1,1.11-.138,1.669-.111,1.862-.138,3.732-.151,5.6-.025,3.746-.456,7.506-.221,11.249.058.925.184,1.843.214,2.771s0,1.839-.047,2.757c-.1,1.868-.292,3.734-.286,5.607.007,2.025.325,4.033.382,6.056.029,1.035.021,2.072.044,3.107.012.531.025,1.061.038,1.592a4.361,4.361,0,0,0,.073,1.179,3.527,3.527,0,0,0-2.516,1.859,2.8,2.8,0,0,0-.243,1.37c.054.559-.053,1.1-.055,1.665a4.748,4.748,0,0,0,.875,2.846c1.02,1.334,3.11,1.475,4.634,1.175a18.513,18.513,0,0,1,3.6-.351q1.737,0,3.471.119c1.515.109,3.238.337,4.43-.791,2.245-.156,4.548.4,6.653-.659a9.37,9.37,0,0,0,2.7-2.1l.439.008c.426,0,.851-.028,1.277-.023s.827.012,1.24.023c.307.008.636.045.951.024q-.046.246-.087.489a13.881,13.881,0,0,0-.065,4.519,29.1,29.1,0,0,0,.982,4.5,20.581,20.581,0,0,0,1.862,3.84,12.9,12.9,0,0,0,2.692,3.138,15.711,15.711,0,0,0,3.251,2.464c.628.323,1.29.549,1.943.816s1.286.568,1.957.767a14.473,14.473,0,0,0,4.516.317,21.234,21.234,0,0,0,4.524-.269,21.975,21.975,0,0,0,4.1-1.5,20.548,20.548,0,0,0,6.441-5.062,16.454,16.454,0,0,0,2.382-3.348,12.476,12.476,0,0,0,1.166-3.67,14.1,14.1,0,0,0,.155-1.608,5.114,5.114,0,0,0,.28-1.717,18.622,18.622,0,0,0-.147-2.2c-.049-.425-.109-.848-.175-1.271l.168,0c.337.009.674.047,1.009.08.789.079,1.583.067,2.371.156a3.037,3.037,0,0,0,1.23.037,5.733,5.733,0,0,0,2.015,2.135,8.557,8.557,0,0,0,4.064.639c.736-.024,1.47-.084,2.206-.112.163-.006.343-.023.527-.038a9.623,9.623,0,0,0,1.68.046c3.181.084,6.359.151,9.544.15l13.557,0q13.618,0,27.237-.019L152.2,115l3.863,0a22.841,22.841,0,0,0,3.06-.094,6.491,6.491,0,0,0,1.7.046,5.043,5.043,0,0,0,2.793-1.046,5.385,5.385,0,0,0,1.437-2.078c.144.017.293.023.436.033l.564.039a1.371,1.371,0,0,0,.377,0A16.406,16.406,0,0,0,168.9,123.35a20.469,20.469,0,0,0,6.256,6.449,19.279,19.279,0,0,0,5.708,2.727,11.082,11.082,0,0,0,1.149.186,4.066,4.066,0,0,0,.965.26,17.7,17.7,0,0,0,2.956.2,11.017,11.017,0,0,0,3.514-.5q.273-.093.542-.2a10.243,10.243,0,0,0,1.54-.344,13.968,13.968,0,0,0,3.595-1.761,12.637,12.637,0,0,0,2.812-2.423c.084-.1.161-.217.244-.324a14.391,14.391,0,0,0,2.091-2.326,16.6,16.6,0,0,0,2.946-7.737,18.979,18.979,0,0,0-.33-5.346c-.02-.114-.039-.224-.058-.336a4.349,4.349,0,0,0,1.427.14c.306.006.613.011.919.01a2.316,2.316,0,0,0,.69-.066c.092.153.18.308.276.459a10.173,10.173,0,0,0,1.113,1.511,1.313,1.313,0,0,0,1.027.493,6.7,6.7,0,0,0,1.991,1.047,27.563,27.563,0,0,0,5.309.338c1.841-.008,3.674-.152,5.51-.285.876-.063,1.752-.146,2.631-.144.467,0,.933-.007,1.4-.011.175,0,.336,0,.488-.018.09.077.177.155.275.224a5.216,5.216,0,0,0,2.641.728c1.032.076,2.056-.021,3.086-.012a17.805,17.805,0,0,0,3.333-.371,12.238,12.238,0,0,1,2.9-.351,3.237,3.237,0,0,0,2.03-.5,3.073,3.073,0,0,0,1.188-2.109c.271-1.5.317-3.388-.778-4.594a3.658,3.658,0,0,0-1.74-1.046c.047-.6.005-1.228,0-1.829q-.015-1.083-.041-2.165-.045-1.829-.127-3.658c1.034-.194,2.143-.241,2.885-1.063a4.877,4.877,0,0,0,.952-3.184M229.9,57.665c.293,1.232.586,2.46.891,3.686a6.068,6.068,0,0,1-1.99.024,9.15,9.15,0,0,1-2.607-.706c-.037-.017-.07-.04-.106-.058a10.925,10.925,0,0,0,.391-1.571c.173-.871.293-1.752.424-2.63.232-1.546.593-3.074.746-4.628a22.784,22.784,0,0,1,2.251,5.884m-8.829-17.252c.278.434.536.885.79,1.337-.016.152-.033.3-.053.456-.057.412-.138.82-.225,1.227a20.906,20.906,0,0,0-.428,2.477c0,.044.054.017.059-.013.152-.871.414-1.718.62-2.578.094-.389.181-.781.247-1.175v0c.292.521.582,1.041.894,1.54A9.039,9.039,0,0,0,222.6,45.6a15.862,15.862,0,0,1-.415,2.366c-.018.061.051.061.07.012a10.766,10.766,0,0,0,.563-2.26c.059-.378.117-.756.192-1.132.041-.208.094-.412.147-.616.02.03.037.062.057.092,1.439,2.153,2.455,4.542,3.845,6.723.147.23.286.463.422.7-.2,1.615-.608,3.206-.847,4.813a34.644,34.644,0,0,1-.827,4.16,4.554,4.554,0,0,1-.978-.842c.031-.462-.037-.96-.013-1.4.038-.689.114-1.377.194-2.062.158-1.348.356-2.69.52-4.037.007-.062-.063-.052-.071,0-.208,1.373-.454,2.74-.642,4.116-.09.66-.164,1.322-.224,1.986-.03.332-.067.663-.093,1a10.821,10.821,0,0,1-1.3-2.507,42.223,42.223,0,0,1-1.571-5.393c-.536-2.21-1.39-4.335-2.081-6.5a17.44,17.44,0,0,1-.52-1.909,1.862,1.862,0,0,1-.027-.95,2.372,2.372,0,0,1,.895-.96c.3-.214.776-.633,1.176-.577m-1.483-1.84A8.1,8.1,0,0,1,220.5,39.6a4.379,4.379,0,0,0-1.6.772,2.95,2.95,0,0,0-1.428,2.346,6.692,6.692,0,0,0,.316,1.489,19.1,19.1,0,0,0,.681,2.065c.537,1.342,1.158,2.66,1.6,4.039.639,2.013.845,4.131,1.381,6.171.507,1.93,1.33,4.024,3.083,5.151a7.042,7.042,0,0,0,3.44.977,7.782,7.782,0,0,0,3.049-.359c.271,1.061.55,2.121.854,3.177.744,2.586,1.527,5.163,2.168,7.777.02.082.036.165.056.247a17.163,17.163,0,0,0-2.11-2.313,31.255,31.255,0,0,0-6.523-4.35,12.212,12.212,0,0,0-1.923-.81,4.359,4.359,0,0,0-1.649-.279q-.743-2.644-1.6-5.265-2.471-7.6-5.143-15.111a56.435,56.435,0,0,0-2.317-5.939,20.935,20.935,0,0,1-.971-2.232c-.052-.148-.1-.3-.142-.451-.019-.064-.05-.2-.058-.25.043-.007.089-.018.134-.023.157-.016,3.709.435,4.765.653a5.961,5.961,0,0,1,3.026,1.49m-57.1,22.444a22.352,22.352,0,0,1,.136-3.091c.116-.991.247-1.976.318-2.972.142-1.994.187-4.007.152-6.005-.039-2.242-.215-4.478-.271-6.72-.049-1.971.019-3.941-.016-5.91q6.058-.022,12.115-.047,10.107-.047,20.214-.063c5.255,0,10.518.081,15.771-.08a4.62,4.62,0,0,0,.248,2.291c.462,1.261,1.143,2.427,1.611,3.684q2.909,7.808,5.49,15.733c.874,2.7,1.719,5.4,2.477,8.126h-.159c-1.7-.017-3.407,0-5.11,0l-9.827,0-19.725-.007q-11.713,0-23.425-.022c.058-1.638.034-3.266,0-4.912M179.6,15.925a26.131,26.131,0,0,1,2.827.407c2.481.641,5.082.809,7.481,1.756a11.789,11.789,0,0,1,2.389,1.152,3.061,3.061,0,0,1,.329.262l-.018,0a14.965,14.965,0,0,1-2.3.015c-1.521-.023-3.036.1-4.552.205-3.1.224-6.2-.218-9.3-.291l-.2,0c.052-.043.108-.081.159-.126a14.576,14.576,0,0,0,1.223-1.255c.386-.434.745-.892,1.137-1.321.19-.208.386-.41.591-.6.074-.069.159-.135.243-.2m-1.795-.143a.2.2,0,0,0,.017-.034c.483.045.971.093,1.444.142l-.022.02c-.212.185-.414.382-.61.584-.388.4-.752.823-1.121,1.241a18.749,18.749,0,0,1-1.651,1.691c-.494-.009-.989-.019-1.483-.024a7.79,7.79,0,0,0,1.432-1.367c.339-.391.665-.794,1-1.187.16-.187.322-.372.491-.552a5.087,5.087,0,0,0,.5-.513m-26.355-1.409c2.965.088,5.933.031,8.9.17,2.943.138,5.87.374,8.8.665,1.614.16,3.255.146,4.875.236.55.03,1.882.13,3.342.262-.068.073-.133.149-.193.212-.168.178-.33.362-.489.548-.329.385-.646.781-.974,1.167a9.286,9.286,0,0,1-1.849,1.762c-2.276-.023-4.552-.02-6.828-.064-3.169-.061-6.339-.12-9.509-.11-.784,0-1.567.044-2.35.084a2.667,2.667,0,0,0-.67-1.779c-.908-.936-2.251-.134-2.5.973-.019.084-.026.168-.038.253a.778.778,0,0,0-.214.147c-.1.008-.189.019-.225.024q-.413.051-.828.091-.735.072-1.473.117c-.992.062-1.987.094-2.981.109-1.375.02-2.75.007-4.126-.008.93-.9,1.811-1.843,2.713-2.77.469-.482.906-.986,1.351-1.489.224-.254.456-.495.692-.731l4.575.132M153.126,24.4a11.815,11.815,0,0,1-.179,2.1h-.269a14.09,14.09,0,0,1-.136-3.365c.066-1.148-.058-2.331.093-3.47.041-.311.135-.873.377-1.032a.646.646,0,0,1,.51-.005,15.719,15.719,0,0,1-.34,3.588,17.741,17.741,0,0,0-.057,2.181m.339.089a19.464,19.464,0,0,1,.049-2.327,13.085,13.085,0,0,0,.308-3.417l.03.014c.433.209.5.564.562,1.029a10.87,10.87,0,0,1,.007,2.123c-.045.769-.091,1.534-.1,2.305-.011.738-.086,1.454-.157,2.181a.451.451,0,0,0-.032.105h-.83a7.474,7.474,0,0,0,.166-2.014m-1.392,2.014q-7.05,0-14.1.006-23.652.032-47.3.105a.369.369,0,0,0,.037-.114,5.99,5.99,0,0,0-.049-1c-.014-.382-.027-.763-.031-1.145-.009-.819-.036-1.636-.061-2.454-.022-.7-.02-1.4-.036-2.1a15.809,15.809,0,0,0,4.273.149c2.094,0,4.188.027,6.282.016,4.188-.021,8.37-.332,12.56-.307,8.454.05,16.9.48,25.354.5,2.284,0,4.568.066,6.852.038,1.139-.014,2.279-.05,3.415-.128q.864-.059,1.726-.155a9.238,9.238,0,0,0,.943-.095,21.966,21.966,0,0,1,.223,2.687c-.073,1.28-.441,2.722-.086,3.994m-5.5-12.276c-.144.18-.287.359-.43.531a19.041,19.041,0,0,1-1.4,1.5c-.994.968-1.926,2-2.918,2.967q-.822-.008-1.645-.014l-.16,0c.7-.625,1.248-1.437,1.891-2.114.515-.541,1.02-1.084,1.512-1.647.389-.446.8-.862,1.215-1.275l1.935.056m-6.006-.195c.633.031,1.266.06,1.9.077.568.015,1.136.033,1.7.049-.277.286-.539.589-.8.879-.5.565-1,1.126-1.533,1.66-.773.776-1.376,1.746-2.171,2.507q-2.058-.015-4.114-.05c.9-.957,1.886-1.828,2.824-2.748.767-.752,1.361-1.689,2.188-2.374m-.547-.027c-.651.644-1.182,1.416-1.832,2.062-1.022,1.016-2.078,1.977-3.005,3.08-.619-.011-1.239-.026-1.858-.04a73.19,73.19,0,0,1,5.187-5.178l1.508.076m-3.6-.2c.492.036.985.069,1.482.091l.087,0c-1.836,1.578-3.38,3.466-5.07,5.2-.446-.01-.893-.024-1.339-.035a35.305,35.305,0,0,0,4.84-5.256M52.76,20.323a15.569,15.569,0,0,1-2.257.127c-.22,0-.438,0-.656,0a.236.236,0,0,0-.094-.109A7.317,7.317,0,0,1,48.5,19.71c1.748-1.65,4.433-2.1,6.714-2.476.885-.146,1.769-.3,2.655-.446-.139.1-.277.207-.418.307-.516.368-1.036.729-1.55,1.1a20.946,20.946,0,0,0-2.492,2.057q-.327.031-.654.072m3.3-.189c-.739.006-1.477.027-2.214.082a27.894,27.894,0,0,1,2.341-1.841c.5-.36,1.006-.713,1.508-1.071.286-.2.582-.406.861-.625.2-.031.4-.067.6-.1.417-.061.835-.11,1.253-.155-1.43,1.218-3.159,2.089-4.323,3.6a.147.147,0,0,0-.022.105m20.788-.688c-3.2.063-6.394.086-9.589.275-1.575.093-3.143.29-4.718.375s-3.149.06-4.723.043q-.779-.008-1.558-.006a12.435,12.435,0,0,1,2.315-2.008,23.654,23.654,0,0,0,2.2-1.738c1.342-.136,2.689-.22,4.031-.343,1.9-.174,3.752-.533,5.635-.8s3.782-.424,5.681-.524c2.058-.108,4.117-.141,6.177-.146-.832.807-1.529,1.763-2.356,2.567a28.7,28.7,0,0,0-2.4,2.287c-.234.008-.468.016-.7.02m3.395-.071c-.764-.021-1.531.009-2.3.037.7-.739,1.542-1.343,2.259-2.069.49-.5.925-1.046,1.389-1.565a14.976,14.976,0,0,1,1.236-1.207c1.035,0,2.07.008,3.1.014-1.579,1.572-3.021,3.278-4.615,4.835-.359-.018-.719-.036-1.078-.045m6.615.04a.423.423,0,0,0-.172.074l0,0c-.014-.01-.015.012-.069.02-.115.017-.228.036-.344.047-.341.032-.685.034-1.028.033-.887,0-1.774-.05-2.66-.1l-.883-.049c1.659-1.512,3.056-3.284,4.661-4.853l1.146.005c7.806.044,15.6-.361,23.408-.377s15.591-.622,23.394-.493c.44.007.881.018,1.322.028.168.015.336.026.5.039a44.073,44.073,0,0,1-4.991,5.267c-1.106-.027-2.212-.052-3.318-.087-4.161-.13-8.323-.278-12.487-.3-4.126-.023-8.235.33-12.357.439-2.3.061-4.593.037-6.889.041-1,0-1.991.053-2.987.133a11.812,11.812,0,0,1-2.592.024,6.32,6.32,0,0,0-.261-1.9c-.4-1.151-2-.7-2.728-.122a2.385,2.385,0,0,0-.672,2.135m1.74,3.955c-.066-.7-.182-1.4-.268-2.1s-.142-1.381-.174-2.074a5.64,5.64,0,0,1,.008-1.106,3.713,3.713,0,0,1,.537-.048c.182-.011.148-.027.231.051a1.314,1.314,0,0,1,.261.449,10.622,10.622,0,0,1,.659,3.682c.047.762.055,1.528.066,2.292.006.411,0,.82-.011,1.23-.008.291-.066.582-.055.872H88.767a25.48,25.48,0,0,0-.17-3.251m-.939-1.261c-.1-1.176-.422-2.587.075-3.712,0-.009.01-.015.014-.023-.013.117-.021.233-.027.346A10.957,10.957,0,0,0,87.895,21c.108.7.238,1.386.315,2.088.07.642.117,1.288.139,1.933.019.533-.013,1.071,0,1.6h-.674a.413.413,0,0,0,.156-.284c.008-1.4-.055-2.831-.17-4.23m-70.6,43.243c.082-.81.154-1.62.258-2.428.206-1.612.476-3.216.688-4.828a61.986,61.986,0,0,1,1.916-9.236c.833-2.873,1.224-5.919,2.42-8.677a35.691,35.691,0,0,1,1.753-3.52,4.677,4.677,0,0,0,1.7.02c.172-.012.343-.027.514-.042-.268.4-.5.842-.722,1.255a18.632,18.632,0,0,0-.915,2.014c-.629,1.605-1.151,3.26-1.665,4.905A92.514,92.514,0,0,0,20.4,55.069a50.856,50.856,0,0,0-.771,5.748c0,.06.06.064.068.005a102.975,102.975,0,0,1,4.888-19.909A20.437,20.437,0,0,1,25.613,38.5c.329-.648.739-1.257,1.085-1.894.912-.08,1.821-.171,2.738-.211A10.184,10.184,0,0,0,27.24,40a34.153,34.153,0,0,0-2.1,6.167c-.011.054.078.03.089-.009a47.815,47.815,0,0,1,2.215-5.936,16.18,16.18,0,0,1,1.122-2.206,7.442,7.442,0,0,1,1.473-1.643c.913-.034,1.82-.1,2.728-.168,5.464.05,10.926.174,16.39.207,6.028.036,12.058,0,18.087,0H92.01c-.147,7.789.1,15.584-.051,23.373-.021,1.107-.049,2.214-.052,3.322q0,.873,0,1.745c0,.337-.022.685,0,1.028l-24.662,0q-11.089,0-22.177,0c-3.7,0-7.4,0-11.106.036-2.426.026-4.857.012-7.283.09-1.107-.092-2.216-.061-3.327-.073-1.258-.014-2.511-.161-3.768-.2A8.918,8.918,0,0,0,17,65.9c.021-.182.04-.364.058-.547m11.645,48.723a6.1,6.1,0,0,1-2.031.332c-2.013.055-4.021.117-6.035.111-.851,0-1.691-.15-2.54-.208a8.578,8.578,0,0,1-2.13-.308,2.813,2.813,0,0,1-1.537-1.121,24.231,24.231,0,0,1,3.552.48,42.187,42.187,0,0,0,4.242.079c1.3.051,2.589.244,3.894.26.656.008,1.313-.005,1.968-.057a11.061,11.061,0,0,0,1.351-.159,1.487,1.487,0,0,1-.732.59m1.117-1.291c-.037.071-.071.14-.106.208-.547.067-1.088.187-1.64.232-.656.054-1.314.068-1.972.063-1.31-.01-2.62-.06-3.929-.084a30.948,30.948,0,0,1-4.152-.083,14.861,14.861,0,0,0-3.672-.379c-.011-.021-.024-.04-.035-.061a6.687,6.687,0,0,1,.037-3.446c.164-.006.329,0,.5.014s.335.027.5.041a3.087,3.087,0,0,0,.495-.009c.071-.005.17-.149.061-.169-.166-.031-.328-.075-.495-.1s-.338-.049-.508-.066a2.417,2.417,0,0,0-.423,0,.78.78,0,0,1,.11-.159,2.369,2.369,0,0,1,.788-.552,6.389,6.389,0,0,1,2.186-.389,21.7,21.7,0,0,0,2.669-.209c.994-.178,2-.3,3.008-.384,1.088.039,2.169-.023,3.256-.008a15.562,15.562,0,0,1,2.246.2,3.653,3.653,0,0,1,1.719.6,1.769,1.769,0,0,1,.532.7,6.03,6.03,0,0,0-1.105-.161c-.533-.053-1.069-.075-1.6-.086-1.04-.022-2.084-.03-3.125-.031-2.356,0-4.7.439-7.049.508-.036,0-.049.075-.008.076,2.315.059,4.613-.292,6.928-.212,1.016.035,2.031.056,3.048.07.537.008,1.075.024,1.61.071.47.041.953.18,1.424.2.163,1.187-.786,2.62-1.29,3.6M43.151,110.8l-.634-.014c-.445-.01-.888-.014-1.333.008a7.781,7.781,0,0,0-1.162.126,16.22,16.22,0,0,0,1-1.447,11.428,11.428,0,0,1,1.8-2.391,8.881,8.881,0,0,1,2.327-1.5c.434-.206.879-.4,1.328-.578a9.719,9.719,0,0,0-2.167,3.067,14.7,14.7,0,0,0-.849,2.724c-.105,0-.211,0-.313,0m34.688,9.88a11.71,11.71,0,0,1-1.9,3.366,21.612,21.612,0,0,1-5.652,5.186,18.67,18.67,0,0,1-3.619,1.7,19.092,19.092,0,0,1-1.928.61,8.3,8.3,0,0,1-2.28.148c-1.382-.058-2.79-.041-4.164-.211a7.055,7.055,0,0,1-1.983-.5c-.65-.288-1.278-.622-1.93-.9a16.627,16.627,0,0,1-3.329-1.655,22.941,22.941,0,0,1-2.865-2.56,13.971,13.971,0,0,1-2.1-3.1,18.461,18.461,0,0,1-1.586-3.78,15.793,15.793,0,0,1-.75-4.615,19.3,19.3,0,0,1,.8-4.744,10.378,10.378,0,0,1,3.553-5.211c.133-.043.265-.089.4-.13a11.374,11.374,0,0,1,1.85-.437,14.762,14.762,0,0,1,2.1-.058c.619.009,1.237-.008,1.855-.031l-.2.127a9.447,9.447,0,0,0-2.453,2.073,15.261,15.261,0,0,0-3.057,6.022,13.261,13.261,0,0,0,.4,7.14,16.979,16.979,0,0,0,1.56,3.206,10.815,10.815,0,0,0,1.912,2.434,10.224,10.224,0,0,0,5.055,2.25,20.616,20.616,0,0,0,5.649.232,11.385,11.385,0,0,0,5.921-2.621,12.7,12.7,0,0,0,3.631-5.132,13.916,13.916,0,0,0,1.036-5.855,8.65,8.65,0,0,0-.062-1.525,9.571,9.571,0,0,0-.476-2.189,9.179,9.179,0,0,0-1.953-3.27,9.786,9.786,0,0,0-3.446-2.344c-.362-.15-.74-.292-1.124-.415.884.025,1.768.046,2.651.052.844.005,1.683-.009,2.52-.013a5.6,5.6,0,0,1,.441.454,11.4,11.4,0,0,1,.9,1.24,31.623,31.623,0,0,1,1.548,2.892,13.6,13.6,0,0,1,1.345,3.265c.111.536.2,1.079.3,1.616a4.026,4.026,0,0,1,.039,1.754c-.012.046.066.023.078,0a6.1,6.1,0,0,0-.105-3.234,12.283,12.283,0,0,0-1.3-3.39c-.513-1.042-.982-2.111-1.573-3.113-.1-.162-.2-.334-.312-.509.4.4.79.822,1.189,1.23a14.573,14.573,0,0,1,2.4,3.034,11.721,11.721,0,0,1,1.06,3.632,21.855,21.855,0,0,1,.5,4.277,11.477,11.477,0,0,1-.547,3.606m-22.7-16.95c.481-.02.963-.039,1.445-.049,1.4-.03,2.8-.03,4.2.011.99.029,1.981.066,2.971.1a3.876,3.876,0,0,0,.921.33,13.7,13.7,0,0,1,2.131.681,9.533,9.533,0,0,1,5.609,6.2,13.877,13.877,0,0,1-2.854,11.989,10.634,10.634,0,0,1-5.009,3.094,11.848,11.848,0,0,1-2.654.339,20.468,20.468,0,0,1-2.529-.013,11.5,11.5,0,0,1-5-1.4,11.257,11.257,0,0,1-3.8-4.24,11.882,11.882,0,0,1-1.532-6.448,13.287,13.287,0,0,1,2.31-6.907,10.066,10.066,0,0,1,2.373-2.7,17.282,17.282,0,0,1,1.427-1m25.548,7.084a3.994,3.994,0,0,0-1.81.16,15.109,15.109,0,0,0-.42-1.643,18.976,18.976,0,0,0-1.615-3.772,7.154,7.154,0,0,0-1.1-1.439c.474.063.946.146,1.419.257a4.979,4.979,0,0,1,2.94,1.531,14.408,14.408,0,0,1,1.391,2.935,11.6,11.6,0,0,0,1.337,2.008c-.712-.027-1.425,0-2.137-.037m4.681,1.7a6.8,6.8,0,0,1-.584-.771c-.647-.979-1.436-1.868-2.05-2.867a32.206,32.206,0,0,1-1.312-3.1,4.438,4.438,0,0,0-2.31-2.252c-2.408-.978-5.046-.9-7.589-.832-2.766.071-5.529-.034-8.292-.151-2.837-.119-5.692-.3-8.532-.2-1.333.047-2.686-.076-4.013.063a15.525,15.525,0,0,0-3.969,1.1,12.253,12.253,0,0,0-4.98,3.261,31.226,31.226,0,0,0-2.019,2.956,11.009,11.009,0,0,1-2.329,2.529,7.124,7.124,0,0,1-3.7,1.562c-1.1.1-2.219.029-3.3.212a7.606,7.606,0,0,0,.9-2.256,9.53,9.53,0,0,0,.565-2.885,2.108,2.108,0,0,0-1.115-2.124,6.328,6.328,0,0,0-2.51-.4c-.559-.033-1.111-.09-1.673-.088-.7,0-1.405.054-2.109.046-.719-.008-1.438-.075-2.157-.034a5.485,5.485,0,0,0-.552.063c-.123-.007-.246-.014-.369-.02-.079-.819-.181-1.629-.21-2.455-.033-.923-.059-1.845-.127-2.767a27.4,27.4,0,0,1-.147-2.811,6.117,6.117,0,0,0-.152-2.051c-.01-.031-.064.008-.057.034a8.14,8.14,0,0,1,.063,2.488c-.027.841.052,1.688.087,2.528.039.954.02,1.906.018,2.861a12.481,12.481,0,0,0,.1,2.16c-.457-.011-.914-.017-1.372-.018-.16-1.333-.273-2.671-.418-4.007-.164-1.514-.256-3.035-.306-4.557-.1-3.021-.111-6.044-.184-9.066,0-.04-.062-.014-.063.017-.076,3.107-.214,6.213-.1,9.32.056,1.521.156,3.042.326,4.555.086.765.128,1.52.147,2.29a14.05,14.05,0,0,0,.088,1.446c-.21,0-.42,0-.629,0a12.793,12.793,0,0,0-1.532.071,7.948,7.948,0,0,0,.074-2.368c-.019-.918-.037-1.835-.04-2.753-.005-1.795-.193-3.568-.318-5.356-.257-3.68.518-7.346.224-11.023a49.9,49.9,0,0,1-.2-5.444c.053-1.835.161-3.668.176-5.5.02-2.319.035-7.133.057-7.223.326-.018,2.2-.037,2.822.032,1.245.139,2.474.374,3.728.415,1.239.041,2.469-.13,3.708-.045,1.041.071,4.753-.261,5.652-.252,3.3.035,6.59.043,9.885.044q9.9,0,19.8,0,14.741,0,29.481,0c-.1,8.706-.027,17.416-.009,26.123.005,2.476,0,4.953.077,7.428.006.185.231.148.236-.022.136-4.418.08-8.844.086-13.264s.013-8.834.013-13.252c0-2.338-.005-4.675-.031-7.013H93.45c0,.331,0,.662,0,.993q.007,15.829-.019,31.658c-.009,4.358,0,8.717.012,13.075-.7-.022-1.4-.061-2.113-.063l-2.425-.006c-1.175,0-2.36-.083-3.534-.029m7.416,1.55q-1-.011-2-.046a15.372,15.372,0,0,1-3.828-.465,3.263,3.263,0,0,1-.873-.409c.81,0,1.623-.041,2.432-.043l2.628-.007c.769,0,1.53-.045,2.3-.066q0,.462,0,.924a.313.313,0,0,0,.024.118c-.227-.013-.459,0-.682-.007m.831-62.112c-.081,4.645-.147,9.29-.161,13.935h-1a21.012,21.012,0,0,0,0-2.464c0-.976-.019-1.951-.037-2.927-.038-2-.031-3.993-.033-5.99q0-6-.009-12c0-2.03.01-4.06-.023-6.089H93.47c.046,2.519.29,5.033.3,7.553.012,2.66-.112,5.319-.158,7.979M71.668,35.04h-20.1c-4.534,0-9.065.081-13.6.148a.1.1,0,0,0-.114-.072,27.887,27.887,0,0,1-4.206.02,36.654,36.654,0,0,0-4.22-.1,35.74,35.74,0,0,0-3.749.463q-.5.077-.995.165c.226-.361.462-.716.7-1.066l.085-.113c.446-.58.9-1.157,1.394-1.7a16.4,16.4,0,0,1,3.208-2.609,17.678,17.678,0,0,1,3.726-1.767,24.06,24.06,0,0,1,4.127-.935l.209-.034c5.276.195,10.524.029,15.8-.021,5.322-.05,10.645-.027,15.967-.032q15.936-.015,31.871.042c21.3.071,42.592.155,63.887.054,9.476-.045,18.952-.06,28.428-.113a19.924,19.924,0,0,0,3.338.115c1.039.024,2.066.167,3.1.275,1.067.113,2.125.14,3.2.188a21.572,21.572,0,0,1,11.1,3.7c1.308.9,2.641,2.124,2.364,3.733a.286.286,0,0,0-.035.064,3.708,3.708,0,0,0-.129.425c-.615-.071-1.238-.081-1.859-.1.035-.121-11.9-.524-17.8-.529-6-.005-12.007.046-18.009-.024-11.99-.138-23.983-.056-35.973-.127-23.906-.141-47.813-.059-71.72-.057m89.976,12.834c.042,2.032,0,4.066-.067,6.1s.09,4.038.147,6.065c.055,1.969.159,3.923.06,5.892h-1.263c-.011-1.909.02-3.819-.064-5.727q-.137-3.073-.155-6.149c-.014-2.055,0-4.11,0-6.165s.126-4.076.172-6.116c.026-1.132.018-2.265.046-3.4a9.214,9.214,0,0,0,.072-2.047l1.437-.005a61.374,61.374,0,0,0-.384,11.553m-1.523-6.605c.021,2.008-.158,4.012-.162,6.02-.008,4.074-.045,8.153.127,12.225.09,2.141.033,4.272,0,6.412l-2.479,0q-.03-6.378-.039-12.756c0-2.934-.093-5.884.1-8.812.049-.735.227-1.443.232-2.179s.011-1.482.016-2.224a27.557,27.557,0,0,0-.1-3.616l2.4-.009c0,.233,0,.468-.014.7-.027.469-.1.934-.12,1.4-.035.942.02,1.893.03,2.835m-4.411-2.927c0-.662.017-1.334-.021-2l.938,0a25.029,25.029,0,0,0-.157,3.56c0,.647.009,1.293.013,1.94a8.633,8.633,0,0,0,.128,1.878,12.15,12.15,0,0,1,.173,1.861c.044.672.04,1.342.04,2.015v3.886c0,4.814,0,9.628-.033,14.442H155.4q.006-9.614.146-19.233c.025-1.858.083-3.713.141-5.57.029-.925.017-1.852.019-2.777M94.424,36.416h8.619q25.813,0,51.628-.07l.069,0,.094.005c-.122,1.463-.04,2.974-.022,4.433.02,1.627.118,3.253.139,4.881.044,3.295.054,6.589.079,9.884q.039,5.185.062,10.369-4.393,0-8.786-.008-25.933-.033-51.866-.03-.025-6.065-.123-12.128c-.052-2.945-.178-5.892-.188-8.837-.01-2.838.239-5.666.3-8.5M156.7,114l-3.309,0-6.8-.005-13.561-.011q-13.606-.011-27.213-.011c-2.525,0-5.051,0-7.575.031-1.335.017-2.67.058-4,.1a.445.445,0,0,0,.216-.353c0-.261,0-.522,0-.784a16.315,16.315,0,0,0,2.608.1q1.706.009,3.411.005c2.252-.005,4.5-.011,6.755-.09.16-.006.295-.323.085-.331-2.236-.08-4.472-.085-6.709-.091q-1.661,0-3.321,0a18.567,18.567,0,0,0-2.829.111c.009-9.088-.014-18.175-.012-27.262,0-6.178.02-12.356,0-18.533h7.251q26.7-.013,53.4-.045.017,4.281.02,8.562c0,3.646-.057,7.3.041,10.941,0,.106.206.034.208-.054.086-3.275.04-6.554.04-9.829V66.835h1.386c0,.065,0,.13,0,.195-.081,10.318-.081,20.637-.117,30.955q-.014,4.134-.026,8.267c0,1.338-.016,2.678.018,4.017.018.733.071,1.459.136,2.185-4.188,0-8.375-.009-12.563.008-6.639.028-13.278.027-19.916.032-1.847,0-3.694.015-5.539.092-1.9.079-3.81.031-5.712.033-.11,0-.179.224-.04.224,1.656,0,3.314-.026,4.969,0s3.3.105,4.949.119c3.313.028,6.626.006,9.939.009,6.647,0,13.294.05,19.94.035,1.341,0,2.683,0,4.024,0q.049.494.1.991l-.249,0m4.727-.18a5.924,5.924,0,0,1-1.847.293h-.029a10.9,10.9,0,0,0-2.13-.121.218.218,0,0,0,.013-.045c.031-.314.063-.627.1-.941,1.747,0,3.494,0,5.242,0a3.868,3.868,0,0,1-1.343.812m40.731,2.7a14.537,14.537,0,0,1-2.291,7.252,16.231,16.231,0,0,1-1.531,2c-.3.317-.606.63-.935.919s-.668.6-1,.889a13.492,13.492,0,0,1-1.993,1.292c-1.251.656-2.449,1.408-3.708,2.049a11.958,11.958,0,0,1-3.158,1.08c0-.069-.051-.121-.17-.114a24.926,24.926,0,0,1-5.535-.006,14.549,14.549,0,0,1-5.049-2.155,19.967,19.967,0,0,1-3.553-2.634,17.27,17.27,0,0,1-2.714-3.368,22.584,22.584,0,0,1-1.864-4.044,17.393,17.393,0,0,1-1-4.239,16.091,16.091,0,0,1,1.642-8.6,11.485,11.485,0,0,1,1.243-1.94,23.094,23.094,0,0,1,3.945-3.226,21.621,21.621,0,0,1,3.77-1.979,14.36,14.36,0,0,1,4.074-.877,23.872,23.872,0,0,1,4.575-.157,18.12,18.12,0,0,1,4.116.946,18.6,18.6,0,0,1,3.472,1.542,10.293,10.293,0,0,1,2.849,2.516,32.8,32.8,0,0,1,2.724,3.957c.291.5.616.976.9,1.477.146.314.3.624.444.937.049.136.1.273.133.415a4.144,4.144,0,0,0,.126.534,1.357,1.357,0,0,0,.187.28,4.04,4.04,0,0,1,.081.444c.1.817.112,1.654.17,2.475a20.568,20.568,0,0,1,.052,2.328m2.358-5.462c-.308,0-.617-.01-.924,0a3.423,3.423,0,0,0-.385.03c-.081.012-.162.026-.242.044-.037.008-.2.044-.045.014a.782.782,0,0,0-.216.072c-.031-.153-.059-.307-.1-.457a1.093,1.093,0,0,0,.027-.278,2.852,2.852,0,0,0-.239-.979,9.314,9.314,0,0,0-1.034-1.748c-.847-1.226-1.622-2.472-2.576-3.623a15.034,15.034,0,0,0-2.933-2.944,16.578,16.578,0,0,0-3.528-1.775,28.866,28.866,0,0,0-4.042-1.267,20.965,20.965,0,0,0-4.645-.439,15.654,15.654,0,0,0-4.676.642,15.3,15.3,0,0,0-4.061,2.036l-.08.059-.081.039a12.614,12.614,0,0,0-2.278,1.421,16.917,16.917,0,0,0-3.6,3.575,15.227,15.227,0,0,0-2.221,5.271h-.122c-.106,0-.213,0-.319,0a4.78,4.78,0,0,0-.786.07c.226-.706.411-1.427.642-2.1a34.026,34.026,0,0,1,1.365-3.218,22.951,22.951,0,0,1,1.683-3.318,29.043,29.043,0,0,1,2.537-3.176,5.771,5.771,0,0,1,2.97-1.434,21.717,21.717,0,0,1,3.413-.593c1.259-.1,2.519-.058,3.772-.225a30.933,30.933,0,0,1,3.97-.232c1.364-.007,2.722-.027,4.083.086,1.326.11,2.652.284,3.97.472a13.389,13.389,0,0,1,3.043.728,9.019,9.019,0,0,1,4.417,4.177,71.089,71.089,0,0,1,3.1,7.031c.3.687.621,1.365.973,2.027-.278,0-.557.012-.835.014m19.691,3.079q-1.332.119-2.66.262c-1.8.194-3.617.316-5.43.339a34.422,34.422,0,0,1-5.279-.261,3.712,3.712,0,0,1-1.957-.677,5.358,5.358,0,0,0-1.125-.794,15.46,15.46,0,0,1-2.723-4.589c-.912-2.121-1.6-4.335-2.591-6.423-.93-1.961-2.07-4.03-3.971-5.192s-4.18-1.377-6.337-1.726a44.957,44.957,0,0,0-8.109-.494c-1.3.026-2.571.311-3.869.349a12.767,12.767,0,0,0-3.579.536c-1.129.365-2.178.922-3.277,1.36a7.147,7.147,0,0,0-1.329.672,6.43,6.43,0,0,0-1.3,1.28c-.855,1.013-1.663,2.072-2.587,3.022a11.388,11.388,0,0,0-2.043,2.934,21.256,21.256,0,0,0-1.446,3.644c-.283,1.041-.464,2.125-.843,3.137a4.029,4.029,0,0,1-.5.929q-2.838.006-5.676,0c.065-.68.121-1.361.139-2.044.031-1.206.035-2.412.031-3.618q-.011-3.648-.023-7.3-.024-7.679-.046-15.358-.016-8.653-.071-17.3l4.113,0c-.052.77-.109,1.54-.15,2.311-.054,1.016-.054,2.032-.122,3.048a44.914,44.914,0,0,0-.219,6.028c.066.979.177,1.954.245,2.933s.077,1.934.161,2.9a11.341,11.341,0,0,0,1.6,5.526,5.347,5.347,0,0,0,1.6,1.472,4.578,4.578,0,0,0,1.011.466c.46.146,1.895.331,2.174.408a16.02,16.02,0,0,0,4,.223c1.463.019,2.911-.067,4.373-.116,1.436-.047,2.872-.06,4.307-.112a79.911,79.911,0,0,1,8.073-.1A24.115,24.115,0,0,1,196.7,93.56c.242.1.476.215.71.328-.668-.188-1.34-.361-2.022-.5a35.365,35.365,0,0,0-6.429-.729,57.312,57.312,0,0,0-6.429.361,33.319,33.319,0,0,1-3.913.042c-1.256-.035-2.482.257-3.733.227-.041,0-.059.082-.017.085,1.033.074,2.057-.107,3.089-.108,1.084,0,2.163.117,3.248.106,2.214-.022,4.421-.271,6.636-.213a39.137,39.137,0,0,1,6.166.626,19.471,19.471,0,0,1,5.788,1.78,9.394,9.394,0,0,1,2.2,1.7c.474.491.867,1.04,1.329,1.53.274.572.558,1.138.885,1.686a36.115,36.115,0,0,1,1.86,3.2,17.324,17.324,0,0,1,1.018,2.8c.431,1.6.77,3.631,2.274,4.6,1.783,1.148,4.139.523,6.108.531.686,0,1.373.084,2.059.1.769.019,1.538.026,2.307.023,1.421,0,2.845-.017,4.265.058a4.584,4.584,0,0,0,.525,2.327c-.14.008-.28.014-.419.027m-.007-3.095c-2.508-.048-5.019.206-7.524,0-1.011-.085-2.022-.142-3.034-.216a11.949,11.949,0,0,1-2.971-.4,2.54,2.54,0,0,1-1.657-1.636,11.927,11.927,0,0,1-.624-2.653,11.184,11.184,0,0,0-.638-2.736,18.31,18.31,0,0,0-1.771-3.167,20.2,20.2,0,0,0-1.289-1.647c-.449-.54-.809-1.143-1.2-1.722-.108-.159-.221-.309-.336-.455A4.139,4.139,0,0,0,202.83,96a11.431,11.431,0,0,0-1.622-1.3,19.738,19.738,0,0,0-3.134-2.134,18.839,18.839,0,0,0-7.641-2.03c-2.791-.108-5.589.212-8.376.331-1.407.06-2.823.083-4.23.006-1.462-.079-2.923-.236-4.384-.286-1.565-.054-3.134.031-4.7-.038a7.049,7.049,0,0,1-2.12-.359,7.7,7.7,0,0,0-1.181-.365,4.3,4.3,0,0,1-.817-.766,10.024,10.024,0,0,1-1.68-4.774c-.268-1.848-.358-3.726-.577-5.582a35.264,35.264,0,0,1-.085-5.862c.093-1.955.037-3.91.154-5.865,0-.049,0-.1.006-.146q9.178-.008,18.356-.014l22.125-.008,11.01,0,5.5,0c.489,0,1,.015,1.52.012q.268.987.517,1.98c-.441-.019-.916.037-1.3.035q-1,0-2.006-.015c-1.382-.013-2.766,0-4.147-.024-2.379-.045-4.829-.362-7.161.266-.038.01-.043.095,0,.085,2.4-.517,4.9-.077,7.322-.006,1.362.04,2.725.049,4.088.105.664.028,1.329.056,1.993.08a12.6,12.6,0,0,0,1.35.054c.376,1.524.722,3.057,1.018,4.605a134.179,134.179,0,0,1,2.041,16.6c.2,3.185.28,6.365.3,9.556.011,1.631.021,3.263.07,4.894.023.787.055,1.573.1,2.359a5.6,5.6,0,0,0,.163,1.605,4.052,4.052,0,0,0-1.111,2.053m.022-35.1c-.4-2.382-.908-4.732-1.49-7.063.217.111.439.216.639.337.488.293.964.6,1.449.9a13.106,13.106,0,0,0,2.863,1.473c.037.011.051-.068.02-.083a17.584,17.584,0,0,1-2.769-1.857c-.446-.347-.9-.685-1.365-1a5.16,5.16,0,0,0-1.066-.648c-.108-.419-.214-.84-.327-1.258.076-.008.151-.017.226-.027.3.077.6.164.888.259a15,15,0,0,1,2.153.934,35.794,35.794,0,0,1,4.032,2.334,16.968,16.968,0,0,1,4.76,4.789,4.859,4.859,0,0,1,.346.65c.91,4.556,1.331,9.194,1.788,13.816.3,3.072.6,6.141.775,9.224.011.2.02.392.03.588a.57.57,0,0,0-.034.161c0,.03,0,.061,0,.091a.351.351,0,0,0,.057.189c.062,1.2.115,2.4.153,3.605q.037,1.17.06,2.339c.009.459-.006.934.006,1.4a26.582,26.582,0,0,0-3.311.039,18.235,18.235,0,0,0-2.534.29,18.854,18.854,0,0,0-2.448.1.31.31,0,0,0,.033-.077,8.84,8.84,0,0,0-.084-3.111,13.677,13.677,0,0,0-.394-3.405c-.046-.134-.189,0-.176.1.17,1.238.057,2.5.18,3.74.057.575.15,1.149.165,1.727a3.446,3.446,0,0,1-.068.789.641.641,0,0,0,0,.282c-.232.032-.465.065-.7.111-.017-.135-.041-.269-.053-.391-.044-.444-.082-.889-.107-1.335-.048-.837-.078-1.674-.117-2.511-.081-1.717-.227-3.431-.346-5.146-.122-1.756-.17-3.516-.279-5.273-.1-1.635-.426-3.243-.556-4.875-.126-1.591.14-3.231-.412-4.766-.015-.042-.085.007-.073.044a16.812,16.812,0,0,1,.262,4.424c.051,1.584.374,3.154.5,4.734.268,3.4.25,6.823.347,10.234.028.966.032,1.932.052,2.9.01.453.021.906.036,1.358.007.194-.018.5,0,.78a5.029,5.029,0,0,0-1.039.411c-.015-1.274-.13-2.555-.157-3.829-.029-1.391-.033-2.783-.035-4.174,0-2.782-.016-5.561-.163-8.34a140.371,140.371,0,0,0-1.719-15.98M238.94,109.3a3.554,3.554,0,0,1,.832,2.732,4.633,4.633,0,0,1-.318,1.888c-.233.431-.674.534-1.132.681a17.345,17.345,0,0,1-2.234.524,25.872,25.872,0,0,1-2.9.441,11.905,11.905,0,0,1-2.781-.211,16.729,16.729,0,0,1-2.467-.552,3.313,3.313,0,0,1-.736-.354,13.245,13.245,0,0,0,1.72.072,25.536,25.536,0,0,0,3.725-.391c1.181-.186,2.366-.37,3.532-.635a6.482,6.482,0,0,0,2.27-.8c.031-.022.021-.12-.024-.1a7.157,7.157,0,0,1-1.815.482c-1.052.21-2.109.418-3.176.542a30.51,30.51,0,0,1-3.573.183,17.617,17.617,0,0,1-3.016-.161,4.718,4.718,0,0,1-.614-.145,3.5,3.5,0,0,1-.568-1.707,2.913,2.913,0,0,1,.458-1.844,1.408,1.408,0,0,1,.406-.394,3.69,3.69,0,0,1,.587-.29,18.417,18.417,0,0,1,3-.787,3.8,3.8,0,0,0,.4-.025c.57-.074,1.128-.178,1.693-.248.178-.015.356-.03.534-.042.134-.009.267-.02.4-.03a23.859,23.859,0,0,1,2.546.1,8.74,8.74,0,0,1,2.291.461,13.864,13.864,0,0,0-1.688.2,22.435,22.435,0,0,1-2.614.321,17.824,17.824,0,0,0-3.6.374c-.051.013-.059.083,0,.071,1.921-.359,3.893-.1,5.828-.355a7.687,7.687,0,0,1,3.047-.009m-.612-10.484q-.2-3.984-.6-7.953c-.029-.29-.057-.58-.086-.87q.358-.017.716-.014c-.008.013-.016.022-.023.036a3.173,3.173,0,0,0-.069,2.165,10.224,10.224,0,0,1,.263,2.42,12.951,12.951,0,0,0,.106,2.092c.051.363.117.723.164,1.087.037.29.028.6.071.892-.179.053-.36.1-.543.145m2.488-1.653a2.379,2.379,0,0,1-1.293,1.267,6.581,6.581,0,0,0-.216-1.455,8.062,8.062,0,0,1-.158-1.981,12.633,12.633,0,0,0-.026-2.378A14.865,14.865,0,0,1,239,90.741a2.639,2.639,0,0,1,.043-.682.266.266,0,0,1,.02-.038,1.325,1.325,0,0,1,1.183.729,10.717,10.717,0,0,1,.76,3.217,6.411,6.411,0,0,1-.186,3.194" transform="translate(-13 -13)" fill="#49763f"/>
            <path id="Trazado_886565" data-name="Trazado 886565" d="M531.2,133.755a3.445,3.445,0,0,1-1.118-1.2,4.9,4.9,0,0,1-.464-1.7,23.671,23.671,0,0,1-.458-3.56c-.02-1.31-.082-2.619-.1-3.928a10.336,10.336,0,0,0-.252-3.262c-.016-.047-.062.007-.055.04a19.009,19.009,0,0,1,.1,3.833c.024,1.416.107,2.827.024,4.243a11.535,11.535,0,0,0,.073,3.748,2.747,2.747,0,0,0,2.1,2.13c.153.038.285-.25.15-.336" transform="translate(-373.368 -87.82)" fill="#49763f"/>
            <path id="Trazado_886566" data-name="Trazado 886566" d="M548.46,167.775a12.661,12.661,0,0,1-3.737-.081,16.764,16.764,0,0,1-3.411-.227c-.072-.023-.146.121-.065.149a21.566,21.566,0,0,0,3.481.477,6.985,6.985,0,0,0,3.711-.1c.076-.03.155-.243.022-.217" transform="translate(-382.077 -120.929)" fill="#49763f"/>
            <path id="Trazado_886567" data-name="Trazado 886567" d="M637.034,113.833c-.606-1.851-2.482-2.274-4.211-2.453a18.563,18.563,0,0,0-3.03-.011,10.528,10.528,0,0,1-3.417-.148c-.029-.008-.072.051-.037.065,1.9.768,3.983.008,5.936.414,1.565.326,3.622.8,4.455,2.323.093.171.355-.034.3-.189" transform="translate(-441.549 -81.63)" fill="#49763f"/>
            <path id="Trazado_886568" data-name="Trazado 886568" d="M665.266,128.8a31.188,31.188,0,0,0-1.014-3.236c-.193-.532-.43-1.042-.637-1.568q-.32-.812-.689-1.6c-.067-.142-.254.052-.2.166q.371.79.689,1.6c.2.519.351,1.057.527,1.586.357,1.07.673,2.153,1.109,3.194.059.142.24-.036.215-.141" transform="translate(-466.975 -89.4)" fill="#49763f"/>
            <path id="Trazado_886569" data-name="Trazado 886569" d="M552.366,133.5a32.813,32.813,0,0,0-3.271,4.332c-.016.03.016.063.036.028a38.274,38.274,0,0,1,3.282-4.291c.032-.04,0-.123-.046-.07" transform="translate(-387.582 -97.187)" fill="#49763f"/>
            <path id="Trazado_886570" data-name="Trazado 886570" d="M463.1,127.316c-.024-1.22-.244-2.41-.368-3.62-.133-1.3-.271-2.6-.333-3.9,0-.069-.11-.033-.112.022a28.93,28.93,0,0,0,.118,3.331c.1,1.242.1,2.464.094,3.709a16.458,16.458,0,0,1-.331,3.388,4.244,4.244,0,0,1-.61,1.645,9.154,9.154,0,0,1-1.05,1.118c-.148.145.029.291.183.187a4.429,4.429,0,0,0,1.943-2.232,10.747,10.747,0,0,0,.466-3.648" transform="translate(-325.651 -87.595)" fill="#49763f"/>
            <path id="Trazado_886571" data-name="Trazado 886571" d="M433.689,166.209c-1.443.165-2.912.125-4.349.364a14.517,14.517,0,0,1-2.091.33,6.73,6.73,0,0,0-2.027.175c-.145.048-.161.241.02.205a14.3,14.3,0,0,1,2.156-.065,18.268,18.268,0,0,0,2.043-.356c.725-.115,1.462-.156,2.189-.255.691-.094,1.368-.234,2.054-.352.027,0,.039-.05,0-.046" transform="translate(-300.954 -120.052)" fill="#49763f"/>
            <path id="Trazado_886572" data-name="Trazado 886572" d="M319.684,111.043a15.063,15.063,0,0,1-3.56-.055c-1.315-.022-2.629.1-3.945.057-1.249-.043-2.494-.151-3.744-.181a4.948,4.948,0,0,0-2.864.483c-1.453.924-1.372,2.876-1.37,4.4,0,1.208-.019,2.416-.038,3.624-.021,1.329.023,2.642.061,3.969a5.034,5.034,0,0,0,.95,3.308c.785.851,2,.867,3.052,1.114.125.029.287-.185.141-.253a8.774,8.774,0,0,1-2.479-1.1,4.84,4.84,0,0,1-1.174-2.9c-.413-2.444-.052-4.893-.088-7.353-.02-1.392-.15-3.258,1.175-4.156a3.543,3.543,0,0,1,1.173-.429,8.561,8.561,0,0,1,1.858-.246c1.124-.025,2.243.092,3.366.117,1.375.03,2.747-.1,4.121-.1a9.436,9.436,0,0,0,3.367-.226c.036-.014.05-.091,0-.079" transform="translate(-216.441 -81.373)" fill="#49763f"/>
            <path id="Trazado_886573" data-name="Trazado 886573" d="M358.547,145.591c-.487.753-1.021,1.469-1.573,2.175a18.3,18.3,0,0,1-1.806,2.024c-.079.075.027.135.1.076a16.237,16.237,0,0,0,3.347-4.251c.029-.049-.041-.061-.065-.024" transform="translate(-252.063 -105.631)" fill="#49763f"/>
            <path id="Trazado_886574" data-name="Trazado 886574" d="M347.361,166.747c-.222.3-.447.608-.692.892a5.019,5.019,0,0,0-.636.907c-.036.068.038.175.1.09.211-.3.419-.611.619-.923s.439-.609.651-.918c.022-.032-.008-.09-.039-.049" transform="translate(-245.694 -120.417)" fill="#49763f"/>
            <path id="Trazado_886575" data-name="Trazado 886575" d="M394.857,149.483c-1.083,1.275-1.839,2.791-2.92,4.07-.028.033,0,.1.04.057,1.109-1.244,1.967-2.691,2.944-4.036.039-.054,0-.161-.064-.091" transform="translate(-277.767 -108.348)" fill="#49763f"/>
            <path id="Trazado_886576" data-name="Trazado 886576" d="M113.024,127.117a33.258,33.258,0,0,0-4.224.017c-1.347.036-2.7.054-4.042-.027-1.207-.073-2.406-.148-3.614-.2a9.265,9.265,0,0,1-3.433-.659,5.485,5.485,0,0,1-2.412-2.022c-.637-1.078-.393-2.569-.2-3.739a25.14,25.14,0,0,1,2.917-7.465c.537-1.009,1.031-2.173,2.158-2.646a7.98,7.98,0,0,1,3.512-.556c.063,0,.088-.124.029-.143a6.085,6.085,0,0,0-3.1.266,3.744,3.744,0,0,0-1.327.512,3.3,3.3,0,0,0-.842,1.014,37.558,37.558,0,0,0-1.843,3.744,24.972,24.972,0,0,0-1.456,3.912,12.744,12.744,0,0,0-.617,4.141,3.628,3.628,0,0,0,1.449,2.523,6.344,6.344,0,0,0,3.208,1.456c1.264.188,2.554.116,3.827.186,1.652.091,3.278.2,4.935.165,1.684-.037,3.389-.041,5.065-.213.111-.011.117-.254,0-.265" transform="translate(-69.959 -80.466)" fill="#49763f"/>
            <path id="Trazado_886577" data-name="Trazado 886577" d="M216.046,109.566a8.553,8.553,0,0,0-4.069-.936c-1.683-.052-3.366,0-5.049.036-1.637.036-3.274.03-4.911.035a11.9,11.9,0,0,0-3.882.176c-.062.022-.037.086.024.071a6.828,6.828,0,0,1,2.134-.059c.666.047,1.328.061,2,.063,1.543.005,3.085.011,4.628,0,1.522-.012,3.045-.032,4.566.025a12.664,12.664,0,0,1,2.282.242,20.062,20.062,0,0,1,2.049.61c.133.045.421-.154.234-.261" transform="translate(-142.334 -79.805)" fill="#49763f"/>
            <path id="Trazado_886578" data-name="Trazado 886578" d="M259.939,117.852a2.647,2.647,0,0,0-.148-.5,1.842,1.842,0,0,0-.245-.432,1.4,1.4,0,0,0-.4-.325c-.043-.025-.094.063-.06.093a1.978,1.978,0,0,1,.349.425c-.055.035-.077.116.012.116a.092.092,0,0,0,.046-.016,2.153,2.153,0,0,1,.133.279,2.392,2.392,0,0,1,.122.456c.014.08.024.161.032.243a.865.865,0,0,0,.039.244c.036.09.144,0,.158-.057a1.286,1.286,0,0,0-.036-.528" transform="translate(-184.938 -85.383)" fill="#49763f"/>
            <path id="Trazado_886579" data-name="Trazado 886579" d="M230.994,126.12c-.723.723-1.593,1.287-2.263,2.065-.049.058.02.11.069.054.672-.763,1.516-1.345,2.221-2.074.026-.027.006-.077-.027-.044" transform="translate(-163.725 -92.033)" fill="#49763f"/>
            <path id="Trazado_886580" data-name="Trazado 886580" d="M197.788,161.057l-.173.086c-.012.006-.025.02-.021.034s.022.015.033.009l.173-.086c.012-.006.025-.02.021-.034s-.022-.015-.033-.009" transform="translate(-141.98 -116.449)" fill="#49763f"/>
            <path id="Trazado_886581" data-name="Trazado 886581" d="M194.782,164.2c-.024,0-.037.05-.011.05s.037-.05.011-.05" transform="translate(-139.999 -118.649)" fill="#49763f"/>
            <path id="Trazado_886582" data-name="Trazado 886582" d="M118.805,126.109c-.437.48-.947.889-1.364,1.387-.029.035.028.048.051.022.432-.491.965-.88,1.4-1.373.049-.056-.045-.077-.083-.036" transform="translate(-85.97 -92.017)" fill="#49763f"/>
            <path id="Trazado_886583" data-name="Trazado 886583" d="M537.645,342.426c-1.693-.533-2.872-1.96-3.958-3.288-.542-.662-1.122-1.307-1.6-2.02a12.053,12.053,0,0,1-1.164-2.638,20.163,20.163,0,0,1-1.081-5.619,29.915,29.915,0,0,1-.119-4.852,7.024,7.024,0,0,1,2.364-4.933c.034-.028-.006-.063-.039-.041-2.982,2.027-2.821,5.929-2.772,9.135a20.6,20.6,0,0,0,.772,5.867,14.974,14.974,0,0,0,3.11,4.913,22.919,22.919,0,0,0,2.029,2.266,4.816,4.816,0,0,0,2.359,1.388c.085.014.21-.143.095-.179" transform="translate(-373.727 -226.831)" fill="#49763f"/>
            <path id="Trazado_886584" data-name="Trazado 886584" d="M613.833,347.345c-.018-.226-.344-.094-.357.078a27.235,27.235,0,0,1-.511,4.371,20.141,20.141,0,0,1-1.3,3.679,15.356,15.356,0,0,1-5.343,6.282c-.94.623-2.153,1-2.863,1.919-.021.028.025.041.042.019.75-.923,1.99-1.233,2.978-1.821a14.213,14.213,0,0,0,3.087-2.67,16.916,16.916,0,0,0,3.784-7.03,14.4,14.4,0,0,0,.487-4.827" transform="translate(-425.565 -246.533)" fill="#49763f"/>
            <path id="Trazado_886585" data-name="Trazado 886585" d="M632.15,332.855c-.131-.341-.248-.686-.4-1.017a1.694,1.694,0,0,0-.617-.826c-.1-.046-.154.122-.136.187a3.824,3.824,0,0,0,.511.906,5.386,5.386,0,0,1,.493.976,12.5,12.5,0,0,1,.539,2.091c.03.17.229-.014.2-.143a12.272,12.272,0,0,0-.591-2.174" transform="translate(-444.808 -235.199)" fill="#49763f"/>
            <path id="Trazado_886586" data-name="Trazado 886586" d="M126.342,353.734c-.5-.479-1.114-.853-1.652-1.29a17.65,17.65,0,0,1-1.721-1.567,13.024,13.024,0,0,1-2.333-3.552,20.728,20.728,0,0,1-1.894-7.689,9.441,9.441,0,0,1,.7-4.266c.02-.044-.024-.087-.052-.037-1.245,2.208-.981,5.082-.475,7.468a17.982,17.982,0,0,0,3.393,7.788,12.287,12.287,0,0,0,1.813,1.771,12.124,12.124,0,0,0,2.161,1.514c.077.037.116-.091.067-.138" transform="translate(-86.707 -238.207)" fill="#49763f"/>
            <path id="Trazado_886587" data-name="Trazado 886587" d="M177.244,381.072a20.438,20.438,0,0,1-3.408,3.173,14.329,14.329,0,0,1-3.837,2.2,20.114,20.114,0,0,1-4.392,1.051,11.754,11.754,0,0,1-4.62-.047c-.03-.008-.062.058-.03.071a8.909,8.909,0,0,0,4.457.319,19.45,19.45,0,0,0,4.551-1.057,13.509,13.509,0,0,0,3.864-2.361,23.83,23.83,0,0,0,3.474-3.282c.041-.053-.01-.132-.059-.069" transform="translate(-116.372 -270.166)" fill="#49763f"/>
            <path id="Trazado_886588" data-name="Trazado 886588" d="M171.677,349.269c-.021-.09-.117-.017-.122.044a1.793,1.793,0,0,1-.1.487,1.4,1.4,0,0,1-.075.159c-.007.011-.014.023-.02.034l-.01.017-.021.033c-.011.015-.021.031-.033.046s-.037.048-.057.07l-.019.021-.006.005c-.038.033-.076.064-.116.094l-.045.03c-.023.013-.047.026-.072.037s-.043.018-.064.027-.03.009-.044.013c-.1.03-.206.044-.311.065h-.018c-.026,0-.052,0-.078,0a1.082,1.082,0,0,1-.168-.027l-.016,0-.069-.026a1.164,1.164,0,0,1-.148-.077.555.555,0,0,0-.053-.037l-.012-.01a.886.886,0,0,1-.11-.12l-.005-.008c0,.007,0,.008-.012-.017l0,0-.008-.01s0,0,0,0c-.014-.026-.027-.052-.039-.079s-.019-.048-.027-.072a.089.089,0,0,1,0,.009.068.068,0,0,0,0-.023l0-.011c0-.011,0-.015,0-.015v0a1.916,1.916,0,0,0-.095-.26.607.607,0,0,1-.029-.083c0-.019,0-.1,0-.058,0-.1-.039-.209-.159-.2a.3.3,0,0,0-.237.223,1.881,1.881,0,0,0-.129.65,1.01,1.01,0,0,0,.148.446,1.105,1.105,0,0,0,.7.521,1.442,1.442,0,0,0,1.556-.765,1.574,1.574,0,0,0,.13-1.12" transform="translate(-122.098 -247.931)" fill="#49763f"/>
            <path id="Trazado_886589" data-name="Trazado 886589" d="M171.577,352.191a.059.059,0,0,0-.018-.027l0,.007.014.021" transform="translate(-123.79 -249.984)" fill="#49763f"/>
            <path id="Trazado_886590" data-name="Trazado 886590" d="M171.314,351.57c0-.025-.008-.042-.011-.04s0,.017.006.026l.005.014" transform="translate(-123.611 -249.541)" fill="#49763f"/>
            <path id="Trazado_886591" data-name="Trazado 886591" d="M583.966,346.175a1.145,1.145,0,0,0-.323-.7,1.849,1.849,0,0,0-1.585-.528,1.565,1.565,0,0,0-.895.432.9.9,0,0,0-.162.21c-.086.158-.118.433.132.449.169.011.263-.11.379-.2-.021.017-.044.037-.01.011l.033-.027c.03-.025.06-.049.092-.071.005,0,.023-.013.034-.021l.053-.027c.032-.015.064-.027.1-.04l0,0,.03-.007a1.79,1.79,0,0,1,.187-.035h0l.014,0,.025,0-.017,0c.039,0,.077,0,.116,0a1.81,1.81,0,0,1,.194.015l.1.015.054.013a1.835,1.835,0,0,1,.369.141l.1.053.061.036a1.594,1.594,0,0,1,.148.11,1.3,1.3,0,0,1,.146.15l.028.041c.016.026.031.052.045.079s.025.055.036.082.01.028.016.042l0,.01s0,0,0,0c.007.029.014.058.018.087s.006.106.007.06a.807.807,0,0,1-.007.094c0,.013,0,.026-.006.038a.124.124,0,0,0,0,.012l0,.011a.442.442,0,0,0-.023.216,1.374,1.374,0,0,1-.065.139c-.03.055.018.106.071.065a1.738,1.738,0,0,0,.154-.139c.274-.121.361-.535.352-.8" transform="translate(-409.835 -244.927)" fill="#49763f"/>
            <path id="Trazado_886592" data-name="Trazado 886592" d="M584.588,347.19l-.014,0c-.008,0-.005,0,.023,0h-.008" transform="translate(-412.372 -246.508)" fill="#49763f"/>
            <path id="Trazado_886593" data-name="Trazado 886593" d="M455.677,229.953c-.049-.143-.293-.026-.334.065a7.828,7.828,0,0,1-.352.954,1.785,1.785,0,0,1-.668.617,5.538,5.538,0,0,1-2.106.426c-1.757.2-3.537.152-5.3.323a4.721,4.721,0,0,0-2.03.525c-.04.025-.017.073.026.05a4.537,4.537,0,0,1,2.155-.371c.9.014,1.8.136,2.7.174,1.683.071,3.514.132,4.965-.877.538-.374,1.181-1.187.94-1.885" transform="translate(-314.758 -164.545)" fill="#49763f"/>
            <path id="Trazado_886594" data-name="Trazado 886594" d="M542.711,228.372c-1.357,1.3-3.339,1.334-5.088,1.522-.539.058-1.081.084-1.617.167-.472.073-.927.207-1.391.313a4.389,4.389,0,0,0-2.122.878c-.025.024-.015.1.023.064a6.082,6.082,0,0,1,2.565-.725,15.514,15.514,0,0,1,3.287-.26,10.32,10.32,0,0,0,2.621-.2,2.724,2.724,0,0,0,1.889-1.528c.053-.1-.02-.376-.168-.235" transform="translate(-375.976 -163.459)" fill="#49763f"/>
            <path id="Trazado_886595" data-name="Trazado 886595" d="M567.614,222.709a.656.656,0,0,0-.218-.4.167.167,0,0,0-.238.112,1.176,1.176,0,0,0,.058.4c.031.117.039.236.066.353a.557.557,0,0,1,.022.151.827.827,0,0,1-.032.178,1.046,1.046,0,0,1-.166.331.084.084,0,0,0,.025.134.161.161,0,0,0,.171-.061,1.682,1.682,0,0,0,.335-.786.977.977,0,0,0-.023-.415" transform="translate(-400.155 -159.239)" fill="#49763f"/>
            <path id="Trazado_886596" data-name="Trazado 886596" d="M31.934,201.4a6.978,6.978,0,0,0-.231,3.065,30.618,30.618,0,0,1-.19,3.769c-.217,2.7-.316,5.394-.281,8.106,0,.065.085.019.086-.028.058-2.6.118-5.192.332-7.782.1-1.224.232-2.464.23-3.694a9.381,9.381,0,0,1,.116-3.42c.02-.053-.043-.062-.062-.017" transform="translate(-25.734 -144.62)" fill="#49763f"/>
            <path id="Trazado_886597" data-name="Trazado 886597" d="M97.033,301.171a11.266,11.266,0,0,0-3.915,1.587,14.563,14.563,0,0,0-3.054,2.548,16.078,16.078,0,0,0-2.4,3.2,16.149,16.149,0,0,1-1.947,2.836,6.215,6.215,0,0,1-3.44,2.277c-.034.006-.053.079-.009.073,2.166-.292,3.746-2.306,4.9-3.983.718-1.04,1.336-2.138,2.1-3.152a13.012,13.012,0,0,1,3.155-3.006,24.481,24.481,0,0,1,4.611-2.087c.108-.044.178-.316,0-.288" transform="translate(-61.379 -214.352)" fill="#49763f"/>
            <path id="Trazado_886598" data-name="Trazado 886598" d="M195.4,299.928a14.553,14.553,0,0,0-6.871-1.228c-2.409.006-4.815.216-7.219.343-.034,0-.033.068,0,.069,2.354.115,4.709-.089,7.064-.038a24.22,24.22,0,0,1,3.534.3,23.64,23.64,0,0,1,3.424.919c.2.065.21-.292.067-.369" transform="translate(-130.588 -212.627)" fill="#49763f"/>
            <path id="Trazado_886599" data-name="Trazado 886599" d="M235.94,309.155a12.432,12.432,0,0,0-1.671-2.322c-.148-.168-.3-.338-.456-.495s-.347-.287-.517-.434a11.05,11.05,0,0,0-1.136-.9c-.115-.076-.177.149-.086.211a7.867,7.867,0,0,1,1.079.865c.173.168.309.365.464.547s.311.352.46.534c.585.715,1.063,1.513,1.654,2.22.137.164.279-.094.208-.229" transform="translate(-166.043 -217.022)" fill="#49763f"/>
            <path id="Trazado_886600" data-name="Trazado 886600" d="M249.355,327.1a3.611,3.611,0,0,0-.377-.545c-.133-.2-.259-.4-.375-.6-.222-.4-.418-.809-.6-1.224-.018-.042-.089.01-.079.045a8.709,8.709,0,0,0,.465,1.356,4.623,4.623,0,0,0,.338.629c.066.1.135.2.208.293a.692.692,0,0,0,.259.22c.086.044.2-.091.161-.17" transform="translate(-177.147 -230.802)" fill="#49763f"/>
            <path id="Trazado_886601" data-name="Trazado 886601" d="M522.506,283.654a7.286,7.286,0,0,0-4.415,3.113,15.046,15.046,0,0,0-1.425,2.509,13,13,0,0,0-.955,2.555c-.018.084.08.162.132.07.422-.754.694-1.593,1.06-2.374a17.507,17.507,0,0,1,1.292-2.341,8.053,8.053,0,0,1,4.322-3.37c.07-.021.075-.179-.011-.162" transform="translate(-364.257 -202.113)" fill="#49763f"/>
            <path id="Trazado_886602" data-name="Trazado 886602" d="M512.731,316.186a8.731,8.731,0,0,0-.424,1.1c-.057.186-.113.372-.172.557-.029.091-.053.183-.08.274a.761.761,0,0,0-.059.26c0,.064.077.07.114.026a1.422,1.422,0,0,0,.2-.5c.056-.19.1-.383.153-.575a10.365,10.365,0,0,1,.325-1.133c.019-.049-.039-.051-.057-.012" transform="translate(-361.662 -224.826)" fill="#49763f"/>
            <path id="Trazado_886603" data-name="Trazado 886603" d="M565.036,257.6a45.909,45.909,0,0,0-9.771-1.456,39.085,39.085,0,0,0-4.917-.088c-1.691.091-3.374.3-5.067.386-.867.044-1.716.118-2.577.232a7.421,7.421,0,0,1-2.636.028c-.046-.01-.095.076-.042.093,1.349.452,2.766.014,4.139-.066,1.714-.1,3.413-.3,5.12-.471a47.117,47.117,0,0,1,10.024.372c1.923.217,3.771.779,5.676,1.078.053.008.112-.09.05-.109" transform="translate(-381.233 -182.798)" fill="#49763f"/>
            <path id="Trazado_886604" data-name="Trazado 886604" d="M640.933,270.633a15.413,15.413,0,0,0-4.226-3.266c-.026-.013-.045.043-.02.057a16.716,16.716,0,0,1,4.039,3.431,17.745,17.745,0,0,1,2.925,4.334c.02.045.078-.022.065-.056a14.719,14.719,0,0,0-2.783-4.5" transform="translate(-448.78 -190.732)" fill="#49763f"/>
          </g>
        </g>
      </g>
    </g>
  </g>
</svg>
