<svg xmlns="http://www.w3.org/2000/svg" xmlns:xlink="http://www.w3.org/1999/xlink" width="134.071" height="83.557" viewBox="0 0 134.071 83.557">
  <defs>
    <clipPath id="clip-path">
      <rect id="Rectángulo_401671" data-name="Rectángulo 401671" width="134.072" height="83.557" transform="translate(-2 -4)" fill="#fc7350"/>
    </clipPath>
    <clipPath id="clip-path-2">
      <rect id="Rectángulo_401670" data-name="Rectángulo 401670" width="132.072" height="80.557" fill="#642e20"/>
    </clipPath>
    <clipPath id="clip-path-3">
      <rect id="Rectángulo_401669" data-name="Rectángulo 401669" width="116.433" height="64.918" fill="#642e20"/>
    </clipPath>
  </defs>
  <g id="banner-principal-decorativo-2" transform="translate(2 4)">
    <g id="Grupo_1100377" data-name="Grupo 1100377" clip-path="url(#clip-path)">
      <g id="Grupo_1100376" data-name="Grupo 1100376">
        <g id="Grupo_1100375" data-name="Grupo 1100375" transform="translate(-1 -3)" clip-path="url(#clip-path-2)">
          <path id="Trazado_875729" data-name="Trazado 875729" d="M131.141,46.791a10.591,10.591,0,0,0-2.673-3.393c.087-.543.164-1.07.239-1.588.071-.49.141-.979.221-1.467a48.622,48.622,0,0,0,.614-5.8c.057-1.328.046-2.573.035-3.778,0-.424-.007-.849-.008-1.272a16.257,16.257,0,0,1,.369-2.532l.138-.725a33.636,33.636,0,0,0,.655-6.487,21.476,21.476,0,0,0-1.568-7.261,16.682,16.682,0,0,0-3.851-6.065,18.387,18.387,0,0,0-5.056-3.453c-1.42-.694-2.711-1.262-3.947-1.735A19.932,19.932,0,0,0,109.955.018,32.785,32.785,0,0,0,99.387,1.665l-.424.119C95.174,2.843,91.6,4.177,88.6,5.343l-.816.313a39.425,39.425,0,0,0-4.66,2.027c-.8.425-1.539.866-2.194,1.254-.683.406-1.329.79-1.894,1.07-.6.3-1.21.585-1.818.872-.834.392-1.667.786-2.489,1.2A27.2,27.2,0,0,0,69.07,15.64,14.089,14.089,0,0,0,65.8,19.705l-.528.081c-.17.027-.343.046-.516.067-.488.058-1.094.131-1.785.27a15.661,15.661,0,0,0-2.155.6,14.146,14.146,0,0,0-4.607-2.351,27.127,27.127,0,0,0-6.614-.949c-.92-.047-1.84-.067-2.761-.087-.673-.014-1.344-.028-2.016-.057-.63-.027-1.378-.114-2.17-.207-.754-.089-1.608-.189-2.508-.253a39.372,39.372,0,0,0-5.084.045l-.869.046c-3.214.155-7.025.392-10.92.966l-.434.064a32.6,32.6,0,0,0-10.326,2.8,19.937,19.937,0,0,0-5.306,3.7c-.941.938-1.89,1.983-2.9,3.191a18.347,18.347,0,0,0-3.214,5.213,16.664,16.664,0,0,0-1.051,7.1A21.5,21.5,0,0,0,1.56,47.218,33.637,33.637,0,0,0,4.8,52.877l.419.6a16.171,16.171,0,0,1,1.367,2.164c.174.391.345.783.516,1.176q.113.258.227.519a9.909,9.909,0,0,0-.915,8.96,13.977,13.977,0,0,0,4.262,5.641l.334.294a12.537,12.537,0,0,0,2.729,1.927,9.646,9.646,0,0,0,6.1.9,27.238,27.238,0,0,0,3.9,2.256,33.616,33.616,0,0,0,11.292,3.124q1.255.118,2.477.119a23.162,23.162,0,0,0,3.926-.326,38.649,38.649,0,0,0,5.454-1.455l.167-.054A29.346,29.346,0,0,0,58.666,72.4c1.171-1.107,2.217-2.119,3.2-3.091a20.911,20.911,0,0,0,3.943-5.519,42.577,42.577,0,0,0,3.427-9.879c.242-1.091.435-2.137.582-3.149.546.864,1.148,1.742,1.813,2.64a42.533,42.533,0,0,0,7.151,7.63,20.9,20.9,0,0,0,5.848,3.437c1.285.485,2.651.983,4.177,1.521a29.326,29.326,0,0,0,13.186,1.054l.17-.018a38.7,38.7,0,0,0,5.58-.892,24.346,24.346,0,0,0,5.93-2.414q1.407-.792,2.733-1.72a11.7,11.7,0,0,0,7.43-.513,14.369,14.369,0,0,0,6.8-5.623,9.422,9.422,0,0,0,.5-9.069" transform="translate(0 0)" fill="#fc7350"/>
          <g id="Grupo_1100374" data-name="Grupo 1100374" transform="translate(7.82 8.173)" style="mix-blend-mode: multiply;isolation: isolate">
            <g id="Grupo_1100373" data-name="Grupo 1100373">
              <g id="Grupo_1100372" data-name="Grupo 1100372" clip-path="url(#clip-path-3)">
                <path id="Trazado_875730" data-name="Trazado 875730" d="M127.007,20.971a8.8,8.8,0,0,0-2.047-3.247A10.787,10.787,0,0,0,122,15.766c-1.074-.525-2.19-1.029-3.307-1.456A12.4,12.4,0,0,0,114.8,13.6c-2.984-.127-5.712.689-8.554,1.483-3.268.914-6.478,2.089-9.64,3.317a41.936,41.936,0,0,0-4.628,1.951c-1.449.773-2.813,1.693-4.284,2.426-1.408.7-2.85,1.336-4.254,2.047a20.279,20.279,0,0,0-4.091,2.512,6.579,6.579,0,0,0-2.2,5.789,12.291,12.291,0,0,0-1.585-.086c-.627-.019-1.258-.029-1.885,0a18.079,18.079,0,0,0-2,.242c-.655.1-1.328.147-1.976.278a14.042,14.042,0,0,0-3.644,1.5c-.453.233-.911.455-1.366.687a6.338,6.338,0,0,1-1.1.5,6.645,6.645,0,0,0-4.448-4.612A20.3,20.3,0,0,0,54.385,31c-1.572-.079-3.147-.073-4.719-.14-1.641-.07-3.262-.356-4.9-.473a41.894,41.894,0,0,0-5.022.1c-3.388.164-6.8.4-10.156.892-2.919.431-5.743.795-8.418,2.125a12.427,12.427,0,0,0-3.265,2.234c-.846.844-1.66,1.758-2.428,2.675a10.818,10.818,0,0,0-1.909,2.994,8.8,8.8,0,0,0-.548,3.8,14.222,14.222,0,0,0,.893,4.667,25.874,25.874,0,0,0,2.5,4.336,25.764,25.764,0,0,1,2.49,4.023c.639,1.438,1.236,2.888,1.937,4.3.465.936.972,1.839,1.508,2.728a5.681,5.681,0,0,0-1.379.679,15.727,15.727,0,0,0-1.43.908,2.059,2.059,0,0,0-.649,2.428,7.46,7.46,0,0,0,2.356,2.768,6.025,6.025,0,0,0,1.2.913,1.858,1.858,0,0,0,1.482.1,9.409,9.409,0,0,0,1.4-.648,2.989,2.989,0,0,0,1.162-.887,15.246,15.246,0,0,0,1.951,2.078A17.389,17.389,0,0,0,32.3,76.033,25.7,25.7,0,0,0,40.94,78.42a16.462,16.462,0,0,0,4.343-.129,33.255,33.255,0,0,0,4.543-1.242,21.881,21.881,0,0,0,8.641-4.562c1.032-.978,2.065-1.973,3.076-2.973A13.056,13.056,0,0,0,64,66.045a34.719,34.719,0,0,0,2.782-8.062,24.138,24.138,0,0,0,.584-8.426,17.613,17.613,0,0,0-.472-2.272c-.016-.218-.037-.436-.057-.654.876-.257,1.712-.649,2.559-.985a22.55,22.55,0,0,1,2.89-.964,15.2,15.2,0,0,1,3.208-.4,12.215,12.215,0,0,0,2.931-.123q.107.313.22.625a17.58,17.58,0,0,0,.493,2.268A24.15,24.15,0,0,0,83.1,54.514a34.724,34.724,0,0,0,5.821,6.233,13.05,13.05,0,0,0,3.652,2.169c1.331.5,2.679.99,4.02,1.464a21.865,21.865,0,0,0,9.75.652,33.17,33.17,0,0,0,4.656-.713,16.466,16.466,0,0,0,4.02-1.649,25.831,25.831,0,0,0,5.712-4.382,3.883,3.883,0,0,0,.975.932,6.9,6.9,0,0,0,1.32.789,3.8,3.8,0,0,0,3,.018,6.556,6.556,0,0,0,3.076-2.4,1.667,1.667,0,0,0,.194-1.648,3.915,3.915,0,0,0-1.326-1.329c-1.046-.746-2.383-.905-3.446-1.595a17.5,17.5,0,0,0,1.2-3.943c.275-1.412.441-2.844.673-4.263a40.984,40.984,0,0,0,.519-4.871c.067-1.574.022-3.141.02-4.714a25.718,25.718,0,0,1,.638-4.689,25.856,25.856,0,0,0,.524-4.98,14.247,14.247,0,0,0-1.083-4.627M24.17,71.816a2.546,2.546,0,0,1-2.084-.738A14.351,14.351,0,0,1,20.064,69.2a2.3,2.3,0,0,1-.49-.955c-.054-.313.121-.5.351-.688.407-.333.891-.6,1.329-.886.463-.306.935-.607,1.382-.937q.325.523.665,1.041c.789,1.2,1.523,2.442,2.349,3.621.122.173.248.34.374.511a3.488,3.488,0,0,1-1.854.913M66.287,53.849a23.645,23.645,0,0,1-1.819,8.1,19.212,19.212,0,0,1-4.26,6.692c-1,.928-1.983,1.891-3,2.8a17.206,17.206,0,0,1-3.852,2.527,38.219,38.219,0,0,1-4.314,1.8,26.587,26.587,0,0,1-4.411,1.294,19.555,19.555,0,0,1-8.344-.642,18.2,18.2,0,0,1-7.56-3.855c-2.018-1.873-3.309-4.382-4.815-6.65a27.3,27.3,0,0,1-2.192-4.008c-.606-1.362-1.08-2.777-1.676-4.141-1.213-2.776-3.315-5.034-4.572-7.779a15.529,15.529,0,0,1-1.609-4.609,6.316,6.316,0,0,1,.557-3.836,13.457,13.457,0,0,1,2.066-2.76c.775-.843,1.48-1.775,2.3-2.574a14.687,14.687,0,0,1,6.632-3.448,47.5,47.5,0,0,1,9.626-1.2c1.6-.066,3.207-.088,4.81-.144,1.571-.055,3.144-.2,4.716-.11a45.539,45.539,0,0,1,4.716.571c1.514.25,3.042.324,4.571.434a24.875,24.875,0,0,1,4.5.6,5.491,5.491,0,0,1,2.835,1.432,8.135,8.135,0,0,1,1.438,2.532c.512,1.293.938,2.6,1.511,3.873l.045.1c.18.723.3,1.467.435,2.2.139.747.375,1.476.579,2.208a26.645,26.645,0,0,1,1.089,8.592M77.009,43.4c-.511.045-1.022.078-1.532.131a20.818,20.818,0,0,0-3.089.538,26.463,26.463,0,0,0-5.59,2.155c-.037-.34-.081-.678-.14-1.014a19.151,19.151,0,0,1,10.691-1.848c-.114.014-.228.029-.34.038m.912-.984a4.083,4.083,0,0,0-.774-.021c-.467-.007-.934,0-1.4.015a26.237,26.237,0,0,0-3.358.365,24.324,24.324,0,0,0-5.856,1.846,14.924,14.924,0,0,0-.452-1.538,8.254,8.254,0,0,0,1.829-.6,15.426,15.426,0,0,1,1.5-.534,6.883,6.883,0,0,1,1.107-.265c.342-.037.691.022,1.035.017,1.254-.017,2.466-.385,3.712-.461a6.719,6.719,0,0,0,2.445-.212,13.5,13.5,0,0,0,.211,1.385m-.291-2.445c-.214.01-.434.053-.645.057-.467.01-.935-.028-1.4-.032a10.8,10.8,0,0,0-3.609.558c-.665.233-1.265.6-1.942.8-.553.166-1.112.33-1.658.519a9.085,9.085,0,0,1-2.464.742c-.272-.716-.577-1.421-.873-2.126-.327-.775-.593-1.559-.845-2.349a6.294,6.294,0,0,0,.716-.354,13.617,13.617,0,0,1,1.782-.769q1-.376,2.023-.7c.68-.214,1.394-.28,2.071-.5.119-.038.217-.289.025-.269a18.925,18.925,0,0,0-2.071.493q-.94.209-1.867.47a9.51,9.51,0,0,0-1.75.658c-.34.173-.685.435-1.054.581l-.254-.818a13.359,13.359,0,0,0,1.749-.732,13,13,0,0,1,1.81-.462c.694-.18,1.391-.4,2.071-.632.662-.222,1.278-.535,1.951-.726a10.145,10.145,0,0,1,1.994-.325,16.553,16.553,0,0,1,2.137,0c.571.03,1.155.126,1.728.123q.039.327.076.651a5.272,5.272,0,0,0-.827-.007c-.319.013-.639.058-.959.055-.529-.005-1.159-.1-1.586.285-.034.031-.072.18.021.15a2.326,2.326,0,0,1,.775-.035c.279.006.558.042.837.037.328-.005.655-.03.982-.02a2.6,2.6,0,0,1,.5.064,1.2,1.2,0,0,0,.321.058c.087.8.158,1.591.174,2.4.015.715.024,1.432.06,2.146m48.775,14.7a5.624,5.624,0,0,1,1.384.865c.395.324.938.822.828,1.4-.1.515-.765.945-1.15,1.253a8.14,8.14,0,0,1-1.354.895,3.216,3.216,0,0,1-2.548.252c-.922-.308-1.609-1.041-2.48-1.414.291-.309.576-.623.849-.945a18.319,18.319,0,0,0,2.239-3.239,19.305,19.305,0,0,0,2.232.935m.308-28.336c-.032,3.019-1.033,5.937-1.012,8.966.01,1.488.153,2.974.153,4.464a27.293,27.293,0,0,1-.372,4.553c-.452,2.685-.611,5.5-1.693,8.034a18.192,18.192,0,0,1-5.337,6.6,19.547,19.547,0,0,1-7.361,3.981,26.56,26.56,0,0,1-4.556.612,38.119,38.119,0,0,1-4.674.11,17.194,17.194,0,0,1-4.547-.741c-1.3-.418-2.587-.9-3.881-1.338a19.211,19.211,0,0,1-6.614-4.381,23.649,23.649,0,0,1-4.956-6.656,26.655,26.655,0,0,1-2.5-8.292c-.111-.752-.192-1.514-.369-2.253-.173-.723-.367-1.45-.5-2.185,0-.035,0-.072,0-.108.007-1.394-.137-2.764-.195-4.153a8.142,8.142,0,0,1,.283-2.9,5.492,5.492,0,0,1,2.007-2.461,24.886,24.886,0,0,1,3.87-2.379c1.353-.723,2.718-1.412,4-2.256a45.368,45.368,0,0,1,4.075-2.441c1.4-.724,2.9-1.229,4.353-1.819,1.487-.6,2.962-1.233,4.452-1.826a47.53,47.53,0,0,1,9.28-2.824,14.682,14.682,0,0,1,7.461.452c1.073.4,2.1.962,3.147,1.416a13.461,13.461,0,0,1,3.01,1.681,6.323,6.323,0,0,1,2.07,3.277,15.534,15.534,0,0,1,.4,4.865" transform="translate(-12.999 -13.586)" fill="#642e20"/>
                <path id="Trazado_875731" data-name="Trazado 875731" d="M66.919,59.771a6.682,6.682,0,0,0-.393-1.026c-.43-1.976-.578-4.258-1.785-5.943a5.776,5.776,0,0,0-4.592-2.034c-2.317-.126-4.64-.129-6.958-.217a61.934,61.934,0,0,0-7.464.129,22.688,22.688,0,0,0-6.718,1.462,16.811,16.811,0,0,0-5.738,3.63c-.762.8-1.4,1.686-2.209,2.438a8.976,8.976,0,0,0-1.9,2.411A11.279,11.279,0,0,0,27.5,67.057a16.951,16.951,0,0,0,.81,3.2c.341,1.032.653,2.075,1.009,3.1a32.779,32.779,0,0,0,2.841,6.151c2.035,3.382,4.723,6.5,8.376,8.167,3.985,1.815,8.4,1.32,12.474.057a17.284,17.284,0,0,0,5.9-2.885,26.045,26.045,0,0,0,4.733-5.444,26.644,26.644,0,0,0,3.124-5.669,19.559,19.559,0,0,0,1.083-6.682,26.741,26.741,0,0,0-.93-7.287m-.831,3.085c.161,1.154.183,2.321.337,3.476a16.848,16.848,0,0,1,.191,3.561c-.329,4.235-2.925,8.118-5.721,11.155-.71.772-1.38,1.582-2.155,2.293a17.269,17.269,0,0,1-2.773,2.028,23.174,23.174,0,0,1-5.718,2.444,14.03,14.03,0,0,1-11.785-1.848,17.086,17.086,0,0,1-3.516-3.33,29.583,29.583,0,0,0,3.041-4.316c.941-1.535,2.225-2.834,3.146-4.376.077-.129-.032-.3-.147-.149-1.056,1.381-2.2,2.732-3.126,4.206a33.71,33.71,0,0,1-3.054,4.417.214.214,0,0,0-.015.025,27.794,27.794,0,0,1-3.323-5.557,53.88,53.88,0,0,1-2-6.063,11.661,11.661,0,0,1-.76-3.146,9.169,9.169,0,0,1,.487-2.9,14.133,14.133,0,0,1,2.749-5.569,24.742,24.742,0,0,0,1.838-2.347,10.89,10.89,0,0,1,2.32-2.314c3.615-2.707,8.42-3.44,12.818-3.366q3.565.06,7.113.419c1.138.115,2.275.238,3.416.324a16.64,16.64,0,0,1,2.431.281,3.025,3.025,0,0,1,1.794,1A7.028,7.028,0,0,1,64.7,55.969c.006.028.011.058.017.086a10.188,10.188,0,0,0-2.2.386c-1.056.234-2.121.493-3.186.684a23.291,23.291,0,0,0-3.292.734,16.407,16.407,0,0,1-2.875.914c-.035,0-.037.081,0,.077a12.668,12.668,0,0,0,2.794-.729,20.528,20.528,0,0,1,3.159-.711c1.032-.17,2.045-.442,3.072-.637a11.982,11.982,0,0,1,2.581-.437c.279,1.33.481,2.7.849,4.006-1.847.377-3.7.789-5.525,1.258a30.625,30.625,0,0,0-5.148,1.81,36.2,36.2,0,0,0-9.223,5.916c-.029.026,0,.117.035.084A40.585,40.585,0,0,1,55,63.618a29.293,29.293,0,0,1,5.336-1.831c1.783-.427,3.593-.724,5.384-1.107l.011.038c.115.715.259,1.431.358,2.137" transform="translate(-18.758 -28.292)" fill="#642e20"/>
                <path id="Trazado_875732" data-name="Trazado 875732" d="M39.04,86.251a9.5,9.5,0,0,0-1.048,1.282c-.35.465-.693.935-1.053,1.393-.65.825-1.5,1.461-2.153,2.285-.038.048,0,.142.057.08.684-.788,1.579-1.361,2.228-2.181.35-.443.685-.9,1.026-1.349s.728-.9,1.029-1.39c.034-.055-.013-.188-.086-.12" transform="translate(-21.674 -42.531)" fill="#642e20"/>
                <path id="Trazado_875733" data-name="Trazado 875733" d="M60.522,64.685a30.1,30.1,0,0,0-12.34,8.356c-.032.036,0,.14.046.1a47.821,47.821,0,0,1,5.6-4.829,29.645,29.645,0,0,1,6.725-3.514c.048-.019.029-.126-.026-.107" transform="translate(-27.011 -33.945)" fill="#642e20"/>
                <path id="Trazado_875734" data-name="Trazado 875734" d="M167.586,36.692a11.276,11.276,0,0,0-4.133-5.205,8.977,8.977,0,0,0-2.717-1.429c-1.049-.356-1.989-.91-3.009-1.328a16.827,16.827,0,0,0-6.719-.982,22.7,22.7,0,0,0-6.732,1.4,61.86,61.86,0,0,0-6.87,2.919c-2.082,1.023-4.2,1.972-6.268,3.029a5.774,5.774,0,0,0-3.368,3.726c-.416,2.031.376,4.176.787,6.155a6.759,6.759,0,0,0,.058,1.1,26.78,26.78,0,0,0,2.114,7.035,19.575,19.575,0,0,0,3.709,5.663,26.648,26.648,0,0,0,5.16,3.907,26.064,26.064,0,0,0,6.539,3.047,17.277,17.277,0,0,0,6.559.236c4.234-.5,8.471-1.847,11.372-5.127,2.66-3.006,3.846-6.951,4.329-10.868a32.82,32.82,0,0,0,.093-6.775c-.093-1.083-.233-2.162-.341-3.244a16.894,16.894,0,0,0-.563-3.256m-.265,4.239a54.017,54.017,0,0,1,.639,6.353,24.426,24.426,0,0,1-1.677,9.135,5.63,5.63,0,0,1-.934-.4,7.2,7.2,0,0,1-.875-.662c-.588-.507-1.106-1.087-1.669-1.618-.682-.643-1.439-1.223-2.17-1.81-.837-.671-1.689-1.311-2.569-1.926-.04-.029-.089.054-.054.085.81.715,1.62,1.429,2.439,2.134.757.652,1.572,1.265,2.269,1.982.523.538.954,1.157,1.476,1.7a3.2,3.2,0,0,0,1.814,1.1l.014,0a15.214,15.214,0,0,1-.759,1.427,13.165,13.165,0,0,1-2.1,2.632.257.257,0,0,0-.1-.039.379.379,0,0,0-.14.008h-.006l-.052,0-.043,0-.1-.01L162.677,61,162.642,61c-.03-.009-.061-.02-.09-.031a4.113,4.113,0,0,1-.463-.195c-.163-.083-.325-.169-.488-.252a1.126,1.126,0,0,0-.223-.1,1.741,1.741,0,0,0-.193-.038.063.063,0,0,0-.034.008c-.314-.224-.612-.476-.9-.727-.7-.609-1.4-1.181-2.137-1.743-1.761-1.342-3.433-2.8-5.164-4.176a30.688,30.688,0,0,0-5.142-3.316,27.022,27.022,0,0,0-2.712-1.316,11.9,11.9,0,0,1-2.626-.853c-.045-.031-.074.071-.042.1A8.166,8.166,0,0,0,145,49.421c.935.369,1.81.881,2.708,1.329a30.269,30.269,0,0,1,2.762,1.5,30.052,30.052,0,0,1,2.775,2.112c1.745,1.424,3.443,2.9,5.243,4.26,1.219.919,2.28,2.319,3.769,2.814l.052.041c-.028-.021-.018-.014,0,0l.033.028c.028.026.055.051.086.075s.06.04.09.06a14.475,14.475,0,0,1-7.266,3.266,23.167,23.167,0,0,1-6.218.094,17.3,17.3,0,0,1-3.358-.724c-1-.334-1.938-.8-2.9-1.218-3.79-1.637-7.742-4.127-9.765-7.862a16.814,16.814,0,0,1-1.275-3.33c-.329-1.117-.783-2.193-1.106-3.313-.09-.312-.171-.63-.251-.949.5-.1.994-.259,1.494-.379.1-.023.135-.188,0-.171a8.25,8.25,0,0,0-1.533.412c-.084-.337-.167-.675-.256-1.011a36.732,36.732,0,0,0-.795-3.869,2.622,2.622,0,0,0,.264-.1c.149-.06.3-.114.456-.159s.314-.064.464-.116a2.286,2.286,0,0,1,.465-.111c.049-.005.075-.1.02-.12a3.236,3.236,0,0,0-.446-.094,1.52,1.52,0,0,0-.5.044c-.164.031-.327.072-.488.119a1.28,1.28,0,0,0-.329.133c-.035-.161-.07-.321-.1-.481a7.018,7.018,0,0,1-.191-2.946,3.025,3.025,0,0,1,1.233-1.639,16.678,16.678,0,0,1,2.107-1.245c1.007-.543,2-1.117,2.988-1.686q3.093-1.771,6.328-3.277c3.988-1.856,8.675-3.142,13.079-2.14a10.858,10.858,0,0,1,3.06,1.17,24.66,24.66,0,0,0,2.635,1.4,14.13,14.13,0,0,1,4.776,3.97,9.165,9.165,0,0,1,1.623,2.447,11.672,11.672,0,0,1,.585,3.184" transform="translate(-58.681 -19.223)" fill="#642e20"/>
                <path id="Trazado_875735" data-name="Trazado 875735" d="M163.785,56.185c-1.008-.568-1.993-1.172-3.037-1.672a23.262,23.262,0,0,0-7.027-1.768c-.042-.006-.106.067-.048.081a34.023,34.023,0,0,1,6.858,1.926c.971.463,1.888,1.018,2.826,1.544a10.239,10.239,0,0,1,2.557,1.81c.081.085.266-.046.2-.146a6.433,6.433,0,0,0-2.326-1.775" transform="translate(-69.039 -29.188)" fill="#642e20"/>
                <path id="Trazado_875736" data-name="Trazado 875736" d="M189.548,20.935a5.242,5.242,0,0,0-1.627-1.584,12.964,12.964,0,0,0-2.091-1.044c-.754-.311-1.5-.662-2.262-.947a6.738,6.738,0,0,0-2.395-.491,2.817,2.817,0,0,0-1.533.363,1.258,1.258,0,0,0-.2,1.651,2.4,2.4,0,0,0,1.512.893,7.682,7.682,0,0,1,2.1.983,13.02,13.02,0,0,1,2,1.886.206.206,0,0,0,.109.062,7.572,7.572,0,0,1,.8,1.334,22.9,22.9,0,0,1,.849,2.211c.36,1.081,1.032,3.2,2.45,3.191s1.64-1.66,1.767-2.748c.018-.164-.232-.531-.331-.241a3.129,3.129,0,0,1-.714,1.427c-.439.362-.913-.2-1.177-.552a6.889,6.889,0,0,1-.788-1.66,15.357,15.357,0,0,0-.843-1.8,11.442,11.442,0,0,0-3.34-3.65,6.715,6.715,0,0,0-1.029-.641l-.09-.061A7.408,7.408,0,0,0,181.2,18.7a6.675,6.675,0,0,1-.745-.3,1.446,1.446,0,0,1-.135-.086,3.07,3.07,0,0,1,.3-.1c.259-.042.524-.076.786-.093a6.3,6.3,0,0,1,2.16.328,18.058,18.058,0,0,1,3.878,1.5,5.253,5.253,0,0,1,1.8,1.526c.417.607.771,1.25,1.211,1.843.05.066.084-.049.066-.091a18.24,18.24,0,0,0-.975-2.287" transform="translate(-79.23 -14.894)" fill="#642e20"/>
                <path id="Trazado_875737" data-name="Trazado 875737" d="M27.046,49.806c-.014.016-.031.03-.046.046a1.309,1.309,0,0,0-1.228-1.012,5.483,5.483,0,0,0-2.649.73,11.64,11.64,0,0,0-3.179,2.709,21.275,21.275,0,0,0-2.578,2.834A8.461,8.461,0,0,0,16.1,58.724c-.134,1-.18,2.3.674,3.007,1.085.9,2.4.168,3.2-.73a8.363,8.363,0,0,0,1.655-3.913,13.079,13.079,0,0,1,.555-2.318,6.373,6.373,0,0,1,1.432-2.08c.854-.858,2.047-1.3,2.953-2.071a.3.3,0,0,0,.244-.1,1.05,1.05,0,0,0,.159-.3c.066-.075.137-.146.2-.228s-.028-.289-.119-.186M22.12,53.753c-1.243,1.8-1.686,4.011-2.774,5.9a3.072,3.072,0,0,1-1.118,1.3A1.123,1.123,0,0,1,16.7,60.5a2.8,2.8,0,0,1-.152-1.609,7.856,7.856,0,0,1,.329-1.716,8.47,8.47,0,0,1,1.67-2.827c.715-.845,1.4-1.69,2.189-2.473a7.132,7.132,0,0,1,3.416-2.043,5.225,5.225,0,0,1,1.126-.07,2.732,2.732,0,0,1,.633.087,1.727,1.727,0,0,0,.179.064.681.681,0,0,0,.179.541c-.631.412-1.357.7-1.984,1.111a8.227,8.227,0,0,0-2.166,2.185" transform="translate(-14.203 -27.631)" fill="#642e20"/>
                <path id="Trazado_875738" data-name="Trazado 875738" d="M52.243,56.231a3.209,3.209,0,0,0-2.237.546,8.147,8.147,0,0,0-3.334,1.536,1.808,1.808,0,0,0-.5.72c-.053.064-.108.125-.158.193a.248.248,0,0,0,.061.369,3.606,3.606,0,0,0,1.705,2.581,2.608,2.608,0,0,0,1.088.467,2.529,2.529,0,0,0,1.48-.3,6.456,6.456,0,0,0,2.053-2.33,4.058,4.058,0,0,0,1.041-2.35,1.5,1.5,0,0,0-1.2-1.434m-.075,3.251a9.247,9.247,0,0,1-.759.978,5.125,5.125,0,0,1-1.022.777,1.881,1.881,0,0,1-1.776.31c-.745-.271-1.945-1.324-1.912-2.254A5.346,5.346,0,0,1,48.818,58a8.612,8.612,0,0,1,2.6-1.281,1.216,1.216,0,0,1,1.4.81,2.361,2.361,0,0,1-.652,1.949" transform="translate(-26.133 -30.56)" fill="#642e20"/>
                <path id="Trazado_875739" data-name="Trazado 875739" d="M41.93,64.782c-.455-.55-1.1-1.354-1.874-1.387-.876-.036-1.429.755-1.882,1.386-.546.76-1.168,1.438-1.767,2.154a5.023,5.023,0,0,0-1.2,1.913,14.443,14.443,0,0,0-1.248,3,9.188,9.188,0,0,0-.381,4.369c.248,1.135,1.062,2.155,2.329,1.785a4.827,4.827,0,0,0,2.359-2.249,29.918,29.918,0,0,0,1.816-3.505,25.155,25.155,0,0,1,2.07-3.748,2.9,2.9,0,0,0,.76-1.877,3.85,3.85,0,0,0-.985-1.847m-.574,3.724c-.6,1.009-1.173,2.052-1.692,3.1-.464.941-.917,1.888-1.452,2.79a6.148,6.148,0,0,1-1.876,2.281c-.8.464-1.415-.185-1.635-.959a8.387,8.387,0,0,1,.024-3.505A12.575,12.575,0,0,1,37.5,66.459c.187-.185.375-.369.552-.562a5.465,5.465,0,0,1,1.518-1.432c.636-.291,1.186.35,1.58.774a3.652,3.652,0,0,1,1.089,1.618c.066.549-.621,1.2-.887,1.649" transform="translate(-21.148 -33.431)" fill="#642e20"/>
                <path id="Trazado_875740" data-name="Trazado 875740" d="M149.539,37.7a4.78,4.78,0,0,0-1.151-.666.2.2,0,0,0-.147,0,2.965,2.965,0,0,0-3.051-.015,15.177,15.177,0,0,0-2.781,1.505,9.963,9.963,0,0,0-2.127,2.16,21.47,21.47,0,0,0-3.124,5.4,13.161,13.161,0,0,0-1.014,4.851c.049,2.457,1.164,6.3,4.189,6.442,1.092.052,1.708-.978,1.829-1.948a14.53,14.53,0,0,0-.2-3.487,13.949,13.949,0,0,1-.153-1.606,6.486,6.486,0,0,1,.873-2.883,16.111,16.111,0,0,1,1.936-2.912,34.506,34.506,0,0,1,2.663-2.926c.11-.1.019-.429-.131-.3-.725.635-1.548,1.123-2.233,1.8a14.876,14.876,0,0,0-1.729,2.078,9.83,9.83,0,0,0-1.972,4.759c-.117,1.825.75,3.748-.032,5.52-.384.871-1.532.781-2.276.469-1.289-.541-1.864-2.05-2.124-3.321-.678-3.321.709-6.861,2.406-9.671a11.334,11.334,0,0,1,4.74-4.256,6.5,6.5,0,0,1,2.963-1.07,4.041,4.041,0,0,1,2.281,1.293c.005,0,.01,0,.016.008v0a2.872,2.872,0,0,1-.605,1.092c-.261.32-.53.626-.772.961-.159.22.157.294.3.161a10.145,10.145,0,0,0,1.025-1.01,3.108,3.108,0,0,0,.675-1.3,1.194,1.194,0,0,0-.279-1.145" transform="translate(-62.064 -22.763)" fill="#642e20"/>
              </g>
            </g>
          </g>
        </g>
      </g>
    </g>
  </g>
</svg>
