<svg xmlns="http://www.w3.org/2000/svg" xmlns:xlink="http://www.w3.org/1999/xlink" width="820" height="141.739" viewBox="0 0 820 141.739">
  <defs>
    <clipPath id="clip-path">
      <path id="Rect치ngulo_403238" data-name="Rect치ngulo 403238" d="M30,0H820a0,0,0,0,1,0,0V111.739a30,30,0,0,1-30,30H0a0,0,0,0,1,0,0V30A30,30,0,0,1,30,0Z" fill="#567d56" stroke="#707070" stroke-width="1"/>
    </clipPath>
    <linearGradient id="linear-gradient" x1="0.787" y1="0.406" x2="0.352" y2="0.464" gradientUnits="objectBoundingBox">
      <stop offset="0" stop-color="#f3fdf1"/>
      <stop offset="1" stop-color="#94ee7f"/>
    </linearGradient>
    <clipPath id="clip-path-2">
      <rect id="Rect치ngulo_403237" data-name="Rect치ngulo 403237" width="481.935" height="511.412" fill="#94ee7f"/>
    </clipPath>
  </defs>
  <g id="img-2" transform="translate(-3612.182 3802.654)">
    <g id="Enmascarar_grupo_1098878" data-name="Enmascarar grupo 1098878" transform="translate(3612.182 -3802.654)" clip-path="url(#clip-path)">
      <path id="Recurso_1" data-name="Recurso 1" d="M0,0H832.833V196.117H0Z" transform="translate(832.833 151.545) rotate(180)" fill="url(#linear-gradient)"/>
      <g id="Grupo_1103355" data-name="Grupo 1103355" transform="translate(15.858 -85.788)" opacity="0.37" style="mix-blend-mode: multiply;isolation: isolate">
        <g id="Grupo_1103354" data-name="Grupo 1103354" transform="translate(0)" clip-path="url(#clip-path-2)">
          <path id="Trazado_887007" data-name="Trazado 887007" d="M260.075,89.86A17.4,17.4,0,0,0,259.5,83.8a6.781,6.781,0,0,0-3.659-3.852c-4.215-2.173-9.951-3.04-14.979-3.281a20.708,20.708,0,0,0-8.1,1.343c-2.772,1.01-5.364,2.28-8.372,2.881a14.274,14.274,0,0,1-8.524-.687,47.522,47.522,0,0,0-7.555-2.89,52.523,52.523,0,0,0-8.79-.8c-2.817-.162-5.96-.449-8.111-1.963a17.054,17.054,0,0,1-4.031-4.853c-1.132-1.7-2.167-3.443-3.271-5.158-2.015-3.128-4.272-6.278-7.935-8.512-4.154-2.53-9.574-3.046-14.762-2.561-3.43.317-6.77,1.071-10.233,1.23a110.816,110.816,0,0,1-12.289-.452q-3-.206-6-.458a50.936,50.936,0,0,0-5.2-.311,37.912,37.912,0,0,0-9.076,1.663c-2.968.8-6.284,1.776-9.5,1.593-3.013-.171-9.906-3.363-10.192-2.42-2.522-.29-4.816.781-6.766,1.908-.282.162-.552.33-.826.5-3.365,1.273-6.639,2.677-9.881,4.123-.09.04-.18.082-.274.122a55.7,55.7,0,0,0-7.293,2.082A50.049,50.049,0,0,0,65.568,67.5c-.36.229-.7.473-1.051.705-.826.33-1.643.668-2.486.98-.041.015-.049.089.012.067.695-.244,1.374-.513,2.065-.769-2.441,1.627-4.808,3.312-7.2,4.978-.339.238-.6.583-.433.94.989,2.094,4.227,2.405,5.715,4.175a6.2,6.2,0,0,1,1.2,3.745A12.66,12.66,0,0,1,62.85,86.9c-.826,2.753-2.22,5.411-2.7,8.222-.47,2.768.654,5.439.523,8.2a21.294,21.294,0,0,0,0,4.084,14.291,14.291,0,0,0,1.047,3.47,22.85,22.85,0,0,0,4.415,6.736,19.656,19.656,0,0,0,6.913,4.52,56.485,56.485,0,0,1,7.89,3.73c4.256,2.634,6.23,7.093,7.763,10.933,1.288,3.232,2.567,6.568,5.564,9.187,3.593,3.141,8.781,4.133,14.063,4.627,2.993.278,6.173.272,8.953,1.258,3.082,1.093,5.388,3.241,7.571,5.134a37.352,37.352,0,0,1,6.349,6.77,13.912,13.912,0,0,1,2.51,7.762c.159,5.015-3.127,9.712-5.11,14.385a18.847,18.847,0,0,0-1.284,7.936c.029,1.541.11,3.083-.008,4.621a21.064,21.064,0,0,1-1.075,4.45,19.508,19.508,0,0,0-1.063,7.881c.127,1.151.691,2.213.883,3.357a10.143,10.143,0,0,1,.065,2.942c-.527,4.072-2.608,8.046-2.371,12.172a8.8,8.8,0,0,0,6.512,7.661,7,7,0,0,0,6.95-2.133,21.857,21.857,0,0,0,4.46-7.493,48.045,48.045,0,0,1,3.324-7.176,32.832,32.832,0,0,1,4.844-5.405c2.347-2.335,4.816-4.6,7.31-6.852,4.235-3.83,11.365-4.007,16.892-6.333a26.3,26.3,0,0,0,11.079-8.973c3.168-4.215,5.266-9.05,9.3-12.868,4.2-3.974,11.071-4.969,16.688-7.4a12.634,12.634,0,0,0,5.993-4.948c1.21-1.975,1.811-4.12,3.013-6.1a11.059,11.059,0,0,1,2.616-2.994c1.067-.836,2.363-1.471,3.54-2.213a13.164,13.164,0,0,0,4.963-6.214c1.243-2.658,2.6-5.286,3.818-7.951a32.074,32.074,0,0,1,4.321-7.627c1.934-2.317,4.072-4.5,5.76-6.925,1.713-2.457,2.751-5.076,4.211-7.609,1.509-2.622,3.5-5.073,5.184-7.63a31.26,31.26,0,0,0,3.831-8c1.431-4.636,1.554-9.5,1.713-14.238M256.114,105.9c-2.163,5.39-6.7,9.91-9.333,15.145a45.557,45.557,0,0,1-4.342,7.45c-1.795,2.365-4.1,4.526-5.67,6.98a62.374,62.374,0,0,0-3.769,7.45c-1.222,2.61-2.477,5.234-3.786,7.823a9.747,9.747,0,0,1-2.477,3.428,34.909,34.909,0,0,1-3.467,2.173,13.963,13.963,0,0,0-5.024,5.387c-1.075,2.005-1.664,4.175-3.095,6.071-1.648,2.191-4.387,3.376-7.346,4.413s-6.05,1.929-8.867,3.2a19.753,19.753,0,0,0-6.4,4.493c-3.655,3.9-5.822,8.476-9.006,12.587a26.2,26.2,0,0,1-4.8,4.945,24.852,24.852,0,0,1-7.367,3.684c-2.809.925-5.826,1.413-8.655,2.3a17.909,17.909,0,0,0-7.183,4.252c-2.408,2.249-4.812,4.508-7.073,6.846a32.933,32.933,0,0,0-4.493,5.186c-1.365,2.219-2.077,4.63-3.2,6.919a28.411,28.411,0,0,1-4.579,7.359,5.182,5.182,0,0,1-6.414,1.215,9.47,9.47,0,0,1-4.317-3.888,9.616,9.616,0,0,1-.63-5.772c.54-3.956,2.437-7.856,2.334-11.855a33.711,33.711,0,0,0-.486-3.559,14.679,14.679,0,0,1,.082-4.081c.409-2.781,1.263-5.515,1.435-8.32.172-2.771-.159-5.558.319-8.32.466-2.716,1.954-5.3,3.234-7.847,2.15-4.294,4.558-8.989,3.213-13.625a17.591,17.591,0,0,0-4.211-6.812,70.8,70.8,0,0,0-6.611-6.3,20.708,20.708,0,0,0-7.289-4.4,39.425,39.425,0,0,0-8.418-1.343c-5.27-.449-10.3-1.526-13.654-4.795-2.694-2.631-4.3-6.1-5.728-9.208-1.7-3.693-3.6-7.621-7.808-10.136-2.4-1.435-5.212-2.387-7.7-3.718a24.118,24.118,0,0,1-6.655-5.317,21.6,21.6,0,0,1-4.125-6.764,11.3,11.3,0,0,1-.74-4.014,30.8,30.8,0,0,0,.025-4.12c-.172-1.334-.613-2.64-.724-3.977a11.858,11.858,0,0,1,.63-4.383c.818-2.7,2.056-5.335,2.437-8.107.3-2.176.429-4.8-1.059-6.767-1.226-1.624-3.97-2.173-5.135-3.766a121.359,121.359,0,0,1,11.7-7.78q3.557-1.46,7.068-2.973c1.648-.473,3.332-.87,5.016-1.322a32.369,32.369,0,0,0,8.5-3.461c.973-.592,2.024-1.3,3.156-1.9a17.991,17.991,0,0,1,3.4-.94,10.87,10.87,0,0,1,4.6.461c2.674.766,5.18,1.886,8.131,1.883a34.724,34.724,0,0,0,8.871-1.569,34.35,34.35,0,0,1,9.207-1.593c1.864.015,3.737.272,5.584.424q2.894.238,5.8.418a107.885,107.885,0,0,0,11.753.339c3.405-.165,6.692-.879,10.049-1.294,5.4-.665,10.719-.027,14.766,2.9,3.418,2.469,5.544,5.8,7.539,8.973,1.038,1.654,2.044,3.321,3.172,4.941a14.365,14.365,0,0,0,4.223,4.578c4.571,2.719,11.193,1.465,16.488,2.539,2.747.555,5.045,1.843,7.543,2.8a15.344,15.344,0,0,0,7.6.94,32.13,32.13,0,0,0,8.512-2.6c2.612-1.1,5.237-2.14,8.328-2.039a52.58,52.58,0,0,1,7.481.955,31.7,31.7,0,0,1,7.629,2.191c2.134.989,3.414,2.262,3.871,4.111a20.66,20.66,0,0,1,.307,6.162c-.29,4.969-.429,9.932-2.355,14.733" transform="translate(174.568 109.851)" fill="#94ee7f"/>
          <path id="Trazado_887008" data-name="Trazado 887008" d="M89.544,78.012a4.135,4.135,0,0,0,.961-2.249,7.833,7.833,0,0,0-.474-3.226,7.517,7.517,0,0,0-1.983-3.284c-1.2-1.138-3.217-1.776-4.959-2.335a17.43,17.43,0,0,1-5.351-2.3c-3.009-2.289-3.524-5.6-5.486-8.342a12.353,12.353,0,0,0-11.925-4.651,46.085,46.085,0,0,0-7.584,2.289c-1.226.433-2.465.858-3.733,1.224a11.3,11.3,0,0,0-2.9,1.23c-1.533.968-2.314,2.356-1.881,3.846.536,1.831,2.653,3.232,4.583,4.291A29.627,29.627,0,0,1,51.79,66.3c.932.668,1.762,1.407,2.69,2.079,1.864,1.358,4.383,2.06,6.324,3.354s3.581,2.823,5.642,4.023a24.783,24.783,0,0,0,6.5,2.573c1.169.29,2.379.488,3.585.662,1.341.2,2.665.418,4.006.623a11.742,11.742,0,0,0,3.52.177,14.815,14.815,0,0,0,2.015-.464,4.8,4.8,0,0,0,2.747-.693c.245-.012.858-.586.728-.62m-11.255.818c-4.7-.739-9.239-2.173-12.7-4.709a50.938,50.938,0,0,0-5.008-3.7c-.908-.516-1.9-.937-2.845-1.407a10.422,10.422,0,0,1-2.809-1.99,21.8,21.8,0,0,0-2.073-2.158,23.527,23.527,0,0,0-2.477-1.575c-1.815-1.056-3.777-2.2-4.485-3.913-.621-1.5,1.136-2.5,2.661-3.211a46.167,46.167,0,0,1,7.068-2.53,18.953,18.953,0,0,1,7.216-.791A15.226,15.226,0,0,1,69.087,55.1c3.066,1.938,3.994,4.81,5.666,7.408a10.567,10.567,0,0,0,3.181,3.324,22.927,22.927,0,0,0,4.746,2.152A15.815,15.815,0,0,1,87.786,70.5a5.2,5.2,0,0,1,1.733,3.363,5.5,5.5,0,0,1-.466,3.37,2.131,2.131,0,0,1-.715.717,12.247,12.247,0,0,0-2.1.443c-.225-.009-1.251.1-1.386.32a19.134,19.134,0,0,1-6.566.119" transform="translate(136.533 106.054)" fill="#94ee7f"/>
          <path id="Trazado_887009" data-name="Trazado 887009" d="M94.55,48.624a2.9,2.9,0,0,0-1.66-1.706,8.592,8.592,0,0,0-3.107-.452,66.783,66.783,0,0,0-7.04.8,23.051,23.051,0,0,1-9.395-.983c-1.521-.446-3-.989-4.554-1.361a42.335,42.335,0,0,0-4.959-.9,28.4,28.4,0,0,0-9.235.186c-3.315.757-5.715,2.713-6.267,5.277a9.462,9.462,0,0,0,1.913,7.337,11.054,11.054,0,0,0,1.893,2.045c2.735,2.948,8.953,2.43,12.78,1.065,2.682-.955,5.2-2.179,8.119-2.677a17.677,17.677,0,0,1,4.665-.2c1.329.125,2.62.378,3.957.47a20.385,20.385,0,0,0,8.2-.653,7.253,7.253,0,0,0,4.051-3.431,5.556,5.556,0,0,0,.642-4.816m-3.234,6.541c-1.459,1.34-4.027,1.4-6.169,1.392-2.559-.012-5.1-.262-7.669-.262a27.681,27.681,0,0,0-3.965.262c-1.28.192-2.465.543-3.7.824-3.626.809-7.461,2.744-11.349,2.671-.02-.2-.319-.366-.744-.259.3-.076-.033,0-.123,0s-.2.006-.307,0a4.012,4.012,0,0,1-.572-.079,4.472,4.472,0,0,1-1.251-.455,8.281,8.281,0,0,1-2.351-1.981,11.766,11.766,0,0,1-2.792-5.811A.99.99,0,0,1,50.672,51c.123-.089-.078-.162-.184-.1a1.646,1.646,0,0,0-.241.2l-.008-.058A4.792,4.792,0,0,1,53.169,45.8c1.742-.742,4.248-.7,6.165-.684a56.258,56.258,0,0,1,9.309,1.123c2.956.51,5.834,1.3,8.826,1.688a33.3,33.3,0,0,0,7.019-.125,22.208,22.208,0,0,1,6.2.061,2.905,2.905,0,0,1,2.453,3.012,5.669,5.669,0,0,1-1.827,4.288" transform="translate(149.082 90.227)" fill="#94ee7f"/>
          <path id="Trazado_887010" data-name="Trazado 887010" d="M211.776,31.431c-.335-1.825-2.028-3.672-3.549-5.064a17.676,17.676,0,0,0-7.064-4.014c-2.776-.8-5.777-1.1-8.5-2.005-5.437-1.81-10.053-4.746-15.645-6.352a65.714,65.714,0,0,0-16.831-2.539,85.8,85.8,0,0,0-17.2,1.621c-12.048,2.24-23.491,5.769-34.8,9.538-5.744,1.914-11.41,3.962-17.039,6.065-5.106,1.911-10.257,3.711-14.709,6.425a103.766,103.766,0,0,0-11.124,8.284c-1.823,1.477-3.667,2.945-5.617,4.334-2.02,1.438-4.182,2.738-6.378,4.02-4.317,2.524-8.5,5.131-11.48,8.613a61.8,61.8,0,0,0-4.62,6.489c-1.427,2.161-3.078,4.239-4.505,6.4s-2.809,4.34-4,6.58a24.3,24.3,0,0,0-2.412,6.733c-.47,2.32-.748,4.667-1.423,6.959a27.52,27.52,0,0,1-1.692,4.154c-1.492,3.092-3.238,6.123-4.4,9.3-1.042,2.851-1.688,5.961-.54,8.851a9.388,9.388,0,0,0,3,3.843,49.476,49.476,0,0,0,6.386,4.062,56.648,56.648,0,0,0,7.028,3.452,53.56,53.56,0,0,1,5.633,2.228,5.8,5.8,0,0,1,3.275,4.3,43.394,43.394,0,0,1,.143,4.374,5.163,5.163,0,0,0,1.276,3.534c1.21,1.239,3.377,1.728,5.335,1.84,4.828.284,9.918-2.17,14.5-.327,2.228.9,4.137,2.137,6.206,3.211a20.221,20.221,0,0,0,6.974,2.243,38.752,38.752,0,0,0,8.516-.15c2.727-.287,5.466-.626,8.131-1.141a26.314,26.314,0,0,1,7.784-.742c1.958.2,3.892.638,5.826.943a41.667,41.667,0,0,0,6.623.662c1.672,0,3.5-.232,4.554-1.3,1.128-1.151,1.075-2.768,1.32-4.117a10.209,10.209,0,0,1,1.684-4.38,7.453,7.453,0,0,1,3.814-2.643,62.281,62.281,0,0,0,6.181-2.127A6.735,6.735,0,0,0,136.1,130.1a6.2,6.2,0,0,0-.728-4.771,8.815,8.815,0,0,0-3.078-3.6,6.225,6.225,0,0,0-2.58-.9,11.348,11.348,0,0,0-7.416.507c-2.719,1.077-4.988,2.637-7.976,3.336a12.8,12.8,0,0,1-7.064-.528,19.144,19.144,0,0,1-7.167-3.882c-1.709-1.636-2.952-3.9-2.261-6,.764-2.317,4.158-3.739,6.684-4.893a36.869,36.869,0,0,0,8.14-5.057c3.871-3.235,6.026-8.3,11.451-10.3a.849.849,0,0,0,.793.037c2.167-.745,4.493.491,6.144,1.453,2.036,1.184,3.986,2.411,6.091,3.534a38.893,38.893,0,0,1,3.81,2.216c1.153.8,2.236,1.648,3.344,2.481a9.117,9.117,0,0,0,5.58,2.191,8.129,8.129,0,0,0,5.736-3.08,6.5,6.5,0,0,0,1.235-5.613,9.654,9.654,0,0,0-2.228-4.984c-1.087-1.193-2.592-2.173-3.43-3.489-1.1-1.728-.454-3.522.18-5.283a13.9,13.9,0,0,1,3.569-5.506,51.77,51.77,0,0,1,5.331-4c1.521-1.1,3.16-2.549,3.328-4.191a22.429,22.429,0,0,0-.691-6.1c-.343-1.938-.8-4.166.368-6,.875-1.377,2.6-2.13,4.374-2.753,1.868-.653,3.818-1.209,5.6-1.987a14.6,14.6,0,0,0,5.323-3.891c1.4-1.633,2.367-3.446,3.679-5.118a7.92,7.92,0,0,1,5.237-3.208c2.179-.385,4.456-.342,6.651-.653a36.224,36.224,0,0,0,7.567-2.045,64.749,64.749,0,0,0,7.007-2.961c1.656-.842,3.377-1.984,3.074-3.626m-2.453,1.764a19.419,19.419,0,0,1-3.115,1.66c-1.1.568-2.183,1.154-3.32,1.688a30.062,30.062,0,0,1-7.4,2.335c-2.175.4-4.415.382-6.627.6a12.037,12.037,0,0,0-5.707,1.773,17.922,17.922,0,0,0-4.121,4.526,19.891,19.891,0,0,1-4.145,4.618,19.5,19.5,0,0,1-5.486,2.439c-3.594,1.178-7.428,2.729-8.168,5.9-.442,1.9.123,3.779.679,5.631a7.663,7.663,0,0,1,.4,3.272,10.383,10.383,0,0,1-1.01,3.016c-.675,1.477-2.224,2.515-3.7,3.559a21.76,21.76,0,0,0-4.885,4.34,17.334,17.334,0,0,0-2.649,5.329c-.495,1.557-1.018,3.18-.258,4.74a16.18,16.18,0,0,0,2.874,3.4,11.593,11.593,0,0,1,2.6,4.719c.581,1.938.781,4.285-.887,5.973a5.819,5.819,0,0,1-6.01,1.444,13.98,13.98,0,0,1-3.021-1.535c-1.1-.681-2.265-1.3-3.446-1.9a79.45,79.45,0,0,1-7.289-4.178c-2.723-1.77-6.1-4.789-10.139-3.4a.924.924,0,0,0-.262.131,10.172,10.172,0,0,0-2.342.559,11.666,11.666,0,0,0-3.266,1.944c-2.007,1.648-3.381,3.687-5.049,5.521a39.236,39.236,0,0,1-7.976,6.553c-2.514,1.59-5.822,2.616-7.78,4.658a5.316,5.316,0,0,0-.72,6.107,11.4,11.4,0,0,0,5.033,5.469,21.183,21.183,0,0,0,8.27,2.607,14.526,14.526,0,0,0,7.727-2.063,31.262,31.262,0,0,1,4.6-2.326,10.489,10.489,0,0,1,5.249-.33,6.092,6.092,0,0,1,3.45,1.673c.388.406.711.842,1.092,1.251a3.867,3.867,0,0,0,1.157.907,18.265,18.265,0,0,1,.679,1.813,3.646,3.646,0,0,1-1.333,4.42c-1.619,1.163-3.778,1.639-5.826,2.21a14.55,14.55,0,0,0-4.726,2.008,7.573,7.573,0,0,0-3,3.87c-.323,1.456.135,2.936-.159,4.38a3.587,3.587,0,0,1-.854,1.944,3.092,3.092,0,0,1-2.02.6c-3.986.2-7.841-1.169-11.668-1.77-5.012-.784-9.8.775-14.656,1.48-5.466.794-11.259,1.535-16.369-.568-4.015-1.651-7.6-4.719-12.448-4.9-4.534-.171-9.452,2.246-13.8.351-3.181-1.389-2.375-4.89-2.588-7.194a6.356,6.356,0,0,0-1.856-4.267,13.569,13.569,0,0,0-4.554-2.494,59.764,59.764,0,0,1-6.12-2.487,66.69,66.69,0,0,1-6.692-4.328,19.616,19.616,0,0,1-4.771-3.772,7.678,7.678,0,0,1-1.594-4.075c-.27-3.052.928-6.092,2.249-8.949,1.349-2.924,3.021-5.766,4.231-8.726,1.594-3.9,1.6-8.018,2.9-11.964,1.513-4.6,4.934-8.65,7.428-12.953,2.461-4.239,4.779-8.641,8.79-12.227,3.512-3.144,8.078-5.4,12.244-8.012A110.336,110.336,0,0,0,67.9,42.122a72.55,72.55,0,0,1,11.251-7.878,67.7,67.7,0,0,1,7.33-3.2q4-1.575,8.021-3.11A284.55,284.55,0,0,1,128.067,17.1c5.666-1.4,11.443-2.625,17.305-3.479a82.286,82.286,0,0,1,16.77-1.007,59.015,59.015,0,0,1,16.77,3.348c5.09,1.892,9.591,4.725,15.036,6.059,2.743.675,5.646,1.056,8.156,2.173a16.564,16.564,0,0,1,6.087,4.771c.854,1.071,2.584,3.08,1.132,4.227" transform="translate(54.749 23.956)" fill="#94ee7f"/>
          <path id="Trazado_887011" data-name="Trazado 887011" d="M63.4,50.711a2.189,2.189,0,0,0-1.39-.949,14.737,14.737,0,0,0-5.372-.339,22.194,22.194,0,0,0-3.1.449,5.333,5.333,0,0,0-2.281.983c-.168.15-.339.473-.02.6.936.366,1.725.907,2.6,1.337a2.4,2.4,0,0,0,1.345.354,7.288,7.288,0,0,0,1.316.726,5.728,5.728,0,0,0,3.279.412,5.445,5.445,0,0,0,3.3-2.033,1.525,1.525,0,0,0,.327-1.541M62.012,51.84a4.936,4.936,0,0,1-2.273,1.285,4.421,4.421,0,0,1-2.387-.482c-1.394-.6-2.915-1.578-4.579-1.746.176-.073.491-.189.715-.263a12.572,12.572,0,0,1,2.314-.47,16.068,16.068,0,0,1,4.988.1,2.745,2.745,0,0,1,1.415.626c.278.3.106.65-.192.946" transform="translate(157.966 101.701)" fill="#94ee7f"/>
          <path id="Trazado_887012" data-name="Trazado 887012" d="M70.645,44.246a3.254,3.254,0,0,0-1.823-.647c-.3-.018-.6-.009-.9,0a16.781,16.781,0,0,0-4.526-.089,3.726,3.726,0,0,0-2.535,1.239,1.893,1.893,0,0,0,.323,2.646,7.156,7.156,0,0,0,3.217,1.19,10.447,10.447,0,0,0,3.348.122,6.057,6.057,0,0,0,3.283-1.535,1.858,1.858,0,0,0-.384-2.927m-.429,1.917c.041-.156-.012.021-.024.049a.547.547,0,0,1-.045.079l-.049.073c-.069.079-.131.165-.208.241a3.356,3.356,0,0,1-.519.409,4.606,4.606,0,0,1-1.427.556,7.557,7.557,0,0,1-2.915-.037,6.8,6.8,0,0,1-2.8-.986,2.42,2.42,0,0,1-.209-.168.806.806,0,0,1-.155-.153,1.134,1.134,0,0,1-.127-.189c.061.122-.045-.223-.02-.064-.008-.046-.008-.092-.012-.137v-.012l0-.021a1.179,1.179,0,0,1,.037-.171l.061-.137c.012-.009.09-.125.114-.153l0-.006.074-.061c.025-.015.151-.1.172-.116a3.121,3.121,0,0,1,.491-.211,6.787,6.787,0,0,1,1.276-.226,17.422,17.422,0,0,1,3.287.1c.495.052.981.122,1.476.183.18.018.368.052.548.061l.025-.006a2.375,2.375,0,0,1,.793.531,1.62,1.62,0,0,1,.11.147l.033.052a.689.689,0,0,1,.033.095l.012.024v.009a1.149,1.149,0,0,1,0,.119l-.008.015a.58.58,0,0,0-.029.113" transform="translate(187.029 89.514)" fill="#94ee7f"/>
          <path id="Trazado_887013" data-name="Trazado 887013" d="M50.552,2.028c.147-.012.074-.021,0,0" transform="translate(156.421 4.601)" fill="#94ee7f"/>
          <path id="Trazado_887014" data-name="Trazado 887014" d="M479.63,172.319c-3.589-21.7-12.992-42.834-27.423-61.837s-33.883-35.86-56.944-49.274c-23.037-13.445-49.671-23.383-77.814-29.2a296.709,296.709,0,0,0-86.755-4.633c-6.418.6-12.8,1.431-19.116,2.451a.6.6,0,0,0,.425-.336c.213-.552-.11-1.267-.249-1.822-.2-.806-.454-1.605-.728-2.4-.074-.208-.164-.415-.237-.626,1.615-.952,4.17-1.041,6.116-1.319a71.861,71.861,0,0,1,7.911-.705c.883-.024,1.762-.034,2.641-.082A16.328,16.328,0,0,0,230,22.309c2.044-.446,1.958-2.13,1.7-3.418a8.092,8.092,0,0,1-.36-2c.053-.739.372-1.547-.3-2.188A4.981,4.981,0,0,0,228.2,13.9c-1.28-.128-2.559-.333-3.81-.574a17.649,17.649,0,0,1-6.88-2.527c-1.594-1.154-2.735-2.6-4.211-3.83-1.255-1.044-3.119-2.579-5.2-2.347a20.184,20.184,0,0,0-2.065.369c-.2.034-.4.076-.6.122-.045.009-.086.021-.131.027-.478.1-.969.2-1.459.25a4.862,4.862,0,0,1-.916.061A12.881,12.881,0,0,0,199.779,1.8,11,11,0,0,0,192.858.01a15.588,15.588,0,0,0-8.307,2.7,6.371,6.371,0,0,0-3,5.967A8.8,8.8,0,0,0,182,10.482a.192.192,0,0,0-.078.208l0,.015-.012-.018c-.4-.409-4.591,1.535-6.337,1.9-2.915.617-5.74,1.435-8.552,2.271-2.788.83-5.683,1.529-8.385,2.5-.74.266-1.464.552-2.187.842-4.166,1.288-8.287,2.658-12.3,4.191-6.32,2.408-12.465,5.125-18.573,7.823s-12.1,5.512-17.927,8.528a150.113,150.113,0,0,0-16.009,9.37c-1.639,1.129-3.205,2.31-4.755,3.5-.634.409-1.28.806-1.905,1.224a135.9,135.9,0,0,0-10.87,8.488c-4.133,3.183-8.152,6.443-11.937,9.871-4.387,3.971-8.512,8.113-12.387,12.37-1.778,1.953-3.487,3.943-5.319,5.872-1.795,1.889-3.643,3.751-5.429,5.646-3.5,3.714-6.97,7.615-8.949,11.943-.184.406-.339.821-.491,1.233-.474.766-.944,1.532-1.4,2.3a217.633,217.633,0,0,0-11.4,21.521c-1.652,3.73-3.042,7.517-4.362,11.317-.654,1.874-1.231,3.751-1.791,5.643a47.91,47.91,0,0,1-2.126,5.244c-.867,2-2.616,10.49-3.144,12.654-.258,1.047-.531,2.1-.8,3.15-.057-.015-.159.043-.151.1.025.107.029.217.045.324-.6,2.3-2.073,8.809-2.277,9.767A99.7,99.7,0,0,0,.575,192.491a110.012,110.012,0,0,0,.119,23.572,118.206,118.206,0,0,0,14.578,43.3c2.216,3.827,4.82,7.521,7.314,11.25,6.1,13.06,16.819,24.494,28.082,35.4a118.164,118.164,0,0,0,21.389,17.037c4.141,2.481,8.225,5,12.33,7.521s8.687,4.618,13.033,6.919A356.081,356.081,0,0,0,154.6,361.779c10.225,3.3,20.469,6.715,31.029,9.379,1.112.281,2.236.528,3.356.781a2.63,2.63,0,0,0,.662,1.132,8.392,8.392,0,0,1,1.1,1.23,6.252,6.252,0,0,1,.638,1.587,14.1,14.1,0,0,0,.564,1.434,13.379,13.379,0,0,1-.033,2.527c-.258,2.491-1.067,4.932-1.5,7.4-.1.6-.249,1.193-.364,1.792-.245.906-.5,1.813-.769,2.713-1.194,4.02-2.87,7.978-4.023,12.01a11.637,11.637,0,0,1-2.032,1.126c-1.447.607-2.98,1.126-3.79,2.274-1.913,2.707-1.717,6.031-2.649,8.952-.556,1.731-1.32,3.421-2,5.128a31.231,31.231,0,0,0-1.231,3.4q-7.837-.261-15.686-.159c-.339,0-.675,0-1.014,0-.834.015-1.668.052-2.5.076-3.475.085-6.954.2-10.425.412a172.513,172.513,0,0,0-30.146,4.239,64.177,64.177,0,0,0-13.879,4.963,25.234,25.234,0,0,0-5.642,3.968,13.093,13.093,0,0,0-1.488,1.755A65.375,65.375,0,0,0,81.7,444.85,30.521,30.521,0,0,0,75.1,450a14.175,14.175,0,0,0-3.737,6.819,10.368,10.368,0,0,0-.151,1.325,21.474,21.474,0,0,0,1.042,5.994,23.6,23.6,0,0,0,4.276,6.333,56.936,56.936,0,0,0,12.8,9.727,127.1,127.1,0,0,0,14.975,7.325c5.192,2.155,10.486,4.142,15.891,5.921,21.667,7.053,44.549,11.534,67.716,14.311a352.287,352.287,0,0,0,70.357,1.676A186.515,186.515,0,0,0,293,503.466c2.874-.83,5.715-1.773,8.462-2.875a8.443,8.443,0,0,0,.948-.394,58.829,58.829,0,0,0,6.611-3.22c.2-.122.392-.253.593-.379.384-.2.76-.4,1.157-.586A12.266,12.266,0,0,0,314.5,493.1a26.836,26.836,0,0,0,3.156-3.443,11.148,11.148,0,0,0,1.75-7.991c-.016-.1-.053-.2-.074-.308a13.035,13.035,0,0,0-.932-3.321,20.093,20.093,0,0,0-2.432-4.13c-.155-.235-.311-.47-.478-.7a26.817,26.817,0,0,0-3.647-4.1,14,14,0,0,0-4.423-3.257c-.139-.1-.274-.208-.413-.308a9.676,9.676,0,0,0-.92-2.985,19.1,19.1,0,0,0-3.749-4.981,52.444,52.444,0,0,0-11.181-7.792,152.088,152.088,0,0,0-26.941-10.85c-9.333-2.854-18.928-5.2-28.666-7.145.356-2.317-.057-4.832.258-7,.45-3.1,2.4-6.031,2.469-9.178a4.508,4.508,0,0,0-.352-2.127,5.8,5.8,0,0,0-1.987-1.932,14.579,14.579,0,0,1-3.021-2.582,16.55,16.55,0,0,1-1.537-2.243c.172-3.189.18-6.385.626-9.565.478-3.437,1.41-6.84,2.052-10.264.041-.22.069-.44.106-.662q.767-2.17,1.537-4.34a11.653,11.653,0,0,1,1.047-2.277c.119-.186.2-.375.307-.559.188-.095.368-.192.56-.278.548-.241,1.059-.449,1.623-.65,4.121.092,8.254.168,12.367.15,1.451-.006,2.894-.055,4.333-.125,2.4-.043,4.808-.134,7.212-.293,5.347-.354,10.731-.311,16.071-.684,5.188-.36,10.29-1.205,15.474-1.593a59.254,59.254,0,0,1,7.424-.4,11.479,11.479,0,0,0,2.841-.064,2.333,2.333,0,0,0,.249-.086A5.037,5.037,0,0,0,307.686,377a3.453,3.453,0,0,0,1.37.684,8.369,8.369,0,0,0,1.513.238,13.734,13.734,0,0,0,6.427-.4,8.774,8.774,0,0,0,4.661-2.808,5.963,5.963,0,0,0,.666-4.81,39.721,39.721,0,0,0-1.513-4.969c-.85-2.375-1.987-4.676-2.866-7.041-.364-.98-.625-1.981-1.055-2.948-.11-.25-.237-.51-.38-.769a272.986,272.986,0,0,0,51.27-15.8c25.547-10.829,48.2-25.418,66.228-42.709,18.062-17.275,31.409-37.242,39.206-58.333a126.62,126.62,0,0,0,6.418-65.02m-30.473-60.552a144.833,144.833,0,0,1,20.572,37.679c-.037-.006-.069-.018-.1-.021-.3-.04-.7.327-.331.452a4.35,4.35,0,0,1,.691.311l.11.327a4.92,4.92,0,0,1-2.984-.253,21.351,21.351,0,0,1-4.489-2.14c-1.312-.781-2.506-1.666-3.876-2.4-1.206-.647-2.486-1.209-3.732-1.81a12.567,12.567,0,0,1-2.841-1.654c-1.116-.989-.969-2.179-.944-3.391a8.591,8.591,0,0,0-.92-4.465c-1.39-2.558-4.272-4.511-7.044-6.254-2.98-1.871-6.721-3.718-8.25-6.519a4.99,4.99,0,0,1,.18-4.96c.74-1.337,1.876-2.643,2.261-4.075.388-1.447-.511-2.933-1.586-4.1-.768-.839-1.729-1.538-2.526-2.356-.781-.8-1.537-1.615-2.338-2.4a20.806,20.806,0,0,0-5.143-3.806c-1.623-.836-3.647-1.621-4.624-2.961-1.137-1.56-1.137-3.583-1.329-5.314a50.427,50.427,0,0,1-.253-6.187c.016-1.285.335-2.53.425-3.809v-.012a176.774,176.774,0,0,1,29.075,30.119M229.827,19.907c.008.092.02.2.033.314a1.339,1.339,0,0,0-.617.284,1.514,1.514,0,0,1-1.222.452c-.683.046-1.374.058-2.06.107-1.9.128-3.806.256-5.7.421a47.344,47.344,0,0,0-10.065,1.648c-.172-.427-.347-.852-.519-1.279,3.033-1.1,6.7-1.117,10-1.5,2.02-.235,4.072-.32,6.108-.443.953-.058,1.909-.107,2.862-.171.38-.027.773-.043,1.153-.089.012.085.029.168.037.253M204.047,6.914a6.751,6.751,0,0,0,1.578-.4c.241-.082.478-.171.72-.25.1-.034.213-.064.319-.1h0l-.016,0A3.562,3.562,0,0,0,207,6.1a7.257,7.257,0,0,1,1.312-.143c.208,0,.417.037.626.049a2.568,2.568,0,0,0,.462-.021c.119.076.229.159.343.238a.257.257,0,0,0,.2.012c.172.107.339.214.495.317a52.045,52.045,0,0,1,4.149,3.525,20.167,20.167,0,0,0,5.368,2.8,37.491,37.491,0,0,0,7.118,1.929c.875.14,2.408.131,2.616.955.168.665-.192,1.395-.147,2.075.029.391.09.775.151,1.163-.507.052-1.018.137-1.492.174-.985.079-1.966.171-2.948.262-1.979.186-3.957.409-5.924.659-3.23.415-6.778.452-9.7,1.676-.131-.314-.253-.632-.384-.943-1.116-2.622-2.167-5.234-3.054-7.905a41.8,41.8,0,0,0-2.363-5.854c-.024-.052-.057-.1-.082-.156.1,0,.2.006.29,0m-19.66-2.14c1.39-1.752,3.892-2.79,6.463-3.293,2.42-.476,5.225-.684,7.269.577a12.257,12.257,0,0,1,4.088,4.722,34.773,34.773,0,0,1,2.465,5.723c.9,2.585,1.877,5.128,3.025,7.661.711,1.572,1.423,3.144,2.015,4.743.294.791.568,1.59.8,2.393a7.025,7.025,0,0,1,.507,2.274l-.008.024a.229.229,0,0,0,.2.247l0,0a.714.714,0,0,0,.2.009c-.585.095-1.165.2-1.75.3a13.348,13.348,0,0,0-1.165-2.939c-.564-1.163-1.181-2.307-1.68-3.489-1.055-2.5-1.917-5.048-2.821-7.579-1.308-3.653-2.351-7.383-4.873-10.707a6.9,6.9,0,0,0-5.417-2.7c-.213,0-.487.308-.184.357,4.481.7,6.619,4.188,7.849,7.145.773,1.853,1.349,3.748,1.979,5.628.814,2.439,1.684,4.862,2.543,7.292.458,1.3.924,2.594,1.492,3.873.482,1.09.854,2.191,1.263,3.29q-4,.7-7.976,1.489a22.714,22.714,0,0,0-1.778-2.646c-.683-.955-1.365-1.914-2.028-2.878-1.316-1.926-2.612-3.861-3.9-5.8a66.432,66.432,0,0,1-6.006-10.475c-.842-1.966-.9-4.1,1.4-5.518.061-.04.049-.171-.045-.119-3.688,2.014-2.461,6.272-1.067,8.967a105.283,105.283,0,0,0,7.735,11.983c.826,1.169,1.635,2.344,2.441,3.522.719,1.047,1.316,2.155,2.032,3.2-.54.113-1.087.211-1.627.324a17.142,17.142,0,0,0-2.028-3.437c-.928-1.309-1.909-2.594-2.907-3.87l-.09-.116a.228.228,0,0,0-.11-.15c-1.733-2.222-3.377-4.459-4.885-6.773a34.084,34.084,0,0,1-3.712-6.849c-.76-2.109-1.271-4.441.3-6.422m-73.4,318.749c-5.723-3.074-11.61-5.955-17.17-9.19-1.259-.848-2.5-1.712-3.716-2.594-2.375-1.731-4.6-3.565-6.884-5.36-1.092-.858-2.15-1.737-3.226-2.6-5.1-4.633-14.64-13.466-18.111-17.55q-2.821-3.319-5.454-6.724c-.495-.757-1-1.514-1.517-2.265-1.566-2.256-3.176-4.5-4.656-6.785a71.182,71.182,0,0,1-4.055-7.368c-2.547-5.207-5.339-10.386-7.485-15.7a85.16,85.16,0,0,1-4.207-15.337c-1.051-5.2-2.347-10.347-3.716-15.5-.932-4.676-1.733-8.741-2.024-10.066A62.548,62.548,0,0,1,27.189,196.1,77.979,77.979,0,0,1,27.5,185.99a114.713,114.713,0,0,1,3.119-20.169c1.807-6.809,4.252-13.521,6.333-20.285,1.141-3.708,2.261-7.423,3.41-11.128a.254.254,0,0,0,.11-.217c0-.055.012-.116.012-.174.192-.617.392-1.233.593-1.85.061-.122.123-.244.18-.36.437-.916.94-1.813,1.378-2.729.425-.891.732-1.81,1.075-2.723.54-1,1.1-2,1.66-3.006,1.476-2.61,2.927-5.2,4.562-7.765a71.348,71.348,0,0,1,5.335-7.453c.977-1.172,1.991-2.326,2.882-3.534.421-.577.822-1.16,1.222-1.743,1.132-1.178,2.289-2.347,3.426-3.522,2.167-2.24,4.019-4.615,6.1-6.895,4.313-4.719,9.669-8.86,14.885-13.021,2.625-2.091,5.278-4.166,8.009-6.178s5.6-3.916,8.4-5.875c2.649-1.856,5.274-3.724,8.013-5.5,2.755-1.792,5.674-3.391,8.651-4.972,6.026-3.2,11.995-6.468,18.156-9.526a150.006,150.006,0,0,1,19.3-8.259c6.823-2.274,14.059-3.739,20.927-5.927a99.634,99.634,0,0,1,9.9-2.927,39.717,39.717,0,0,0,6.7-1.575c.1-.04.184-.092.278-.134a5.8,5.8,0,0,0,1.57-.455l.053-.015c.09.116.184.235.274.357,1.022,1.364,1.913,2.8,2.993,4.142a269.612,269.612,0,0,0-48.674,15.313c-25.306,10.741-47.7,25.223-65.578,42.333C64.8,107.284,51.493,127.038,43.68,147.939a125.9,125.9,0,0,0-6.97,64.526c3.3,21.6,12.293,42.742,26.43,61.84s33.3,36.159,56.253,49.787,49.622,23.758,77.875,29.765a298.468,298.468,0,0,0,87.336,5.03c4.419-.4,8.814-.922,13.192-1.526.233.555.5,1.1.728,1.657l.033.1c-1.308.1-2.637.327-3.912.519-1.439.22-2.87.458-4.3.69-1.149.186-2.3.348-3.455.494-3.859.232-7.727.378-11.582.424-4.17.049-8.315.012-12.481.177-4.194.168-8.4.36-12.592.156-4.354-.211-8.708-.72-13.029-1.166q-6.568-.678-13.111-1.453c-8.683-1.013-17.416-1.929-26.058-3.11a168.643,168.643,0,0,1-23.7-5.216c-3.851-1.1-7.665-2.283-11.471-3.467-3.937-1.224-7.931-2.372-11.749-3.791-3.712-1.38-7.285-2.948-10.85-4.526-3.487-1.544-7.089-2.979-10.482-4.639-6.594-3.226-12.4-7.252-18.8-10.686m4.186,3.385c-.209-.116-.417-.232-.625-.345q-3.422-1.877-6.807-3.788c2.2,1.157,4.395,2.332,6.517,3.58.307.183.609.369.916.552M81.839,55.461c-1.791,1.355-3.589,2.707-5.38,4.062-.527.4-1.042.8-1.566,1.2Q78.242,58,81.839,55.461M92.064,453.82a33.706,33.706,0,0,1-.6,4.175,38.04,38.04,0,0,0-.854,4.6c-.045.439-.119.879-.155,1.309a4.543,4.543,0,0,1-.789-1.477,16.523,16.523,0,0,1-.372-5.921,49.375,49.375,0,0,1,1.173-6.4c.274-1.209.5-2.408.67-3.626a1.132,1.132,0,0,1,.016-.116,9.708,9.708,0,0,0,.9,2.845,13.762,13.762,0,0,0,.883,1.5,7.889,7.889,0,0,0-.875,3.113m7.064,3.08a59,59,0,0,0,8.046,5.06q1.637.865,3.328,1.679a10.753,10.753,0,0,1-.6,3.571c-.372,1.23-.695,2.451-.948,3.7q-.448,2.2-.916,4.4c-.143.668-.335,1.331-.47,2a5.141,5.141,0,0,0-.123.815c-1.022-.5-2.036-1.022-3.033-1.557a56.272,56.272,0,0,1-8.258-5.338,56.81,56.81,0,0,1,1.325-8.1,25.821,25.821,0,0,1,1.169-3.6,5.6,5.6,0,0,0,.478-2.631m48.9,19.54c8.25,2.051,16.655,3.763,25.142,5.2a8.444,8.444,0,0,1-.576,2.5c-.266,1.322-.556,2.643-.916,3.95s-.748,2.622-1.083,3.94a23.216,23.216,0,0,1-1.01,3.8c-8.487-1.4-16.888-3.074-25.146-5.088.581-2.6,1.353-5.173,2-7.762.311-1.242.691-2.481,1.042-3.717a7.269,7.269,0,0,0,.552-2.82m25.334,5.231q9.9,1.676,19.926,2.866c2.146.253,4.3.479,6.451.7a47.667,47.667,0,0,0-1.231,7.142,55.306,55.306,0,0,1-1.132,7.05c-2.338-.22-4.673-.452-7-.711q-10.259-1.167-20.416-2.829a70.945,70.945,0,0,1,1.97-8.271c.4-1.334.736-2.674,1.087-4.017a4.553,4.553,0,0,0,.348-1.929m77.4,11.427c-.5,2.622-.912,5.244-1.6,7.841q-11.614.5-23.249.2c.217-1.218.139-2.472.233-3.7.114-1.529.368-3.052.609-4.572.213-1.315.18-2.665.482-3.968a3.355,3.355,0,0,0,.159-1.871q12.228.311,24.451-.345a10.764,10.764,0,0,1-.478,2.814c-.258,1.193-.384,2.4-.609,3.6m1.329-6.425c.781-.046,1.558-.073,2.334-.122,4.656-.323,9.309-.76,13.92-1.358,0,.116.029.244.033.366.016.708.029,1.413-.008,2.118-.074,1.3-.237,2.6-.437,3.888-.4,2.634-.785,5.271-1.186,7.905-5.118.653-10.29,1.09-15.457,1.383-.478.024-.953.037-1.427.058.18-1.319.237-2.643.425-3.959.192-1.343.478-2.677.732-4.014.241-1.273.38-2.564.7-3.824a7.969,7.969,0,0,0,.376-2.442m-25.551,6.806c-.368,2.549-.695,5.1-1.149,7.643-1.541-.043-3.087-.073-4.628-.137q-11.424-.462-22.8-1.5c.409-2.39.691-4.783.936-7.182.245-2.353.973-4.685,1.169-7.035,8.937.9,17.935,1.5,26.949,1.746a10.289,10.289,0,0,1-.184,2.289c-.082,1.4-.09,2.777-.294,4.172M147.1,479.672c-.274,1.23-.67,2.442-.957,3.669-.576,2.451-1.517,4.853-2.056,7.31-4.288-1.053-8.544-2.182-12.747-3.425q-4.483-1.341-8.863-2.872a5.942,5.942,0,0,1,.433-2.9c.364-1.2.625-2.408.924-3.614q.969-3.882,1.656-7.792c.012-.064-.151-.043-.164.012-.626,2.686-1.116,5.381-1.877,8.049-.36,1.264-.728,2.524-1.136,3.782a5.716,5.716,0,0,0-.4,2.262,134.9,134.9,0,0,1-13.908-5.756,9.657,9.657,0,0,1,.159-1.63c.151-.656.29-1.309.421-1.969.294-1.508.609-3.016.924-4.523.241-1.169.617-2.317.924-3.476a5.82,5.82,0,0,0,.221-3.089c3.123,1.5,6.357,2.872,9.656,4.142q6.819,2.61,13.908,4.8,6.752,2.046,13.667,3.754a15.225,15.225,0,0,1-.785,3.269M98.065,460.065a21.662,21.662,0,0,0-1.01,3.473c-.315,1.416-.666,2.829-.908,4.255-.164.983-.417,2.021-.486,3.037-.421-.342-.859-.678-1.263-1.032a15.821,15.821,0,0,1-1.468-1.987c-.437-.72-.715-1.477-1.157-2.191a19.08,19.08,0,0,0,.2-3.165,28.642,28.642,0,0,1,.008-4.471c.159-1.285.3-2.564.4-3.852a10.269,10.269,0,0,1,.687-3.241,22.554,22.554,0,0,0,2.813,3.321c.924.864,1.917,1.682,2.943,2.472a6.839,6.839,0,0,1-.76,3.382M313.34,472.673a29.151,29.151,0,0,1,4.513,8.006,10.922,10.922,0,0,1-.6,7.771,12.511,12.511,0,0,1-2.7,3.7,14.093,14.093,0,0,1-3.671,3.238c-1.623.833-3.123,1.782-4.75,2.607-1.443.733-2.923,1.438-4.35,2.191-2.882,1.163-34.148,9.84-75.995,8.833-11.7-.281-25.87-1.825-37.448-3.107-23.119-2.625-46.217-6.046-67.9-12.926-10.805-3.473-21.324-7.673-30.739-13.207a55.545,55.545,0,0,1-12.121-10.142,22.367,22.367,0,0,1-4.149-6.046,10.97,10.97,0,0,1-.5-6.809,11.872,11.872,0,0,1,2.911-6.327,29.786,29.786,0,0,1,6.439-4.92A62.453,62.453,0,0,1,92,441.172a8.476,8.476,0,0,0-.854,2.286,5.771,5.771,0,0,0-.09.794,9.4,9.4,0,0,0-.466,1.383c-.319,1.178-.724,2.338-1.079,3.507a62.087,62.087,0,0,0-1.725,6.928c-.049.278-.078.555-.114.833a9.156,9.156,0,0,0-.278,1.9,8.675,8.675,0,0,0,.164,1.8c.041.58.106,1.157.2,1.728a5.437,5.437,0,0,0,1.243,2.729c.76.876,1.611,1.7,2.293,2.616a23.735,23.735,0,0,0,5.638,5.207c.131.092,4.759,2.738,7.167,4.007,1.116.592,2.253,1.16,3.4,1.712a1.136,1.136,0,0,0,.09.253c.065.122.27.046.356-.046,3.013,1.431,6.12,2.75,9.292,3.971,1.566.6,3.148,1.178,4.734,1.743a.192.192,0,0,0,.176.064c2.964,1.056,5.961,2.06,9,2.991a345.44,345.44,0,0,0,59.066,11.891,339.877,339.877,0,0,0,61.134,2.011,180.331,180.331,0,0,0,28.339-3.928.7.7,0,0,0,0,.095c0,.128.282.049.278-.055a.821.821,0,0,1,0-.1,22.229,22.229,0,0,0,3.037-.757c1.28-.348,2.592-.626,3.863-.989a37.933,37.933,0,0,0,6.958-2.787,30.583,30.583,0,0,0,6.206-3.852,9.77,9.77,0,0,0,1.137-1.19c.078-.092.168-.174.241-.269a5.128,5.128,0,0,0,.613-.992,10.576,10.576,0,0,0,.777-1.715,49.671,49.671,0,0,0,2.236-6.849l.012-.015c.012-.015,0-.024,0-.037.029-.134.053-.262.074-.375.417-2.4,1-4.792,1.292-7.2.045-.345.1-.687.147-1.032a7.6,7.6,0,0,0,.372-1.242,7.5,7.5,0,0,0,.135-1.81c1.93,2.176,4.57,4,6.275,6.287m-7.175-1.953c-.339,2.213-.94,4.407-1.378,6.608-.078.394-.155.787-.237,1.181a4.029,4.029,0,0,0-.413,1.111,19,19,0,0,1-1.083,2.854c-.769,1.776-1.157,3.711-2.592,5.283a15.989,15.989,0,0,1-2.956,2.463,23.6,23.6,0,0,0,.822-3.1c.368-1.267.818-2.518,1.145-3.791a23.791,23.791,0,0,0,.7-3.678c.11-1.215-.11-2.561.613-3.69.065-.1-.086-.159-.151-.058a5.206,5.206,0,0,0-.687,2.924,20.48,20.48,0,0,1-.544,3.641c-.307,1.358-.748,2.7-1.165,4.038-.4,1.3-.442,2.719-1.112,3.953-.818.531-1.672,1.041-2.555,1.532a40.948,40.948,0,0,1-4.791,2.277c.617-2.286.916-4.633,1.427-6.931a22.694,22.694,0,0,0,.944-6.626c0-.049-.09-.015-.09.021a29,29,0,0,1-1.128,6.95c-.478,2.213-1.051,4.45-1.374,6.678-.581.226-1.169.437-1.77.629-1.4.455-2.854.781-4.288,1.154-1.181.305-2.338.638-3.528.925.09-1.776.977-3.5.846-5.3,0-.031-.065-.012-.065.012.094,1.828-.936,3.543-1.051,5.353-.123.031-.241.067-.364.092a.233.233,0,0,0-.159.143c-4.031.873-8.131,1.544-12.264,2.075.63-2.521.8-5.122,1.2-7.667.192-1.221.421-2.439.523-3.666.049-.565.074-1.129.069-1.694a6.823,6.823,0,0,0-.049-.958,1.93,1.93,0,0,1-.074-.3c4.616-.61,9.186-1.4,13.671-2.423.437.928-.221,1.987-.437,2.9-.294,1.251-.372,2.536-.6,3.8-.008.037.086.021.094-.012.159-.7.307-1.41.441-2.115.119-.629.155-1.267.327-1.889.229-.852.715-1.85.262-2.7.711-.162,1.427-.317,2.13-.491a65.22,65.22,0,0,0,13.8-4.926,25.01,25.01,0,0,0,5.58-3.907,11.475,11.475,0,0,0,2.412-3.315c-.033.217-.074.427-.1.641M235.1,433.493c4.914,1.218,10.077,1.85,15.057,2.89,2.543.534,5.082,1.05,7.633,1.566.7.14,1.394.281,2.085.433.9.25,1.807.494,2.706.754.061.018.123.037.184.052.38.11.76.208,1.136.317A155.224,155.224,0,0,1,290.941,450a50.4,50.4,0,0,1,11.21,7.673,19.04,19.04,0,0,1,3.765,4.92,9.485,9.485,0,0,1,.9,2.942l-.049.186c.033.024.065.052.1.076l.008.052c-.008-.07-.029-.012-.057.125l0,.03c-.127.693-.392,3.119-.47,3.614a11.161,11.161,0,0,1-2.629,3.69,24.856,24.856,0,0,1-5.564,3.855,62.369,62.369,0,0,1-13.781,4.81,174.654,174.654,0,0,1-30.011,3.946c-10.159.51-20.359.549-30.526.131s-20.31-1.148-30.387-2.268a347.046,347.046,0,0,1-59.029-11.491,146.026,146.026,0,0,1-26.929-10.655,50.944,50.944,0,0,1-11.1-7.719,21.085,21.085,0,0,1-3.013-3.69l.008-.021c.016-.028-.008-.043-.045-.046-.229-.372-.446-.748-.638-1.135a8.417,8.417,0,0,1-.818-5.488,9.931,9.931,0,0,1,3.038-5.021,24.543,24.543,0,0,1,5.5-3.794,63.243,63.243,0,0,1,13.7-4.774A157.579,157.579,0,0,1,136.4,426.5c2.976-.073,5.952-.186,8.929-.305,3.34-.134,6.672-.3,10.02-.357s6.676.04,10.016.183c1.525.064,3.07.04,4.575.226a12.665,12.665,0,0,0,3.377.14,5.062,5.062,0,0,0,.184,1.422c-.025.159-.053.317-.094.476a13.447,13.447,0,0,0-1.271,3.235c-.343.815-.691,1.63-1.006,2.451-.4,1.044-.781,2.094-1.177,3.141-.777,1.529-1.594,3.043-2.338,4.581a26.233,26.233,0,0,0-1.832,4.206,8.659,8.659,0,0,0-.258,3.956,9.2,9.2,0,0,0,2.154,3.983,24.556,24.556,0,0,0,7.126,5.4,42.066,42.066,0,0,0,8.548,3.412,62.192,62.192,0,0,1-6-1.666,26.266,26.266,0,0,1-4.158-1.95c-1.247-.671-2.592-1.257-3.745-2.017-1.169-.769-2.257-1.663-3.336-2.506a8.853,8.853,0,0,1-2.653-3.052c-.02-.049-.159-.006-.143.04.638,2.075,2.543,3.464,4.346,5.024a20.148,20.148,0,0,0,3.655,2.368c1.255.684,2.432,1.441,3.737,2.076a42.219,42.219,0,0,0,9.035,2.878c3.238.726,15.408,1.807,17.178,1.99a98.17,98.17,0,0,0,10.641.671c1.758-.012,3.508-.156,5.249-.311,1.6-.143,3.226-.253,4.816-.458a23.045,23.045,0,0,0,7.064-2,17.314,17.314,0,0,0,6.034-4.636c.033-.043-.025-.122-.082-.067a17.824,17.824,0,0,1-5.507,3.831,26.614,26.614,0,0,1-7.13,1.88c-.307.04-.613.061-.924.092.7-.1,1.386-.217,2.077-.336a18.579,18.579,0,0,0,3.512-.845,10.337,10.337,0,0,0,4.779-3.565,10.112,10.112,0,0,0,1.476-3.113,4.637,4.637,0,0,0,.155-1.569c-.012-.146-.033-.3-.057-.452a1.2,1.2,0,0,1,.016-.125,55.772,55.772,0,0,0-.45-6.382,34.637,34.637,0,0,1,.3-6.974c.278-2.075.67-4.133.834-6.208a6.168,6.168,0,0,0,1.026-1.773m-6.451-20.425c-.27,1.34-.409,2.869-1.966,3.739a20.179,20.179,0,0,1-1.975,1.077,4.954,4.954,0,0,1-1.1.311,4.088,4.088,0,0,0-.474.085c-.347.1-.274.134-.6-.006-.417-.177-1.153.293-.72.574.278.186.388.409.646.586a1.733,1.733,0,0,0,1.047.186,4.24,4.24,0,0,0,.45-.052,9.523,9.523,0,0,0,4.35-1.1,7.292,7.292,0,0,0,1.721-1.218,3.773,3.773,0,0,0,1.349-1.529,5.825,5.825,0,0,0,.372-2.787c-.094-1.569-.278-3.135-.352-4.706a8.838,8.838,0,0,0,2.163,2.75c.331.281.683.549,1.026.821.27.537.765.995,1.038,1.547.437.885-.192,1.767-.793,2.524a15.073,15.073,0,0,1-4.849,3.693,26.948,26.948,0,0,1-6.827,2.567c-1.292.281-2.633.437-3.941.659-1.267.214-2.58.327-3.831.586-.037.009-.049.067,0,.061,1.455-.244,2.972-.269,4.44-.485a42.483,42.483,0,0,0,4.472-.775,32.145,32.145,0,0,0,7.216-2.954,14.42,14.42,0,0,0,4.894-4.111,2.828,2.828,0,0,0,.356-.72c.02.082.053.162.07.247a11.915,11.915,0,0,1-.36,4.239c-.286,1.438-.7,2.851-1.063,4.279a29.478,29.478,0,0,0-.617,5.308c-.143,1.978-.266,4.059-1.439,5.878-.916,1.422-2.731,2.384-4.542,3.119a52.565,52.565,0,0,1-5.9,1.923,38.988,38.988,0,0,1-18.07.262c-.188-.04-.507.189-.253.263a37.581,37.581,0,0,0,16.332.586,55.893,55.893,0,0,0,6.512-1.593,17.507,17.507,0,0,0,5.687-2.7c.106-.085.2-.177.294-.266-.348,1.5-.646,3-.883,4.514-.491.247-.9.559-1.431.772-.6.238-1.263.4-1.9.577-1.419.406-2.833.818-4.289,1.138a38.511,38.511,0,0,1-4.293.711,17.973,17.973,0,0,0-3.385.388c-.024.009-.02.052.012.043a20.68,20.68,0,0,1,3.929-.336,29.711,29.711,0,0,0,4.374-.659c1.263-.29,2.5-.644,3.737-.989a15.215,15.215,0,0,0,3.14-1.05,34.844,34.844,0,0,0-.4,5.561c.057,3.675.92,7.493-.6,11.064a9.152,9.152,0,0,1-1.574,2.259,9.314,9.314,0,0,1-3.553,2.133,6.652,6.652,0,0,0,.634-.974,17.662,17.662,0,0,0,1.423-4.246c.4-1.706.76-3.421,1.1-5.137a16.239,16.239,0,0,0,.241-6.654c-.037-.177-.307-.052-.286.085.495,3.736-.671,7.557-1.492,11.226a13.761,13.761,0,0,1-1.333,3.788,6.368,6.368,0,0,1-1.194,1.611,7.456,7.456,0,0,1-1.513.888.486.486,0,0,0-.151.14c-.278.061-.556.122-.838.177-3.2.641-6.48.818-9.746,1.145-1.684.168-3.369.351-5.053.507-.613.058-1.231.095-1.848.134-2.6-.012-5.2-.1-7.751-.3-7.4-.6-14.775-1.755-21.144-4.74-.912-.427-1.819-.894-2.69-1.395-.548-.568-1.161-1.1-1.774-1.624a.147.147,0,0,0-.041-.137c-2.608-2.613-1.6-5.921-1.137-8.921a29.3,29.3,0,0,1,1.57-6.519c.711-1.776,1.836-3.623,1.7-5.515-.012-.14-.241-.012-.241.085.041,1.7-.953,3.36-1.615,4.957a44.625,44.625,0,0,0-1.607,5.668c-.65,2.429-1.611,4.828-1.329,7.334-.069-.119-.147-.235-.217-.354a12.157,12.157,0,0,1-1.872-5.863c-.057-2.3,1.157-4.358,2.134-6.489a64.544,64.544,0,0,0,2.457-6.889,35.27,35.27,0,0,0,1.149-3.882c.065-.336.147-.69.221-1.05a12.445,12.445,0,0,0,3.9,3.943,36.03,36.03,0,0,0,5.658,3.07,24.231,24.231,0,0,0,6.66,2.085.094.094,0,0,0,.045-.183,35.8,35.8,0,0,1-6-2.048,29.491,29.491,0,0,1-4.91-2.964c-2.461-1.789-5.266-4.044-5.2-6.782a2.78,2.78,0,0,1,.041-.311.8.8,0,0,0,.147-.269c.041.082.074.165.123.244a7.576,7.576,0,0,0,1.754,1.724c.834.684,1.721,1.334,2.559,2.017a11.969,11.969,0,0,0,2.531,1.743c.045.018.065-.046.033-.064a15.8,15.8,0,0,1-2.351-1.74c-.756-.626-1.578-1.209-2.326-1.841a8.232,8.232,0,0,1-1.582-1.813,3.23,3.23,0,0,1-.433-.949,3.752,3.752,0,0,1-.09-.824c.3-.949.7-1.892,1.059-2.78.6-1.511,1.239-3.009,1.774-4.532.985-2.829.908-5.869,2.31-8.616a3.9,3.9,0,0,1,1.795-1.822c.76-.4,1.6-.7,2.379-1.081A10.189,10.189,0,0,0,185,404.7c-.2.769-.388,1.538-.544,2.311-.45,2.289-.908,4.822.2,7.053.033.073.086.125.123.192a3.281,3.281,0,0,0,.3.458,5.886,5.886,0,0,0,2.755,1.792c2.428,1.624,5.805,2.445,8.929,3.1a84.446,84.446,0,0,0,9.321,1.547,28.364,28.364,0,0,0,9.035-.3c.266-.061.274-.336-.049-.3a45.5,45.5,0,0,1-16.05-1.239,47.922,47.922,0,0,1-5.417-1.581c.319-1.425.789-2.817,1.091-4.249.36-1.7,1.063-3.345,1.545-5.027.417-1.45.658-2.915,1.006-4.374a7.555,7.555,0,0,0,.45-3.632c-.008-.037-.114-.015-.11.018.2,1.264-.4,2.518-.728,3.742-.421,1.609-.671,3.235-1.177,4.832-.495,1.566-1.026,3.119-1.443,4.7a10.538,10.538,0,0,1-.924,2.176,5.988,5.988,0,0,0-.621,1.453c-.078-.034-.151-.07-.229-.1a.193.193,0,0,0-.074-.125,8.228,8.228,0,0,0-2.052-1.1,9.6,9.6,0,0,0,.863-2.567c.294-1.224.478-2.46.695-3.693.478-2.741,1.194-5.457,1.811-8.183a52.1,52.1,0,0,0,1.32-8.43,54.762,54.762,0,0,1,1.3-8.329c.544-2.521,1.218-5.143.585-7.694-.012-.043-.078-.024-.065.015.548,2.344-.016,4.758-.527,7.081-.572,2.591-1.177,5.186-1.5,7.8a68.331,68.331,0,0,1-1.459,8.164c-.687,2.759-1.48,5.5-2.081,8.268-.278,1.285-.474,2.579-.76,3.864a32.206,32.206,0,0,1-1.055,3.269,8.662,8.662,0,0,1-1.656-1.517,5.435,5.435,0,0,1-.773-4.941q.852-3.649,2-7.252a101.235,101.235,0,0,0,3.773-13.924c.213-1.257.4-2.521.605-3.782a30.279,30.279,0,0,0,.928-4.358,12.485,12.485,0,0,0,.053-2.762,15.516,15.516,0,0,0,.278-3.36l-.016-.186c.041-.116.074-.232.123-.348,7.8,1.529,15.764,2.619,23.732,3.577,2.322.278,4.656.507,6.995.708a11.037,11.037,0,0,0-.155,1.932c-.065,1.157-.168,2.307-.262,3.464-.188,2.246-.327,4.5-.466,6.742-.143,2.3-.4,4.594-.527,6.892-.094,1.709.834,3.708-.274,5.311-.025.037.061.037.086.006,1.034-1.4.495-3.214.478-4.74-.029-2.256.4-4.548.568-6.8.184-2.481.343-4.963.67-7.438.143-1.068.3-2.13.409-3.2.049-.507.1-1.016.192-1.52.037-.192.1-.385.155-.577,1.157.095,2.314.2,3.471.269l.041.018,0,.076a.934.934,0,0,0-.033.25c-.029.156-.07.311-.1.47-.106.552-.208,1.1-.315,1.657-.233,1.218-.274,2.451-.392,3.678-.237,2.5-.6,4.984-.9,7.478a143.945,143.945,0,0,0-1.116,14.687c-.037,2.234-1.071,4.435-.56,6.672.012.043.119.021.115-.021-.278-2.277.883-4.511.9-6.785.02-2.613.208-5.225.437-7.832.466-5.289,1.361-10.542,2.052-15.813a38.945,38.945,0,0,1,.781-4.017,3.278,3.278,0,0,0,.106-.455c1.231.067,2.469.116,3.708.147a4.713,4.713,0,0,0-.871,1.459,18.31,18.31,0,0,0-1.177,3.705c-.286,1.67-.4,3.351-.654,5.021s-.609,3.339-.948,5a72.61,72.61,0,0,0-1.3,9.95,73.548,73.548,0,0,1-.977,9.913m74.793-40.023c-1.075.116-2.163.153-3.246.192-2.42.082-4.8.388-7.2.617-.634.058-1.263.11-1.9.165-.008-.088-.082-.153-.286-.11-.462.1-.932.177-1.4.256-4.133.342-8.283.638-12.383,1.129-.446.037-.891.07-1.333.11-5.356.491-10.666,1.221-16.03,1.645-1.251.1-2.5.162-3.745.211-1.787.058-3.573.079-5.36.092q-2.4,0-4.808-.058c-1.427-.064-2.854-.156-4.284-.229a31.523,31.523,0,0,0-5.065.043c-3.291-.073-6.578-.18-9.869-.455v-.006c-.016-.229-.384-.15-.585-.037-5.47-.485-10.895-1.218-16.308-1.981-4.869-.687-9.713-1.395-14.5-2.338a.456.456,0,0,0-.249-.049c-.478-.095-.957-.18-1.431-.281-1.1-.229-2.183-.479-3.266-.733-.049-.012-.1-.037-.143-.046a.533.533,0,0,0-.069,0c-9.509-2.222-18.642-5.186-27.82-8.076-10.106-3.183-20.106-6.483-29.684-10.49-9.444-3.95-18.932-7.966-27.808-12.6-4.321-2.262-8.569-4.6-12.939-6.806-4.35-2.2-8.217-4.737-12.26-7.231-4.125-2.545-8.475-4.9-12.305-7.7a129.9,129.9,0,0,1-10.368-8.5c-6.431-5.817-12.4-11.952-18.07-18.194-4.01-4.413-12.158-16.6-14.231-19.882-2.183-3.47-4.5-6.9-6.615-10.4A123.068,123.068,0,0,1,2.427,217.8,96.342,96.342,0,0,1,1.4,206.5c-.106-4.035.09-8.07.368-12.1.307-4.456,1.709-15.789,1.946-17.01.8-2.976,8.234-29.084,8.79-30.851,1.173-3.736,2.58-7.453,4.072-11.122C19.56,128.066,23.587,121,27.63,113.956A121.016,121.016,0,0,1,41.5,94.184c2.1-2.4,4.268-4.761,6.435-7.124.147-.156.3-.305.446-.461A204.993,204.993,0,0,1,74.472,62.726c5.069-3.846,10.188-7.661,15.294-11.479a104.357,104.357,0,0,1,10.1-6.577c3.271-1.758,12.244-6.355,19.034-9.822,7.228-3.379,14.64-6.544,22.084-9.642a191.368,191.368,0,0,1,18.593-6.486c3.132-.934,6.275-1.813,9.5-2.542,3.14-.708,6.308-1.343,9.382-2.191,1.492-.409,2.96-.864,4.387-1.383a36.037,36.037,0,0,0,1.934,3.235c1.766,2.686,3.7,5.338,5.67,7.945.352.461.707.919,1.059,1.38-3.132,1.169-6.4,2.1-9.615,3.125-3.753,1.193-7.575,2.256-11.373,3.36-3.818,1.108-7.567,2.3-11.251,3.629-1.848.668-3.757,1.212-5.625,1.84-1.746.583-3.344,1.37-5.016,2.057-3.3,1.358-7.068,2.1-9.942,3.992-.033.021-.008.076.033.049,2.7-1.709,6.165-2.451,9.28-3.62,1.623-.61,3.14-1.367,4.763-1.981,1.754-.659,3.626-1.145,5.417-1.746,3.732-1.257,7.428-2.515,11.259-3.608,3.7-1.056,7.445-2.048,11.128-3.15,2.1-.626,4.223-1.2,6.3-1.856,1.051-.333,2.073-.7,3.144-1,.642-.177,1.271-.369,1.881-.592q.466.6.932,1.215c-2.322.253-4.464,1.23-6.631,1.834-1.574.44-3.189.8-4.759,1.245s-3.119.961-4.665,1.462-2.993,1.1-4.517,1.615c-1.509.5-3.054.937-4.55,1.459-1.141.394-2.265.794-3.422,1.151l-2.621.705c-.838.2-1.668.406-2.461.671-.883.247-1.762.5-2.633.766-13.646,4.151-25.592,10.951-37.472,17.321-2.9,1.557-5.875,3.052-8.655,4.731-2.858,1.724-5.556,3.589-8.229,5.466C96.626,69.227,91,73.085,85.719,77.239,81.361,80.666,76.946,84.1,72.911,87.75a36.534,36.534,0,0,0-4.742,4.194c-2.314,2.167-4.677,4.307-6.954,6.495-2.24,2.152-3.61,4.7-5.552,6.992a79.709,79.709,0,0,0-5.74,7.234c-1.676,2.533-3.348,5.094-4.791,7.707-1.435,2.594-2.972,5.173-4.272,7.807-2.67,5.424-4.244,11.134-6.136,16.726-1.051,3.116-2.015,6.236-2.833,9.388-.4,1.554-.8,3.107-1.169,4.664-.188.8-.376,1.6-.568,2.4-.082.327-.119.7-.188,1.068l-.208.684c-.078.177-.4.772-.229.836a86.462,86.462,0,0,0-2.081,9.55c-.544,3.406-.769,6.834-1.087,10.252-.315,3.363-.585,6.736-.576,10.109.008,1.184.074,2.362.168,3.541.025.977.037,1.959.143,2.93.151,1.367.323,2.735.527,4.1q.625,4.13,1.484,8.241c.368,1.776.752,3.55,1.132,5.323.282,2.124.568,4.087.818,5.106.143.58.274,1.157.409,1.737a7.512,7.512,0,0,0,.446,2.115c.012.027.041.037.065.052.176.754.364,1.508.544,2.262A115.374,115.374,0,0,0,34.956,244.4c1.721,5.332,4.432,10.463,6.958,15.6,1.267,2.579,2.449,5.192,3.847,7.731a82,82,0,0,0,4.44,7.017c1.574,2.271,3.2,4.526,4.693,6.828a63.579,63.579,0,0,0,4.583,6.3c6.827,8.174,15.838,15.267,25,21.988a164.929,164.929,0,0,0,15.772,10.222c5.593,3.2,22.207,11.379,21.974,11.055.478.281.948.574,1.427.852,6.5,3.772,13.749,6.776,20.878,9.819a227.238,227.238,0,0,0,22.747,7.774,221.8,221.8,0,0,0,23.683,6.123c8.454,1.6,17.207,2.35,25.813,3.382,8.884,1.062,17.771,2.1,26.7,2.93a115.117,115.117,0,0,0,12.53.6c2.146-.037,4.293-.128,6.435-.214,2.58.214,5.131.366,7.743.391a121.409,121.409,0,0,0,18.593-.977c.785-.113,1.566-.232,2.351-.351,1.047-.073,2.089-.14,3.132-.22,1.639-.125,3.258-.3,4.881-.485.114.366.229.73.339,1.1.613,2.079,1.3,4.139,2.114,6.178.478,1.206,1.034,2.393,1.635,3.565-9.1,1.38-18.54,1.45-27.759,2.106-5.233.375-10.433.766-15.694.855-5.184.089-10.372-.012-15.547-.25-10.437-.479-20.85-1.474-31.172-2.722a299.762,299.762,0,0,1-30.477-5.412c-2.809-.641-5.609-1.3-8.385-2.017-2.453-.635-4.844-1.4-7.3-2.027-2.052-.519-4.133-.965-6.157-1.541a16.915,16.915,0,0,1-5.748-2.481c-.033-.021-.115.009-.082.037,2.5,2.036,6.451,2.839,9.848,3.666,4.481,1.087,8.822,2.454,13.311,3.528a308.273,308.273,0,0,0,30.7,5.845c10.314,1.386,20.78,2.411,31.225,3.037a231.892,231.892,0,0,0,31.1-.03c10.74-.8,21.573-1.09,32.223-2.43.208.4.4.8.621,1.2-.159.027-.323.064-.482.079m12.992-15.279c.822,1.956,1.917,3.84,2.719,5.8,1.214,2.958,2.375,6.2,1.852,9.312a3.772,3.772,0,0,1-2.87,3.189,13.782,13.782,0,0,1-5.388.525c-1.815-.211-3.438-.842-4.223-2.137a53.873,53.873,0,0,1-3.066-5.964c-1.047-2.344-1.885-4.722-3.054-7.032-.507-1-1.051-1.969-1.627-2.939a10.726,10.726,0,0,1-.785-1.456c.625-.091,1.243-.2,1.868-.3.168.324.348.641.519.946.638,1.145,1.312,2.268,1.864,3.437.989,2.106,1.5,4.294,2.645,6.364.02.031.127.012.115-.021-.883-2.109-1.177-4.337-2.089-6.446-.478-1.1-.989-2.188-1.415-3.3-.143-.382-.278-.775-.429-1.169q4.642-.733,9.235-1.6v0a9.833,9.833,0,0,1,.809,1.431c.356.73.711,1.447,1.137,2.152.8,1.337,1.545,2.692,2.232,4.059a21.183,21.183,0,0,1,1.885,4.938,7.008,7.008,0,0,1-.209,4.63c-.858,1.746-2.96,2.549-5.31,2.82a.038.038,0,1,0,0,.076c2.007-.092,3.945-.674,5.02-2.005a5.571,5.571,0,0,0,1-4.142,21.947,21.947,0,0,0-1.5-5.326,45.191,45.191,0,0,0-2.187-4.777,21.527,21.527,0,0,1-1.128-2.552,15.038,15.038,0,0,0-.564-1.529c.433-.082.871-.156,1.3-.241a15.2,15.2,0,0,1,1.639,3.248m152.628-121.29c-7.817,20.66-21.046,40.154-38.85,56.975-17.767,16.839-40.027,31-65.055,41.464a275.076,275.076,0,0,1-81.232,19.827,291.329,291.329,0,0,1-85.214-4.758c-27.669-5.646-53.87-15.346-76.571-28.507-22.755-13.1-42.092-29.563-56.49-48.227s-23.908-39.47-27.591-60.906a125.121,125.121,0,0,1,6.14-64.3C52,127.2,65.27,107.492,83.176,90.464,101.1,73.448,123.62,59.176,148.885,48.619a277.292,277.292,0,0,1,82.041-19.824,293.332,293.332,0,0,1,85.8,5.155c27.775,5.842,54,15.743,76.629,29.078a207.984,207.984,0,0,1,25.33,17.486c0,.2-.008.388-.029.577-.139,1.248-.564,2.469-.715,3.714a31.646,31.646,0,0,0-.086,6,22.64,22.64,0,0,0,.356,3.1,7.608,7.608,0,0,0,.854,2.658,10.266,10.266,0,0,0,4.235,3.153,22.248,22.248,0,0,1,5.539,3.452,21.959,21.959,0,0,1,2.322,2.631c.307.394.6.794.9,1.193.339.455.552.943.867,1.4,1,1.447,2.412,2.634,2.338,4.358-.069,1.523-1.116,2.832-1.827,4.218a6.441,6.441,0,0,0-.732,5.067c1.067,3.1,5.065,5,8.328,6.773,3.115,1.685,6.443,3.339,7.816,6.165a9.125,9.125,0,0,1,.638,4.63,3.9,3.9,0,0,0,1.075,3.418c1.664,1.523,4.289,2.39,6.406,3.5,1.48.775,2.813,1.7,4.289,2.481a29.59,29.59,0,0,0,4.693,2.057,7.317,7.317,0,0,0,4.309.32c.045-.015.082-.037.131-.052a126.992,126.992,0,0,1,5.368,21.338,124.393,124.393,0,0,1-6.692,63.8" transform="translate(0.31 0.466)" fill="#94ee7f"/>
          <path id="Trazado_887015" data-name="Trazado 887015" d="M53.514,138.812c-.552,0-1.1-.055-1.648-.089a10.856,10.856,0,0,0-1.668.006c-.061.006-.106.107-.029.1.548-.006,1.1.043,1.648.076a11.71,11.71,0,0,0,1.668.009c.065-.006.106-.107.029-.107" transform="translate(155.114 285.089)" fill="#94ee7f"/>
          <path id="Trazado_887016" data-name="Trazado 887016" d="M58.409,146.127c-1.566-.25-3.2-.247-4.791-.351a19.426,19.426,0,0,1-4.693-.513c-.078-.024-.131.079-.065.107a14.958,14.958,0,0,0,4.5.641c1.672.11,3.352.073,5.024.2.053,0,.082-.076.025-.085" transform="translate(151.102 298.562)" fill="#94ee7f"/>
          <path id="Trazado_887017" data-name="Trazado 887017" d="M78.252,15.116a108.382,108.382,0,0,0-13.2,6.59q-3.336,1.946-6.729,3.843c-1.966,1.1-4.2,1.914-6.059,3.128C44.287,33.9,35.935,39.023,29.194,45.167c-1.926,1.758-3.692,3.565-5.83,5.186a72.166,72.166,0,0,0-5.916,5.186c-.11.107.033.372.2.232,1.778-1.52,3.4-3.144,5.249-4.618.912-.726,1.864-1.41,2.719-2.179.822-.739,1.59-1.511,2.375-2.274A87.326,87.326,0,0,1,38.87,37.955c3.871-2.7,7.907-5.262,11.856-7.9a36.554,36.554,0,0,1,3.119-1.987c1.018-.543,2.1-1.022,3.144-1.538,2.15-1.062,4.162-2.307,6.2-3.483A150.778,150.778,0,0,1,78.272,15.18c.037-.015.025-.085-.02-.064" transform="translate(54.071 31.478)" fill="#94ee7f"/>
          <path id="Trazado_887018" data-name="Trazado 887018" d="M69.246,172.972C64.479,168.925,59.377,165.107,54.7,161c-2.293-2.011-4.472-4.093-6.676-6.159a55.28,55.28,0,0,1-6.165-6.635c-1.157-1.517-2.281-3.052-3.516-4.535A58.14,58.14,0,0,0,34.9,138.6c-1.93-2.454-4.2-4.749-6.132-7.2-2.036-2.585-3.916-5.234-5.674-7.93A153.985,153.985,0,0,1,6.182,89.105c-1.01-2.961-2.289-5.866-3.283-8.83S1.1,74.2,1.6,71.137c.008-.043-.074-.021-.082.012-1,5.4,1.717,10.8,3.63,15.92,1.071,2.872,2.007,5.766,3.136,8.625q1.821,4.615,4.006,9.144c5.511,11.363,12.007,22.507,21,32.591a32.749,32.749,0,0,1,2.96,3.956c-.086-.088-.168-.18-.258-.269-.025-.024-.1.012-.074.043.217.214.4.439.605.659,2.387,3.721,8.552,10.591,8.438,10.484a33.383,33.383,0,0,1-5.666-7.124c.675.913,1.337,1.828,2.011,2.738a51.4,51.4,0,0,0,5.584,6.266c4.395,4.252,8.957,8.357,13.871,12.279,2.764,2.207,5.539,4.4,8.3,6.614.069.058.262-.037.18-.1" transform="translate(4.33 146.402)" fill="#94ee7f"/>
          <path id="Trazado_887019" data-name="Trazado 887019" d="M93.739,20.832c-2.465,1.868-6.1,2.491-9.468,2.839a40.939,40.939,0,0,0-4.791.47,15.29,15.29,0,0,0-4.669,1.85c-3.009,1.859-4.44,4.545-6.627,6.873a13.034,13.034,0,0,1-4.244,2.86c-1.566.671-3.348,1.163-5,1.7A9.937,9.937,0,0,0,55.208,39a4.272,4.272,0,0,0-1.19,1.743,4.445,4.445,0,0,0,.057,1.981c.033.287.474.244.564,0a10.879,10.879,0,0,1,.948-1.642,4.9,4.9,0,0,1,.777-1.071,8.159,8.159,0,0,1,3.2-1.95c1.656-.562,3.32-1.12,4.992-1.654a10.544,10.544,0,0,0,4.178-2.268c2.273-2.158,3.528-4.887,6.32-6.739a15.433,15.433,0,0,1,4.607-1.947c1.6-.427,3.144-.943,4.787-1.276,3.405-.693,6.88-1.227,9.346-3.278.045-.037.008-.119-.057-.07" transform="translate(166.814 43.186)" fill="#94ee7f"/>
          <path id="Trazado_887020" data-name="Trazado 887020" d="M53.121,52.521a9.513,9.513,0,0,1-.417-4.368,8.378,8.378,0,0,1,1.464-3.986,42.517,42.517,0,0,1,3.095-3.229Q58.814,39.3,60.235,37.6c2.06-2.46,3.757-5.241,3-8.2-.033-.131-.274-.006-.258.092.454,2.808-.957,5.518-3.066,7.8-2.036,2.2-5.028,3.833-6.966,6.071a7.251,7.251,0,0,0-1.8,3.69,8.761,8.761,0,0,0,.67,3.684c.818,2.7,2.142,5.3,2.976,7.994A16.367,16.367,0,0,1,55.75,63.5a5.645,5.645,0,0,1-.495,2.277,9.366,9.366,0,0,1-1.844,2.335c-.11.119.07.244.217.15,2.641-1.792,2.976-4.963,2.42-7.432-.638-2.817-2.044-5.527-2.927-8.3" transform="translate(158.152 60.673)" fill="#94ee7f"/>
          <path id="Trazado_887021" data-name="Trazado 887021" d="M66.52,14.948A31.851,31.851,0,0,1,61.066,13.5c-.053-.021-.135.055-.074.082a63.347,63.347,0,0,0,9.1,2.86c3.193.91,6.672,1.779,9.141,3.626a5.922,5.922,0,0,1,2.4,3.5c.045.177.372.052.392-.079.859-5.979-9.881-7.386-15.506-8.54" transform="translate(188.595 28.166)" fill="#94ee7f"/>
          <path id="Trazado_887022" data-name="Trazado 887022" d="M67.175,17.394c.029-.153-.208-.134-.233,0a15.537,15.537,0,0,1-1.177,4.093c-.086.168.147.232.253.079a5.127,5.127,0,0,0,.777-2.014c.123-.717.241-1.438.38-2.155" transform="translate(203.344 35.939)" fill="#94ee7f"/>
          <path id="Trazado_887023" data-name="Trazado 887023" d="M58.362,59.526a41.747,41.747,0,0,1-5.879,2.8,13.873,13.873,0,0,1-7.077.931,9.3,9.3,0,0,1-4.06-1.743,2.562,2.562,0,0,1-.924-2.274c.172-2.079,1.795-3.989,3.634-5.482a18.161,18.161,0,0,1,2.9-1.9,28.692,28.692,0,0,0,5.454-3.788,31.5,31.5,0,0,0,4.178-4.578,7.983,7.983,0,0,1,5.221-3.281c.151-.027.266-.22.037-.2a7.892,7.892,0,0,0-4.824,2.207C55.615,43.544,54.507,45,53,46.267a54.587,54.587,0,0,1-6.345,4.594,28.506,28.506,0,0,0-3.193,2.329A30.956,30.956,0,0,0,40.5,56.067a8.013,8.013,0,0,0-1.93,3.183,2.991,2.991,0,0,0,.744,2.893A7,7,0,0,0,43.661,63.8a19.992,19.992,0,0,0,8.009-.775,30.039,30.039,0,0,0,6.909-3.318c.192-.119-.029-.284-.217-.18" transform="translate(119.09 82.576)" fill="#94ee7f"/>
          <path id="Trazado_887024" data-name="Trazado 887024" d="M44.672,46.2a.156.156,0,0,0-.106-.015c-.221.055-.446.107-.666.162a.232.232,0,0,0-.114.055.148.148,0,0,0-.057.092.078.078,0,0,0,.037.076.156.156,0,0,0,.106.015c.221-.055.446-.107.666-.162a.25.25,0,0,0,.114-.055.148.148,0,0,0,.057-.092.078.078,0,0,0-.037-.076" transform="translate(135.347 95.228)" fill="#94ee7f"/>
          <path id="Trazado_887025" data-name="Trazado 887025" d="M50.825,50.421a11.084,11.084,0,0,0-1.643-1.569,17.593,17.593,0,0,0-4.231-2.338c-.041-.015-.094.037-.053.055a15.586,15.586,0,0,1,3.847,2.6,14.243,14.243,0,0,1,1.509,1.581,13.82,13.82,0,0,0,1.239,1.673c.139.131.421-.082.409-.2a3.892,3.892,0,0,0-1.075-1.8" transform="translate(138.912 95.914)" fill="#94ee7f"/>
          <path id="Trazado_887026" data-name="Trazado 887026" d="M50.9,65.454c-2.277-1.126-5.2-.934-7.731-.491A42.063,42.063,0,0,1,35.125,66,9.969,9.969,0,0,1,28,63.293a13.15,13.15,0,0,1-2.686-5.534,14.1,14.1,0,0,0-2.764-5.836c-.041-.043-.1.04-.078.073,2.755,3.428,2.191,7.759,4.771,11.259A9.364,9.364,0,0,0,33.2,66.843c2.878.452,5.474-.409,8.164-1.026a28.577,28.577,0,0,1,4.468-.729,12.036,12.036,0,0,1,4.889.729.2.2,0,0,0,.18-.363" transform="translate(69.689 106.998)" fill="#94ee7f"/>
          <path id="Trazado_887027" data-name="Trazado 887027" d="M64.208,58.475c-3.892-2.027-8.606-1.85-12.992-.9S42.512,59.87,37.86,59.8a14.666,14.666,0,0,1-7.22-1.963c-.037-.021-.069.04-.041.064a12.33,12.33,0,0,0,5.809,2.231,22.96,22.96,0,0,0,6.353-.305c4.468-.733,8.822-1.963,13.434-2.161a20.2,20.2,0,0,1,7.813,1.114c.213.082.376-.211.2-.305" transform="translate(94.77 117.219)" fill="#94ee7f"/>
          <path id="Trazado_887028" data-name="Trazado 887028" d="M40.124,57.576c-.033,0-.065.043-.025.049s.065-.046.025-.049" transform="translate(124.083 118.621)" fill="#94ee7f"/>
          <path id="Trazado_887029" data-name="Trazado 887029" d="M88.37,72.036a32.435,32.435,0,0,1-9.579-.586,62.23,62.23,0,0,1-9.57-2.222,40.167,40.167,0,0,1-4.378-1.935c-1.459-.7-2.87-1.444-4.215-2.262-2.825-1.718-5.245-3.779-8.209-5.375-2.576-1.386-5.515-3.876-9-3.592-.049.006-.135.082-.053.1a14.134,14.134,0,0,1,4.468,1.621c1.284.751,2.494,1.563,3.839,2.253a36.938,36.938,0,0,1,4.309,2.628c1.349.94,2.514,1.99,3.79,2.979a19.8,19.8,0,0,0,4.019,2.4,36.9,36.9,0,0,0,4.742,1.566,83.683,83.683,0,0,0,9.64,2.207c3.266.552,6.84,1.068,10.159.482.208-.037.331-.3.041-.262" transform="translate(134.117 115.473)" fill="#94ee7f"/>
          <path id="Trazado_887030" data-name="Trazado 887030" d="M55.17,60.845c-.159-.018-.384.171-.172.2.159.018.388-.171.172-.2" transform="translate(169.885 125.327)" fill="#94ee7f"/>
          <path id="Trazado_887031" data-name="Trazado 887031" d="M63.828,50.263a6.27,6.27,0,0,1-1.676,2.307,8.967,8.967,0,0,1-2.907,1.511,9.334,9.334,0,0,1-6.68.034c-.315-.131-.7.36-.437.519a8.454,8.454,0,0,0,7.4.147,11.146,11.146,0,0,0,3.038-2.021,4.835,4.835,0,0,0,1.643-2.515c.045-.229-.319-.131-.384.018" transform="translate(161.014 103.297)" fill="#94ee7f"/>
          <path id="Trazado_887032" data-name="Trazado 887032" d="M55.492,50.237c-.02-.14-.053-.281-.065-.421A1.269,1.269,0,0,1,55.4,49.6a.8.8,0,0,1,.02-.085.373.373,0,0,0-.008-.134c-.016-.107-.127-.156-.262-.107a.244.244,0,0,0-.18.272.458.458,0,0,0,.053.119c.016.021.041.04.053.058a.686.686,0,0,1,.065.2,2.268,2.268,0,0,1,.086.4c.053.281.09.565.123.845.012.143.258.04.249-.067-.029-.29-.065-.577-.11-.864" transform="translate(170.053 101.549)" fill="#94ee7f"/>
          <path id="Trazado_887033" data-name="Trazado 887033" d="M55.225,48.857c-.069-.009-.1.1-.033.107s.1-.1.033-.107" transform="translate(170.631 100.728)" fill="#94ee7f"/>
          <path id="Trazado_887034" data-name="Trazado 887034" d="M75.064,45.217c-.458.327-.8.723-1.28,1.038a8.261,8.261,0,0,1-1.7.833,11.023,11.023,0,0,1-3.916.647,27.281,27.281,0,0,1-3.839-.436,13.118,13.118,0,0,1-3.54-.913c-.123-.058-.36.085-.229.168A9.656,9.656,0,0,0,63.878,48a15.461,15.461,0,0,0,4.489.131,16.372,16.372,0,0,0,4.174-.845c1.047-.388,2.514-1.1,2.862-1.99.069-.174-.217-.168-.339-.082" transform="translate(187.218 93.14)" fill="#94ee7f"/>
          <path id="Trazado_887035" data-name="Trazado 887035" d="M64.886,44.9a.945.945,0,0,0-.54-.815c-.147-.061-.327.134-.229.223.229.2.495.4.54.675a1.477,1.477,0,0,1-.217.9.063.063,0,0,0,.049.1.141.141,0,0,0,.135-.073,1.6,1.6,0,0,0,.262-1.01" transform="translate(198.226 90.914)" fill="#94ee7f"/>
          <path id="Trazado_887036" data-name="Trazado 887036" d="M25.056,71.479A26.461,26.461,0,0,1,20.077,66.1a15.629,15.629,0,0,1-2.3-6.165,16.071,16.071,0,0,1,.213-6.562,46.321,46.321,0,0,1,2.854-7.4,24.04,24.04,0,0,0,2.42-7.984c0-.027-.061-.009-.065.012-.491,5.384-4.325,10.066-5.989,15.233a14.587,14.587,0,0,0-.625,6.642A15.747,15.747,0,0,0,19.067,65.8a20.756,20.756,0,0,0,5.654,5.915c.159.113.482-.113.335-.238" transform="translate(51.071 78.394)" fill="#94ee7f"/>
          <path id="Trazado_887037" data-name="Trazado 887037" d="M67.546,104.136c-1.954-2.069-4.338-4.047-5.576-6.437-.7-1.343-1.083-2.774-1.75-4.133a24.005,24.005,0,0,1-1.75-4.105c-.409-1.483-.744-3.022-1-4.52a19.024,19.024,0,0,1-.339-4.832c.262-3.028,1.8-5.946,1.913-8.976.1-2.915-1.39-6.016.131-8.836.025-.046-.069-.037-.09-.006-1.668,2.359-.7,5.238-.556,7.765.18,3.058-1.177,6.062-1.811,9.062a27.8,27.8,0,0,0,.033,9.715A13.617,13.617,0,0,0,58.106,92.9c.683,1.377,1.627,2.661,2.392,4.011a20.009,20.009,0,0,0,2.78,3.882,51.643,51.643,0,0,0,3.859,3.55c.131.116.536-.076.409-.211" transform="translate(174.168 128.245)" fill="#94ee7f"/>
          <path id="Trazado_887038" data-name="Trazado 887038" d="M78.376,100.577a13.754,13.754,0,0,1-4.4-5.106,20.664,20.664,0,0,1-1.6-6.04c-.266-1.978-.311-4.078-1.259-5.958a8.4,8.4,0,0,0-4.158-3.815c-2.355-1.074-4.889-1.886-7.248-2.948-.086-.04-.2.089-.11.131,1.083.568,2.175,1.123,3.234,1.718.912.51,1.889.946,2.731,1.526a11.84,11.84,0,0,1,3.765,4.12c1.946,3.678,2.163,7.722,3.925,11.442a10.365,10.365,0,0,0,4.84,5.2c.172.082.425-.171.286-.275" transform="translate(184.253 157.87)" fill="#94ee7f"/>
          <path id="Trazado_887039" data-name="Trazado 887039" d="M65.8,85.778c-.278-.189-.556-.378-.834-.571-.07-.046-.249.027-.159.089.278.189.556.378.834.571.069.046.249-.027.159-.089" transform="translate(200.353 175.296)" fill="#94ee7f"/>
          <path id="Trazado_887040" data-name="Trazado 887040" d="M85.691,90.063c-4.358-4.307-12.334-3.611-18.716-3.547-.037,0-.074.055-.02.055,6.418.031,13.8-.232,18.564,3.58.061.046.229-.034.172-.089" transform="translate(206.994 177.849)" fill="#94ee7f"/>
          <path id="Trazado_887041" data-name="Trazado 887041" d="M76.146,92.649a6.827,6.827,0,0,0-1.361-1.856C74.236,90.18,73.607,89.6,73,89.017c-.045-.04-.119.031-.09.067.519.641,1,1.3,1.521,1.938a15.4,15.4,0,0,0,1.455,1.789c.114.107.3-.067.262-.162" transform="translate(225.44 183.119)" fill="#94ee7f"/>
          <path id="Trazado_887042" data-name="Trazado 887042" d="M79.588,92.867c.029-.043-.045-.046-.069-.012-.961,1.441-1.092,3.061-1.48,4.618a25.99,25.99,0,0,1-2.347,5.164,37.779,37.779,0,0,0-3.442,10.985c-.037.223.319.134.36-.027.474-1.868,1.063-3.714,1.623-5.567a43.682,43.682,0,0,1,1.958-5.543,27.331,27.331,0,0,0,1.983-4.728c.392-1.639.442-3.36,1.415-4.89" transform="translate(223.42 190.971)" fill="#94ee7f"/>
          <path id="Trazado_887043" data-name="Trazado 887043" d="M73.829,109.231A9.731,9.731,0,0,0,74,107.2a7.563,7.563,0,0,0-.462-1.947,18.618,18.618,0,0,1-.454-4.563c-.008-.134-.348-.085-.339.034a16.471,16.471,0,0,1-.008,4.325,12.7,12.7,0,0,0-.421,2.194,11.278,11.278,0,0,0,.139,2.063,30.245,30.245,0,0,1-.458,8.641c-.024.186.421.11.462-.043.748-2.866.9-5.778,1.374-8.668" transform="translate(222.633 206.923)" fill="#94ee7f"/>
          <path id="Trazado_887044" data-name="Trazado 887044" d="M72.474,107.552c.012-.058-.078-.073-.09-.015a8.342,8.342,0,0,0-.417,3.54c.016.079.135.015.119-.049a8.162,8.162,0,0,1,.388-3.476" transform="translate(222.285 221.073)" fill="#94ee7f"/>
          <path id="Trazado_887045" data-name="Trazado 887045" d="M102.136,103.371C93.7,105.025,85.326,108.6,79.97,113.809c-.041.043.008.1.061.055a30.682,30.682,0,0,1,10.29-6.046c3.888-1.435,7.956-2.585,11.815-4.05.176-.07.319-.461,0-.4" transform="translate(247.223 212.585)" fill="#94ee7f"/>
          <path id="Trazado_887046" data-name="Trazado 887046" d="M98.828,97.934A23.539,23.539,0,0,0,96.6,101.8a38.021,38.021,0,0,1-2.342,3.629,24.884,24.884,0,0,1-7.412,6.553c-.061.037,0,.085.061.049a27.065,27.065,0,0,0,10.159-9.987c.388-.644.756-1.3,1.1-1.953a8.278,8.278,0,0,0,.977-2.115c.029-.156-.237-.14-.323-.04" transform="translate(268.434 201.286)" fill="#94ee7f"/>
          <path id="Trazado_887047" data-name="Trazado 887047" d="M117.345,89.5a20.627,20.627,0,0,1-8.135,10.371c-3.859,2.561-8.814,3.986-12.919,6.3a11.836,11.836,0,0,0-2.915,2.292,15.551,15.551,0,0,1-2.89,2.781c-.065.043-.016.122.065.073,2.109-1.276,3.454-3.11,5.65-4.307,2.4-1.306,5.131-2.28,7.71-3.376,4.239-1.8,8.54-3.6,10.592-7.1,1.329-2.256,2.829-4.618,3.226-7.087.033-.208-.343-.076-.384.052" transform="translate(279.65 183.811)" fill="#94ee7f"/>
          <path id="Trazado_887048" data-name="Trazado 887048" d="M99.689,87.464a7.142,7.142,0,0,0-2.04,2.152c-.025.04.065.031.082,0a7.1,7.1,0,0,1,2.015-2.124c.045-.034-.02-.058-.057-.031" transform="translate(301.852 179.932)" fill="#94ee7f"/>
          <path id="Trazado_887049" data-name="Trazado 887049" d="M102.829,85.486a16.871,16.871,0,0,1-1.844,2.378c-.7.733-1.464,1.428-2.208,2.137-.029.027.008.064.045.034,1.549-1.386,3.3-2.781,4.154-4.5.045-.1-.086-.14-.147-.049" transform="translate(305.318 175.793)" fill="#94ee7f"/>
          <path id="Trazado_887050" data-name="Trazado 887050" d="M126.457,74.722a7.551,7.551,0,0,1-1.652-4.642c-.065-.8-.053-1.587-.041-2.387a8.91,8.91,0,0,0-.123-2.445c-.9-3.336-6.582-3.589-10.114-4.386-4.481-1.01-8.982-3.879-9.3-7.566-.286-3.3,1.443-6.672,2.858-9.746a6.508,6.508,0,0,0,.642-4.877c-.609-1.886-2.522-3.4-4.73-4.343-.339-.146-.752.33-.507.528a10.407,10.407,0,0,1,3.683,4.529,8.653,8.653,0,0,1,.082,4.239,36.362,36.362,0,0,1-1.733,4.679,12.6,12.6,0,0,0-.891,4.758,6.9,6.9,0,0,0,2.069,4.685c1.382,1.367,3.569,2.185,5.589,2.93a35.951,35.951,0,0,0,6.328,1.346,9.926,9.926,0,0,1,2.939.9,5.007,5.007,0,0,1,2.032,2.118,5.65,5.65,0,0,1,.781,2.619,23.188,23.188,0,0,1-.311,2.9c-.2,1.715-.053,3.473,2.089,4.474.221.1.425-.2.311-.32" transform="translate(319.673 70.859)" fill="#94ee7f"/>
          <path id="Trazado_887051" data-name="Trazado 887051" d="M105.407,35.062a6.063,6.063,0,0,1-.891-.671c-.135-.125-.258-.256-.4-.375s-.278-.241-.409-.366c-.253-.238-.495-.485-.728-.736-.114-.122-.213-.25-.339-.369a3.186,3.186,0,0,0-.352-.342.235.235,0,0,0-.364.2,2.894,2.894,0,0,0,1.349,1.7c.155.107.319.22.486.324a3.846,3.846,0,0,0,.519.256c.36.159.715.324,1.079.479.065.027.094-.07.049-.1" transform="translate(315.062 66.464)" fill="#94ee7f"/>
        </g>
      </g>
    </g>
  </g>
</svg>
