<svg xmlns="http://www.w3.org/2000/svg" width="72" height="72" viewBox="0 0 72 72">
  <g id="img-4" transform="translate(2203.743 5509.827)">
    <g id="Grupo_1103320" data-name="Grupo 1103320" transform="translate(-2383.794 -7504.173)">
      <circle id="Elipse_11593" data-name="Elipse 11593" cx="36" cy="36" r="36" transform="translate(180.051 1994.346)" fill="#00c2ff"/>
      <g id="Layer_2" transform="translate(196.072 2009.386)">
        <g id="Grupo_1102028" data-name="Grupo 1102028" transform="translate(8.328 0.96)">
          <path id="Trazado_883126" data-name="Trazado 883126" d="M18.9,36.965a2.653,2.653,0,0,1-2.321-1.389C13.1,29.221,7.25,17.843,7.25,13.035A11.882,11.882,0,0,1,18.9.96,11.882,11.882,0,0,1,30.552,13.035c0,4.807-5.846,16.185-9.33,22.541A2.652,2.652,0,0,1,18.9,36.965Zm0-33.342a9.218,9.218,0,0,0-8.988,9.411c0,3.029,3.358,10.967,8.987,21.232,5.634-10.276,8.989-18.2,8.989-21.232A9.218,9.218,0,0,0,18.9,3.623Z" transform="translate(-7.25 -0.96)" fill="#0087b2"/>
        </g>
        <g id="Grupo_1102029" data-name="Grupo 1102029" transform="translate(4 27.322)">
          <path id="Trazado_883127" data-name="Trazado 883127" d="M19.979,34.4C12.233,34.4,4,31.946,4,27.405c0-3.152,4.121-5.694,10.752-6.634a1.332,1.332,0,0,1,.374,2.638c-5.838.826-8.463,2.834-8.463,4,0,1.764,5.188,4.328,13.316,4.328s13.316-2.563,13.316-4.328c0-1.156-2.61-3.158-8.41-3.989a1.332,1.332,0,1,1,.377-2.638c6.6.947,10.7,3.486,10.7,6.627C35.957,31.946,27.724,34.4,19.979,34.4Z" transform="translate(-4 -20.758)" fill="#0087b2"/>
        </g>
        <g id="Grupo_1102030" data-name="Grupo 1102030" transform="translate(15.984 7.921)">
          <path id="Trazado_883128" data-name="Trazado 883128" d="M16.995,14.177a3.995,3.995,0,1,1,3.995-3.995A4,4,0,0,1,16.995,14.177Zm0-5.326a1.332,1.332,0,1,0,1.332,1.332A1.332,1.332,0,0,0,16.995,8.851Z" transform="translate(-13 -6.188)" fill="#0087b2"/>
        </g>
      </g>
    </g>
  </g>
</svg>
