<svg xmlns="http://www.w3.org/2000/svg" xmlns:xlink="http://www.w3.org/1999/xlink" width="1240" height="644.857" viewBox="0 0 1240 644.857">
  <defs>
    <clipPath id="clip-path">
      <path id="Trazado_872907" data-name="Trazado 872907" d="M17.848,0h1204.3C1232.009,0,1240,10.82,1240,24.166V620.691c0,13.347-7.991,24.166-17.849,24.166H17.848C7.991,644.857,0,634.037,0,620.691V24.166C0,10.82,7.991,0,17.848,0Z" fill="#94ee7f"/>
    </clipPath>
    <clipPath id="clip-path-2">
      <path id="Trazado_874007" data-name="Trazado 874007" d="M57.7,72.19,1286.871-71.776,1156.3,1313.4-72.868,1457.365Z" fill="#00c2ff"/>
    </clipPath>
    <clipPath id="clip-path-3">
      <path id="Trazado_873019" data-name="Trazado 873019" d="M734.934-15.835C496.568,68.262,262.92,244.6,87.812,487.278,43.223,549.1,1.715,616.524-21.631,690.728s-26.3,156.505,4.07,212.6c39.2,72.42,121.144,85.78,206.658,99.208-28.535,18.494-44.63,63.433-39.541,97.906,10.871,73.682,80.9,81.133,140.718,71.877,199.37-30.865,395.505-175.639,568.425-342.581,90.844-87.707,178.787-184,247.532-298.26,45.167-75.066,86.439-182.076,38.085-241.827-22.3-27.567-65.609-29.536-96.751,6.777,50.536-65.736,61.1-164.318,34.047-231.119S996.156-38.5,932.834-47.236c-23.777-3.284-48.251-2.973-73.047-.069-41.229,4.829-83.37,16.834-124.853,31.47" fill="none" stroke="rgba(0,0,0,0)" stroke-width="1"/>
    </clipPath>
    <clipPath id="clip-path-4">
      <path id="Trazado_874008" data-name="Trazado 874008" d="M56.68,69.04,1075.573-72.141,947.534,1011.932-71.36,1153.112Z" fill="#00c2ff" stroke="#165b7a" stroke-width="1"/>
    </clipPath>
    <clipPath id="clip-path-5">
      <path id="Trazado_873019-2" data-name="Trazado 873019" d="M613.463-19.845C415.063,51.376,219.232,194.468,70.868,387.967,33.088,437.257-2.224,490.852-22.61,549.31s-24.018,122.756.292,165.82c31.381,55.6,98.974,64.1,169.52,72.577-23.872,15.1-37.836,50.551-34.125,77.334,7.927,57.248,65.748,61.42,115.367,52.793,165.372-28.763,329.715-146.346,475.174-280.686C780.035,566.57,854.177,489.356,912.7,398.577c38.449-59.642,74.138-144.122,35-189.619-18.052-20.991-53.847-21.512-80.134,7.557,42.756-52.487,52.922-129.669,31.507-181.167s-69.191-79.008-121.446-84.34C758-51,737.755-50.181,717.2-47.333,683.024-42.6,647.991-32.24,613.463-19.845" fill="#00c2ff"/>
    </clipPath>
  </defs>
  <g id="img-14" transform="translate(-3539.156 612.593)">
    <g id="Enmascarar_grupo_1098662" data-name="Enmascarar grupo 1098662" transform="translate(3539.156 -612.593)" clip-path="url(#clip-path)">
      <path id="Trazado_870126" data-name="Trazado 870126" d="M17.848,0h1204.3C1232.009,0,1240,10.82,1240,24.166V620.691c0,13.347-7.991,24.166-17.849,24.166H17.848C7.991,644.857,0,634.037,0,620.691V24.166C0,10.82,7.991,0,17.848,0Z" fill="#00c2ff"/>
      <g id="Grupo_1099032" data-name="Grupo 1099032" transform="matrix(-0.927, 0.375, -0.375, -0.927, 1916.15, 663.507)" opacity="0.33" style="mix-blend-mode: multiply;isolation: isolate">
        <g id="Grupo_1099028" data-name="Grupo 1099028" transform="translate(0 0)">
          <g id="Grupo_1099027" data-name="Grupo 1099027" clip-path="url(#clip-path-2)">
            <path id="Trazado_873014" data-name="Trazado 873014" d="M1047.564,296.427c50.536-65.736,61.091-164.316,34.047-231.119S996.144-38.5,932.833-47.234s-131.466,7.954-197.9,31.387C496.567,68.264,262.909,244.6,87.812,487.279,43.224,549.083,1.7,616.527-21.632,690.73s-26.3,156.491,4.071,212.585c39.19,72.421,121.143,85.794,206.657,99.221-28.546,18.5-44.628,63.419-39.541,97.906,10.871,73.682,80.886,81.134,140.707,71.878,199.381-30.866,395.518-175.654,568.425-342.581,90.844-87.707,178.787-184,247.532-298.26,45.18-75.081,86.45-182.078,38.1-241.843-22.306-27.553-65.61-29.522-96.753,6.791" transform="translate(65.963 144.024)" fill="#00c2ff"/>
          </g>
        </g>
        <g id="Grupo_1099030" data-name="Grupo 1099030" transform="translate(65.963 144.026)">
          <g id="Grupo_1099029" data-name="Grupo 1099029" transform="translate(0 0)" clip-path="url(#clip-path-3)">
            <path id="Trazado_873015" data-name="Trazado 873015" d="M-31.984,639.673S570.482,715.84,532.754-29.715" transform="translate(-42.601 51.369)" fill="none" stroke="#00b0ad" stroke-linecap="round" stroke-linejoin="round" stroke-width="1"/>
            <path id="Trazado_873016" data-name="Trazado 873016" d="M-49.7,993.973S479.486,1156.624,811.467-45.26" transform="translate(-52.684 -8.019)" fill="none" stroke="#00b0ad" stroke-linecap="round" stroke-linejoin="round" stroke-width="1"/>
            <path id="Trazado_873017" data-name="Trazado 873017" d="M-70.714,1414.279s352.256,5.838,618.065-586.872S830.9-46.344,830.9-46.344" transform="translate(140.989 -133.35)" fill="none" stroke="#00b0ad" stroke-linecap="round" stroke-linejoin="round" stroke-width="1"/>
            <path id="Trazado_873018" data-name="Trazado 873018" d="M488.127-27.226s-66.4,511.384-531.909,902.853" transform="translate(648.784 203.926)" fill="none" stroke="#00b0ad" stroke-linecap="round" stroke-linejoin="round" stroke-width="1"/>
          </g>
        </g>
      </g>
      <ellipse id="Elipse_11441" data-name="Elipse 11441" cx="312.566" cy="423.187" rx="312.566" ry="423.187" transform="translate(39.008 -409.236)" fill="#00c2ff" opacity="0.37" style="mix-blend-mode: multiply;isolation: isolate"/>
      <ellipse id="Elipse_11485" data-name="Elipse 11485" cx="313.079" cy="423.187" rx="313.079" ry="423.187" transform="translate(-224.8 81.05)" fill="#00617f" opacity="0.37" style="mix-blend-mode: hard-light;isolation: isolate"/>
      <ellipse id="Elipse_11486" data-name="Elipse 11486" cx="312.566" cy="423.187" rx="312.566" ry="423.187" transform="translate(320.266 437.139)" fill="#00c2ff" opacity="0.37" style="mix-blend-mode: color-dodge;isolation: isolate"/>
      <ellipse id="Elipse_11502" data-name="Elipse 11502" cx="312.053" cy="423.187" rx="312.053" ry="423.187" transform="translate(-151.919 -439.796)" fill="#ccf3ff" opacity="0.37" style="mix-blend-mode: color-dodge;isolation: isolate"/>
      <g id="Grupo_1099031" data-name="Grupo 1099031" transform="matrix(0.875, -0.485, 0.485, 0.875, -495.478, 2.195)" opacity="0.11" style="mix-blend-mode: multiply;isolation: isolate">
        <g id="Grupo_1099028-2" data-name="Grupo 1099028" transform="translate(0 0)">
          <g id="Grupo_1099027-2" data-name="Grupo 1099027" clip-path="url(#clip-path-4)">
            <path id="Trazado_873014-2" data-name="Trazado 873014" d="M867.566,216.516C910.322,164.03,920.479,86.849,899.072,35.35s-69.2-79.007-121.446-84.34S668.758-39.7,613.464-19.855c-198.4,71.232-394.242,214.325-542.6,407.823C33.089,437.246-2.233,490.855-22.61,549.311s-24.017,122.745.293,165.809c31.372,55.6,98.973,64.114,169.518,72.587-23.882,15.1-37.835,50.54-34.125,77.334,7.927,57.248,65.739,61.422,115.358,52.795C393.815,889.072,558.16,771.478,703.608,637.151c76.417-70.578,150.559-147.792,209.08-238.572,38.46-59.654,74.147-144.123,35.013-189.631-18.054-20.98-53.848-21.5-80.135,7.569" transform="translate(57.205 115.158)" fill="#00c2ff" stroke="#165b7a" stroke-width="1"/>
          </g>
        </g>
        <g id="Grupo_1099030-2" data-name="Grupo 1099030" transform="translate(57.205 115.159)">
          <g id="Grupo_1099029-2" data-name="Grupo 1099029" transform="translate(0 0)" clip-path="url(#clip-path-5)">
            <path id="Trazado_873015-2" data-name="Trazado 873015" d="M-31.3,505.76S465.979,551.073,445.55-29.884" transform="translate(-35.12 45.036)" fill="#00c2ff" stroke="#00b0ad" stroke-linecap="round" stroke-linejoin="round" stroke-width="1"/>
            <path id="Trazado_873016-2" data-name="Trazado 873016" d="M-48.623,785.7S386.784,900.226,678.79-45.528" transform="translate(-45.057 -4.099)" fill="#00c2ff" stroke="#00b0ad" stroke-linecap="round" stroke-linejoin="round" stroke-width="1"/>
            <path id="Trazado_873017-2" data-name="Trazado 873017" d="M-68.953,1114.22s291.313-3.705,519.77-472.5,247.2-688.538,247.2-688.538" transform="translate(113.836 -106.463)" fill="#00c2ff" stroke="#00b0ad" stroke-linecap="round" stroke-linejoin="round" stroke-width="1"/>
            <path id="Trazado_873018-2" data-name="Trazado 873018" d="M410.4-27.526S348.073,373.123-42.672,689.548" transform="translate(532.812 148.511)" fill="#00c2ff" stroke="#00b0ad" stroke-linecap="round" stroke-linejoin="round" stroke-width="1"/>
          </g>
        </g>
      </g>
    </g>
  </g>
</svg>
