<svg xmlns="http://www.w3.org/2000/svg" width="72" height="72" viewBox="0 0 72 72">
  <g id="img-3" transform="translate(-705.051 -770.346)">
    <g id="Grupo_1102056" data-name="Grupo 1102056" transform="translate(0 -1)">
      <circle id="Elipse_11597" data-name="Elipse 11597" cx="36" cy="36" r="36" transform="translate(705.051 771.346)" fill="#94ee7f"/>
    </g>
    <g id="Layer_2" data-name="Layer 2" transform="translate(712.539 777.182)">
      <path id="Trazado_883339" data-name="Trazado 883339" d="M8.6,29.267a1.692,1.692,0,0,0,.417-1.135A1.645,1.645,0,0,0,8.6,27a3.041,3.041,0,0,1,0-3.775,1.7,1.7,0,0,0,.417-1.135.651.651,0,0,1,1.3,0,2.921,2.921,0,0,1-.656,1.885,1.7,1.7,0,0,0-.417,1.135,1.672,1.672,0,0,0,.417,1.135,3.041,3.041,0,0,1,0,3.775,1.682,1.682,0,0,0-.417,1.135.651.651,0,1,1-1.3,0A2.937,2.937,0,0,1,8.6,29.267Zm10.831,13.1a.651.651,0,0,0-1.3,0,1.7,1.7,0,0,1-.417,1.135,3.041,3.041,0,0,0,.01,3.76,1.645,1.645,0,0,1,.417,1.13,1.682,1.682,0,0,1-.417,1.135,2.937,2.937,0,0,0-.667,1.9.651.651,0,1,0,1.3,0,1.682,1.682,0,0,1,.417-1.135,3.041,3.041,0,0,0,0-3.775,1.671,1.671,0,0,1-.417-1.135,1.7,1.7,0,0,1,.417-1.135A2.921,2.921,0,0,0,19.426,42.363ZM49.367,22.092a.651.651,0,1,0-1.3,0,1.7,1.7,0,0,1-.417,1.135,3.041,3.041,0,0,0,0,3.775,1.645,1.645,0,0,1,.417,1.13,1.692,1.692,0,0,1-.417,1.135,2.937,2.937,0,0,0-.656,1.89.651.651,0,0,0,1.3,0,1.682,1.682,0,0,1,.417-1.135,3.041,3.041,0,0,0,0-3.775,1.671,1.671,0,0,1-.417-1.135,1.7,1.7,0,0,1,.417-1.135A2.921,2.921,0,0,0,49.367,22.092ZM40.255,42.363a.651.651,0,0,0-1.3,0,1.7,1.7,0,0,1-.417,1.135,3.041,3.041,0,0,0,.01,3.76,1.645,1.645,0,0,1,.417,1.13,1.682,1.682,0,0,1-.417,1.135,2.937,2.937,0,0,0-.667,1.9.651.651,0,1,0,1.3,0,1.682,1.682,0,0,1,.417-1.135,3.041,3.041,0,0,0,0-3.775,1.671,1.671,0,0,1-.417-1.135,1.7,1.7,0,0,1,.417-1.135A2.921,2.921,0,0,0,40.255,42.363ZM7.533,39.447l3.208-2.229a3.124,3.124,0,0,1,4.166.562l6.769-4.686a38.84,38.84,0,0,1,.208-7.988l-7-4.832a3.088,3.088,0,0,1-4.166.568L7.533,18.619h0l-1.864-1.3a.521.521,0,0,1-.125-.7L8.928,11.74a.521.521,0,0,1,.7-.13L14.7,15.13a3.124,3.124,0,0,1,.932,4.077l6.426,4.463a48.666,48.666,0,0,1,2.083-8.128A62.357,62.357,0,0,1,28.08,6.6a.651.651,0,0,1,1.146,0A62.543,62.543,0,0,1,33.2,15.619a47.947,47.947,0,0,1,2.046,8.05l6.426-4.463a3.124,3.124,0,0,1,.922-4.077l5.077-3.52a.521.521,0,0,1,.7.13l3.385,4.884a.521.521,0,0,1-.125.7l-1.854,1.3h0l-3.208,2.223a3.088,3.088,0,0,1-4.166-.568l-6.946,4.837a38.84,38.84,0,0,1,.208,7.988l6.769,4.686a3.124,3.124,0,0,1,4.166-.568l3.176,2.229h0l1.864,1.291a.521.521,0,0,1,.125.7l-3.322,4.78a.651.651,0,0,1-.521.281.661.661,0,0,1-.37-.12L42.6,42.936a3.124,3.124,0,0,1-.932-4.077l-6.155-4.275A39.106,39.106,0,0,1,29.2,51.518a.656.656,0,0,1-1.093,0A39.106,39.106,0,0,1,21.79,34.584l-6.155,4.275a3.124,3.124,0,0,1-.922,4.077L9.751,46.368a.661.661,0,0,1-.37.12.651.651,0,0,1-.516-.271L5.544,41.442a.521.521,0,0,1,.125-.7Zm42.7,1.906-.667-.463-2.479,3.567.672.469ZM43.41,38.625l-.6.864a1.645,1.645,0,0,0,.411,2.291l2.8,1.942L48.5,40.15l-2.8-1.942A1.651,1.651,0,0,0,43.41,38.625ZM47.092,13.63,49.57,17.2l.667-.463-2.473-3.6ZM42.811,18.6l.6.864a1.651,1.651,0,0,0,2.291.417l2.8-1.942L46.024,14.37l-2.791,1.916a1.645,1.645,0,0,0-.422,2.291ZM7.07,16.708l.667.463L10.215,13.6l-.672-.469Zm6.91,2.6c.125-.182.391-.568.521-.745a1.651,1.651,0,0,0-.417-2.291l-2.8-1.942L8.809,17.905,11.47,19.77h0a1.791,1.791,0,0,0,2.51-.448ZM31.543,44.462a6.644,6.644,0,0,1-2.963.75,6.134,6.134,0,0,1-2.791-.7,41.881,41.881,0,0,0,2.864,5.441,42.7,42.7,0,0,0,2.89-5.483Zm2.838-10.675-1.963-1.359c.417,5.483-7.925,5.483-7.509,0l-1.984,1.359a35.565,35.565,0,0,0,2.031,8.7c2.411,1.864,4.78,1.869,7.373,0A35.752,35.752,0,0,0,34.381,33.787ZM31.116,25.2a2.468,2.468,0,0,0-3.5-2.234,2.369,2.369,0,0,0-1.406,2.2v1.375l2.447,1.7,2.453-1.7Zm-1.323,3.838,1.312.911V28.122ZM26.2,28.122v1.823l1.312-.911Zm0,3.405v1.343A2.468,2.468,0,0,0,29.695,35.1,2.369,2.369,0,0,0,31.1,32.9V31.527l-2.447-1.7Zm8.108-5.619-1.9,1.317v3.645l2.083,1.442A37.565,37.565,0,0,0,34.308,25.909ZM25.977,14.182a6.045,6.045,0,0,1,5.322.047,64.3,64.3,0,0,0-2.645-5.921A62.674,62.674,0,0,0,26,14.177ZM23.191,24.451,24.9,25.638c-.411-5.457,7.92-5.457,7.509,0l1.708-1.187a46.026,46.026,0,0,0-2.083-8.331c-2.348-1.651-4.561-1.651-6.743,0a45.724,45.724,0,0,0-2.1,8.331Zm-.375,7.811L24.9,30.819V27.174L23,25.909a37.564,37.564,0,0,0-.182,6.379Zm-12.6,12.2L7.736,40.895l-.667.463L9.543,44.93ZM8.809,40.15l2.473,3.572,2.791-1.942a1.645,1.645,0,0,0,.411-2.291l-.6-.864a1.651,1.651,0,0,0-2.291-.417Z" fill="#49763f"/>
    </g>
  </g>
</svg>
