<svg xmlns="http://www.w3.org/2000/svg" width="72" height="72" viewBox="0 0 72 72">
  <g id="img-9" transform="translate(-285 -2438.045)">
    <g id="Grupo_1102158" data-name="Grupo 1102158" transform="translate(285 2426.373)">
      <circle id="Elipse_11597" data-name="Elipse 11597" cx="36" cy="36" r="36" transform="translate(0 11.672)" fill="#ffa735"/>
    </g>
    <g id="indio" transform="translate(302.582 2449.359)" style="mix-blend-mode: multiply;isolation: isolate">
      <path id="Trazado_883343" data-name="Trazado 883343" d="M92.13,31.746a10.712,10.712,0,0,0,1.112-4.779V24.689h.82a4.282,4.282,0,1,0,0-8.564h-.82V14.394a4.08,4.08,0,0,0-.952-2.624,7.194,7.194,0,0,0,3.139-5.94V1.367A1.367,1.367,0,0,0,94.062,0,7.056,7.056,0,0,0,89.6,1.588V1.367A1.367,1.367,0,0,0,88.232,0,7.15,7.15,0,0,0,82.4,3.036,7.15,7.15,0,0,0,76.57,0,1.367,1.367,0,0,0,75.2,1.367v.221A7.057,7.057,0,0,0,70.74,0a1.367,1.367,0,0,0-1.367,1.367V5.831a7.194,7.194,0,0,0,3.139,5.94,4.08,4.08,0,0,0-.952,2.624v1.731h-.82a4.282,4.282,0,1,0,0,8.564h.82v2.278a10.7,10.7,0,0,0,1.112,4.779A12.764,12.764,0,0,0,65,43.425v1.854a1.367,1.367,0,0,0,1.367,1.367H98.435A1.367,1.367,0,0,0,99.8,45.279V43.425A12.763,12.763,0,0,0,92.13,31.746Zm-16.845-.894,3.2-1.14a1.367,1.367,0,0,0-.917-2.575L74.4,28.267a19.448,19.448,0,0,1-.1-3.369c3.832.547,3.6.52,3.737.52a1.367,1.367,0,0,0,.191-2.72l-3.929-.561V18.859H90.509v3.279l-3.928.561a1.367,1.367,0,1,0,.386,2.706l3.542-.506a19.4,19.4,0,0,1-.1,3.369l-3.172-1.13a1.367,1.367,0,1,0-.917,2.575l3.2,1.14a8.105,8.105,0,0,1-14.23,0ZM95.611,20.407a1.551,1.551,0,0,1-1.549,1.549h-.82v-3.1h.82A1.551,1.551,0,0,1,95.611,20.407ZM92.7,2.951V5.831a4.472,4.472,0,0,1-3.1,4.25V7.288a4.555,4.555,0,0,1,3.1-4.337Zm-5.831,0V5.831a4.472,4.472,0,0,1-3.1,4.25V7.288a4.555,4.555,0,0,1,3.1-4.337Zm-8.928,0a4.555,4.555,0,0,1,3.1,4.337v2.793a4.472,4.472,0,0,1-3.1-4.25Zm-5.831,0a4.589,4.589,0,0,1,3.1,4.335v2.793a4.472,4.472,0,0,1-3.1-4.25ZM89.143,13.028a1.368,1.368,0,0,1,1.367,1.367v1.731H74.293V14.394a1.368,1.368,0,0,1,1.367-1.367Zm-18.4,8.928a1.549,1.549,0,1,1,0-3.1h.82v3.1ZM97.069,43.912H92.513v-3.1a1.367,1.367,0,1,0-2.733,0v3.1H75.021v-3.1a1.367,1.367,0,1,0-2.733,0v3.1H67.733v-.487a10.018,10.018,0,0,1,6.483-9.356,10.827,10.827,0,0,0,16.37,0,10.018,10.018,0,0,1,6.483,9.356Z" transform="translate(-65 0)" fill="#b5792b"/>
    </g>
  </g>
</svg>
