<svg xmlns="http://www.w3.org/2000/svg" width="72" height="72" viewBox="0 0 72 72">
  <g id="img-7" transform="translate(-495 -1577.088)">
    <circle id="Elipse_11597" data-name="Elipse 11597" cx="36" cy="36" r="36" transform="translate(495 1577.088)" fill="#fc7350"/>
    <g id="maracas" transform="translate(496.422 1593.922)" style="mix-blend-mode: multiply;isolation: isolate">
      <path id="Trazado_883341" data-name="Trazado 883341" d="M24.02,0C18.64,0,15,5.526,15,11.274c0,5.3,2.8,9.221,5.987,10.629L19.841,33.73a4.2,4.2,0,1,0,8.357,0L27.052,21.9c3.193-1.412,5.988-5.339,5.988-10.629C33.039,5.516,29.391,0,24.02,0Zm-6.7,12.5,1.44.823,2.631-1.5,2.631,1.5,2.631-1.5,2.631,1.5,1.441-.823a11.077,11.077,0,0,1-.845,3.283H18.163a11.077,11.077,0,0,1-.845-3.283ZM30.707,9.912l-1.426.815-2.631-1.5-2.631,1.5-2.631-1.5-2.631,1.5-1.426-.815a11.043,11.043,0,0,1,.831-3.148H29.876A11.048,11.048,0,0,1,30.707,9.912Zm-2.219-5.4H19.55A5.556,5.556,0,0,1,28.489,4.51ZM25.953,33.948a1.943,1.943,0,1,1-3.868,0L23.195,22.5a7.347,7.347,0,0,0,1.649,0Zm-6.4-15.909h8.938A5.556,5.556,0,0,1,19.55,18.039Z" fill="#c85d42"/>
      <path id="Trazado_883342" data-name="Trazado 883342" d="M267.052,16.429,268.2,4.6a4.2,4.2,0,1,0-8.356,0l1.146,11.827C257.779,17.848,255,21.793,255,27.059c0,5.759,3.648,11.274,9.02,11.274s9.02-5.526,9.02-11.274C273.039,21.755,270.237,17.838,267.052,16.429Zm-9.72,11.991,1.426-.815,2.631,1.5,2.631-1.5,2.63,1.5,2.631-1.5,1.426.815a11.041,11.041,0,0,1-.831,3.148H258.163A11.045,11.045,0,0,1,257.332,28.42Zm11.949-3.412-2.631,1.5-2.631-1.5-2.631,1.5-2.631-1.5-1.44.823a11.08,11.08,0,0,1,.845-3.283h11.713a11.077,11.077,0,0,1,.845,3.283Zm-7.2-20.623a1.943,1.943,0,1,1,3.868,0l-1.109,11.445a7.348,7.348,0,0,0-1.649,0Zm1.934,13.654a5.9,5.9,0,0,1,4.469,2.255H259.55a5.9,5.9,0,0,1,4.469-2.255Zm0,18.039a5.9,5.9,0,0,1-4.469-2.255h8.938A5.9,5.9,0,0,1,264.02,36.078Z" transform="translate(-221.961 0)" fill="#c85d42"/>
    </g>
  </g>
</svg>
