<svg xmlns="http://www.w3.org/2000/svg" width="72" height="72" viewBox="0 0 72 72">
  <g id="img-4" transform="translate(-180 -1139.469)">
    <g id="Grupo_1102144" data-name="Grupo 1102144" transform="translate(180 1112.094)">
      <circle id="Elipse_11597" data-name="Elipse 11597" cx="36" cy="36" r="36" transform="translate(0 27.375)" fill="#94ee7f"/>
    </g>
    <g id="en-todo-el-mundo" transform="translate(190.025 1149.5)">
      <g id="Grupo_1102168" data-name="Grupo 1102168">
        <path id="Trazado_883340" data-name="Trazado 883340" d="M25.984.05A25.969,25.969,0,0,0,2.107,15.8l-.324.107.126.377A25.967,25.967,0,1,0,25.984.05Zm20.37,39.062L45.02,37.78v-3.1a.865.865,0,0,0-.087-.387l-3.376-6.742V24.288a.866.866,0,0,0-.385-.72l-2.6-1.731a.866.866,0,0,0-.693-.119l-3.18.795-5.342-2.292-.735-5.149,2.037-2.036h4.372l1.472,2.212a.866.866,0,0,0,.578.373l5.194.866a.858.858,0,0,0,.416-.033l4.784-1.595A24.151,24.151,0,0,1,46.354,39.112ZM42.783,8.58l-1.408.938-3.924-.785-2.546-.847a.85.85,0,0,0-.483-.019l-3.218.8L29.794,8.2l1.046-2.091h2.928a.865.865,0,0,0,.387-.091l3-1.5A24.327,24.327,0,0,1,42.783,8.58ZM16.495,3.714,18.572,5.1a.865.865,0,0,0,.338.133l4.195.7L22.7,7.157l-2.186.73a.866.866,0,0,0-.468.375L17.556,12.4l-3.993,2.4-5.886.841a.866.866,0,0,0-.744.856v2.6a.866.866,0,0,0,.254.612l1.478,1.478v1.487l-3.6-2.4L3.756,16.351A24.377,24.377,0,0,1,16.495,3.714ZM14.03,32.1l-3.913-.783-1.454-2.9V26.378l3.225-3.225,1.194,2.388a.866.866,0,0,0,.775.479h5.57l2.345,3.908a.866.866,0,0,0,.742.42H24.92l-.606,3.036L21.037,36.66a.866.866,0,0,0-.254.612v2.164l-3.116,2.337a.866.866,0,0,0-.346.693v3.127l-1.077-.357-1.52-3.8v-8.49A.866.866,0,0,0,14.03,32.1ZM11.428,45.4A24.232,24.232,0,0,1,2.8,18.942L3.515,21.1a.865.865,0,0,0,.34.447L8.17,24.422l-.984.985a.866.866,0,0,0-.254.612v2.6A.865.865,0,0,0,7.023,29l1.731,3.463a.866.866,0,0,0,.606.461L13,33.653V41.6a.866.866,0,0,0,.061.321l1.731,4.328a.866.866,0,0,0,.531.5l2.6.866a.851.851,0,0,0,.269.045.866.866,0,0,0,.866-.866V42.9l3.116-2.337a.866.866,0,0,0,.346-.693V37.631l3.209-3.209a.866.866,0,0,0,.236-.442l.866-4.328a.866.866,0,0,0-.848-1.035H23l-2.345-3.908a.866.866,0,0,0-.742-.42H14.392L12.9,21.3a.866.866,0,0,0-.636-.467.848.848,0,0,0-.751.242L10.395,22.2V20.825a.866.866,0,0,0-.254-.612L8.663,18.736V17.248l5.317-.759a.87.87,0,0,0,.323-.115l4.328-2.6a.865.865,0,0,0,.3-.3L21.36,9.427l2.293-.765a.857.857,0,0,0,.547-.547l.866-2.6a.866.866,0,0,0-.679-1.125l-5.01-.835L18.5,2.97a24.171,24.171,0,0,1,16.648.619l-1.582.789H30.3a.866.866,0,0,0-.779.479L27.794,8.319a.866.866,0,0,0,.5,1.208l2.6.866a.85.85,0,0,0,.483.019l3.218-.8,2.358.785a.636.636,0,0,0,.1.028l4.328.866a.86.86,0,0,0,.65-.128L44,9.844a24.421,24.421,0,0,1,2.6,3.479l-4.259,1.42-4.611-.769-1.524-2.285A.866.866,0,0,0,35.5,11.3H30.3a.866.866,0,0,0-.612.254l-2.6,2.6a.866.866,0,0,0-.245.735l.866,6.059a.866.866,0,0,0,.519.673l6.059,2.6a.856.856,0,0,0,.551.044l3.091-.773,1.89,1.262v3a.865.865,0,0,0,.087.387l3.376,6.742v3.258a.866.866,0,0,0,.254.612l1.811,1.812A24.232,24.232,0,0,1,11.428,45.4Z" transform="translate(0 -0.05)" fill="#49763f"/>
      </g>
    </g>
  </g>
</svg>
