<svg xmlns="http://www.w3.org/2000/svg" width="72" height="72" viewBox="0 0 72 72">
  <g id="img-2" transform="translate(-180.051 -770.346)">
    <g id="Grupo_1102057" data-name="Grupo 1102057">
      <circle id="Elipse_11593" data-name="Elipse 11593" cx="36" cy="36" r="36" transform="translate(180.051 770.346)" fill="#94ee7f"/>
    </g>
    <g id="_x34_0" transform="translate(191.058 781.636)">
      <path id="Trazado_883337" data-name="Trazado 883337" d="M27.354,24.938l1.229,2.049a2.493,2.493,0,0,0,1.639,1.229c6.352,1.3,6.9,1.571,8.265,1.5l3.005,20.149a.657.657,0,1,0,1.3-.2l-4.1-27.39a2.309,2.309,0,0,0-2.6-1.912,2.248,2.248,0,0,0-1.844,2.6l.273,1.708c-.82-.2-1.708-.342-2.527-.546-.068,0-.137-.068-.2-.137L28.242,17.9a3.188,3.188,0,0,0-2.664-1.5H22.846a4.1,4.1,0,0,0-3.893,2.8l-1.025-.342a4.391,4.391,0,0,0-5.6,3.688l-.615,5.669-.683,5.464a.686.686,0,1,0,1.366.137l.342-2.732a2.944,2.944,0,0,0,1.639.546h2.391c-.478,2.732-.82,4.713-1.025,5.874a1.3,1.3,0,0,1-.2.546c-1.093,1.434-2.6,3.62-4.986,6.9a2.8,2.8,0,0,0,.888,4.1,2.87,2.87,0,0,0,3.688-.751c.751-.956.82-1.093,1.639-2.254a.683.683,0,1,0-1.093-.82c-.82,1.093-.888,1.161-1.639,2.186a1.443,1.443,0,0,1-1.981.615,1.483,1.483,0,0,1-.478-2.117c2.322-3.21,3.962-5.533,4.986-6.9a2.555,2.555,0,0,0,.478-1.093c2.254-13.387,1.708-12.363,3.21-18.032a2.654,2.654,0,0,1,2.664-2.049h2.732a1.665,1.665,0,0,1,1.434.82l3.552,6.079a1.7,1.7,0,0,0,1.093.82c2.664.546,5.4,1.161,6.284,1.366l.2,1.571c-1.161,0-1.844-.273-7.787-1.5a1.058,1.058,0,0,1-.751-.546c-.751-1.3-1.981-3.415-2.049-3.483a.726.726,0,0,0-.888-.342.825.825,0,0,0-.478.478c0,.068.068-.82-1.708,8.879a1.1,1.1,0,0,0,.478,1.229c1.3.888,2.6,1.776,4.03,2.6a2.826,2.826,0,0,1,1.366,1.776c.956,3.074,1.981,6.011,3.074,9.358a1.581,1.581,0,0,1-1.434,2.254,1.477,1.477,0,0,1-1.434-1.025c-.546-1.571-2.322-6.967-2.8-8.538a3.282,3.282,0,0,0-1.161-1.571c-.273-.2-1.3-.888-4.645-3.21a.94.94,0,0,0-.82-.137c-.342.137-.41.546-.478.683-.068.2-.41,2.664-.478,3.074a4.715,4.715,0,0,1-1.093,2.186c-.41.478-.888,1.161-1.5,1.981a.683.683,0,0,0,1.093.82c.615-.82,1.093-1.5,1.5-1.981A6.145,6.145,0,0,0,21.617,38.6c.068-.478.273-1.844.342-2.322,1.3.888,2.6,1.776,3.893,2.732a1.469,1.469,0,0,1,.615.82c.478,1.571,2.254,7.035,2.8,8.538A2.812,2.812,0,0,0,32,50.278h.068a2.956,2.956,0,0,0,2.732-4.03c-.956-2.869-2.049-6.216-3.074-9.358a3.92,3.92,0,0,0-1.981-2.527c-1.3-.751-2.459-1.571-3.757-2.459.342-1.161.273-.751,1.366-6.967Zm-10.382,5.4h-2.6a1.364,1.364,0,0,1-1.366-1.5l.683-6.147a2.985,2.985,0,0,1,3.825-2.527l1.161.342a71.182,71.182,0,0,0-1.708,9.836Zm19.057-5.328-.342-2.254a.9.9,0,1,1,1.776-.273l.41,2.869Z" transform="translate(0 -4.628)" fill="#49763f"/>
      <path id="Trazado_883338" data-name="Trazado 883338" d="M32.04,10.679a4.44,4.44,0,0,0,0-8.879,4.44,4.44,0,0,0,0,8.879Zm-.068-7.513h0A3.074,3.074,0,1,1,28.9,6.24,3.1,3.1,0,0,1,31.971,3.166Z" transform="translate(-5.574)" fill="#49763f"/>
    </g>
  </g>
</svg>
