<svg xmlns="http://www.w3.org/2000/svg" xmlns:xlink="http://www.w3.org/1999/xlink" width="1030" height="176.097" viewBox="0 0 1030 176.097">
  <defs>
    <clipPath id="clip-path">
      <path id="Rect치ngulo_401268" data-name="Rect치ngulo 401268" d="M30,0H1030a0,0,0,0,1,0,0V146.1a30,30,0,0,1-30,30H0a0,0,0,0,1,0,0V30A30,30,0,0,1,30,0Z" transform="translate(0 8)" fill="#567d56" stroke="#707070" stroke-width="1"/>
    </clipPath>
    <linearGradient id="linear-gradient" x1="0.787" y1="0.406" x2="0.352" y2="0.464" gradientUnits="objectBoundingBox">
      <stop offset="0" stop-color="#fde3c1"/>
      <stop offset="1" stop-color="#ffa735"/>
    </linearGradient>
    <clipPath id="clip-path-2">
      <rect id="Rect치ngulo_401684" data-name="Rect치ngulo 401684" width="515" height="844.186" transform="translate(0 0)" fill="#ffa735"/>
    </clipPath>
  </defs>
  <g id="img-11" transform="translate(-3507.182 1600.298)">
    <g id="Grupo_1102161" data-name="Grupo 1102161" transform="translate(3222.182 -5178.644)">
      <g id="Enmascarar_grupo_1098728" data-name="Enmascarar grupo 1098728" transform="translate(285 3570.346)" clip-path="url(#clip-path)">
        <path id="Recurso_1" data-name="Recurso 1" d="M0,0H1046.12V323.73H0Z" transform="translate(1046.12 247.867) rotate(180)" fill="url(#linear-gradient)"/>
        <g id="Grupo_1101892" data-name="Grupo 1101892" transform="translate(126.05 -190.029)" opacity="0.24" style="mix-blend-mode: multiply;isolation: isolate">
          <g id="Grupo_1100390" data-name="Grupo 1100390" transform="translate(0 0)" clip-path="url(#clip-path-2)">
            <path id="Trazado_875812" data-name="Trazado 875812" d="M274.047,113.649a43.822,43.822,0,0,0-.616-10.011,10.6,10.6,0,0,0-3.91-6.358c-4.5-3.587-10.633-5.018-16.007-5.416a15.312,15.312,0,0,0-8.659,2.217c-2.962,1.668-5.732,3.764-8.947,4.756A10.317,10.317,0,0,1,226.8,97.7c-2.661-1.7-5.138-3.723-8.073-4.771-3.028-1.083-6.26-1.038-9.393-1.315-3.01-.267-6.369-.741-8.667-3.24-1.931-2.1-3.141-5.305-4.308-8.011-1.21-2.811-2.315-5.683-3.495-8.515-2.154-5.164-4.565-10.364-8.48-14.051-4.439-4.177-10.231-5.028-15.775-4.227-3.665.524-7.235,1.768-10.935,2.03a76.958,76.958,0,0,1-13.132-.746c-2.141-.227-4.277-.484-6.413-.756a35.529,35.529,0,0,0-5.553-.514c-3.368.111-6.566,1.441-9.7,2.746-3.172,1.32-6.715,2.932-10.153,2.63-3.22-.282-10.585-5.552-10.891-4-2.7-.479-5.146,1.29-7.23,3.149-.3.267-.59.544-.882.821-3.6,2.1-7.095,4.418-10.559,6.807-.1.066-.192.136-.293.2a44.77,44.77,0,0,0-7.794,3.436A51.953,51.953,0,0,0,66.2,76.744c-.384.378-.743.781-1.123,1.164-.882.544-1.756,1.1-2.656,1.617-.044.025-.052.146.013.111.743-.4,1.468-.846,2.206-1.27-2.608,2.685-5.138,5.466-7.689,8.217a1.627,1.627,0,0,0-.463,1.552c1.057,3.456,4.517,3.97,6.107,6.892a14.349,14.349,0,0,1,1.284,6.182,31.733,31.733,0,0,1-.585,7.557c-.882,4.544-2.372,8.933-2.883,13.573-.5,4.57.7,8.978.559,13.543a54.222,54.222,0,0,0,0,6.741,33.753,33.753,0,0,0,1.118,5.728A43.579,43.579,0,0,0,66.8,159.471a22.957,22.957,0,0,0,7.387,7.462,54.864,54.864,0,0,1,8.432,6.157c4.548,4.348,6.658,11.709,8.3,18.047,1.376,5.335,2.743,10.842,5.946,15.165,3.84,5.184,9.384,6.822,15.028,7.638,3.2.459,6.6.448,9.567,2.076,3.294,1.8,5.758,5.351,8.091,8.474a59.145,59.145,0,0,1,6.785,11.175,32.219,32.219,0,0,1,2.682,12.812c.17,8.278-3.342,16.032-5.461,23.745a46.69,46.69,0,0,0-1.372,13.1c.031,2.544.118,5.089-.009,7.628a51.066,51.066,0,0,1-1.149,7.346,48.68,48.68,0,0,0-1.136,13.009c.135,1.9.738,3.653.944,5.542a25.773,25.773,0,0,1,.07,4.857c-.564,6.721-2.787,13.281-2.534,20.092.2,5.094,2.626,10.691,6.959,12.646,3.01,1.355,5.671-.791,7.427-3.522,2.359-3.673,3.613-8.046,4.766-12.369A104.069,104.069,0,0,1,151.07,328.7a53.4,53.4,0,0,1,5.177-8.923c2.508-3.854,5.146-7.6,7.811-11.311,4.526-6.323,12.145-6.615,18.051-10.454,5.321-3.456,8.89-8.756,11.839-14.812,3.386-6.958,5.627-14.938,9.943-21.241,4.491-6.56,11.83-8.2,17.833-12.213a17.076,17.076,0,0,0,6.4-8.167c1.293-3.26,1.935-6.8,3.22-10.066a18.231,18.231,0,0,1,2.8-4.942,47.469,47.469,0,0,1,3.783-3.653c2.809-2.726,4.12-6.343,5.3-10.258,1.328-4.388,2.778-8.726,4.08-13.124,1.276-4.318,2.512-8.7,4.618-12.59,2.066-3.824,4.351-7.426,6.155-11.432,1.83-4.056,2.94-8.378,4.5-12.56,1.612-4.328,3.74-8.373,5.539-12.6a66.972,66.972,0,0,0,4.093-13.21c1.529-7.653,1.66-15.674,1.831-23.5m-4.233,26.471c-2.311,8.9-7.165,16.359-9.974,25a91.391,91.391,0,0,1-4.64,12.3c-1.918,3.9-4.377,7.472-6.059,11.522-1.643,3.96-2.774,8.162-4.028,12.3-1.306,4.308-2.647,8.641-4.045,12.913a17.742,17.742,0,0,1-2.647,5.658,39.646,39.646,0,0,1-3.7,3.587,22.133,22.133,0,0,0-5.369,8.892c-1.149,3.31-1.778,6.892-3.307,10.021-1.761,3.617-4.688,5.572-7.85,7.285a93.6,93.6,0,0,0-9.476,5.29,24.1,24.1,0,0,0-6.837,7.416c-3.906,6.439-6.221,13.991-9.624,20.777a40.645,40.645,0,0,1-5.129,8.162,24.907,24.907,0,0,1-7.872,6.081c-3,1.527-6.225,2.333-9.248,3.789a19.733,19.733,0,0,0-7.676,7.018c-2.573,3.713-5.142,7.441-7.558,11.3a54.613,54.613,0,0,0-4.8,8.56c-1.459,3.663-2.219,7.643-3.421,11.422-1.3,4.111-2.687,8.56-4.893,12.147-1.761,2.867-4.133,4.036-6.854,2.005a13.512,13.512,0,0,1-4.613-6.419,23.944,23.944,0,0,1-.673-9.527c.577-6.529,2.6-12.968,2.494-19.568-.031-1.975-.354-3.925-.52-5.874a37.311,37.311,0,0,1,.087-6.736c.437-4.59,1.35-9.1,1.533-13.734.183-4.575-.17-9.174.341-13.734.5-4.484,2.088-8.746,3.456-12.953,2.3-7.089,4.871-14.837,3.434-22.491a34.334,34.334,0,0,0-4.5-11.245,104.687,104.687,0,0,0-7.064-10.394c-2.276-2.962-4.574-5.688-7.789-7.255a28.8,28.8,0,0,0-9-2.217c-5.631-.741-11.009-2.519-14.591-7.915-2.879-4.343-4.591-10.071-6.12-15.2-1.817-6.1-3.844-12.58-8.344-16.732-2.564-2.368-5.57-3.94-8.231-6.137a31.9,31.9,0,0,1-7.112-8.777,42.45,42.45,0,0,1-4.408-11.165,27.867,27.867,0,0,1-.791-6.625c.009-2.267.214-4.539.026-6.8-.183-2.2-.655-4.358-.773-6.565a29.557,29.557,0,0,1,.673-7.235c.874-4.464,2.2-8.807,2.6-13.381.319-3.592.459-7.92-1.131-11.17-1.311-2.68-4.242-3.587-5.487-6.217,4.028-4.418,8.016-9.028,12.5-12.842q3.8-2.411,7.553-4.907c1.761-.781,3.56-1.436,5.36-2.182A29.442,29.442,0,0,0,92.8,61.851c1.04-.977,2.162-2.141,3.373-3.129A14.359,14.359,0,0,1,99.8,57.17a7.791,7.791,0,0,1,4.915.761c2.857,1.265,5.535,3.114,8.689,3.109,3.276-.005,6.431-1.335,9.48-2.59,3.167-1.31,6.426-2.68,9.838-2.63a53,53,0,0,1,5.968.7q3.093.393,6.195.69a74.839,74.839,0,0,0,12.56.559c3.639-.272,7.151-1.451,10.738-2.136,5.775-1.1,11.455-.045,15.78,4.781,3.652,4.076,5.924,9.578,8.056,14.812,1.11,2.731,2.184,5.482,3.39,8.157,1.2,2.66,2.446,5.658,4.513,7.557,4.884,4.489,11.961,2.418,17.619,4.192,2.936.917,5.391,3.043,8.06,4.625a11.173,11.173,0,0,0,8.121,1.552c3.294-.65,6.217-2.418,9.1-4.3,2.792-1.824,5.6-3.532,8.9-3.365a37.656,37.656,0,0,1,7.995,1.577,25.6,25.6,0,0,1,8.152,3.617A9.7,9.7,0,0,1,272,105.628a52.4,52.4,0,0,1,.328,10.172c-.31,8.2-.459,16.394-2.516,24.319" transform="translate(190.416 216.014)" fill="#ffa735"/>
            <path id="Trazado_875813" data-name="Trazado 875813" d="M92.661,95.294a9.063,9.063,0,0,0,1.027-3.713,19.485,19.485,0,0,0-.507-5.325,14.792,14.792,0,0,0-2.119-5.421c-1.28-1.879-3.438-2.932-5.3-3.854-2.071-1.028-4.1-1.894-5.719-3.794-3.215-3.779-3.766-9.25-5.863-13.769-2.464-5.325-7.431-9.054-12.743-7.678-2.813.731-5.513,2.368-8.1,3.779-1.311.715-2.634,1.416-3.989,2.02a10.457,10.457,0,0,0-3.1,2.03,6.952,6.952,0,0,0-2.01,6.348c.572,3.023,2.835,5.335,4.9,7.084a32.83,32.83,0,0,1,3.18,2.957c1,1.1,1.883,2.323,2.875,3.431,1.992,2.242,4.683,3.4,6.758,5.537s3.827,4.66,6.029,6.64a22.281,22.281,0,0,0,6.942,4.247,27.183,27.183,0,0,0,3.831,1.093c1.433.322,2.848.69,4.281,1.028a8.229,8.229,0,0,0,3.761.292,11.355,11.355,0,0,0,2.154-.766,3.827,3.827,0,0,0,2.936-1.144c.262-.02.917-.967.778-1.023m-12.027,1.35a25.815,25.815,0,0,1-13.569-7.774c-1.787-2.02-3.346-4.363-5.352-6.111-.97-.851-2.027-1.547-3.041-2.323a12.777,12.777,0,0,1-3-3.285,34.038,34.038,0,0,0-2.215-3.562,26.94,26.94,0,0,0-2.647-2.6c-1.94-1.743-4.037-3.628-4.792-6.459-.664-2.484,1.214-4.126,2.844-5.3a39.824,39.824,0,0,1,7.553-4.177,13.6,13.6,0,0,1,7.711-1.3A13.29,13.29,0,0,1,70.8,57.478c3.276,3.2,4.268,7.94,6.055,12.228a16.513,16.513,0,0,0,3.4,5.487,21.846,21.846,0,0,0,5.072,3.552,15.731,15.731,0,0,1,5.456,4.146,10.757,10.757,0,0,1,1.852,5.552,13.613,13.613,0,0,1-.5,5.562,3.232,3.232,0,0,1-.765,1.184,9.256,9.256,0,0,0-2.241.731c-.24-.015-1.337.171-1.481.529a13.381,13.381,0,0,1-7.016.2" transform="translate(148.927 208.543)" fill="#ffa735"/>
            <path id="Trazado_875814" data-name="Trazado 875814" d="M97.732,51.8a4.457,4.457,0,0,0-1.774-2.816,6.267,6.267,0,0,0-3.32-.746c-2.556.05-5.015.862-7.523,1.32a16.534,16.534,0,0,1-10.039-1.622c-1.625-.736-3.2-1.632-4.867-2.247a31.272,31.272,0,0,0-5.3-1.481c-3.185-.564-6.75-.791-9.869.307a10.444,10.444,0,0,0-6.7,8.711A22.29,22.29,0,0,0,50.389,65.34a17.668,17.668,0,0,0,2.023,3.376c2.923,4.867,9.567,4.01,13.656,1.758,2.866-1.577,5.553-3.6,8.676-4.419a12.351,12.351,0,0,1,4.985-.338c1.42.207,2.8.625,4.229.776,2.936.312,6.033.433,8.759-1.078a9.955,9.955,0,0,0,4.329-5.663,13.552,13.552,0,0,0,.686-7.95M94.276,62.6c-1.56,2.212-4.3,2.307-6.592,2.3-2.735-.02-5.452-.433-8.2-.433a19.357,19.357,0,0,0-4.238.433,38.352,38.352,0,0,0-3.958,1.36c-3.875,1.335-7.973,4.529-12.127,4.408a.539.539,0,0,0-.8-.428c.319-.126-.035-.005-.131-.005s-.218.01-.328,0A2.888,2.888,0,0,1,57.3,70.1a3.891,3.891,0,0,1-1.337-.751,11.331,11.331,0,0,1-2.512-3.27,25.023,25.023,0,0,1-2.984-9.593,1.75,1.75,0,0,1,.376-.761c.131-.146-.083-.267-.2-.166a2.217,2.217,0,0,0-.258.327l-.009-.1c-.218-3.29.467-6.9,3.132-8.651,1.861-1.224,4.539-1.154,6.588-1.129a40.175,40.175,0,0,1,9.947,1.854c3.159.841,6.234,2.146,9.432,2.786,2.564.514,4.958.1,7.5-.207,2.145-.257,4.517-.6,6.627.1,1.962.65,2.586,2.816,2.621,4.973A12.3,12.3,0,0,1,94.276,62.6" transform="translate(162.615 177.399)" fill="#ffa735"/>
            <path id="Trazado_875815" data-name="Trazado 875815" d="M225.1,44.434c-.358-3.013-2.167-6.061-3.792-8.358a19.026,19.026,0,0,0-7.549-6.625c-2.966-1.315-6.173-1.814-9.087-3.31-5.81-2.988-10.742-7.834-16.719-10.484a47.831,47.831,0,0,0-17.986-4.192A60.651,60.651,0,0,0,151.58,14.14c-12.874,3.7-25.1,9.522-37.19,15.744-6.138,3.159-12.193,6.54-18.209,10.011C90.725,43.049,85.221,46.021,80.463,50.5c-4.342,4.1-8.091,8.933-11.887,13.674-1.948,2.438-3.919,4.862-6,7.154-2.158,2.373-4.469,4.519-6.815,6.635-4.613,4.167-9.078,8.469-12.267,14.218a113.694,113.694,0,0,0-4.937,10.711c-1.525,3.567-3.29,7-4.814,10.57s-3,7.164-4.277,10.862a55.77,55.77,0,0,0-2.578,11.114c-.5,3.829-.8,7.7-1.52,11.487a61.6,61.6,0,0,1-1.809,6.857c-1.595,5.1-3.46,10.107-4.7,15.351-1.114,4.706-1.8,9.84-.577,14.611a16.415,16.415,0,0,0,3.207,6.343,56.681,56.681,0,0,0,6.824,6.706,56.084,56.084,0,0,0,7.51,5.7,47.973,47.973,0,0,1,6.02,3.678,10.147,10.147,0,0,1,3.5,7.094c.236,2.4.074,4.816.153,7.22a11.659,11.659,0,0,0,1.363,5.834,7.274,7.274,0,0,0,5.7,3.038c5.159.469,10.6-3.582,15.5-.539a71.848,71.848,0,0,1,6.632,5.3,16.926,16.926,0,0,0,7.453,3.7,26.937,26.937,0,0,0,9.1-.247,68.832,68.832,0,0,0,8.689-1.884c2.73-.821,5.474-1.678,8.318-1.224,2.093.333,4.159,1.053,6.225,1.557a29.481,29.481,0,0,0,7.077,1.093c1.787,0,3.744-.383,4.867-2.151,1.206-1.9,1.149-4.57,1.411-6.8a23.01,23.01,0,0,1,1.8-7.23,9.044,9.044,0,0,1,4.076-4.363c2.189-1.2,4.552-1.98,6.605-3.512a9.924,9.924,0,0,0,3.919-5.754,15.158,15.158,0,0,0-.778-7.875,14.679,14.679,0,0,0-3.29-5.945A5.358,5.358,0,0,0,137.4,192c-2.6-1.25-5.474-.66-7.925.836-2.905,1.778-5.33,4.353-8.523,5.507a9.2,9.2,0,0,1-7.549-.872,20.062,20.062,0,0,1-7.658-6.409c-1.826-2.7-3.154-6.444-2.416-9.9.817-3.824,4.443-6.172,7.143-8.076a41.674,41.674,0,0,0,8.7-8.348c4.137-5.34,6.439-13.7,12.237-17,.17.2.45.267.848.06,2.315-1.229,4.8.811,6.566,2.4,2.176,1.955,4.259,3.98,6.509,5.834a42.231,42.231,0,0,1,4.072,3.658c1.232,1.32,2.39,2.721,3.574,4.1,1.573,1.829,3.591,3.7,5.963,3.617,2.613-.091,4.84-2.7,6.129-5.084a15.458,15.458,0,0,0,1.319-9.265A20.928,20.928,0,0,0,164,144.825c-1.162-1.97-2.77-3.587-3.665-5.759-1.18-2.852-.485-5.814.192-8.721a26.578,26.578,0,0,1,3.814-9.089,65.77,65.77,0,0,1,5.7-6.605c1.625-1.824,3.377-4.207,3.556-6.917a56.407,56.407,0,0,0-.738-10.071c-.367-3.2-.852-6.877.393-9.91.935-2.272,2.778-3.517,4.674-4.544,2-1.078,4.08-2,5.985-3.28A18.267,18.267,0,0,0,189.6,73.5c1.494-2.7,2.529-5.688,3.932-8.449,1.359-2.675,2.923-4.565,5.6-5.3,2.329-.635,4.762-.564,7.108-1.078a28.773,28.773,0,0,0,8.086-3.376,59.656,59.656,0,0,0,7.488-4.887c1.769-1.391,3.609-3.275,3.285-5.985m-2.621,2.912a20.086,20.086,0,0,1-3.329,2.741c-1.18.937-2.333,1.9-3.547,2.786a24.924,24.924,0,0,1-7.912,3.854c-2.324.66-4.718.63-7.082.982a10.041,10.041,0,0,0-6.1,2.927c-1.922,2.046-3.163,4.862-4.4,7.472a32.3,32.3,0,0,1-4.43,7.623,18.444,18.444,0,0,1-5.863,4.026c-3.84,1.945-7.938,4.5-8.729,9.734-.472,3.139.131,6.237.725,9.3a19.164,19.164,0,0,1,.424,5.4,24.107,24.107,0,0,1-1.079,4.978c-.721,2.438-2.376,4.151-3.954,5.875a30.792,30.792,0,0,0-5.221,7.164,36.673,36.673,0,0,0-2.831,8.8c-.529,2.57-1.088,5.25-.275,7.824a27.2,27.2,0,0,0,3.071,5.613,23.651,23.651,0,0,1,2.774,7.789c.62,3.2.834,7.074-.948,9.86-1.546,2.423-3.962,3.638-6.422,2.383a14.1,14.1,0,0,1-3.228-2.534c-1.175-1.124-2.42-2.146-3.683-3.139a85.541,85.541,0,0,1-7.789-6.9c-2.91-2.922-6.522-7.9-10.834-5.618a.929.929,0,0,0-.28.217,7.864,7.864,0,0,0-2.5.922,12.866,12.866,0,0,0-3.491,3.209c-2.145,2.721-3.613,6.086-5.4,9.114a52.827,52.827,0,0,1-8.523,10.817c-2.687,2.625-6.221,4.318-8.314,7.688-1.822,2.932-1.73,6.791-.769,10.081,1.009,3.441,2.757,6.922,5.378,9.028,2.6,2.081,5.631,4,8.838,4.3,3.027.292,5.88-1.411,8.257-3.406a31.426,31.426,0,0,1,4.915-3.839,7.475,7.475,0,0,1,5.609-.544,6.072,6.072,0,0,1,3.687,2.761c.415.67.76,1.391,1.166,2.066a5.037,5.037,0,0,0,1.236,1.5c.3,1.038.533,2.066.725,2.993.542,2.645.349,5.33-1.424,7.3-1.73,1.92-4.037,2.706-6.225,3.648a13.5,13.5,0,0,0-5.05,3.315,13.253,13.253,0,0,0-3.211,6.388c-.345,2.4.144,4.847-.17,7.23a7.8,7.8,0,0,1-.913,3.209,2.585,2.585,0,0,1-2.158.993c-4.259.322-8.379-1.93-12.468-2.922-5.356-1.295-10.476,1.28-15.662,2.444-5.841,1.31-12.031,2.534-17.492-.937-4.29-2.726-8.126-7.789-13.3-8.086-4.845-.282-10.1,3.708-14.744.579-3.4-2.292-2.538-8.071-2.765-11.875a13.783,13.783,0,0,0-1.983-7.043,14.29,14.29,0,0,0-4.867-4.116,54.139,54.139,0,0,1-6.54-4.106c-2.626-2.056-4.788-4.726-7.151-7.144-1.861-1.9-3.827-3.718-5.1-6.227a17.181,17.181,0,0,1-1.7-6.726c-.288-5.038.992-10.056,2.4-14.772,1.442-4.827,3.228-9.517,4.522-14.4,1.7-6.434,1.713-13.235,3.1-19.75,1.616-7.593,5.273-14.278,7.938-21.382,2.63-7,5.107-14.263,9.393-20.183,3.753-5.189,8.632-8.918,13.084-13.225A140.1,140.1,0,0,0,71.346,62.083a88.213,88.213,0,0,1,12.023-13A63.255,63.255,0,0,1,91.2,43.8q4.279-2.6,8.571-5.134c11.625-6.872,23.455-13.15,35.871-17.886a136.226,136.226,0,0,1,18.492-5.744,57.554,57.554,0,0,1,17.92-1.663,44.394,44.394,0,0,1,17.92,5.527c5.439,3.124,10.249,7.8,16.068,10,2.931,1.113,6.033,1.743,8.716,3.587a21.654,21.654,0,0,1,6.5,7.875c.913,1.768,2.761,5.084,1.21,6.978" transform="translate(59.715 46.993)" fill="#ffa735"/>
            <path id="Trazado_875816" data-name="Trazado 875816" d="M64.245,51.608a2.643,2.643,0,0,0-1.485-1.567,10.4,10.4,0,0,0-5.74-.559,16.037,16.037,0,0,0-3.316.741,5,5,0,0,0-2.438,1.622c-.179.247-.363.781-.022.993a34.806,34.806,0,0,1,2.783,2.207c.411.307.926.705,1.437.584a7.687,7.687,0,0,0,1.407,1.2,4.2,4.2,0,0,0,3.5.68A6.18,6.18,0,0,0,63.9,54.153a3.591,3.591,0,0,0,.349-2.544m-1.481,1.864a5.3,5.3,0,0,1-2.429,2.121,3.377,3.377,0,0,1-2.551-.8c-1.49-.993-3.115-2.6-4.893-2.882.188-.121.524-.312.764-.433a9.447,9.447,0,0,1,2.473-.776,11.219,11.219,0,0,1,5.33.171,2.615,2.615,0,0,1,1.512,1.033,1.466,1.466,0,0,1-.205,1.562" transform="translate(172.306 199.978)" fill="#ffa735"/>
            <path id="Trazado_875817" data-name="Trazado 875817" d="M71.344,44.8A2.844,2.844,0,0,0,69.4,43.733a6.854,6.854,0,0,0-.965,0,11.691,11.691,0,0,0-4.836-.146,3.754,3.754,0,0,0-2.709,2.046A4.369,4.369,0,0,0,61.23,50a6.313,6.313,0,0,0,3.438,1.965,7.311,7.311,0,0,0,3.578.2,5.926,5.926,0,0,0,3.508-2.534,4.145,4.145,0,0,0-.411-4.832m-.459,3.164c.044-.257-.013.035-.026.081a1.112,1.112,0,0,1-.048.131l-.052.121c-.074.131-.14.272-.223.4a4.409,4.409,0,0,1-.555.675,4.119,4.119,0,0,1-1.525.917,5.3,5.3,0,0,1-3.115-.06,5.88,5.88,0,0,1-3-1.627,3.215,3.215,0,0,1-.223-.277,1.232,1.232,0,0,1-.166-.252,2.145,2.145,0,0,1-.135-.312c.066.2-.048-.368-.022-.106-.009-.076-.009-.151-.013-.227v-.02l0-.035c.009-.1.022-.191.039-.282l.066-.227c.013-.015.1-.207.122-.252l0-.01.079-.1c.026-.025.162-.161.183-.191a2.9,2.9,0,0,1,.524-.348,5.016,5.016,0,0,1,1.363-.373,12.112,12.112,0,0,1,3.512.161c.529.086,1.048.2,1.577.3.192.03.393.086.585.1l.026-.01a2.819,2.819,0,0,1,.847.877c.044.076.079.156.118.242l.035.086a1.594,1.594,0,0,1,.035.156l.013.04v.015c0,.066,0,.131,0,.2l-.009.025a1.4,1.4,0,0,0-.031.186" transform="translate(204.01 175.996)" fill="#ffa735"/>
            <path id="Trazado_875818" data-name="Trazado 875818" d="M50.552,2.036c.157-.02.079-.035,0,0" transform="translate(170.621 8.906)" fill="#ffa735"/>
            <path id="Trazado_875819" data-name="Trazado 875819" d="M512.537,284.448a306.331,306.331,0,0,0-29.3-102.074c-15.426-31.368-36.207-59.194-60.851-81.337a228.367,228.367,0,0,0-83.153-48.2,206.355,206.355,0,0,0-113.135-3.6.8.8,0,0,0,.454-.554,8.2,8.2,0,0,0-.266-3.008c-.218-1.33-.485-2.65-.778-3.965-.079-.343-.175-.685-.253-1.033,1.726-1.572,4.456-1.718,6.536-2.177a50.581,50.581,0,0,1,8.453-1.164c.944-.04,1.883-.055,2.822-.136a11.508,11.508,0,0,0,2.717-.378c2.184-.736,2.093-3.517,1.822-5.643a20.032,20.032,0,0,1-.384-3.3c.057-1.219.4-2.554-.319-3.612-.69-1.028-2-1.174-3.036-1.33a30.939,30.939,0,0,1-4.072-.947,15.483,15.483,0,0,1-7.352-4.172c-1.7-1.9-2.923-4.3-4.5-6.323C226.6,9.775,224.6,7.241,222.38,7.624a14.883,14.883,0,0,0-2.206.61c-.214.055-.428.126-.638.2-.048.015-.092.035-.14.045a12.142,12.142,0,0,1-1.56.413,3.406,3.406,0,0,1-.979.1,21.345,21.345,0,0,0-3.373-6.021,8.873,8.873,0,0,0-7.4-2.957,13.223,13.223,0,0,0-8.877,4.454,13.046,13.046,0,0,0-3.2,9.85,21.311,21.311,0,0,0,.472,2.983.417.417,0,0,0-.083.343l0,.025-.013-.03c-.433-.675-4.906,2.534-6.771,3.144a86.327,86.327,0,0,0-9.139,3.748c-2.979,1.37-6.072,2.524-8.96,4.126-.791.438-1.564.912-2.337,1.391-4.452,2.126-8.855,4.388-13.145,6.917-6.754,3.975-13.32,8.459-19.847,12.913s-12.931,9.1-19.157,14.077A163.612,163.612,0,0,0,97.926,79.423c-1.752,1.864-3.425,3.814-5.081,5.779-.677.675-1.367,1.33-2.036,2.02a176.641,176.641,0,0,0-11.616,14.011c-4.417,5.255-8.711,10.636-12.756,16.294-4.688,6.555-9.1,13.392-13.237,20.42-1.9,3.224-3.726,6.509-5.684,9.693-1.918,3.119-3.892,6.192-5.8,9.321-3.735,6.132-7.449,12.57-9.563,19.714-.2.67-.363,1.355-.524,2.035-.507,1.265-1.009,2.529-1.494,3.8-4.421,11.648-8.711,23.448-12.18,35.524-1.765,6.157-3.25,12.409-4.661,18.682-.7,3.093-1.315,6.192-1.913,9.316-.568,2.962-1.468,5.774-2.272,8.656-.926,3.305-2.8,17.316-3.359,20.888-.275,1.728-.568,3.461-.856,5.2-.061-.025-.17.071-.162.161.026.176.031.358.048.534-.638,3.789-2.215,14.54-2.433,16.122-.922,6.7-1.35,13.391-1.73,20.148a261.94,261.94,0,0,0,5.5,75.1,252.542,252.542,0,0,0,10.2,35.277c2.368,6.318,5.151,12.414,7.816,18.571,6.514,21.559,17.973,40.432,30.008,58.433,6.819,10.2,14.124,20.032,22.857,28.123,4.425,4.1,8.79,8.258,13.176,12.414,4.4,4.172,9.283,7.623,13.927,11.422a329.055,329.055,0,0,0,61.109,40.1c10.926,5.446,21.874,11.084,33.158,15.482,1.188.463,2.39.871,3.587,1.29a5.243,5.243,0,0,0,.708,1.869,13.647,13.647,0,0,1,1.18,2.03,14.019,14.019,0,0,1,.682,2.62c.162.811.384,1.587.6,2.368a34.07,34.07,0,0,1-.035,4.172c-.275,4.111-1.14,8.142-1.608,12.223-.109.992-.266,1.97-.389,2.957-.262,1.5-.537,2.993-.821,4.479-1.276,6.635-3.067,13.17-4.3,19.825a12.3,12.3,0,0,1-2.171,1.859c-1.547,1-3.185,1.859-4.05,3.753-2.045,4.469-1.835,9.955-2.831,14.777-.594,2.857-1.411,5.648-2.136,8.464-.467,1.824-.987,3.708-1.315,5.612q-8.375-.431-16.763-.262c-.363,0-.721-.005-1.083,0-.891.025-1.782.086-2.674.126-3.713.141-7.431.338-11.14.68-10.887,1.073-21.782,3.033-32.214,7a55.408,55.408,0,0,0-14.832,8.192,30.779,30.779,0,0,0-6.029,6.55,21.982,21.982,0,0,0-1.59,2.9A61.747,61.747,0,0,0,87.3,734.313a39.729,39.729,0,0,0-7.051,8.494,28.878,28.878,0,0,0-3.993,11.255c-.1.725-.127,1.456-.162,2.187a53.278,53.278,0,0,0,1.114,9.9,44.417,44.417,0,0,0,4.57,10.454,72.888,72.888,0,0,0,13.683,16.057,125.542,125.542,0,0,0,16,12.092c5.548,3.557,11.206,6.837,16.981,9.774,23.154,11.643,47.605,19.039,72.362,23.624,24.766,4.5,50.047,6.011,75.185,2.766,12.534-1.733,25.089-4.519,37.107-9.84a75.646,75.646,0,0,0,9.043-4.746,7.711,7.711,0,0,0,1.014-.65,57.98,57.98,0,0,0,7.064-5.315c.214-.2.419-.418.633-.625.411-.322.813-.665,1.236-.967a16,16,0,0,0,3.989-4.817,43.082,43.082,0,0,0,3.373-5.683,26.777,26.777,0,0,0,1.87-13.19c-.017-.171-.057-.338-.079-.509a31.074,31.074,0,0,0-1-5.482,40.118,40.118,0,0,0-2.6-6.817c-.166-.388-.332-.776-.511-1.159a43.821,43.821,0,0,0-3.9-6.771c-1.415-1.99-2.7-4.172-4.727-5.376-.148-.171-.293-.343-.441-.509a22.749,22.749,0,0,0-.983-4.927,34.123,34.123,0,0,0-4.006-8.222,63.6,63.6,0,0,0-11.948-12.863c-8.864-7.4-18.715-13.059-28.789-17.911a231.044,231.044,0,0,0-30.633-11.794c.38-3.824-.061-7.976.275-11.563.481-5.124,2.564-9.955,2.639-15.15a11.137,11.137,0,0,0-.376-3.512,8.673,8.673,0,0,0-2.123-3.189,20.128,20.128,0,0,1-3.228-4.262,30.993,30.993,0,0,1-1.643-3.7c.184-5.265.192-10.54.668-15.79.511-5.673,1.507-11.291,2.193-16.943.044-.363.074-.725.114-1.093q.819-3.582,1.643-7.164a25.276,25.276,0,0,1,1.118-3.759c.127-.307.214-.62.328-.922.2-.156.393-.317.6-.458.585-.4,1.132-.741,1.734-1.073,4.4.151,8.82.277,13.215.247,1.551-.01,3.093-.091,4.631-.207,2.569-.07,5.138-.222,7.706-.484,5.714-.584,11.468-.514,17.173-1.129,5.544-.594,11-1.99,16.535-2.63,2.634-.3,5.29-.872,7.933-.66a7.99,7.99,0,0,0,3.036-.106,1.97,1.97,0,0,0,.266-.141,6.64,6.64,0,0,0,2.647,3.265,3.469,3.469,0,0,0,1.463,1.128,6.1,6.1,0,0,0,1.616.393,10.658,10.658,0,0,0,11.848-5.29,14.586,14.586,0,0,0,.712-7.94c-.389-2.766-.987-5.5-1.616-8.2-.909-3.92-2.123-7.719-3.062-11.623-.389-1.617-.668-3.27-1.127-4.867-.118-.413-.253-.841-.406-1.27a224.4,224.4,0,0,0,54.787-26.078c27.3-17.876,51.511-41.958,70.772-70.5,19.3-28.516,33.564-61.476,41.9-96.29a317.038,317.038,0,0,0,6.859-107.329m-32.564-99.953a297.266,297.266,0,0,1,21.983,62.2c-.039-.01-.074-.03-.109-.035-.319-.065-.747.539-.354.746a4.13,4.13,0,0,1,.738.514l.118.539c-.957.559-2.219.055-3.189-.418a20.844,20.844,0,0,1-4.8-3.532c-1.4-1.29-2.678-2.751-4.142-3.96-1.289-1.068-2.656-2-3.989-2.988a13.674,13.674,0,0,1-3.036-2.731c-1.193-1.632-1.035-3.6-1.009-5.6a20.923,20.923,0,0,0-.983-7.371c-1.485-4.222-4.565-7.446-7.527-10.323-3.185-3.088-7.182-6.137-8.816-10.762a12.222,12.222,0,0,1,.192-8.187c.791-2.207,2.005-4.363,2.416-6.726a10.277,10.277,0,0,0-1.7-6.771c-.821-1.386-1.848-2.539-2.7-3.89-.834-1.32-1.643-2.665-2.5-3.96a26.21,26.21,0,0,0-5.5-6.283c-1.734-1.381-3.9-2.675-4.941-4.887-1.215-2.575-1.215-5.915-1.42-8.771-.245-3.391-.3-6.807-.271-10.212.017-2.121.358-4.177.454-6.288v-.02a275.138,275.138,0,0,1,31.07,49.717M245.6,32.86c.009.151.022.338.035.519a1.3,1.3,0,0,0-.66.469,1.373,1.373,0,0,1-1.306.746c-.73.076-1.468.1-2.2.176-2.031.212-4.067.423-6.094.7-3.578.489-7.414,1.063-10.756,2.721-.183-.705-.371-1.406-.555-2.111,3.242-1.824,7.165-1.844,10.681-2.474,2.158-.388,4.351-.529,6.527-.731,1.018-.1,2.04-.176,3.058-.282.406-.045.826-.071,1.232-.146.013.141.031.277.039.418M218.046,11.413a5.3,5.3,0,0,0,1.686-.665c.258-.136.511-.282.769-.413.109-.055.227-.106.341-.161h0l-.017.005a2.649,2.649,0,0,0,.376-.111,5.158,5.158,0,0,1,1.4-.237c.223.005.446.06.668.081a1.79,1.79,0,0,0,.494-.035c.127.126.245.262.367.393a.19.19,0,0,0,.218.02c.183.176.363.353.529.524,1.7,1.733,2.91,3.91,4.434,5.819a20.672,20.672,0,0,0,5.736,4.63,29.784,29.784,0,0,0,7.606,3.184c.935.232,2.573.217,2.8,1.577a30.237,30.237,0,0,1-.157,3.426c.031.645.1,1.28.162,1.92-.542.086-1.088.227-1.595.287-1.053.131-2.1.282-3.15.433-2.114.307-4.229.675-6.33,1.088-3.451.685-7.243.746-10.362,2.766-.14-.519-.271-1.043-.411-1.557-1.193-4.328-2.315-8.64-3.263-13.049a93.791,93.791,0,0,0-2.525-9.663c-.026-.086-.061-.171-.087-.257a2.115,2.115,0,0,0,.31-.005M197.037,7.881a11.174,11.174,0,0,1,6.907-5.436c2.586-.786,5.583-1.129,7.767.952,2.075,1.975,3.351,4.988,4.369,7.794a76.791,76.791,0,0,1,2.634,9.447c.957,4.267,2.005,8.464,3.233,12.646.76,2.595,1.52,5.189,2.154,7.829.315,1.3.607,2.625.852,3.95a17.114,17.114,0,0,1,.542,3.753l-.009.04a.38.38,0,0,0,.214.408l0,.005a.5.5,0,0,0,.21.015c-.625.156-1.245.338-1.87.5a30.036,30.036,0,0,0-1.245-4.852c-.6-1.92-1.263-3.809-1.8-5.759-1.127-4.126-2.049-8.333-3.014-12.51-1.4-6.031-2.512-12.187-5.207-17.674-1.18-2.393-3.3-4.479-5.788-4.449-.227,0-.52.509-.2.589,4.788,1.149,7.073,6.912,8.388,11.794.826,3.058,1.442,6.187,2.114,9.29.869,4.026,1.8,8.026,2.717,12.036.489,2.151.987,4.282,1.595,6.393.516,1.8.913,3.617,1.35,5.431-2.853.766-5.7,1.577-8.523,2.459a42.93,42.93,0,0,0-1.9-4.368c-.73-1.577-1.459-3.159-2.167-4.751q-2.11-4.769-4.172-9.568a134.114,134.114,0,0,1-6.418-17.291c-.9-3.245-.961-6.761,1.494-9.109.066-.065.052-.282-.048-.2-3.941,3.325-2.63,10.353-1.14,14.8a202.612,202.612,0,0,0,8.266,19.78q1.324,2.894,2.608,5.814c.769,1.728,1.407,3.557,2.171,5.285-.577.186-1.162.348-1.739.534a34.212,34.212,0,0,0-2.167-5.673c-.992-2.161-2.04-4.282-3.106-6.388l-.1-.191a.4.4,0,0,0-.118-.247c-1.852-3.668-3.609-7.361-5.221-11.18a70.2,70.2,0,0,1-3.967-11.306c-.813-3.481-1.359-7.331.319-10.6M118.6,534.04c-6.116-5.073-12.407-9.83-18.348-15.17q-2.018-2.1-3.971-4.282c-2.538-2.857-4.919-5.885-7.357-8.847-1.166-1.416-2.3-2.867-3.447-4.3-5.452-7.648-15.644-22.229-19.353-28.97q-3.014-5.479-5.828-11.1c-.529-1.249-1.066-2.5-1.621-3.738-1.673-3.723-3.394-7.421-4.976-11.2-1.656-3.965-3.023-8.031-4.334-12.162-2.722-8.6-5.705-17.145-8-25.911a203.8,203.8,0,0,1-4.5-25.317c-1.123-8.585-2.508-17.079-3.971-25.594-1-7.719-1.852-14.429-2.162-16.616a156.207,156.207,0,0,1-1.686-17.14c-.166-5.562.031-11.129.332-16.681a286.245,286.245,0,0,1,3.333-33.292c1.931-11.24,4.543-22.319,6.767-33.484,1.219-6.121,2.416-12.253,3.643-18.369a.523.523,0,0,0,.118-.358c0-.091.013-.191.013-.287.205-1.018.419-2.035.633-3.053.066-.2.131-.4.192-.595.467-1.511,1-2.993,1.472-4.5.454-1.471.782-2.988,1.149-4.494.577-1.658,1.171-3.305,1.774-4.963,1.577-4.308,3.128-8.59,4.875-12.817a130.92,130.92,0,0,1,5.7-12.3c1.044-1.935,2.128-3.839,3.08-5.834.45-.952.878-1.915,1.306-2.877,1.21-1.945,2.446-3.874,3.661-5.814,2.315-3.7,4.294-7.618,6.518-11.381,4.609-7.789,10.332-14.626,15.906-21.493,2.8-3.451,5.64-6.877,8.558-10.2s5.985-6.464,8.973-9.7c2.831-3.063,5.636-6.147,8.563-9.084a122.353,122.353,0,0,1,9.244-8.207c6.439-5.285,12.818-10.676,19.4-15.724a139.011,139.011,0,0,1,20.624-13.633c7.291-3.753,15.024-6.172,22.363-9.784a80.817,80.817,0,0,1,10.576-4.832c2.4-.776,4.945-1.214,7.165-2.6.1-.066.2-.151.3-.222a4.7,4.7,0,0,0,1.678-.751l.057-.025c.1.191.2.388.293.589,1.092,2.252,2.045,4.62,3.2,6.837a222.964,222.964,0,0,0-52.013,25.277c-27.042,17.729-50.978,41.636-70.078,69.88C69.246,177.094,55.026,209.7,46.677,244.2a314.712,314.712,0,0,0-7.449,106.512A307.2,307.2,0,0,0,67.472,452.794c15.094,31.514,35.583,59.687,60.113,82.183A229.976,229.976,0,0,0,210.8,584.109a209.427,209.427,0,0,0,93.328,8.3c4.722-.66,9.419-1.521,14.1-2.519.249.917.537,1.819.778,2.736l.035.166a37.98,37.98,0,0,0-4.181.856c-1.538.363-3.067.756-4.6,1.139-1.228.307-2.46.574-3.692.816-4.124.383-8.257.625-12.376.7-4.456.081-8.886.02-13.337.292a98.349,98.349,0,0,1-13.455.257c-4.653-.348-9.305-1.189-13.923-1.925-4.679-.746-9.349-1.557-14.01-2.4-9.279-1.673-18.611-3.184-27.846-5.134a128.239,128.239,0,0,1-25.325-8.61c-4.115-1.824-8.191-3.768-12.258-5.723-4.207-2.02-8.475-3.915-12.555-6.257-3.967-2.277-7.785-4.867-11.594-7.472-3.726-2.549-7.575-4.917-11.2-7.658-7.047-5.325-13.25-11.971-20.087-17.639m4.474,5.587c-.223-.191-.446-.383-.668-.569q-3.657-3.1-7.274-6.252c2.355,1.91,4.7,3.849,6.964,5.91.328.3.651.61.979.912M87.454,91.55q-2.87,3.355-5.749,6.706c-.564.66-1.114,1.325-1.673,1.985q3.578-4.5,7.422-8.691M98.38,749.12c-.162,2.328-.293,4.59-.642,6.892-.376,2.514-.743,5.048-.913,7.588-.048.725-.127,1.451-.166,2.161a9.379,9.379,0,0,1-.843-2.438,41.789,41.789,0,0,1-.4-9.774c.205-3.532.743-7.084,1.254-10.57.293-2,.533-3.975.716-5.985,0-.065.009-.126.017-.192a22.732,22.732,0,0,0,.965,4.7c.275.852.594,1.678.944,2.484a18.739,18.739,0,0,0-.935,5.139m7.549,5.084a67.129,67.129,0,0,0,8.6,8.353q1.75,1.428,3.556,2.771a26.666,26.666,0,0,1-.638,5.895c-.4,2.03-.743,4.046-1.014,6.106q-.478,3.635-.979,7.265c-.153,1.1-.358,2.2-.5,3.305a12.845,12.845,0,0,0-.131,1.345q-1.638-1.247-3.242-2.569a65.1,65.1,0,0,1-8.825-8.812c.227-4.509.764-8.907,1.415-13.371a60.4,60.4,0,0,1,1.249-5.945,13.772,13.772,0,0,0,.511-4.343m52.253,32.254a254.758,254.758,0,0,0,26.867,8.585,20.525,20.525,0,0,1-.616,4.126c-.284,2.182-.594,4.363-.979,6.52s-.8,4.328-1.158,6.5a55.771,55.771,0,0,1-1.079,6.268,254.316,254.316,0,0,1-26.872-8.4c.62-4.287,1.446-8.54,2.132-12.812.332-2.05.738-4.1,1.114-6.136a17.846,17.846,0,0,0,.59-4.655m27.073,8.635q10.583,2.766,21.293,4.731c2.294.418,4.6.791,6.894,1.154a118.407,118.407,0,0,0-1.315,11.789c-.236,3.92-.647,7.769-1.21,11.638-2.5-.363-4.993-.746-7.483-1.174q-10.963-1.927-21.817-4.67c.507-4.585,1.236-9.139,2.106-13.653.424-2.2.786-4.414,1.162-6.63a11.217,11.217,0,0,0,.371-3.184m82.707,18.863c-.533,4.328-.974,8.655-1.708,12.943a232.231,232.231,0,0,1-24.844.327c.232-2.01.149-4.081.249-6.1.122-2.524.393-5.038.651-7.547.227-2.171.192-4.4.516-6.55a8.4,8.4,0,0,0,.17-3.088,211.355,211.355,0,0,0,26.129-.569,26.713,26.713,0,0,1-.511,4.645c-.275,1.97-.411,3.965-.651,5.94m1.42-10.605c.834-.076,1.664-.121,2.495-.2,4.976-.534,9.947-1.254,14.875-2.242,0,.192.031.4.035.6.017,1.169.031,2.332-.009,3.5-.079,2.146-.253,4.288-.467,6.419-.432,4.348-.839,8.7-1.267,13.049a155.62,155.62,0,0,1-16.518,2.282c-.511.04-1.018.06-1.525.1.192-2.177.253-4.363.454-6.535.205-2.217.511-4.419.782-6.625.258-2.1.406-4.232.743-6.313a19.84,19.84,0,0,0,.4-4.03m-27.3,11.235c-.393,4.207-.743,8.424-1.228,12.616-1.647-.071-3.3-.121-4.945-.227q-12.208-.763-24.364-2.469c.437-3.945.738-7.895,1-11.855.262-3.885,1.04-7.734,1.249-11.613a257.261,257.261,0,0,0,28.8,2.882,26.041,26.041,0,0,1-.2,3.779c-.087,2.307-.1,4.585-.315,6.887M157.2,791.794c-.293,2.031-.716,4.031-1.022,6.056-.616,4.046-1.621,8.011-2.2,12.066-4.583-1.738-9.13-3.6-13.621-5.653-3.193-1.476-6.356-3.048-9.471-4.741a14.734,14.734,0,0,1,.463-4.786c.389-1.975.668-3.975.987-5.965q1.035-6.409,1.769-12.862c.013-.106-.162-.07-.175.02-.668,4.434-1.193,8.882-2.005,13.286-.384,2.086-.778,4.167-1.214,6.242a14.112,14.112,0,0,0-.428,3.733,123.163,123.163,0,0,1-14.862-9.5,24.407,24.407,0,0,1,.17-2.691c.162-1.083.31-2.161.45-3.25.315-2.489.651-4.978.987-7.467.258-1.93.66-3.824.987-5.739a14.621,14.621,0,0,0,.236-5.1,120.822,120.822,0,0,0,10.319,6.837c4.858,2.872,9.812,5.527,14.862,7.92,4.81,2.252,9.685,4.3,14.6,6.2a36.931,36.931,0,0,1-.839,5.4m-52.4-32.365a51.478,51.478,0,0,0-1.079,5.733c-.336,2.338-.712,4.671-.97,7.023-.175,1.622-.446,3.335-.52,5.013-.45-.564-.917-1.118-1.35-1.7a28.586,28.586,0,0,1-1.568-3.28c-.467-1.189-.765-2.439-1.236-3.617a48.431,48.431,0,0,0,.214-5.225,72.971,72.971,0,0,1,.009-7.381c.17-2.121.319-4.232.428-6.358a25.118,25.118,0,0,1,.734-5.35,37.882,37.882,0,0,0,3.006,5.482c.987,1.426,2.049,2.776,3.145,4.081a16.566,16.566,0,0,1-.813,5.582m230.044,20.813a59.127,59.127,0,0,1,4.823,13.215,27.181,27.181,0,0,1-.642,12.827,22.68,22.68,0,0,1-2.888,6.106c-1.158,1.874-2.25,4.026-3.923,5.346-1.734,1.375-3.338,2.942-5.076,4.3-1.542,1.209-3.124,2.373-4.648,3.617-3.08,1.92-36.491,16.243-81.209,14.581-12.5-.464-27.645-3.013-40.017-5.129-24.7-4.333-49.388-9.981-72.563-21.337-11.546-5.734-22.787-12.666-32.848-21.8-5.015-4.554-9.187-10.56-12.953-16.742a41.786,41.786,0,0,1-4.434-9.981,27.437,27.437,0,0,1-.537-11.24c.524-3.885,1.175-7.32,3.11-10.444a38.282,38.282,0,0,1,6.881-8.122,59.12,59.12,0,0,1,10.4-7.2,19.3,19.3,0,0,0-.913,3.773c-.057.433-.079.872-.1,1.31a21.861,21.861,0,0,0-.5,2.282c-.341,1.945-.773,3.859-1.153,5.789-.738,3.769-1.4,7.613-1.844,11.437-.052.458-.083.917-.122,1.375a22.885,22.885,0,0,0-.3,3.139,21.932,21.932,0,0,0,.175,2.973c.044.957.114,1.909.218,2.852a11.736,11.736,0,0,0,1.328,4.5c.813,1.446,1.721,2.811,2.451,4.318a34.416,34.416,0,0,0,6.024,8.6c.14.151,5.085,4.519,7.658,6.615,1.193.977,2.407,1.915,3.635,2.826a2.615,2.615,0,0,0,.1.418c.07.2.288.076.38-.076,3.22,2.363,6.54,4.539,9.93,6.555q2.51,1.482,5.059,2.877a.176.176,0,0,0,.188.106c3.167,1.743,6.369,3.4,9.615,4.938,20.244,9.482,41.563,15.649,63.118,19.629,21.559,3.9,43.538,5.476,65.329,3.32a129.929,129.929,0,0,0,30.283-6.484c0,.05-.009.1,0,.156,0,.211.3.081.3-.091,0-.055,0-.111,0-.166a17.307,17.307,0,0,0,3.246-1.25c1.367-.574,2.77-1.033,4.128-1.632a34.192,34.192,0,0,0,7.436-4.6,34.543,34.543,0,0,0,6.632-6.358,15.318,15.318,0,0,0,1.214-1.965c.083-.151.179-.287.258-.443a9.993,9.993,0,0,0,.655-1.637,23.035,23.035,0,0,0,.83-2.832c.979-3.693,2.01-8.6,2.39-11.306l.013-.025c.013-.025,0-.04,0-.061.031-.222.057-.433.079-.62.446-3.96,1.07-7.91,1.381-11.88.048-.569.1-1.134.157-1.7a17.971,17.971,0,0,0,.4-2.051,18.987,18.987,0,0,0,.144-2.988c2.062,3.592,4.884,6.61,6.706,10.379m-7.667-3.224c-.363,3.653-1,7.275-1.472,10.908-.083.65-.166,1.3-.253,1.95a9.18,9.18,0,0,0-.441,1.834,43.206,43.206,0,0,1-1.158,4.711c-.821,2.932-1.236,6.126-2.77,8.721a21.719,21.719,0,0,1-3.159,4.066c.472-1.658.559-3.411.878-5.114.393-2.091.874-4.156,1.223-6.257a58.765,58.765,0,0,0,.747-6.071c.118-2.005-.118-4.227.655-6.091.07-.166-.092-.262-.162-.1a12.525,12.525,0,0,0-.734,4.827,51.188,51.188,0,0,1-.581,6.01c-.328,2.242-.8,4.449-1.245,6.666-.432,2.141-.472,4.489-1.188,6.525q-1.311,1.315-2.73,2.529a39.876,39.876,0,0,1-5.12,3.758c.66-3.774.979-7.648,1.525-11.442a56.687,56.687,0,0,0,1.009-10.938c0-.081-.1-.025-.1.035.079,3.869-.673,7.673-1.206,11.472-.511,3.653-1.123,7.346-1.468,11.023q-.931.559-1.892,1.038c-1.494.751-3.049,1.29-4.583,1.9-1.263.5-2.5,1.053-3.77,1.527.1-2.932,1.044-5.784.9-8.746,0-.051-.07-.02-.07.02.1,3.018-1,5.849-1.123,8.837-.131.05-.258.111-.389.151a.329.329,0,0,0-.17.237,106.731,106.731,0,0,1-13.106,3.426c.673-4.162.852-8.454,1.284-12.656.205-2.015.45-4.026.559-6.051q.079-1.4.074-2.8c0-.529,0-1.058-.052-1.582a4.67,4.67,0,0,1-.079-.494,110.477,110.477,0,0,0,14.609-4c.467,1.532-.236,3.28-.467,4.791-.315,2.065-.4,4.187-.638,6.268-.009.06.092.035.1-.02.17-1.159.328-2.328.472-3.491.127-1.038.166-2.091.349-3.119.245-1.406.764-3.053.28-4.464.76-.267,1.525-.524,2.276-.811a56.274,56.274,0,0,0,14.744-8.132,30.424,30.424,0,0,0,5.963-6.449,20.845,20.845,0,0,0,2.577-5.471c-.035.358-.079.705-.109,1.058m-75.94-61.451c5.251,2.01,10.769,3.053,16.09,4.771,2.717.882,5.43,1.733,8.156,2.585.743.232,1.49.463,2.228.715.965.413,1.931.816,2.892,1.244.065.03.131.06.2.086.406.181.813.343,1.214.524,10.083,4.681,19.965,10.132,28.894,17.326a60.45,60.45,0,0,1,11.979,12.666A33.734,33.734,0,0,1,326.9,763.6a22.343,22.343,0,0,1,.957,4.857l-.052.307c.035.04.07.086.109.126l.009.086c-.009-.116-.031-.02-.061.207l0,.05c-.135,1.144-.419,5.149-.5,5.965a20.469,20.469,0,0,1-2.809,6.091,30.036,30.036,0,0,1-5.946,6.363,53.4,53.4,0,0,1-14.727,7.94c-10.389,3.779-21.236,5.562-32.07,6.514a231.864,231.864,0,0,1-32.621.217,302.865,302.865,0,0,1-32.472-3.743c-21.511-3.779-42.817-9.714-63.079-18.969a130.988,130.988,0,0,1-28.776-17.588A61.711,61.711,0,0,1,103,749.286a36.137,36.137,0,0,1-3.22-6.091l.009-.035c.017-.046-.009-.071-.048-.076-.245-.615-.476-1.234-.682-1.874a20.724,20.724,0,0,1-.874-9.058,19.487,19.487,0,0,1,3.246-8.288,29.57,29.57,0,0,1,5.88-6.262,54.119,54.119,0,0,1,14.635-7.88,114.549,114.549,0,0,1,23.809-5.7c3.18-.121,6.361-.307,9.541-.5,3.569-.222,7.13-.494,10.708-.589s7.134.065,10.7.3a39.6,39.6,0,0,1,4.889.373,8.845,8.845,0,0,0,3.608.232,12.684,12.684,0,0,0,.2,2.348c-.026.262-.057.524-.1.786a30.307,30.307,0,0,0-1.359,5.341c-.367,1.345-.738,2.69-1.075,4.046-.424,1.723-.834,3.456-1.258,5.184-.83,2.524-1.7,5.023-2.5,7.562a57.766,57.766,0,0,0-1.957,6.943,21.829,21.829,0,0,0-.275,6.53,18.872,18.872,0,0,0,2.3,6.575,31.416,31.416,0,0,0,7.615,8.912,37.883,37.883,0,0,0,9.135,5.633,49.623,49.623,0,0,1-6.409-2.751,25.418,25.418,0,0,1-4.443-3.22,51.16,51.16,0,0,1-4-3.33c-1.249-1.27-2.412-2.746-3.565-4.136a14.624,14.624,0,0,1-2.835-5.038c-.022-.081-.17-.01-.153.066.682,3.426,2.717,5.718,4.644,8.293a23.357,23.357,0,0,0,3.906,3.909c1.341,1.129,2.6,2.378,3.993,3.426a35.079,35.079,0,0,0,9.655,4.751c3.46,1.2,16.465,2.983,18.357,3.285a68.542,68.542,0,0,0,11.372,1.108,44.556,44.556,0,0,0,5.609-.514c1.712-.237,3.447-.418,5.146-.756a18.578,18.578,0,0,0,7.549-3.3,22.355,22.355,0,0,0,6.448-7.653c.035-.071-.026-.2-.087-.111a21.611,21.611,0,0,1-5.885,6.323,21.06,21.06,0,0,1-7.619,3.1c-.328.066-.655.1-.987.151.743-.171,1.481-.358,2.219-.554a14.378,14.378,0,0,0,3.753-1.4,13.115,13.115,0,0,0,5.107-5.885,21.7,21.7,0,0,0,1.577-5.139,11.675,11.675,0,0,0,.166-2.59c-.013-.242-.035-.494-.061-.746,0-.071.013-.141.017-.207.1-3.492-.323-7.048-.481-10.535a88.051,88.051,0,0,1,.323-11.512c.3-3.426.716-6.822.891-10.248a12.388,12.388,0,0,0,1.1-2.927m-6.894-33.716c-.288,2.212-.437,4.736-2.1,6.172a21.133,21.133,0,0,1-2.11,1.779,3.982,3.982,0,0,1-1.175.514,3.017,3.017,0,0,0-.507.141c-.371.161-.293.222-.642-.01-.446-.292-1.232.484-.769.947.3.307.415.675.69.967a1.315,1.315,0,0,0,1.118.307,3.013,3.013,0,0,0,.481-.086,7.531,7.531,0,0,0,4.648-1.809,8.932,8.932,0,0,0,1.839-2.01,6.157,6.157,0,0,0,1.442-2.524,14.5,14.5,0,0,0,.4-4.6c-.1-2.59-.3-5.174-.376-7.769a15.417,15.417,0,0,0,2.311,4.539c.354.464.73.907,1.1,1.355.288.887.817,1.642,1.11,2.554.467,1.461-.205,2.917-.848,4.167a19.353,19.353,0,0,1-5.181,6.1,23.725,23.725,0,0,1-7.3,4.237c-1.38.464-2.813.721-4.211,1.088-1.354.353-2.757.539-4.093.967-.039.015-.052.111,0,.1,1.555-.4,3.176-.443,4.744-.8a31.222,31.222,0,0,0,4.779-1.28,29.27,29.27,0,0,0,7.711-4.877,19.7,19.7,0,0,0,5.229-6.786,6.007,6.007,0,0,0,.38-1.189c.022.136.057.267.074.408a30.053,30.053,0,0,1-.384,7c-.306,2.373-.747,4.706-1.136,7.063a74.211,74.211,0,0,0-.66,8.761c-.153,3.265-.284,6.7-1.538,9.7a11.6,11.6,0,0,1-4.854,5.149,43.9,43.9,0,0,1-6.3,3.174c-6.308,2.685-12.883,2.418-19.309.433-.2-.065-.542.312-.271.433a26.5,26.5,0,0,0,17.453.967,43.335,43.335,0,0,0,6.959-2.63,17.109,17.109,0,0,0,6.077-4.459c.114-.141.21-.292.315-.438-.371,2.469-.69,4.958-.944,7.451a18.715,18.715,0,0,1-1.529,1.275,16.533,16.533,0,0,1-2.027.952c-1.516.67-3.028,1.35-4.583,1.879a28.164,28.164,0,0,1-4.587,1.174,12.8,12.8,0,0,0-3.617.64c-.026.015-.022.086.013.07,1.319-.569,2.818-.393,4.2-.554a21.55,21.55,0,0,0,4.674-1.088c1.35-.479,2.669-1.063,3.993-1.632a12.829,12.829,0,0,0,3.355-1.733,88.37,88.37,0,0,0-.428,9.18c.061,6.066.983,12.369-.638,18.263a16.981,16.981,0,0,1-1.682,3.728,10.326,10.326,0,0,1-3.8,3.521,12.793,12.793,0,0,0,.677-1.607,41.045,41.045,0,0,0,1.52-7.008c.433-2.816.813-5.648,1.175-8.479a41.108,41.108,0,0,0,.258-10.983c-.039-.292-.328-.086-.306.141.529,6.167-.716,12.474-1.595,18.53a31.683,31.683,0,0,1-1.424,6.253,11.472,11.472,0,0,1-1.276,2.66,8.15,8.15,0,0,1-1.616,1.466.7.7,0,0,0-.162.232c-.3.1-.594.2-.9.292a71.48,71.48,0,0,1-10.415,1.889c-1.8.277-3.6.579-5.4.836-.655.1-1.315.156-1.975.222a71.853,71.853,0,0,1-8.283-.5c-7.9-.988-15.788-2.9-22.595-7.824-.974-.705-1.944-1.476-2.875-2.3-.585-.937-1.241-1.809-1.9-2.68a.337.337,0,0,0-.044-.227c-2.787-4.313-1.708-9.774-1.214-14.727a71.045,71.045,0,0,1,1.678-10.762c.76-2.932,1.962-5.98,1.813-9.1-.013-.232-.258-.02-.258.141.044,2.806-1.018,5.547-1.726,8.182-.821,3.063-1.171,6.222-1.717,9.356-.695,4.01-1.721,7.97-1.42,12.107-.074-.2-.157-.388-.232-.584a28.293,28.293,0,0,1-2-9.679c-.061-3.789,1.236-7.194,2.28-10.711,1.092-3.708,1.826-7.573,2.626-11.371.441-2.116.952-4.257,1.228-6.409.07-.554.157-1.139.236-1.733a19.081,19.081,0,0,0,4.163,6.509,37.633,37.633,0,0,0,6.046,5.068,20.061,20.061,0,0,0,7.117,3.441c.135.03.17-.257.048-.3a30.376,30.376,0,0,1-6.413-3.381,32.749,32.749,0,0,1-5.247-4.892c-2.63-2.952-5.627-6.676-5.561-11.195,0-.166.026-.343.044-.514a1.636,1.636,0,0,0,.157-.443c.044.136.079.272.131.4a11.421,11.421,0,0,0,1.874,2.847c.891,1.129,1.839,2.2,2.735,3.33a14.408,14.408,0,0,0,2.7,2.877c.048.03.07-.076.035-.106a19.892,19.892,0,0,1-2.512-2.872c-.808-1.033-1.686-2-2.486-3.038a13.588,13.588,0,0,1-1.691-2.993,7.007,7.007,0,0,1-.463-1.567,9.447,9.447,0,0,1-.1-1.36c.319-1.567.751-3.124,1.131-4.59.638-2.494,1.324-4.968,1.9-7.482,1.053-4.67.97-9.688,2.468-14.223A5.982,5.982,0,0,1,194,670.862c.813-.655,1.712-1.154,2.543-1.784a11.138,11.138,0,0,0,1.153-1.048c-.214,1.27-.415,2.539-.581,3.814-.481,3.779-.97,7.96.214,11.643.035.121.092.207.131.317a6.248,6.248,0,0,0,.323.756,6.857,6.857,0,0,0,2.944,2.958c2.595,2.68,6.2,4.036,9.541,5.124a61.761,61.761,0,0,0,9.961,2.554,19.841,19.841,0,0,0,9.655-.5c.284-.1.293-.554-.052-.489-5.754,1.1-11.642,0-17.151-2.045a38.727,38.727,0,0,1-5.788-2.61c.341-2.353.843-4.65,1.166-7.013.384-2.806,1.136-5.522,1.651-8.3.446-2.393.7-4.811,1.075-7.22a18.853,18.853,0,0,0,.481-6c-.009-.06-.122-.025-.118.03.21,2.086-.433,4.156-.778,6.177-.45,2.655-.716,5.34-1.258,7.975-.529,2.585-1.1,5.149-1.542,7.759a23.339,23.339,0,0,1-.987,3.592,13.227,13.227,0,0,0-.664,2.4c-.083-.056-.162-.116-.245-.171a.383.383,0,0,0-.079-.206,8.54,8.54,0,0,0-2.193-1.814,22.3,22.3,0,0,0,.922-4.237c.315-2.02.511-4.061.743-6.1.511-4.524,1.276-9.008,1.935-13.507a129.96,129.96,0,0,0,1.411-13.916,136.626,136.626,0,0,1,1.394-13.749c.581-4.161,1.3-8.489.625-12.7-.013-.071-.083-.04-.07.025.585,3.869-.017,7.855-.564,11.689-.612,4.277-1.258,8.56-1.608,12.883-.363,4.534-.839,9-1.56,13.477-.734,4.555-1.581,9.079-2.224,13.649-.3,2.121-.507,4.257-.813,6.378-.262,1.844-.738,3.6-1.127,5.4a12.5,12.5,0,0,1-1.769-2.5c-1.306-2.529-1.249-5.356-.826-8.157q.911-6.023,2.141-11.971c1.573-7.618,3.189-15.2,4.032-22.984.227-2.076.428-4.161.647-6.242.424-2.378.8-4.761.992-7.195a31.774,31.774,0,0,0,.057-4.56,39.263,39.263,0,0,0,.3-5.547l-.017-.307c.044-.192.079-.383.131-.574a236.29,236.29,0,0,0,25.36,5.9c2.481.458,4.976.836,7.475,1.169a27.97,27.97,0,0,0-.166,3.189c-.07,1.909-.179,3.809-.28,5.718-.2,3.708-.349,7.421-.5,11.129-.153,3.794-.432,7.583-.564,11.376-.1,2.821.891,6.121-.293,8.766-.026.061.066.061.092.01,1.105-2.318.529-5.305.511-7.824-.031-3.723.432-7.507.607-11.23.2-4.1.367-8.192.716-12.278.153-1.763.319-3.517.437-5.285.052-.836.1-1.678.205-2.509.039-.317.1-.635.166-.952,1.236.156,2.473.328,3.709.443l.044.03,0,.126a2.341,2.341,0,0,0-.035.413c-.031.257-.074.514-.109.776-.114.912-.223,1.824-.336,2.736-.249,2.01-.293,4.046-.419,6.071-.253,4.121-.642,8.227-.961,12.344-.62,8.061-1.11,16.152-1.193,24.244-.039,3.688-1.145,7.32-.6,11.014.013.07.127.035.122-.035-.3-3.759.944-7.446.961-11.2.022-4.313.223-8.625.467-12.928.5-8.731,1.455-17.4,2.193-26.1.188-2.222.494-4.434.834-6.63.035-.217.1-.489.114-.751,1.315.111,2.639.191,3.962.242a9.351,9.351,0,0,0-.931,2.408,42.952,42.952,0,0,0-1.258,6.116c-.306,2.756-.428,5.532-.7,8.288s-.651,5.512-1.014,8.258c-.721,5.471-1.162,10.893-1.389,16.424-.223,5.456-.341,10.953-1.044,16.364m79.924-66.066a32.057,32.057,0,0,1-3.469.317c-2.586.136-5.124.64-7.689,1.018-.677.1-1.35.181-2.027.272-.009-.146-.087-.252-.306-.181-.494.161-1,.292-1.5.423-4.417.564-8.851,1.053-13.233,1.864-.476.06-.952.116-1.424.181-5.723.811-11.4,2.015-17.13,2.716-1.337.166-2.669.267-4,.348-1.909.1-3.818.131-5.727.151-1.708-.005-3.421-.04-5.138-.1-1.525-.106-3.049-.257-4.578-.378a21.86,21.86,0,0,0-5.413.071c-3.517-.121-7.029-.3-10.546-.751v-.01c-.017-.378-.411-.247-.625-.06-5.845-.8-11.642-2.01-17.427-3.27-5.2-1.134-10.38-2.3-15.5-3.859a.35.35,0,0,0-.267-.081c-.511-.156-1.022-.3-1.529-.464-1.171-.378-2.333-.791-3.491-1.209-.052-.02-.1-.06-.153-.076a.364.364,0,0,0-.074,0c-10.162-3.668-19.921-8.56-29.729-13.331a297.644,297.644,0,0,1-31.721-17.316c-10.092-6.52-20.231-13.15-29.716-20.8-4.618-3.733-9.157-7.593-13.827-11.235-4.648-3.627-8.781-7.819-13.1-11.935-4.408-4.2-9.056-8.081-13.15-12.706A174.618,174.618,0,0,1,60.7,511.353c-6.872-9.6-13.25-19.729-19.309-30.033-4.286-7.285-12.992-27.4-15.207-32.819-2.333-5.728-4.806-11.391-7.068-17.16A250.926,250.926,0,0,1,8.5,395.963a280.69,280.69,0,0,1-5.906-36.441C2.012,353.33,1.6,347.1,1.5,340.865c-.114-6.661.1-13.321.393-19.976.328-7.356,1.826-26.063,2.079-28.078.856-4.912,8.8-48.009,9.393-50.926,1.254-6.167,2.757-12.3,4.351-18.359,3.189-12.127,7.492-23.785,11.813-35.418A224.11,224.11,0,0,1,44.349,155.47c2.241-3.96,4.561-7.86,6.876-11.759.157-.257.319-.5.476-.761a295.552,295.552,0,0,1,27.881-39.409C85,97.193,90.469,90.9,95.925,84.593a121.272,121.272,0,0,1,10.791-10.857c3.495-2.9,13.084-10.49,20.34-16.213,7.724-5.577,15.644-10.8,23.6-15.916A163.431,163.431,0,0,1,170.524,30.9c3.346-1.542,6.706-2.993,10.157-4.2,3.355-1.169,6.741-2.217,10.026-3.617a46.821,46.821,0,0,0,4.688-2.282c.607,1.829,1.332,3.607,2.066,5.34,1.887,4.434,3.954,8.812,6.059,13.114.376.761.756,1.516,1.131,2.277-3.346,1.93-6.837,3.471-10.275,5.159-4.01,1.97-8.1,3.723-12.154,5.547-4.08,1.829-8.086,3.794-12.023,5.99-1.975,1.1-4.015,2-6.011,3.038-1.865.962-3.574,2.262-5.36,3.4-3.53,2.242-7.553,3.466-10.625,6.59-.035.035-.009.126.035.081,2.883-2.821,6.588-4.046,9.917-5.975,1.734-1.008,3.355-2.257,5.089-3.27,1.874-1.088,3.875-1.889,5.788-2.882,3.989-2.076,7.938-4.151,12.031-5.955,3.958-1.743,7.955-3.381,11.891-5.2,2.241-1.033,4.513-1.975,6.732-3.063,1.123-.549,2.215-1.159,3.359-1.653a20.011,20.011,0,0,0,2.01-.977c.332.665.664,1.335,1,2.005-2.481.418-4.771,2.03-7.086,3.028-1.682.725-3.408,1.315-5.085,2.056s-3.333,1.587-4.985,2.413-3.2,1.824-4.827,2.665c-1.612.831-3.263,1.547-4.862,2.408-1.219.65-2.42,1.31-3.657,1.9L172.752,60a21.664,21.664,0,0,0-2.63,1.108c-.944.408-1.883.826-2.813,1.265-14.583,6.852-27.348,18.077-40.043,28.592-3.1,2.569-6.278,5.038-9.248,7.809-3.054,2.847-5.937,5.925-8.794,9.023-5.968,6.474-11.979,12.842-17.623,19.7-4.657,5.658-9.375,11.321-13.687,17.351a51.547,51.547,0,0,0-5.068,6.923c-2.473,3.577-5,7.109-7.431,10.721-2.394,3.552-3.858,7.754-5.933,11.542-2.141,3.91-4.356,7.789-6.134,11.941-1.791,4.182-3.578,8.409-5.12,12.721-1.533,4.282-3.176,8.54-4.565,12.888-2.853,8.953-4.535,18.379-6.557,27.609-1.123,5.144-2.154,10.293-3.027,15.5-.432,2.564-.856,5.129-1.249,7.7-.2,1.32-.4,2.645-.607,3.965-.087.539-.127,1.154-.2,1.763l-.223,1.129c-.083.292-.428,1.275-.245,1.38-.935,5.214-1.682,10.479-2.224,15.764-.581,5.623-.821,11.28-1.162,16.923-.336,5.552-.625,11.119-.616,16.686.009,1.955.079,3.9.179,5.844.026,1.612.039,3.235.153,4.837.162,2.257.345,4.514.564,6.761q.668,6.817,1.586,13.6c.393,2.932.8,5.859,1.21,8.787.3,3.507.607,6.746.874,8.429.153.957.293,1.909.437,2.867a18.4,18.4,0,0,0,.476,3.492c.013.045.044.06.07.086.188,1.244.389,2.489.581,3.733.974,8.373,1.957,16.767,3.674,24.994,1.839,8.8,4.736,17.271,7.435,25.755,1.354,4.257,2.617,8.57,4.111,12.762,1.407,3.95,3.045,7.784,4.744,11.583,1.682,3.749,3.416,7.472,5.015,11.27,1.494,3.562,3.08,7.038,4.9,10.394,7.3,13.492,16.924,25.2,26.719,36.3a191.058,191.058,0,0,0,16.854,16.873c5.976,5.275,23.731,18.783,23.482,18.248.511.464,1.014.947,1.525,1.406,6.946,6.227,14.692,11.185,22.311,16.208,7.767,5.124,16.037,8.923,24.307,12.832a173.985,173.985,0,0,0,25.308,10.107c9.034,2.635,18.388,3.879,27.584,5.582,9.493,1.753,18.991,3.471,28.527,4.837a80.1,80.1,0,0,0,13.39.992c2.294-.06,4.587-.212,6.876-.353a73.157,73.157,0,0,0,8.274.645,84.64,84.64,0,0,0,19.869-1.612c.839-.186,1.673-.383,2.512-.579,1.118-.121,2.232-.232,3.346-.363,1.752-.206,3.482-.5,5.216-.8.122.6.245,1.2.363,1.809.655,3.431,1.389,6.832,2.259,10.2.511,1.99,1.105,3.95,1.747,5.885-9.729,2.277-19.812,2.393-29.663,3.476-5.592.62-11.149,1.264-16.771,1.411-5.539.146-11.083-.02-16.614-.413a295.707,295.707,0,0,1-33.311-4.494,220.869,220.869,0,0,1-32.568-8.933c-3-1.058-5.994-2.141-8.96-3.33-2.621-1.048-5.177-2.318-7.8-3.345-2.193-.857-4.417-1.592-6.579-2.544a15.816,15.816,0,0,1-6.142-4.1c-.035-.035-.122.015-.087.06,2.669,3.36,6.894,4.686,10.524,6.051,4.788,1.794,9.428,4.051,14.224,5.824a229.119,229.119,0,0,0,32.8,9.648,301.083,301.083,0,0,0,33.368,5.013,160.666,160.666,0,0,0,33.232-.05c11.476-1.32,23.053-1.8,34.434-4.01.223.66.428,1.325.664,1.98a4.819,4.819,0,0,1-.516.131m13.884-25.221c.878,3.229,2.049,6.338,2.905,9.578,1.3,4.882,2.538,10.228,1.979,15.372-.258,2.343-1.079,4.333-3.067,5.265a9.846,9.846,0,0,1-5.758.867,5.626,5.626,0,0,1-4.513-3.527c-1.254-3.2-2.315-6.514-3.277-9.845-1.118-3.869-2.014-7.794-3.263-11.608-.542-1.643-1.123-3.25-1.739-4.852a22.138,22.138,0,0,1-.839-2.4c.668-.151,1.328-.332,2-.489.179.534.371,1.058.555,1.562.682,1.889,1.4,3.743,1.992,5.673,1.057,3.476,1.6,7.089,2.827,10.5.022.05.135.02.122-.035-.944-3.481-1.258-7.159-2.232-10.641-.511-1.819-1.057-3.612-1.512-5.451-.153-.63-.3-1.28-.459-1.929,3.307-.806,6.6-1.678,9.869-2.64v.005a19.966,19.966,0,0,1,.865,2.363c.38,1.2.76,2.388,1.215,3.552q1.278,3.31,2.385,6.7a48.049,48.049,0,0,1,2.014,8.152,17.545,17.545,0,0,1-.223,7.643,6.745,6.745,0,0,1-5.675,4.655c-.052.005-.057.131,0,.126a6.272,6.272,0,0,0,5.365-3.31,13.246,13.246,0,0,0,1.07-6.837,52.314,52.314,0,0,0-1.6-8.792c-.633-2.685-1.49-5.285-2.337-7.885-.454-1.386-.878-2.776-1.206-4.212-.183-.8-.345-1.693-.6-2.524.463-.136.931-.257,1.389-.4a32.05,32.05,0,0,1,1.752,5.361m163.1-200.213c-8.353,34.1-22.49,66.282-41.515,94.048-18.986,27.8-42.773,51.168-69.518,68.444a214.287,214.287,0,0,1-86.805,32.728,204.335,204.335,0,0,1-91.06-7.855,224.13,224.13,0,0,1-81.825-47.057c-24.316-21.619-44.98-48.8-60.366-79.609A300.637,300.637,0,0,1,40.67,350.514a313.451,313.451,0,0,1,6.562-106.135c8.331-34.416,22.516-66.942,41.651-95.051A249.283,249.283,0,0,1,159.1,80.255a215.58,215.58,0,0,1,87.67-32.723,205.947,205.947,0,0,1,91.685,8.51,225.77,225.77,0,0,1,81.886,48A250.613,250.613,0,0,1,447.409,132.9c0,.322-.009.64-.031.952-.148,2.061-.6,4.076-.764,6.131a80.585,80.585,0,0,0-.092,9.905c.07,1.708.157,3.431.38,5.119a17.758,17.758,0,0,0,.913,4.388,13,13,0,0,0,4.526,5.2,25.2,25.2,0,0,1,5.919,5.7,36.03,36.03,0,0,1,2.481,4.343c.328.65.638,1.31.957,1.97.363.751.59,1.557.926,2.313,1.066,2.388,2.577,4.348,2.5,7.195-.074,2.514-1.193,4.675-1.953,6.963a15.757,15.757,0,0,0-.782,8.363c1.14,5.114,5.413,8.258,8.9,11.18,3.329,2.781,6.885,5.512,8.353,10.177a22.675,22.675,0,0,1,.682,7.643c-.061,2.02-.013,4.005,1.149,5.643,1.778,2.514,4.583,3.945,6.846,5.784,1.581,1.28,3.006,2.8,4.583,4.1a27.732,27.732,0,0,0,5.015,3.4c1.411.705,3.115,1.255,4.6.529.048-.025.087-.06.14-.086a306.851,306.851,0,0,1,5.736,35.222,311.133,311.133,0,0,1-7.151,105.318" transform="translate(0.331 0.768)" fill="#ffa735"/>
            <path id="Trazado_875820" data-name="Trazado 875820" d="M53.747,138.889c-.59,0-1.175-.091-1.761-.146a7.527,7.527,0,0,0-1.782.01c-.066.01-.114.176-.031.171a15.887,15.887,0,0,1,1.761.126,8.114,8.114,0,0,0,1.782.015c.07-.01.114-.176.031-.176" transform="translate(169.196 560.845)" fill="#ffa735"/>
            <path id="Trazado_875821" data-name="Trazado 875821" d="M59.066,146.692a36.422,36.422,0,0,0-5.12-.579c-1.656-.161-3.464-.066-5.015-.846-.083-.04-.14.131-.07.176,1.5.9,3.167.9,4.81,1.058,1.787.181,3.582.121,5.369.333.057,0,.087-.126.026-.141" transform="translate(164.82 587.357)" fill="#ffa735"/>
            <path id="Trazado_875822" data-name="Trazado 875822" d="M82.426,15.118A108.181,108.181,0,0,0,68.315,26q-3.565,3.212-7.191,6.343c-2.1,1.814-4.491,3.159-6.474,5.164C46.131,46.123,37.206,54.582,30,64.724c-2.058,2.9-3.945,5.885-6.23,8.56a101.257,101.257,0,0,0-6.321,8.56c-.118.176.035.615.214.383,1.9-2.509,3.63-5.189,5.609-7.623.974-1.2,1.992-2.328,2.905-3.6.878-1.219,1.7-2.494,2.538-3.753A115.923,115.923,0,0,1,40.343,52.819c4.137-4.454,8.449-8.686,12.669-13.039a41.9,41.9,0,0,1,3.333-3.28c1.088-.9,2.241-1.688,3.359-2.539,2.3-1.753,4.447-3.809,6.627-5.749A154.056,154.056,0,0,1,82.448,15.224c.039-.025.026-.141-.022-.106" transform="translate(58.976 61.794)" fill="#ffa735"/>
            <path id="Trazado_875823" data-name="Trazado 875823" d="M73.908,239.252c-5.094-6.681-10.546-12.983-15.544-19.765-2.451-3.32-4.779-6.756-7.134-10.167a88.053,88.053,0,0,1-6.588-10.953c-1.236-2.5-2.438-5.038-3.757-7.487-1.153-2.837-2.315-5.673-3.683-8.363-2.062-4.051-4.487-7.839-6.553-11.89-2.176-4.267-4.185-8.641-6.064-13.089A327.324,327.324,0,0,1,6.517,100.812C5.438,95.925,4.07,91.129,3.009,86.237S1.086,76.211,1.619,71.153c.009-.071-.079-.035-.087.02C.462,80.08,3.367,89.008,5.411,97.452c1.145,4.741,2.145,9.517,3.351,14.238q1.946,7.618,4.281,15.094c5.889,18.757,12.831,37.152,22.446,53.8a58.778,58.778,0,0,1,3.163,6.529c-.092-.146-.179-.3-.275-.443-.026-.04-.109.02-.079.071.232.353.428.725.647,1.088,2.551,6.142,9.139,17.483,9.017,17.306a58,58,0,0,1-6.055-11.759c.721,1.506,1.429,3.018,2.149,4.519a83.9,83.9,0,0,0,5.968,10.343c4.7,7.018,9.572,13.795,14.823,20.269,2.953,3.643,5.92,7.265,8.868,10.918.074.1.28-.06.192-.171" transform="translate(4.716 287.939)" fill="#ffa735"/>
            <path id="Trazado_875824" data-name="Trazado 875824" d="M96.471,20.842c-2.634,3.083-6.518,4.111-10.118,4.686a28.917,28.917,0,0,0-5.12.776,13.765,13.765,0,0,0-4.989,3.053c-3.215,3.068-4.744,7.5-7.082,11.346a15.5,15.5,0,0,1-4.535,4.721A50.5,50.5,0,0,1,59.28,48.23c-1.437.715-2.944,1.159-3.984,2.61a7.981,7.981,0,0,0-1.271,2.877,11.244,11.244,0,0,0,.061,3.27c.035.474.507.4.6,0A21.9,21.9,0,0,1,55.7,54.275a8.933,8.933,0,0,1,.83-1.768,9.142,9.142,0,0,1,3.421-3.219c1.769-.927,3.547-1.849,5.334-2.731a11.067,11.067,0,0,0,4.465-3.743c2.429-3.562,3.77-8.066,6.754-11.124a14.274,14.274,0,0,1,4.923-3.214c1.708-.705,3.359-1.557,5.116-2.106,3.639-1.144,7.352-2.025,9.987-5.411.048-.06.009-.2-.061-.116" transform="translate(181.958 84.833)" fill="#ffa735"/>
            <path id="Trazado_875825" data-name="Trazado 875825" d="M53.259,67.606a23.881,23.881,0,0,1-.446-7.21,19.033,19.033,0,0,1,1.564-6.58c.926-1.9,2.224-3.552,3.307-5.33,1.105-1.8,2.162-3.638,3.176-5.517,2.2-4.061,4.015-8.651,3.207-13.538-.035-.217-.293-.01-.275.151a21.056,21.056,0,0,1-3.276,12.878c-2.176,3.638-5.373,6.328-7.444,10.021a15.348,15.348,0,0,0-1.922,6.091,21.578,21.578,0,0,0,.716,6.081c.874,4.464,2.289,8.741,3.18,13.2a40.214,40.214,0,0,1,1.022,7.875,13.751,13.751,0,0,1-.529,3.759,16.329,16.329,0,0,1-1.97,3.854c-.118.2.074.4.232.247,2.822-2.957,3.18-8.192,2.586-12.268-.682-4.65-2.184-9.124-3.128-13.709" transform="translate(172.51 119.244)" fill="#ffa735"/>
            <path id="Trazado_875826" data-name="Trazado 875826" d="M66.9,15.892A25.165,25.165,0,0,1,61.073,13.5c-.057-.035-.144.091-.079.136,2.979,2.126,6.466,3.29,9.72,4.721,3.412,1.5,7.13,2.937,9.768,5.985a10.965,10.965,0,0,1,2.569,5.774c.048.292.4.086.419-.131.917-9.87-10.559-12.192-16.57-14.1" transform="translate(205.718 55.276)" fill="#ffa735"/>
            <path id="Trazado_875827" data-name="Trazado 875827" d="M67.274,17.464c.031-.252-.223-.222-.249-.005a36.916,36.916,0,0,1-1.258,6.756c-.092.277.157.383.271.131a11.562,11.562,0,0,0,.83-3.325c.131-1.184.258-2.373.406-3.557" transform="translate(221.806 70.572)" fill="#ffa735"/>
            <path id="Trazado_875828" data-name="Trazado 875828" d="M59.728,72.223a40.737,40.737,0,0,1-6.282,4.63c-2.272,1.27-5.033,2.287-7.562,1.537a8.7,8.7,0,0,1-4.338-2.877,5.573,5.573,0,0,1-.987-3.753,16.38,16.38,0,0,1,3.884-9.049,21.227,21.227,0,0,1,3.1-3.144,34.716,34.716,0,0,0,5.828-6.252,50.7,50.7,0,0,0,4.465-7.557c1.354-2.67,2.879-4.65,5.579-5.416.162-.045.284-.363.039-.327a7.665,7.665,0,0,0-5.155,3.643c-1.5,2.187-2.687,4.585-4.294,6.681a67.776,67.776,0,0,1-6.78,7.583,35.561,35.561,0,0,0-3.412,3.844,46.325,46.325,0,0,0-3.167,4.751,15.76,15.76,0,0,0-2.062,5.255,6.958,6.958,0,0,0,.8,4.776,6.3,6.3,0,0,0,4.644,2.731A14.29,14.29,0,0,0,52.576,78a29.446,29.446,0,0,0,7.383-5.477c.205-.2-.031-.469-.232-.3" transform="translate(129.9 162.344)" fill="#ffa735"/>
            <path id="Trazado_875829" data-name="Trazado 875829" d="M44.737,46.208a.117.117,0,0,0-.114-.025c-.236.091-.476.176-.712.267a.229.229,0,0,0-.122.091.284.284,0,0,0-.061.151.16.16,0,0,0,.039.126.117.117,0,0,0,.114.025c.236-.091.476-.176.712-.267a.247.247,0,0,0,.122-.091.284.284,0,0,0,.061-.151.16.16,0,0,0-.039-.126" transform="translate(147.633 187.241)" fill="#ffa735"/>
            <path id="Trazado_875830" data-name="Trazado 875830" d="M51.233,52.965a16.41,16.41,0,0,0-1.756-2.59,18.582,18.582,0,0,0-4.522-3.859c-.044-.025-.1.06-.057.091a18.566,18.566,0,0,1,4.111,4.3,22.332,22.332,0,0,1,1.612,2.61,24.929,24.929,0,0,0,1.324,2.761c.149.217.45-.136.437-.333a7.694,7.694,0,0,0-1.149-2.978" transform="translate(151.522 188.59)" fill="#ffa735"/>
            <path id="Trazado_875831" data-name="Trazado 875831" d="M52.848,74.266c-2.433-1.859-5.557-1.542-8.261-.811-2.8.756-5.679,1.8-8.593,1.708A9.033,9.033,0,0,1,28.379,70.7c-1.629-2.68-2.25-5.99-2.87-9.134-.651-3.32-1.263-6.771-2.953-9.633-.044-.071-.109.066-.083.121,2.944,5.658,2.342,12.807,5.1,18.586,1.324,2.766,3.613,5.255,6.361,5.92,3.076.746,5.85-.675,8.724-1.693a20.886,20.886,0,0,1,4.775-1.2,8.823,8.823,0,0,1,5.225,1.2c.271.146.4-.438.192-.6" transform="translate(76.011 210.401)" fill="#ffa735"/>
            <path id="Trazado_875832" data-name="Trazado 875832" d="M66.515,59.5c-4.159-3.345-9.2-3.053-13.884-1.481s-9.3,3.784-14.272,3.668a11.824,11.824,0,0,1-7.715-3.24c-.039-.035-.074.066-.044.106a11.04,11.04,0,0,0,6.208,3.683,16.065,16.065,0,0,0,6.789-.5c4.775-1.209,9.428-3.24,14.355-3.567A14.733,14.733,0,0,1,66.3,60.008c.227.136.4-.348.214-.5" transform="translate(103.37 230.513)" fill="#ffa735"/>
            <path id="Trazado_875833" data-name="Trazado 875833" d="M40.127,57.576c-.035-.005-.07.071-.026.081s.07-.076.026-.081" transform="translate(135.346 233.272)" fill="#ffa735"/>
            <path id="Trazado_875834" data-name="Trazado 875834" d="M91.46,82.443c-3.338.725-6.972-.126-10.236-.967A47.79,47.79,0,0,1,71,77.808a37.764,37.764,0,0,1-4.679-3.194,49.785,49.785,0,0,1-4.5-3.733c-3.019-2.837-5.6-6.237-8.772-8.872-2.752-2.287-5.893-6.4-9.62-5.93-.052.01-.144.136-.057.166a12.3,12.3,0,0,1,4.775,2.675c1.372,1.239,2.665,2.58,4.1,3.718a41.249,41.249,0,0,1,4.6,4.338c1.442,1.552,2.687,3.285,4.05,4.917a21.85,21.85,0,0,0,4.294,3.96,30.947,30.947,0,0,0,5.068,2.585,64.049,64.049,0,0,0,10.3,3.643c3.491.912,7.309,1.763,10.856.8.223-.06.354-.5.044-.433" transform="translate(146.292 227.077)" fill="#ffa735"/>
            <path id="Trazado_875835" data-name="Trazado 875835" d="M55.188,60.846c-.17-.03-.411.282-.183.322.17.03.415-.282.183-.322" transform="translate(185.308 246.468)" fill="#ffa735"/>
            <path id="Trazado_875836" data-name="Trazado 875836" d="M64.637,50.363a11.381,11.381,0,0,1-1.791,3.809,9.178,9.178,0,0,1-3.106,2.494,6.754,6.754,0,0,1-7.138.055c-.336-.217-.751.595-.467.857,2.307,2.136,5.426,1.859,7.912.242a13.138,13.138,0,0,0,3.246-3.335,9.183,9.183,0,0,0,1.756-4.151c.048-.378-.341-.217-.411.03" transform="translate(175.632 203.117)" fill="#ffa735"/>
            <path id="Trazado_875837" data-name="Trazado 875837" d="M55.529,50.875c-.022-.232-.057-.464-.07-.7a3.192,3.192,0,0,1-.026-.353c0-.045.017-.091.022-.141a.943.943,0,0,0-.009-.222c-.017-.176-.135-.257-.28-.176a.444.444,0,0,0-.192.448,1,1,0,0,0,.057.2c.017.035.044.065.057.1a1.6,1.6,0,0,1,.07.327,5.558,5.558,0,0,1,.092.66c.057.464.1.932.131,1.4.013.237.275.065.266-.111-.031-.479-.07-.952-.118-1.426" transform="translate(185.491 199.678)" fill="#ffa735"/>
            <path id="Trazado_875838" data-name="Trazado 875838" d="M55.23,48.858c-.074-.015-.109.161-.035.176s.109-.161.035-.176" transform="translate(186.122 198.063)" fill="#ffa735"/>
            <path id="Trazado_875839" data-name="Trazado 875839" d="M76.061,45.255c-.489.539-.856,1.194-1.367,1.713a8.333,8.333,0,0,1-6,2.444,19.407,19.407,0,0,1-4.1-.72,10.329,10.329,0,0,1-3.783-1.506c-.131-.1-.384.141-.245.277a9.08,9.08,0,0,0,3.543,2.393,10.793,10.793,0,0,0,4.8.217,12.327,12.327,0,0,0,4.46-1.4c1.118-.64,2.687-1.814,3.058-3.285.074-.287-.232-.277-.363-.136" transform="translate(204.215 183.13)" fill="#ffa735"/>
            <path id="Trazado_875840" data-name="Trazado 875840" d="M64.94,45.439a1.752,1.752,0,0,0-.577-1.345c-.157-.1-.35.222-.245.368a2.319,2.319,0,0,1,.577,1.113,3.541,3.541,0,0,1-.231,1.491c-.022.055-.013.146.052.161s.118-.06.144-.121a3.8,3.8,0,0,0,.28-1.668" transform="translate(216.223 178.75)" fill="#ffa735"/>
            <path id="Trazado_875841" data-name="Trazado 875841" d="M25.647,93.28A42.213,42.213,0,0,1,20.326,84.4a35.483,35.483,0,0,1-2.46-10.177,40.692,40.692,0,0,1,.227-10.832,104.954,104.954,0,0,1,3.049-12.218A56.637,56.637,0,0,0,23.729,38c0-.045-.066-.015-.07.02-.524,8.887-4.622,16.616-6.4,25.146a36.629,36.629,0,0,0-.668,10.963,34.862,34.862,0,0,0,2.656,9.784,32.47,32.47,0,0,0,6.042,9.764c.17.186.515-.186.358-.393" transform="translate(55.703 154.114)" fill="#ffa735"/>
            <path id="Trazado_875842" data-name="Trazado 875842" d="M68.317,131.381c-2.088-3.416-4.635-6.681-5.959-10.626-.747-2.217-1.158-4.58-1.87-6.822a53.143,53.143,0,0,1-1.87-6.776c-.437-2.449-.8-4.988-1.07-7.462a48.187,48.187,0,0,1-.363-7.975c.28-5,1.927-9.814,2.045-14.817.109-4.811-1.485-9.93.14-14.586.026-.076-.074-.06-.1-.01-1.782,3.895-.751,8.646-.594,12.817.192,5.048-1.258,10.006-1.935,14.958a70.561,70.561,0,0,0,.035,16.037,31.639,31.639,0,0,0,1.45,6.721c.73,2.272,1.739,4.393,2.556,6.62a36.681,36.681,0,0,0,2.971,6.409c1.254,2.071,2.7,3.945,4.124,5.859.14.191.572-.126.437-.348" transform="translate(189.98 252.21)" fill="#ffa735"/>
            <path id="Trazado_875843" data-name="Trazado 875843" d="M79.667,116.113a22.815,22.815,0,0,1-4.705-8.429,49.545,49.545,0,0,1-1.713-9.971c-.284-3.265-.332-6.731-1.346-9.835a12.115,12.115,0,0,0-4.443-6.3c-2.516-1.773-5.225-3.114-7.746-4.867-.092-.065-.21.146-.118.217,1.158.937,2.324,1.854,3.456,2.836a36.387,36.387,0,0,1,2.918,2.519,19.005,19.005,0,0,1,4.024,6.8c2.079,6.071,2.311,12.747,4.194,18.888,1.018,3.305,2.543,6.661,5.172,8.59.184.136.454-.282.306-.453" transform="translate(200.981 310.505)" fill="#ffa735"/>
            <path id="Trazado_875844" data-name="Trazado 875844" d="M65.866,86.159c-.3-.312-.594-.625-.891-.942-.074-.076-.266.045-.17.146.3.312.594.625.891.942.074.076.267-.045.17-.146" transform="translate(218.543 344.797)" fill="#ffa735"/>
            <path id="Trazado_875845" data-name="Trazado 875845" d="M86.978,92.422c-4.657-7.109-13.18-5.96-20-5.854-.039,0-.079.091-.022.091,6.859.05,14.749-.383,19.838,5.91.066.076.245-.055.184-.146" transform="translate(225.788 349.819)" fill="#ffa735"/>
            <path id="Trazado_875846" data-name="Trazado 875846" d="M76.368,95.02a12.357,12.357,0,0,0-1.455-3.063c-.585-1.013-1.258-1.97-1.909-2.932-.048-.066-.127.05-.1.111.555,1.058,1.07,2.141,1.625,3.2a26.46,26.46,0,0,0,1.555,2.952c.122.176.319-.111.28-.267" transform="translate(245.909 360.19)" fill="#ffa735"/>
            <path id="Trazado_875847" data-name="Trazado 875847" d="M80.092,92.889c.031-.071-.048-.076-.074-.02-1.027,2.378-1.166,5.053-1.581,7.623a56.562,56.562,0,0,1-2.508,8.525,88.654,88.654,0,0,0-3.678,18.132c-.039.368.341.222.384-.045.507-3.083,1.136-6.131,1.734-9.19s1.214-6.167,2.093-9.149a60.746,60.746,0,0,0,2.119-7.8c.419-2.706.472-5.547,1.512-8.071" transform="translate(243.705 375.641)" fill="#ffa735"/>
            <path id="Trazado_875848" data-name="Trazado 875848" d="M73.955,114.845a24.624,24.624,0,0,0,.179-3.36,18.351,18.351,0,0,0-.494-3.214,46.964,46.964,0,0,1-.485-7.532c-.009-.222-.371-.141-.363.055a41.891,41.891,0,0,1-.009,7.139,31.351,31.351,0,0,0-.45,3.622,28.614,28.614,0,0,0,.149,3.406,76.7,76.7,0,0,1-.489,14.263c-.026.307.45.181.494-.071.8-4.731.957-9.537,1.468-14.309" transform="translate(242.848 407.03)" fill="#ffa735"/>
            <path id="Trazado_875849" data-name="Trazado 875849" d="M72.514,107.586c.013-.1-.083-.121-.1-.025a20.879,20.879,0,0,0-.446,5.844c.017.131.144.025.127-.081a20.455,20.455,0,0,1,.415-5.738" transform="translate(242.467 434.876)" fill="#ffa735"/>
            <path id="Trazado_875850" data-name="Trazado 875850" d="M103.658,103.375a44.064,44.064,0,0,0-23.687,17.231c-.044.071.009.171.066.091a33.621,33.621,0,0,1,11-9.981c4.155-2.368,8.5-4.267,12.625-6.686.188-.116.341-.761,0-.655" transform="translate(269.671 418.172)" fill="#ffa735"/>
            <path id="Trazado_875851" data-name="Trazado 875851" d="M99.651,97.984a47.44,47.44,0,0,0-2.377,6.378q-1.127,3.061-2.5,5.99a35.1,35.1,0,0,1-7.92,10.817c-.066.06,0,.141.065.081a39.041,39.041,0,0,0,8.143-10.484,52.991,52.991,0,0,0,2.713-6c.415-1.063.808-2.141,1.179-3.224A17.919,17.919,0,0,0,100,98.05c.031-.257-.253-.232-.345-.066" transform="translate(292.808 395.939)" fill="#ffa735"/>
            <path id="Trazado_875852" data-name="Trazado 875852" d="M119.19,89.607c-1.389,6.383-4.408,12.732-8.694,17.12-4.124,4.227-9.419,6.58-13.8,10.394a15.5,15.5,0,0,0-3.115,3.784,23.13,23.13,0,0,1-3.089,4.59c-.07.071-.017.2.07.121,2.254-2.106,3.692-5.134,6.037-7.109a83.944,83.944,0,0,1,8.239-5.572c4.53-2.967,9.126-5.95,11.319-11.714,1.42-3.723,3.023-7.623,3.447-11.7.035-.343-.367-.126-.411.086" transform="translate(305.042 361.552)" fill="#ffa735"/>
            <path id="Trazado_875853" data-name="Trazado 875853" d="M99.829,87.472a11.226,11.226,0,0,0-2.18,3.552c-.026.066.07.05.087.005a11.159,11.159,0,0,1,2.154-3.507c.048-.055-.022-.1-.061-.05" transform="translate(329.261 353.918)" fill="#ffa735"/>
            <path id="Trazado_875854" data-name="Trazado 875854" d="M103.108,85.519a29.723,29.723,0,0,1-1.97,3.925c-.747,1.209-1.564,2.358-2.359,3.527-.031.045.009.106.048.055,1.656-2.287,3.526-4.59,4.439-7.426.048-.161-.092-.232-.157-.081" transform="translate(333.042 345.774)" fill="#ffa735"/>
            <path id="Trazado_875855" data-name="Trazado 875855" d="M128.038,101.023c-1.3-2.207-1.621-5.058-1.765-7.663-.07-1.315-.057-2.62-.044-3.94a22.611,22.611,0,0,0-.131-4.036c-.965-5.507-7.034-5.925-10.808-7.24-4.788-1.668-9.6-6.4-9.939-12.49-.306-5.451,1.542-11.014,3.054-16.087a16,16,0,0,0,.686-8.051,11.6,11.6,0,0,0-5.055-7.169c-.363-.242-.8.544-.542.872a17.807,17.807,0,0,1,3.936,7.477,21.861,21.861,0,0,1,.087,7c-.349,2.625-1.258,5.164-1.852,7.724a31.009,31.009,0,0,0-.952,7.855,14.89,14.89,0,0,0,2.211,7.734c1.477,2.257,3.814,3.607,5.972,4.837s4.443,1.6,6.763,2.222a8.182,8.182,0,0,1,3.141,1.491,7.8,7.8,0,0,1,2.171,3.5,13.29,13.29,0,0,1,.834,4.323c.009,1.617-.21,3.184-.332,4.791-.21,2.831-.057,5.733,2.232,7.386.236.166.454-.322.332-.529" transform="translate(348.701 139.288)" fill="#ffa735"/>
            <path id="Trazado_875856" data-name="Trazado 875856" d="M105.646,36.951a7.723,7.723,0,0,1-.952-1.108c-.144-.207-.275-.423-.428-.62s-.3-.4-.437-.6c-.271-.393-.529-.8-.778-1.214-.122-.2-.227-.413-.363-.61a4.773,4.773,0,0,0-.376-.564c-.188-.207-.406.086-.389.322a5,5,0,0,0,1.442,2.811c.166.176.341.363.52.534a3.818,3.818,0,0,0,.555.423c.384.262.765.534,1.153.791.07.045.1-.116.052-.161" transform="translate(343.671 130.638)" fill="#ffa735"/>
          </g>
        </g>
      </g>
    </g>
  </g>
</svg>
