<svg xmlns="http://www.w3.org/2000/svg" width="72" height="72" viewBox="0 0 72 72">
  <g id="img-6" transform="translate(1678.743 5509.827)">
    <g id="Grupo_1103322" data-name="Grupo 1103322" transform="translate(-2383.794 -7504.173)">
      <circle id="Elipse_11595" data-name="Elipse 11595" cx="36" cy="36" r="36" transform="translate(705.051 1994.346)" fill="#00c2ff"/>
      <g id="signo-de-dolar" transform="translate(717.051 2006.013)">
        <path id="Trazado_883136" data-name="Trazado 883136" d="M24,48A24,24,0,1,1,38.11,4.584,1.5,1.5,0,0,1,36.344,7.01a20.969,20.969,0,1,0,6.14,7.014A1.5,1.5,0,0,1,45.123,12.6,24.007,24.007,0,0,1,24,48Z" fill="#0087b2"/>
        <path id="Trazado_883137" data-name="Trazado 883137" d="M41.121,10.9a1.5,1.5,0,0,1-1.143-.527l-.27-.311a1.5,1.5,0,1,1,2.247-1.987l.307.353A1.5,1.5,0,0,1,41.121,10.9Z" fill="#0087b2"/>
        <path id="Trazado_883138" data-name="Trazado 883138" d="M26.192,22.5h-1V15.621h1a3.444,3.444,0,0,1,3.44,3.44,1.5,1.5,0,0,0,3,0,6.447,6.447,0,0,0-6.44-6.44h-1V9.4a1.5,1.5,0,0,0-3,0v3.221h-1a6.44,6.44,0,1,0,0,12.879h1v6.879h-1a3.444,3.444,0,0,1-3.44-3.44,1.5,1.5,0,0,0-3,0,6.447,6.447,0,0,0,6.44,6.44h1V38.6a1.5,1.5,0,0,0,3,0V35.379h1a6.44,6.44,0,1,0,0-12.879Zm-5.007,0a3.44,3.44,0,1,1,0-6.879h1V22.5Zm5.007,9.879h-1V25.5h1a3.44,3.44,0,1,1,0,6.879Z" fill="#0087b2"/>
      </g>
    </g>
  </g>
</svg>
