<svg xmlns="http://www.w3.org/2000/svg" width="72" height="72" viewBox="0 0 72 72">
  <g id="img-5" transform="translate(1993.743 5509.827)">
    <g id="Grupo_1103321" data-name="Grupo 1103321" transform="translate(-2383.794 -7504.173)">
      <circle id="Elipse_11594" data-name="Elipse 11594" cx="36" cy="36" r="36" transform="translate(390.051 1994.346)" fill="#00c2ff"/>
      <g id="portapapeles" transform="translate(360.027 2006.013)">
        <g id="Grupo_1102032" data-name="Grupo 1102032" transform="translate(47.037 0)">
          <g id="Grupo_1102031" data-name="Grupo 1102031" transform="translate(0 0)">
            <path id="Trazado_883129" data-name="Trazado 883129" d="M80.177,6.333H75.8V4.377c0-.633-.69-.921-1.323-.921H71.087A5.147,5.147,0,0,0,65.966,0a5.236,5.236,0,0,0-5.121,3.452H57.508c-.633,0-1.266.288-1.266.921V6.333H51.87a4.891,4.891,0,0,0-4.833,4.66V43.96a4.629,4.629,0,0,0,4.833,4.373H80.177A4.629,4.629,0,0,0,85.01,43.96V10.993A4.891,4.891,0,0,0,80.177,6.333ZM58.544,5.757h3.164A1.266,1.266,0,0,0,62.8,4.722a3.337,3.337,0,0,1,3.164-2.589,3.279,3.279,0,0,1,3.107,2.589,1.266,1.266,0,0,0,1.151,1.036H73.5v4.6H58.544Zm24.165,38.2a2.334,2.334,0,0,1-2.532,2.071H51.87a2.334,2.334,0,0,1-2.532-2.071V10.993A2.589,2.589,0,0,1,51.87,8.634h4.373v2.934a1.208,1.208,0,0,0,1.266,1.093H74.481A1.266,1.266,0,0,0,75.8,11.568V8.634h4.373a2.589,2.589,0,0,1,2.532,2.359V43.96Z" transform="translate(-47.037 0)" fill="#0087b2"/>
            <path id="Trazado_883130" data-name="Trazado 883130" d="M108.173,230.67a1.151,1.151,0,0,0-1.611-.057l-3.682,3.51-1.553-1.611a1.151,1.151,0,0,0-1.611-.057,1.208,1.208,0,0,0,0,1.669l2.359,2.416a1.035,1.035,0,0,0,.805.345,1.15,1.15,0,0,0,.805-.345l4.488-4.258a1.093,1.093,0,0,0,.066-1.544Q108.208,230.7,108.173,230.67Z" transform="translate(-93.616 -204.948)" fill="#0087b2"/>
            <path id="Trazado_883131" data-name="Trazado 883131" d="M212.932,256.034H199.7a1.151,1.151,0,1,0,0,2.3h13.233a1.151,1.151,0,0,0,0-2.3Z" transform="translate(-181.863 -227.838)" fill="#0087b2"/>
            <path id="Trazado_883132" data-name="Trazado 883132" d="M108.173,147.078a1.151,1.151,0,0,0-1.611-.057l-3.682,3.51-1.553-1.611a1.151,1.151,0,0,0-1.611-.057,1.208,1.208,0,0,0,0,1.669l2.359,2.416a1.035,1.035,0,0,0,.805.345,1.15,1.15,0,0,0,.805-.345l4.488-4.258a1.093,1.093,0,0,0,.066-1.545Q108.208,147.11,108.173,147.078Z" transform="translate(-93.616 -130.562)" fill="#0087b2"/>
            <path id="Trazado_883133" data-name="Trazado 883133" d="M212.932,172.442H199.7a1.151,1.151,0,1,0,0,2.3h13.233a1.151,1.151,0,0,0,0-2.3Z" transform="translate(-181.863 -153.452)" fill="#0087b2"/>
            <path id="Trazado_883134" data-name="Trazado 883134" d="M108.173,314.261a1.151,1.151,0,0,0-1.611-.057l-3.682,3.51-1.553-1.611a1.151,1.151,0,0,0-1.611-.057,1.208,1.208,0,0,0,0,1.669l2.359,2.416a1.036,1.036,0,0,0,.805.345,1.151,1.151,0,0,0,.805-.345l4.488-4.258a1.093,1.093,0,0,0,.066-1.545C108.218,314.3,108.2,314.283,108.173,314.261Z" transform="translate(-93.616 -279.334)" fill="#0087b2"/>
            <path id="Trazado_883135" data-name="Trazado 883135" d="M212.932,339.626H199.7a1.151,1.151,0,1,0,0,2.3h13.233a1.151,1.151,0,0,0,0-2.3Z" transform="translate(-181.863 -302.225)" fill="#0087b2"/>
          </g>
        </g>
      </g>
    </g>
  </g>
</svg>
