<svg xmlns="http://www.w3.org/2000/svg" width="37.406" height="37.411" viewBox="0 0 37.406 37.411">
  <path id="Trazado_883344" data-name="Trazado 883344" d="M36.159,13.678l-12.4-12.4a4.392,4.392,0,0,0-6.2,0,4.461,4.461,0,0,0-1.295,3.173c-.352,10.123-.352,10.116-.352,10.154a1.472,1.472,0,0,1-.42,1.138L1.316,29.931a4.383,4.383,0,0,0,6.2,6.2l1.137-1.137a7.318,7.318,0,0,0,9.2-.93l3.848-3.855a7.305,7.305,0,0,0,1.238-8.687l10.053-.349a4.476,4.476,0,0,0,3.173-1.295,4.388,4.388,0,0,0,0-6.2ZM3.382,34.063a1.469,1.469,0,0,1,0-2.066l2.065-2.066a7.225,7.225,0,0,0,1.137,3L5.448,34.063A1.469,1.469,0,0,1,3.382,34.063ZM34.093,17.81a1.7,1.7,0,0,1-1.249.442L22.806,18.6a4.337,4.337,0,0,0-3.177,1.275h0l-7.981,7.988a1.461,1.461,0,0,0,2.067,2.065l6.772-6.778a4.39,4.39,0,0,1-.859,4.99L15.78,32a4.384,4.384,0,1,1-6.172-6.228l7.955-7.958a4.3,4.3,0,0,0,1.275-3.177L19.186,4.6a1.741,1.741,0,0,1,.442-1.249,1.47,1.47,0,0,1,2.066,0l12.4,12.4A1.463,1.463,0,0,1,34.093,17.81Z" transform="translate(-0.034 0)" fill="#e8e8e8"/>
</svg>
